<svg width="348" height="450" viewBox="0 0 348 450" fill="none" xmlns="http://www.w3.org/2000/svg">
<circle cx="184.5" cy="158.5" r="135.5" fill="url(#paint0_linear)"/>
<mask id="mask0" mask-type="alpha" maskUnits="userSpaceOnUse" x="49" y="23" width="271" height="271">
<circle cx="184.5" cy="158.5" r="135.5" fill="white"/>
</mask>
<g mask="url(#mask0)">
<path fill-rule="evenodd" clip-rule="evenodd" d="M213.407 181.987V202.312C213.407 206.226 155.593 204.91 155.593 199.265C155.593 193.954 155.702 169.883 155.593 145.12C142.647 128.339 142.647 117.85 152.883 107.01C163.12 96.17 235.99 90.75 235.99 90.75C235.99 90.75 241.457 143.333 242.313 157.597C242.658 163.333 246.378 181.987 231.925 181.987C223.799 181.987 213.407 181.987 213.407 181.987Z" fill="url(#paint1_linear)"/>
<g style="mix-blend-mode:multiply">
<path d="M213.385 180.25C193.512 177.992 179.983 169.34 179.983 169.34C179.983 169.34 187.21 186.503 213.385 191.161V180.25Z" fill="#FFD7B8"/>
</g>
<path d="M279.35 242.788C285.083 254.445 289.6 273.716 292.9 300.601H76.1C79.4016 273.713 83.9183 254.442 89.65 242.788C95.3628 231.172 148.367 208.815 148.367 208.815C148.367 208.815 149.422 198.595 151.98 197.13C154.538 195.665 213.973 195.665 217.02 197.13C220.067 198.595 220.633 208.809 220.633 208.809C220.633 208.809 273.648 231.196 279.35 242.788Z" fill="url(#paint2_linear)"/>
<path fill-rule="evenodd" clip-rule="evenodd" d="M167.355 118.036C164.482 115.568 160.992 113.907 156.058 116.471C144.36 122.549 152.124 145.975 165.214 145.518C169.728 145.36 167.66 154.362 155.593 160.307C155.593 150.822 141.14 127.335 139.88 105.951C125.332 100.536 128.945 78.8674 138.934 78.8674C137.336 59.0017 169.143 48.745 181.459 60.1414C193.985 45.1316 225.602 52.81 227.511 65.8314C249.251 54.2257 263.542 87.5883 243.185 100.536C234.809 105.863 215.213 107.893 186.928 107.893C173.354 107.893 181.16 139.664 185.403 149.918C190.823 163.017 221.085 164.823 230.57 163.468C237.977 162.41 241.862 159.403 242.313 157.597C249.088 175.663 240.507 186.503 226.957 186.503C203.922 186.503 180.887 179.728 177.273 163.017C174.398 149.717 174.555 128.253 167.355 118.036Z" fill="url(#paint3_linear)"/>
</g>
<rect width="348" height="450" fill="#03658C" fill-opacity="0.16"/>
<path d="M102.705 319L100.275 315.49H100.131H97.5926V319H94.6766V306.4H100.131C101.247 306.4 102.213 306.586 103.029 306.958C103.857 307.33 104.493 307.858 104.937 308.542C105.381 309.226 105.603 310.036 105.603 310.972C105.603 311.908 105.375 312.718 104.919 313.402C104.475 314.074 103.839 314.59 103.011 314.95L105.837 319H102.705ZM102.651 310.972C102.651 310.264 102.423 309.724 101.967 309.352C101.511 308.968 100.845 308.776 99.9686 308.776H97.5926V313.168H99.9686C100.845 313.168 101.511 312.976 101.967 312.592C102.423 312.208 102.651 311.668 102.651 310.972ZM117.471 309.316V319H114.807V317.848C114.435 318.268 113.991 318.592 113.475 318.82C112.959 319.036 112.401 319.144 111.801 319.144C110.529 319.144 109.521 318.778 108.777 318.046C108.033 317.314 107.661 316.228 107.661 314.788V309.316H110.469V314.374C110.469 315.934 111.123 316.714 112.431 316.714C113.103 316.714 113.643 316.498 114.051 316.066C114.459 315.622 114.663 314.968 114.663 314.104V309.316H117.471ZM125.796 309.172C126.696 309.172 127.512 309.382 128.244 309.802C128.988 310.21 129.57 310.792 129.99 311.548C130.41 312.292 130.62 313.162 130.62 314.158C130.62 315.154 130.41 316.03 129.99 316.786C129.57 317.53 128.988 318.112 128.244 318.532C127.512 318.94 126.696 319.144 125.796 319.144C124.464 319.144 123.45 318.724 122.754 317.884V319H120.072V305.644H122.88V310.342C123.588 309.562 124.56 309.172 125.796 309.172ZM125.31 316.84C126.03 316.84 126.618 316.6 127.074 316.12C127.542 315.628 127.776 314.974 127.776 314.158C127.776 313.342 127.542 312.694 127.074 312.214C126.618 311.722 126.03 311.476 125.31 311.476C124.59 311.476 123.996 311.722 123.528 312.214C123.072 312.694 122.844 313.342 122.844 314.158C122.844 314.974 123.072 315.628 123.528 316.12C123.996 316.6 124.59 316.84 125.31 316.84ZM141.986 314.194C141.986 314.23 141.968 314.482 141.932 314.95H134.606C134.738 315.55 135.05 316.024 135.542 316.372C136.034 316.72 136.646 316.894 137.378 316.894C137.882 316.894 138.326 316.822 138.71 316.678C139.106 316.522 139.472 316.282 139.808 315.958L141.302 317.578C140.39 318.622 139.058 319.144 137.306 319.144C136.214 319.144 135.248 318.934 134.408 318.514C133.568 318.082 132.92 317.488 132.464 316.732C132.008 315.976 131.78 315.118 131.78 314.158C131.78 313.21 132.002 312.358 132.446 311.602C132.902 310.834 133.52 310.24 134.3 309.82C135.092 309.388 135.974 309.172 136.946 309.172C137.894 309.172 138.752 309.376 139.52 309.784C140.288 310.192 140.888 310.78 141.32 311.548C141.764 312.304 141.986 313.186 141.986 314.194ZM136.964 311.296C136.328 311.296 135.794 311.476 135.362 311.836C134.93 312.196 134.666 312.688 134.57 313.312H139.34C139.244 312.7 138.98 312.214 138.548 311.854C138.116 311.482 137.588 311.296 136.964 311.296ZM149.742 309.172C150.942 309.172 151.908 309.532 152.64 310.252C153.384 310.972 153.756 312.04 153.756 313.456V319H150.948V313.888C150.948 313.12 150.78 312.55 150.444 312.178C150.108 311.794 149.622 311.602 148.986 311.602C148.278 311.602 147.714 311.824 147.294 312.268C146.874 312.7 146.664 313.348 146.664 314.212V319H143.856V309.316H146.538V310.45C146.91 310.042 147.372 309.73 147.924 309.514C148.476 309.286 149.082 309.172 149.742 309.172ZM159.559 319.144C158.755 319.144 157.969 319.048 157.201 318.856C156.433 318.652 155.821 318.4 155.365 318.1L156.301 316.084C156.733 316.36 157.255 316.588 157.867 316.768C158.479 316.936 159.079 317.02 159.667 317.02C160.855 317.02 161.449 316.726 161.449 316.138C161.449 315.862 161.287 315.664 160.963 315.544C160.639 315.424 160.141 315.322 159.469 315.238C158.677 315.118 158.023 314.98 157.507 314.824C156.991 314.668 156.541 314.392 156.157 313.996C155.785 313.6 155.599 313.036 155.599 312.304C155.599 311.692 155.773 311.152 156.121 310.684C156.481 310.204 156.997 309.832 157.669 309.568C158.353 309.304 159.157 309.172 160.081 309.172C160.765 309.172 161.443 309.25 162.115 309.406C162.799 309.55 163.363 309.754 163.807 310.018L162.871 312.016C162.019 311.536 161.089 311.296 160.081 311.296C159.481 311.296 159.031 311.38 158.731 311.548C158.431 311.716 158.281 311.932 158.281 312.196C158.281 312.496 158.443 312.706 158.767 312.826C159.091 312.946 159.607 313.06 160.315 313.168C161.107 313.3 161.755 313.444 162.259 313.6C162.763 313.744 163.201 314.014 163.573 314.41C163.945 314.806 164.131 315.358 164.131 316.066C164.131 316.666 163.951 317.2 163.591 317.668C163.231 318.136 162.703 318.502 162.007 318.766C161.323 319.018 160.507 319.144 159.559 319.144ZM174.075 308.74V312.07H179.907V314.41H174.075V319H171.159V306.4H180.681V308.74H174.075ZM186.819 319.144C185.799 319.144 184.881 318.934 184.065 318.514C183.261 318.082 182.631 317.488 182.175 316.732C181.719 315.976 181.491 315.118 181.491 314.158C181.491 313.198 181.719 312.34 182.175 311.584C182.631 310.828 183.261 310.24 184.065 309.82C184.881 309.388 185.799 309.172 186.819 309.172C187.839 309.172 188.751 309.388 189.555 309.82C190.359 310.24 190.989 310.828 191.445 311.584C191.901 312.34 192.129 313.198 192.129 314.158C192.129 315.118 191.901 315.976 191.445 316.732C190.989 317.488 190.359 318.082 189.555 318.514C188.751 318.934 187.839 319.144 186.819 319.144ZM186.819 316.84C187.539 316.84 188.127 316.6 188.583 316.12C189.051 315.628 189.285 314.974 189.285 314.158C189.285 313.342 189.051 312.694 188.583 312.214C188.127 311.722 187.539 311.476 186.819 311.476C186.099 311.476 185.505 311.722 185.037 312.214C184.569 312.694 184.335 313.342 184.335 314.158C184.335 314.974 184.569 315.628 185.037 316.12C185.505 316.6 186.099 316.84 186.819 316.84ZM199.892 309.172C201.092 309.172 202.058 309.532 202.79 310.252C203.534 310.972 203.906 312.04 203.906 313.456V319H201.098V313.888C201.098 313.12 200.93 312.55 200.594 312.178C200.258 311.794 199.772 311.602 199.136 311.602C198.428 311.602 197.864 311.824 197.444 312.268C197.024 312.7 196.814 313.348 196.814 314.212V319H194.006V309.316H196.688V310.45C197.06 310.042 197.522 309.73 198.074 309.514C198.626 309.286 199.232 309.172 199.892 309.172ZM209.709 319.144C208.905 319.144 208.119 319.048 207.351 318.856C206.583 318.652 205.971 318.4 205.515 318.1L206.451 316.084C206.883 316.36 207.405 316.588 208.017 316.768C208.629 316.936 209.229 317.02 209.817 317.02C211.005 317.02 211.599 316.726 211.599 316.138C211.599 315.862 211.437 315.664 211.113 315.544C210.789 315.424 210.291 315.322 209.619 315.238C208.827 315.118 208.173 314.98 207.657 314.824C207.141 314.668 206.691 314.392 206.307 313.996C205.935 313.6 205.749 313.036 205.749 312.304C205.749 311.692 205.923 311.152 206.271 310.684C206.631 310.204 207.147 309.832 207.819 309.568C208.503 309.304 209.307 309.172 210.231 309.172C210.915 309.172 211.593 309.25 212.265 309.406C212.949 309.55 213.513 309.754 213.957 310.018L213.021 312.016C212.169 311.536 211.239 311.296 210.231 311.296C209.631 311.296 209.181 311.38 208.881 311.548C208.581 311.716 208.431 311.932 208.431 312.196C208.431 312.496 208.593 312.706 208.917 312.826C209.241 312.946 209.757 313.06 210.465 313.168C211.257 313.3 211.905 313.444 212.409 313.6C212.913 313.744 213.351 314.014 213.723 314.41C214.095 314.806 214.281 315.358 214.281 316.066C214.281 316.666 214.101 317.2 213.741 317.668C213.381 318.136 212.853 318.502 212.157 318.766C211.473 319.018 210.657 319.144 209.709 319.144ZM225.5 314.194C225.5 314.23 225.482 314.482 225.446 314.95H218.12C218.252 315.55 218.564 316.024 219.056 316.372C219.548 316.72 220.16 316.894 220.892 316.894C221.396 316.894 221.84 316.822 222.224 316.678C222.62 316.522 222.986 316.282 223.322 315.958L224.816 317.578C223.904 318.622 222.572 319.144 220.82 319.144C219.728 319.144 218.762 318.934 217.922 318.514C217.082 318.082 216.434 317.488 215.978 316.732C215.522 315.976 215.294 315.118 215.294 314.158C215.294 313.21 215.516 312.358 215.96 311.602C216.416 310.834 217.034 310.24 217.814 309.82C218.606 309.388 219.488 309.172 220.46 309.172C221.408 309.172 222.266 309.376 223.034 309.784C223.802 310.192 224.402 310.78 224.834 311.548C225.278 312.304 225.5 313.186 225.5 314.194ZM220.478 311.296C219.842 311.296 219.308 311.476 218.876 311.836C218.444 312.196 218.18 312.688 218.084 313.312H222.854C222.758 312.7 222.494 312.214 222.062 311.854C221.63 311.482 221.102 311.296 220.478 311.296ZM232.049 319.144C231.017 319.144 230.087 318.934 229.259 318.514C228.443 318.082 227.801 317.488 227.333 316.732C226.877 315.976 226.649 315.118 226.649 314.158C226.649 313.198 226.877 312.34 227.333 311.584C227.801 310.828 228.443 310.24 229.259 309.82C230.087 309.388 231.017 309.172 232.049 309.172C233.069 309.172 233.957 309.388 234.713 309.82C235.481 310.24 236.039 310.846 236.387 311.638L234.209 312.808C233.705 311.92 232.979 311.476 232.031 311.476C231.299 311.476 230.693 311.716 230.213 312.196C229.733 312.676 229.493 313.33 229.493 314.158C229.493 314.986 229.733 315.64 230.213 316.12C230.693 316.6 231.299 316.84 232.031 316.84C232.991 316.84 233.717 316.396 234.209 315.508L236.387 316.696C236.039 317.464 235.481 318.064 234.713 318.496C233.957 318.928 233.069 319.144 232.049 319.144ZM241.91 309.172C243.41 309.172 244.562 309.532 245.366 310.252C246.17 310.96 246.572 312.034 246.572 313.474V319H243.944V317.794C243.416 318.694 242.432 319.144 240.992 319.144C240.248 319.144 239.6 319.018 239.048 318.766C238.508 318.514 238.094 318.166 237.806 317.722C237.518 317.278 237.374 316.774 237.374 316.21C237.374 315.31 237.71 314.602 238.382 314.086C239.066 313.57 240.116 313.312 241.532 313.312H243.764C243.764 312.7 243.578 312.232 243.206 311.908C242.834 311.572 242.276 311.404 241.532 311.404C241.016 311.404 240.506 311.488 240.002 311.656C239.51 311.812 239.09 312.028 238.742 312.304L237.734 310.342C238.262 309.97 238.892 309.682 239.624 309.478C240.368 309.274 241.13 309.172 241.91 309.172ZM241.694 317.254C242.174 317.254 242.6 317.146 242.972 316.93C243.344 316.702 243.608 316.372 243.764 315.94V314.95H241.838C240.686 314.95 240.11 315.328 240.11 316.084C240.11 316.444 240.248 316.732 240.524 316.948C240.812 317.152 241.202 317.254 241.694 317.254Z" fill="black"/>
<path d="M52.0095 356.4C53.1255 356.4 54.0915 356.586 54.9075 356.958C55.7355 357.33 56.3715 357.858 56.8155 358.542C57.2595 359.226 57.4815 360.036 57.4815 360.972C57.4815 361.896 57.2595 362.706 56.8155 363.402C56.3715 364.086 55.7355 364.614 54.9075 364.986C54.0915 365.346 53.1255 365.526 52.0095 365.526H49.4715V369H46.5555V356.4H52.0095ZM51.8475 363.15C52.7235 363.15 53.3895 362.964 53.8455 362.592C54.3015 362.208 54.5295 361.668 54.5295 360.972C54.5295 360.264 54.3015 359.724 53.8455 359.352C53.3895 358.968 52.7235 358.776 51.8475 358.776H49.4715V363.15H51.8475ZM62.0473 360.594C62.3833 360.126 62.8333 359.772 63.3973 359.532C63.9733 359.292 64.6333 359.172 65.3773 359.172V361.764C65.0653 361.74 64.8553 361.728 64.7473 361.728C63.9433 361.728 63.3133 361.956 62.8573 362.412C62.4013 362.856 62.1733 363.528 62.1733 364.428V369H59.3653V359.316H62.0473V360.594ZM71.5671 369.144C70.5471 369.144 69.6291 368.934 68.8131 368.514C68.0091 368.082 67.3791 367.488 66.9231 366.732C66.4671 365.976 66.2391 365.118 66.2391 364.158C66.2391 363.198 66.4671 362.34 66.9231 361.584C67.3791 360.828 68.0091 360.24 68.8131 359.82C69.6291 359.388 70.5471 359.172 71.5671 359.172C72.5871 359.172 73.4991 359.388 74.3031 359.82C75.1071 360.24 75.7371 360.828 76.1931 361.584C76.6491 362.34 76.8771 363.198 76.8771 364.158C76.8771 365.118 76.6491 365.976 76.1931 366.732C75.7371 367.488 75.1071 368.082 74.3031 368.514C73.4991 368.934 72.5871 369.144 71.5671 369.144ZM71.5671 366.84C72.2871 366.84 72.8751 366.6 73.3311 366.12C73.7991 365.628 74.0331 364.974 74.0331 364.158C74.0331 363.342 73.7991 362.694 73.3311 362.214C72.8751 361.722 72.2871 361.476 71.5671 361.476C70.8471 361.476 70.2531 361.722 69.7851 362.214C69.3171 362.694 69.0831 363.342 69.0831 364.158C69.0831 364.974 69.3171 365.628 69.7851 366.12C70.2531 366.6 70.8471 366.84 71.5671 366.84ZM81.832 359.532H84.316V361.692H81.904V369H79.096V361.692H77.602V359.532H79.096V359.1C79.096 357.996 79.42 357.12 80.068 356.472C80.728 355.824 81.652 355.5 82.84 355.5C83.26 355.5 83.656 355.548 84.028 355.644C84.412 355.728 84.73 355.854 84.982 356.022L84.244 358.056C83.92 357.828 83.542 357.714 83.11 357.714C82.258 357.714 81.832 358.182 81.832 359.118V359.532ZM95.0779 364.194C95.0779 364.23 95.0599 364.482 95.0239 364.95H87.6979C87.8299 365.55 88.1419 366.024 88.6339 366.372C89.1259 366.72 89.7379 366.894 90.4699 366.894C90.9739 366.894 91.4179 366.822 91.8019 366.678C92.1979 366.522 92.5639 366.282 92.8999 365.958L94.3939 367.578C93.4819 368.622 92.1499 369.144 90.3979 369.144C89.3059 369.144 88.3399 368.934 87.4999 368.514C86.6599 368.082 86.0119 367.488 85.5559 366.732C85.0999 365.976 84.8719 365.118 84.8719 364.158C84.8719 363.21 85.0939 362.358 85.5379 361.602C85.9939 360.834 86.6119 360.24 87.3919 359.82C88.1839 359.388 89.0659 359.172 90.0379 359.172C90.9859 359.172 91.8439 359.376 92.6119 359.784C93.3799 360.192 93.9799 360.78 94.4119 361.548C94.8559 362.304 95.0779 363.186 95.0779 364.194ZM90.0559 361.296C89.4199 361.296 88.8859 361.476 88.4539 361.836C88.0219 362.196 87.7579 362.688 87.6619 363.312H92.4319C92.3359 362.7 92.0719 362.214 91.6399 361.854C91.2079 361.482 90.6799 361.296 90.0559 361.296ZM100.205 369.144C99.4014 369.144 98.6154 369.048 97.8474 368.856C97.0794 368.652 96.4674 368.4 96.0114 368.1L96.9474 366.084C97.3794 366.36 97.9014 366.588 98.5134 366.768C99.1254 366.936 99.7254 367.02 100.313 367.02C101.501 367.02 102.095 366.726 102.095 366.138C102.095 365.862 101.933 365.664 101.609 365.544C101.285 365.424 100.787 365.322 100.115 365.238C99.3234 365.118 98.6694 364.98 98.1534 364.824C97.6374 364.668 97.1874 364.392 96.8034 363.996C96.4314 363.6 96.2454 363.036 96.2454 362.304C96.2454 361.692 96.4194 361.152 96.7674 360.684C97.1274 360.204 97.6434 359.832 98.3154 359.568C98.9994 359.304 99.8034 359.172 100.727 359.172C101.411 359.172 102.089 359.25 102.761 359.406C103.445 359.55 104.009 359.754 104.453 360.018L103.517 362.016C102.665 361.536 101.735 361.296 100.727 361.296C100.127 361.296 99.6774 361.38 99.3774 361.548C99.0774 361.716 98.9274 361.932 98.9274 362.196C98.9274 362.496 99.0894 362.706 99.4134 362.826C99.7374 362.946 100.253 363.06 100.961 363.168C101.753 363.3 102.401 363.444 102.905 363.6C103.409 363.744 103.847 364.014 104.219 364.41C104.591 364.806 104.777 365.358 104.777 366.066C104.777 366.666 104.597 367.2 104.237 367.668C103.877 368.136 103.349 368.502 102.653 368.766C101.969 369.018 101.153 369.144 100.205 369.144ZM109.768 369.144C108.964 369.144 108.178 369.048 107.41 368.856C106.642 368.652 106.03 368.4 105.574 368.1L106.51 366.084C106.942 366.36 107.464 366.588 108.076 366.768C108.688 366.936 109.288 367.02 109.876 367.02C111.064 367.02 111.658 366.726 111.658 366.138C111.658 365.862 111.496 365.664 111.172 365.544C110.848 365.424 110.35 365.322 109.678 365.238C108.886 365.118 108.232 364.98 107.716 364.824C107.2 364.668 106.75 364.392 106.366 363.996C105.994 363.6 105.808 363.036 105.808 362.304C105.808 361.692 105.982 361.152 106.33 360.684C106.69 360.204 107.206 359.832 107.878 359.568C108.562 359.304 109.366 359.172 110.29 359.172C110.974 359.172 111.652 359.25 112.324 359.406C113.008 359.55 113.572 359.754 114.016 360.018L113.08 362.016C112.228 361.536 111.298 361.296 110.29 361.296C109.69 361.296 109.24 361.38 108.94 361.548C108.64 361.716 108.49 361.932 108.49 362.196C108.49 362.496 108.652 362.706 108.976 362.826C109.3 362.946 109.816 363.06 110.524 363.168C111.316 363.3 111.964 363.444 112.468 363.6C112.972 363.744 113.41 364.014 113.782 364.41C114.154 364.806 114.34 365.358 114.34 366.066C114.34 366.666 114.16 367.2 113.8 367.668C113.44 368.136 112.912 368.502 112.216 368.766C111.532 369.018 110.716 369.144 109.768 369.144ZM120.68 369.144C119.66 369.144 118.742 368.934 117.926 368.514C117.122 368.082 116.492 367.488 116.036 366.732C115.58 365.976 115.352 365.118 115.352 364.158C115.352 363.198 115.58 362.34 116.036 361.584C116.492 360.828 117.122 360.24 117.926 359.82C118.742 359.388 119.66 359.172 120.68 359.172C121.7 359.172 122.612 359.388 123.416 359.82C124.22 360.24 124.85 360.828 125.306 361.584C125.762 362.34 125.99 363.198 125.99 364.158C125.99 365.118 125.762 365.976 125.306 366.732C124.85 367.488 124.22 368.082 123.416 368.514C122.612 368.934 121.7 369.144 120.68 369.144ZM120.68 366.84C121.4 366.84 121.988 366.6 122.444 366.12C122.912 365.628 123.146 364.974 123.146 364.158C123.146 363.342 122.912 362.694 122.444 362.214C121.988 361.722 121.4 361.476 120.68 361.476C119.96 361.476 119.366 361.722 118.898 362.214C118.43 362.694 118.196 363.342 118.196 364.158C118.196 364.974 118.43 365.628 118.898 366.12C119.366 366.6 119.96 366.84 120.68 366.84ZM130.549 360.594C130.885 360.126 131.335 359.772 131.899 359.532C132.475 359.292 133.135 359.172 133.879 359.172V361.764C133.567 361.74 133.357 361.728 133.249 361.728C132.445 361.728 131.815 361.956 131.359 362.412C130.903 362.856 130.675 363.528 130.675 364.428V369H127.867V359.316H130.549V360.594ZM150.581 355.644V369H147.899V367.884C147.203 368.724 146.195 369.144 144.875 369.144C143.963 369.144 143.135 368.94 142.391 368.532C141.659 368.124 141.083 367.542 140.663 366.786C140.243 366.03 140.033 365.154 140.033 364.158C140.033 363.162 140.243 362.286 140.663 361.53C141.083 360.774 141.659 360.192 142.391 359.784C143.135 359.376 143.963 359.172 144.875 359.172C146.111 359.172 147.077 359.562 147.773 360.342V355.644H150.581ZM145.361 366.84C146.069 366.84 146.657 366.6 147.125 366.12C147.593 365.628 147.827 364.974 147.827 364.158C147.827 363.342 147.593 362.694 147.125 362.214C146.657 361.722 146.069 361.476 145.361 361.476C144.641 361.476 144.047 361.722 143.579 362.214C143.111 362.694 142.877 363.342 142.877 364.158C142.877 364.974 143.111 365.628 143.579 366.12C144.047 366.6 144.641 366.84 145.361 366.84ZM162.666 364.194C162.666 364.23 162.648 364.482 162.612 364.95H155.286C155.418 365.55 155.73 366.024 156.222 366.372C156.714 366.72 157.326 366.894 158.058 366.894C158.562 366.894 159.006 366.822 159.39 366.678C159.786 366.522 160.152 366.282 160.488 365.958L161.982 367.578C161.07 368.622 159.738 369.144 157.986 369.144C156.894 369.144 155.928 368.934 155.088 368.514C154.248 368.082 153.6 367.488 153.144 366.732C152.688 365.976 152.46 365.118 152.46 364.158C152.46 363.21 152.682 362.358 153.126 361.602C153.582 360.834 154.2 360.24 154.98 359.82C155.772 359.388 156.654 359.172 157.626 359.172C158.574 359.172 159.432 359.376 160.2 359.784C160.968 360.192 161.568 360.78 162 361.548C162.444 362.304 162.666 363.186 162.666 364.194ZM157.644 361.296C157.008 361.296 156.474 361.476 156.042 361.836C155.61 362.196 155.346 362.688 155.25 363.312H160.02C159.924 362.7 159.66 362.214 159.228 361.854C158.796 361.482 158.268 361.296 157.644 361.296ZM181.297 369L181.279 361.44L177.571 367.668H176.257L172.567 361.602V369H169.831V356.4H172.243L176.959 364.23L181.603 356.4H183.997L184.033 369H181.297ZM190.73 359.172C192.23 359.172 193.382 359.532 194.186 360.252C194.99 360.96 195.392 362.034 195.392 363.474V369H192.764V367.794C192.236 368.694 191.252 369.144 189.812 369.144C189.068 369.144 188.42 369.018 187.868 368.766C187.328 368.514 186.914 368.166 186.626 367.722C186.338 367.278 186.194 366.774 186.194 366.21C186.194 365.31 186.53 364.602 187.202 364.086C187.886 363.57 188.936 363.312 190.352 363.312H192.584C192.584 362.7 192.398 362.232 192.026 361.908C191.654 361.572 191.096 361.404 190.352 361.404C189.836 361.404 189.326 361.488 188.822 361.656C188.33 361.812 187.91 362.028 187.562 362.304L186.554 360.342C187.082 359.97 187.712 359.682 188.444 359.478C189.188 359.274 189.95 359.172 190.73 359.172ZM190.514 367.254C190.994 367.254 191.42 367.146 191.792 366.93C192.164 366.702 192.428 366.372 192.584 365.94V364.95H190.658C189.506 364.95 188.93 365.328 188.93 366.084C188.93 366.444 189.068 366.732 189.344 366.948C189.632 367.152 190.022 367.254 190.514 367.254ZM204.18 368.532C203.904 368.736 203.562 368.892 203.154 369C202.758 369.096 202.338 369.144 201.894 369.144C200.742 369.144 199.848 368.85 199.212 368.262C198.588 367.674 198.276 366.81 198.276 365.67V361.692H196.782V359.532H198.276V357.174H201.084V359.532H203.496V361.692H201.084V365.634C201.084 366.042 201.186 366.36 201.39 366.588C201.606 366.804 201.906 366.912 202.29 366.912C202.734 366.912 203.112 366.792 203.424 366.552L204.18 368.532ZM214.943 364.194C214.943 364.23 214.925 364.482 214.889 364.95H207.563C207.695 365.55 208.007 366.024 208.499 366.372C208.991 366.72 209.603 366.894 210.335 366.894C210.839 366.894 211.283 366.822 211.667 366.678C212.063 366.522 212.429 366.282 212.765 365.958L214.259 367.578C213.347 368.622 212.015 369.144 210.263 369.144C209.171 369.144 208.205 368.934 207.365 368.514C206.525 368.082 205.877 367.488 205.421 366.732C204.965 365.976 204.737 365.118 204.737 364.158C204.737 363.21 204.959 362.358 205.403 361.602C205.859 360.834 206.477 360.24 207.257 359.82C208.049 359.388 208.931 359.172 209.903 359.172C210.851 359.172 211.709 359.376 212.477 359.784C213.245 360.192 213.845 360.78 214.277 361.548C214.721 362.304 214.943 363.186 214.943 364.194ZM209.921 361.296C209.285 361.296 208.751 361.476 208.319 361.836C207.887 362.196 207.623 362.688 207.527 363.312H212.297C212.201 362.7 211.937 362.214 211.505 361.854C211.073 361.482 210.545 361.296 209.921 361.296ZM229.215 359.172C230.427 359.172 231.387 359.532 232.095 360.252C232.815 360.96 233.175 362.028 233.175 363.456V369H230.367V363.888C230.367 363.12 230.205 362.55 229.881 362.178C229.569 361.794 229.119 361.602 228.531 361.602C227.871 361.602 227.349 361.818 226.965 362.25C226.581 362.67 226.389 363.3 226.389 364.14V369H223.581V363.888C223.581 362.364 222.969 361.602 221.745 361.602C221.097 361.602 220.581 361.818 220.197 362.25C219.813 362.67 219.621 363.3 219.621 364.14V369H216.813V359.316H219.495V360.432C219.855 360.024 220.293 359.712 220.809 359.496C221.337 359.28 221.913 359.172 222.537 359.172C223.221 359.172 223.839 359.31 224.391 359.586C224.943 359.85 225.387 360.24 225.723 360.756C226.119 360.252 226.617 359.862 227.217 359.586C227.829 359.31 228.495 359.172 229.215 359.172ZM239.598 359.172C241.098 359.172 242.25 359.532 243.054 360.252C243.858 360.96 244.26 362.034 244.26 363.474V369H241.632V367.794C241.104 368.694 240.12 369.144 238.68 369.144C237.936 369.144 237.288 369.018 236.736 368.766C236.196 368.514 235.782 368.166 235.494 367.722C235.206 367.278 235.062 366.774 235.062 366.21C235.062 365.31 235.398 364.602 236.07 364.086C236.754 363.57 237.804 363.312 239.22 363.312H241.452C241.452 362.7 241.266 362.232 240.894 361.908C240.522 361.572 239.964 361.404 239.22 361.404C238.704 361.404 238.194 361.488 237.69 361.656C237.198 361.812 236.778 362.028 236.43 362.304L235.422 360.342C235.95 359.97 236.58 359.682 237.312 359.478C238.056 359.274 238.818 359.172 239.598 359.172ZM239.382 367.254C239.862 367.254 240.288 367.146 240.66 366.93C241.032 366.702 241.296 366.372 241.452 365.94V364.95H239.526C238.374 364.95 237.798 365.328 237.798 366.084C237.798 366.444 237.936 366.732 238.212 366.948C238.5 367.152 238.89 367.254 239.382 367.254ZM240.678 355.482H243.702L240.444 358.074H238.248L240.678 355.482ZM253.047 368.532C252.771 368.736 252.429 368.892 252.021 369C251.625 369.096 251.205 369.144 250.761 369.144C249.609 369.144 248.715 368.85 248.079 368.262C247.455 367.674 247.143 366.81 247.143 365.67V361.692H245.649V359.532H247.143V357.174H249.951V359.532H252.363V361.692H249.951V365.634C249.951 366.042 250.053 366.36 250.257 366.588C250.473 366.804 250.773 366.912 251.157 366.912C251.601 366.912 251.979 366.792 252.291 366.552L253.047 368.532ZM254.623 359.316H257.431V369H254.623V359.316ZM256.027 357.966C255.511 357.966 255.091 357.816 254.767 357.516C254.443 357.216 254.281 356.844 254.281 356.4C254.281 355.956 254.443 355.584 254.767 355.284C255.091 354.984 255.511 354.834 256.027 354.834C256.543 354.834 256.963 354.978 257.287 355.266C257.611 355.554 257.773 355.914 257.773 356.346C257.773 356.814 257.611 357.204 257.287 357.516C256.963 357.816 256.543 357.966 256.027 357.966ZM264.717 369.144C263.685 369.144 262.755 368.934 261.927 368.514C261.111 368.082 260.469 367.488 260.001 366.732C259.545 365.976 259.317 365.118 259.317 364.158C259.317 363.198 259.545 362.34 260.001 361.584C260.469 360.828 261.111 360.24 261.927 359.82C262.755 359.388 263.685 359.172 264.717 359.172C265.737 359.172 266.625 359.388 267.381 359.82C268.149 360.24 268.707 360.846 269.055 361.638L266.877 362.808C266.373 361.92 265.647 361.476 264.699 361.476C263.967 361.476 263.361 361.716 262.881 362.196C262.401 362.676 262.161 363.33 262.161 364.158C262.161 364.986 262.401 365.64 262.881 366.12C263.361 366.6 263.967 366.84 264.699 366.84C265.659 366.84 266.385 366.396 266.877 365.508L269.055 366.696C268.707 367.464 268.149 368.064 267.381 368.496C266.625 368.928 265.737 369.144 264.717 369.144ZM274.578 359.172C276.078 359.172 277.23 359.532 278.034 360.252C278.838 360.96 279.24 362.034 279.24 363.474V369H276.612V367.794C276.084 368.694 275.1 369.144 273.66 369.144C272.916 369.144 272.268 369.018 271.716 368.766C271.176 368.514 270.762 368.166 270.474 367.722C270.186 367.278 270.042 366.774 270.042 366.21C270.042 365.31 270.378 364.602 271.05 364.086C271.734 363.57 272.784 363.312 274.2 363.312H276.432C276.432 362.7 276.246 362.232 275.874 361.908C275.502 361.572 274.944 361.404 274.2 361.404C273.684 361.404 273.174 361.488 272.67 361.656C272.178 361.812 271.758 362.028 271.41 362.304L270.402 360.342C270.93 359.97 271.56 359.682 272.292 359.478C273.036 359.274 273.798 359.172 274.578 359.172ZM274.362 367.254C274.842 367.254 275.268 367.146 275.64 366.93C276.012 366.702 276.276 366.372 276.432 365.94V364.95H274.506C273.354 364.95 272.778 365.328 272.778 366.084C272.778 366.444 272.916 366.732 273.192 366.948C273.48 367.152 273.87 367.254 274.362 367.254ZM296.365 364.194C296.365 364.23 296.347 364.482 296.311 364.95H288.985C289.117 365.55 289.429 366.024 289.921 366.372C290.413 366.72 291.025 366.894 291.757 366.894C292.261 366.894 292.705 366.822 293.089 366.678C293.485 366.522 293.851 366.282 294.187 365.958L295.681 367.578C294.769 368.622 293.437 369.144 291.685 369.144C290.593 369.144 289.627 368.934 288.787 368.514C287.947 368.082 287.299 367.488 286.843 366.732C286.387 365.976 286.159 365.118 286.159 364.158C286.159 363.21 286.381 362.358 286.825 361.602C287.281 360.834 287.899 360.24 288.679 359.82C289.471 359.388 290.353 359.172 291.325 359.172C292.273 359.172 293.131 359.376 293.899 359.784C294.667 360.192 295.267 360.78 295.699 361.548C296.143 362.304 296.365 363.186 296.365 364.194ZM291.343 361.296C290.707 361.296 290.173 361.476 289.741 361.836C289.309 362.196 289.045 362.688 288.949 363.312H293.719C293.623 362.7 293.359 362.214 292.927 361.854C292.495 361.482 291.967 361.296 291.343 361.296ZM146.327 378.74V382.07H152.159V384.41H146.327V389H143.411V376.4H152.933V378.74H146.327ZM154.533 379.316H157.341V389H154.533V379.316ZM155.937 377.966C155.421 377.966 155.001 377.816 154.677 377.516C154.353 377.216 154.191 376.844 154.191 376.4C154.191 375.956 154.353 375.584 154.677 375.284C155.001 374.984 155.421 374.834 155.937 374.834C156.453 374.834 156.873 374.978 157.197 375.266C157.521 375.554 157.683 375.914 157.683 376.346C157.683 376.814 157.521 377.204 157.197 377.516C156.873 377.816 156.453 377.966 155.937 377.966ZM163.205 389.144C162.401 389.144 161.615 389.048 160.847 388.856C160.079 388.652 159.467 388.4 159.011 388.1L159.947 386.084C160.379 386.36 160.901 386.588 161.513 386.768C162.125 386.936 162.725 387.02 163.313 387.02C164.501 387.02 165.095 386.726 165.095 386.138C165.095 385.862 164.933 385.664 164.609 385.544C164.285 385.424 163.787 385.322 163.115 385.238C162.323 385.118 161.669 384.98 161.153 384.824C160.637 384.668 160.187 384.392 159.803 383.996C159.431 383.6 159.245 383.036 159.245 382.304C159.245 381.692 159.419 381.152 159.767 380.684C160.127 380.204 160.643 379.832 161.315 379.568C161.999 379.304 162.803 379.172 163.727 379.172C164.411 379.172 165.089 379.25 165.761 379.406C166.445 379.55 167.009 379.754 167.453 380.018L166.517 382.016C165.665 381.536 164.735 381.296 163.727 381.296C163.127 381.296 162.677 381.38 162.377 381.548C162.077 381.716 161.927 381.932 161.927 382.196C161.927 382.496 162.089 382.706 162.413 382.826C162.737 382.946 163.253 383.06 163.961 383.168C164.753 383.3 165.401 383.444 165.905 383.6C166.409 383.744 166.847 384.014 167.219 384.41C167.591 384.806 167.777 385.358 167.777 386.066C167.777 386.666 167.597 387.2 167.237 387.668C166.877 388.136 166.349 388.502 165.653 388.766C164.969 389.018 164.153 389.144 163.205 389.144ZM169.51 379.316H172.318V389H169.51V379.316ZM170.914 377.966C170.398 377.966 169.978 377.816 169.654 377.516C169.33 377.216 169.168 376.844 169.168 376.4C169.168 375.956 169.33 375.584 169.654 375.284C169.978 374.984 170.398 374.834 170.914 374.834C171.43 374.834 171.85 374.978 172.174 375.266C172.498 375.554 172.66 375.914 172.66 376.346C172.66 376.814 172.498 377.204 172.174 377.516C171.85 377.816 171.43 377.966 170.914 377.966ZM179.604 389.144C178.572 389.144 177.642 388.934 176.814 388.514C175.998 388.082 175.356 387.488 174.888 386.732C174.432 385.976 174.204 385.118 174.204 384.158C174.204 383.198 174.432 382.34 174.888 381.584C175.356 380.828 175.998 380.24 176.814 379.82C177.642 379.388 178.572 379.172 179.604 379.172C180.624 379.172 181.512 379.388 182.268 379.82C183.036 380.24 183.594 380.846 183.942 381.638L181.764 382.808C181.26 381.92 180.534 381.476 179.586 381.476C178.854 381.476 178.248 381.716 177.768 382.196C177.288 382.676 177.048 383.33 177.048 384.158C177.048 384.986 177.288 385.64 177.768 386.12C178.248 386.6 178.854 386.84 179.586 386.84C180.546 386.84 181.272 386.396 181.764 385.508L183.942 386.696C183.594 387.464 183.036 388.064 182.268 388.496C181.512 388.928 180.624 389.144 179.604 389.144ZM189.465 379.172C190.965 379.172 192.117 379.532 192.921 380.252C193.725 380.96 194.127 382.034 194.127 383.474V389H191.499V387.794C190.971 388.694 189.987 389.144 188.547 389.144C187.803 389.144 187.155 389.018 186.603 388.766C186.063 388.514 185.649 388.166 185.361 387.722C185.073 387.278 184.929 386.774 184.929 386.21C184.929 385.31 185.265 384.602 185.937 384.086C186.621 383.57 187.671 383.312 189.087 383.312H191.319C191.319 382.7 191.133 382.232 190.761 381.908C190.389 381.572 189.831 381.404 189.087 381.404C188.571 381.404 188.061 381.488 187.557 381.656C187.065 381.812 186.645 382.028 186.297 382.304L185.289 380.342C185.817 379.97 186.447 379.682 187.179 379.478C187.923 379.274 188.685 379.172 189.465 379.172ZM189.249 387.254C189.729 387.254 190.155 387.146 190.527 386.93C190.899 386.702 191.163 386.372 191.319 385.94V384.95H189.393C188.241 384.95 187.665 385.328 187.665 386.084C187.665 386.444 187.803 386.732 188.079 386.948C188.367 387.152 188.757 387.254 189.249 387.254ZM197.73 389.144C197.238 389.144 196.824 388.976 196.488 388.64C196.152 388.304 195.984 387.884 195.984 387.38C195.984 386.864 196.152 386.45 196.488 386.138C196.824 385.814 197.238 385.652 197.73 385.652C198.222 385.652 198.636 385.814 198.972 386.138C199.308 386.45 199.476 386.864 199.476 387.38C199.476 387.884 199.308 388.304 198.972 388.64C198.636 388.976 198.222 389.144 197.73 389.144Z" fill="black"/>
<rect x="33" y="400" width="140" height="32" rx="16" fill="#03658C" fill-opacity="0.6"/>
<path d="M51.4345 420L50.0845 418.05H50.0045H48.5945V420H46.9745V413H50.0045C50.6245 413 51.1612 413.103 51.6145 413.31C52.0745 413.517 52.4279 413.81 52.6745 414.19C52.9212 414.57 53.0445 415.02 53.0445 415.54C53.0445 416.06 52.9179 416.51 52.6645 416.89C52.4179 417.263 52.0645 417.55 51.6045 417.75L53.1745 420H51.4345ZM51.4045 415.54C51.4045 415.147 51.2779 414.847 51.0245 414.64C50.7712 414.427 50.4012 414.32 49.9145 414.32H48.5945V416.76H49.9145C50.4012 416.76 50.7712 416.653 51.0245 416.44C51.2779 416.227 51.4045 415.927 51.4045 415.54ZM59.598 417.95C59.598 418.497 59.398 418.967 58.998 419.36C58.598 419.747 58.0214 419.987 57.268 420.08V421.2H56.268V420.11C55.7747 420.083 55.3047 419.997 54.858 419.85C54.4114 419.703 54.0514 419.523 53.778 419.31L54.328 418.09C54.5814 418.277 54.878 418.433 55.218 418.56C55.558 418.687 55.908 418.767 56.268 418.8V417.13C55.7947 417.017 55.3947 416.89 55.068 416.75C54.7414 416.61 54.468 416.407 54.248 416.14C54.028 415.867 53.918 415.507 53.918 415.06C53.918 414.507 54.118 414.033 54.518 413.64C54.9247 413.24 55.508 412.997 56.268 412.91V411.8H57.268V412.89C58.088 412.957 58.7647 413.16 59.298 413.5L58.798 414.73C58.298 414.443 57.788 414.27 57.268 414.21V415.91C57.7347 416.017 58.128 416.14 58.448 416.28C58.7747 416.413 59.048 416.617 59.268 416.89C59.488 417.157 59.598 417.51 59.598 417.95ZM55.528 414.98C55.528 415.147 55.5914 415.283 55.718 415.39C55.8447 415.497 56.028 415.587 56.268 415.66V414.24C56.0147 414.3 55.828 414.397 55.708 414.53C55.588 414.657 55.528 414.807 55.528 414.98ZM57.268 418.76C57.508 418.707 57.688 418.62 57.808 418.5C57.928 418.38 57.988 418.237 57.988 418.07C57.988 417.903 57.9247 417.767 57.798 417.66C57.678 417.553 57.5014 417.46 57.268 417.38V418.76ZM65.497 415.63C66.4837 415.63 67.2104 415.827 67.677 416.22C68.1504 416.613 68.387 417.14 68.387 417.8C68.387 418.227 68.2804 418.617 68.067 418.97C67.8537 419.317 67.527 419.597 67.087 419.81C66.6537 420.017 66.117 420.12 65.477 420.12C64.9837 420.12 64.497 420.057 64.017 419.93C63.5437 419.797 63.1404 419.61 62.807 419.37L63.447 418.13C63.7137 418.33 64.0204 418.487 64.367 418.6C64.7137 418.707 65.0704 418.76 65.437 418.76C65.8437 418.76 66.1637 418.68 66.397 418.52C66.6304 418.36 66.747 418.137 66.747 417.85C66.747 417.55 66.6237 417.323 66.377 417.17C66.137 417.017 65.717 416.94 65.117 416.94H63.327L63.687 413H67.957V414.3H65.037L64.927 415.63H65.497ZM72.0443 420.12C71.4643 420.12 70.9476 419.977 70.4943 419.69C70.041 419.403 69.6843 418.99 69.4243 418.45C69.171 417.903 69.0443 417.253 69.0443 416.5C69.0443 415.747 69.171 415.1 69.4243 414.56C69.6843 414.013 70.041 413.597 70.4943 413.31C70.9476 413.023 71.4643 412.88 72.0443 412.88C72.6243 412.88 73.141 413.023 73.5943 413.31C74.0476 413.597 74.401 414.013 74.6543 414.56C74.9143 415.1 75.0443 415.747 75.0443 416.5C75.0443 417.253 74.9143 417.903 74.6543 418.45C74.401 418.99 74.0476 419.403 73.5943 419.69C73.141 419.977 72.6243 420.12 72.0443 420.12ZM72.0443 418.75C72.471 418.75 72.8043 418.567 73.0443 418.2C73.291 417.833 73.4143 417.267 73.4143 416.5C73.4143 415.733 73.291 415.167 73.0443 414.8C72.8043 414.433 72.471 414.25 72.0443 414.25C71.6243 414.25 71.291 414.433 71.0443 414.8C70.8043 415.167 70.6843 415.733 70.6843 416.5C70.6843 417.267 70.8043 417.833 71.0443 418.2C71.291 418.567 71.6243 418.75 72.0443 418.75ZM78.2161 411.58H79.6061L76.3061 421H74.9161L78.2161 411.58ZM86.4121 413V420H84.7921V417.13H81.6121V420H79.9921V413H81.6121V415.76H84.7921V413H86.4121ZM90.5903 416.56H93.4203V417.81H90.5903V416.56ZM99.8498 413V420H98.2298V414.3H96.8298V413H99.8498ZM102.586 412.5C103.139 412.5 103.559 412.62 103.846 412.86C104.139 413.1 104.286 413.46 104.286 413.94V415.76H103.286V415.37C103.199 415.51 103.066 415.62 102.886 415.7C102.706 415.773 102.489 415.81 102.236 415.81C101.829 415.81 101.512 415.72 101.286 415.54C101.066 415.353 100.956 415.117 100.956 414.83C100.956 414.53 101.076 414.297 101.316 414.13C101.556 413.957 101.926 413.87 102.426 413.87H103.206C103.199 413.477 102.942 413.28 102.436 413.28C102.262 413.28 102.086 413.31 101.906 413.37C101.726 413.423 101.572 413.497 101.446 413.59L101.076 412.91C101.262 412.783 101.492 412.683 101.766 412.61C102.039 412.537 102.312 412.5 102.586 412.5ZM102.516 415.14C102.856 415.14 103.086 415.017 103.206 414.77V414.44H102.586C102.179 414.44 101.976 414.557 101.976 414.79C101.976 414.903 102.022 414.99 102.116 415.05C102.216 415.11 102.349 415.14 102.516 415.14ZM113.069 418.5H109.819L109.199 420H107.539L110.659 413H112.259L115.389 420H113.689L113.069 418.5ZM112.559 417.27L111.449 414.59L110.339 417.27H112.559ZM121.328 414.62V420H119.848V419.36C119.641 419.593 119.394 419.773 119.108 419.9C118.821 420.02 118.511 420.08 118.178 420.08C117.471 420.08 116.911 419.877 116.498 419.47C116.084 419.063 115.878 418.46 115.878 417.66V414.62H117.438V417.43C117.438 418.297 117.801 418.73 118.528 418.73C118.901 418.73 119.201 418.61 119.428 418.37C119.654 418.123 119.768 417.76 119.768 417.28V414.62H121.328ZM122.773 412.58H124.333V420H122.773V412.58ZM127.951 414.54C128.784 414.54 129.424 414.74 129.871 415.14C130.317 415.533 130.541 416.13 130.541 416.93V420H129.081V419.33C128.787 419.83 128.241 420.08 127.441 420.08C127.027 420.08 126.667 420.01 126.361 419.87C126.061 419.73 125.831 419.537 125.671 419.29C125.511 419.043 125.431 418.763 125.431 418.45C125.431 417.95 125.617 417.557 125.991 417.27C126.371 416.983 126.954 416.84 127.741 416.84H128.981C128.981 416.5 128.877 416.24 128.671 416.06C128.464 415.873 128.154 415.78 127.741 415.78C127.454 415.78 127.171 415.827 126.891 415.92C126.617 416.007 126.384 416.127 126.191 416.28L125.631 415.19C125.924 414.983 126.274 414.823 126.681 414.71C127.094 414.597 127.517 414.54 127.951 414.54ZM127.831 419.03C128.097 419.03 128.334 418.97 128.541 418.85C128.747 418.723 128.894 418.54 128.981 418.3V417.75H127.911C127.271 417.75 126.951 417.96 126.951 418.38C126.951 418.58 127.027 418.74 127.181 418.86C127.341 418.973 127.557 419.03 127.831 419.03ZM139.624 416.39H141.104V419.23C140.724 419.517 140.284 419.737 139.784 419.89C139.284 420.043 138.781 420.12 138.274 420.12C137.548 420.12 136.894 419.967 136.314 419.66C135.734 419.347 135.278 418.917 134.944 418.37C134.618 417.817 134.454 417.193 134.454 416.5C134.454 415.807 134.618 415.187 134.944 414.64C135.278 414.087 135.738 413.657 136.324 413.35C136.911 413.037 137.571 412.88 138.304 412.88C138.918 412.88 139.474 412.983 139.974 413.19C140.474 413.397 140.894 413.697 141.234 414.09L140.194 415.05C139.694 414.523 139.091 414.26 138.384 414.26C137.938 414.26 137.541 414.353 137.194 414.54C136.848 414.727 136.578 414.99 136.384 415.33C136.191 415.67 136.094 416.06 136.094 416.5C136.094 416.933 136.191 417.32 136.384 417.66C136.578 418 136.844 418.267 137.184 418.46C137.531 418.647 137.924 418.74 138.364 418.74C138.831 418.74 139.251 418.64 139.624 418.44V416.39ZM143.989 415.33C144.176 415.07 144.426 414.873 144.739 414.74C145.059 414.607 145.426 414.54 145.839 414.54V415.98C145.666 415.967 145.549 415.96 145.489 415.96C145.043 415.96 144.693 416.087 144.439 416.34C144.186 416.587 144.059 416.96 144.059 417.46V420H142.499V414.62H143.989V415.33ZM148.908 414.54C149.741 414.54 150.381 414.74 150.828 415.14C151.274 415.533 151.498 416.13 151.498 416.93V420H150.038V419.33C149.744 419.83 149.198 420.08 148.398 420.08C147.984 420.08 147.624 420.01 147.318 419.87C147.018 419.73 146.788 419.537 146.628 419.29C146.468 419.043 146.388 418.763 146.388 418.45C146.388 417.95 146.574 417.557 146.948 417.27C147.328 416.983 147.911 416.84 148.698 416.84H149.938C149.938 416.5 149.834 416.24 149.628 416.06C149.421 415.873 149.111 415.78 148.698 415.78C148.411 415.78 148.128 415.827 147.848 415.92C147.574 416.007 147.341 416.127 147.148 416.28L146.588 415.19C146.881 414.983 147.231 414.823 147.638 414.71C148.051 414.597 148.474 414.54 148.908 414.54ZM148.788 419.03C149.054 419.03 149.291 418.97 149.498 418.85C149.704 418.723 149.851 418.54 149.938 418.3V417.75H148.868C148.228 417.75 147.908 417.96 147.908 418.38C147.908 418.58 147.984 418.74 148.138 418.86C148.298 418.973 148.514 419.03 148.788 419.03ZM149.508 412.49H151.188L149.378 413.93H148.158L149.508 412.49ZM156.379 419.74C156.226 419.853 156.036 419.94 155.809 420C155.589 420.053 155.356 420.08 155.109 420.08C154.469 420.08 153.973 419.917 153.619 419.59C153.273 419.263 153.099 418.783 153.099 418.15V415.94H152.269V414.74H153.099V413.43H154.659V414.74H155.999V415.94H154.659V418.13C154.659 418.357 154.716 418.533 154.829 418.66C154.949 418.78 155.116 418.84 155.329 418.84C155.576 418.84 155.786 418.773 155.959 418.64L156.379 419.74ZM157.255 414.62H158.815V420H157.255V414.62ZM158.035 413.87C157.748 413.87 157.515 413.787 157.335 413.62C157.155 413.453 157.065 413.247 157.065 413C157.065 412.753 157.155 412.547 157.335 412.38C157.515 412.213 157.748 412.13 158.035 412.13C158.322 412.13 158.555 412.21 158.735 412.37C158.915 412.53 159.005 412.73 159.005 412.97C159.005 413.23 158.915 413.447 158.735 413.62C158.555 413.787 158.322 413.87 158.035 413.87ZM162.073 420.08C161.626 420.08 161.19 420.027 160.763 419.92C160.336 419.807 159.996 419.667 159.743 419.5L160.263 418.38C160.503 418.533 160.793 418.66 161.133 418.76C161.473 418.853 161.806 418.9 162.133 418.9C162.793 418.9 163.123 418.737 163.123 418.41C163.123 418.257 163.033 418.147 162.853 418.08C162.673 418.013 162.396 417.957 162.023 417.91C161.583 417.843 161.22 417.767 160.933 417.68C160.646 417.593 160.396 417.44 160.183 417.22C159.976 417 159.873 416.687 159.873 416.28C159.873 415.94 159.97 415.64 160.163 415.38C160.363 415.113 160.65 414.907 161.023 414.76C161.403 414.613 161.85 414.54 162.363 414.54C162.743 414.54 163.12 414.583 163.493 414.67C163.873 414.75 164.186 414.863 164.433 415.01L163.913 416.12C163.44 415.853 162.923 415.72 162.363 415.72C162.03 415.72 161.78 415.767 161.613 415.86C161.446 415.953 161.363 416.073 161.363 416.22C161.363 416.387 161.453 416.503 161.633 416.57C161.813 416.637 162.1 416.7 162.493 416.76C162.933 416.833 163.293 416.913 163.573 417C163.853 417.08 164.096 417.23 164.303 417.45C164.51 417.67 164.613 417.977 164.613 418.37C164.613 418.703 164.513 419 164.313 419.26C164.113 419.52 163.82 419.723 163.433 419.87C163.053 420.01 162.6 420.08 162.073 420.08Z" fill="black"/>
<path d="M188 416C188 407.163 195.163 400 204 400H312C320.837 400 328 407.163 328 416C328 424.837 320.837 432 312 432H204C195.163 432 188 424.837 188 416Z" fill="#03658C" fill-opacity="0.6"/>
<path d="M214.063 415.63C215.05 415.63 215.777 415.827 216.243 416.22C216.717 416.613 216.953 417.14 216.953 417.8C216.953 418.227 216.847 418.617 216.633 418.97C216.42 419.317 216.093 419.597 215.653 419.81C215.22 420.017 214.683 420.12 214.043 420.12C213.55 420.12 213.063 420.057 212.583 419.93C212.11 419.797 211.707 419.61 211.373 419.37L212.013 418.13C212.28 418.33 212.587 418.487 212.933 418.6C213.28 418.707 213.637 418.76 214.003 418.76C214.41 418.76 214.73 418.68 214.963 418.52C215.197 418.36 215.313 418.137 215.313 417.85C215.313 417.55 215.19 417.323 214.943 417.17C214.703 417.017 214.283 416.94 213.683 416.94H211.893L212.253 413H216.523V414.3H213.603L213.493 415.63H214.063ZM218.531 420.08C218.257 420.08 218.027 419.987 217.841 419.8C217.654 419.613 217.561 419.38 217.561 419.1C217.561 418.813 217.654 418.583 217.841 418.41C218.027 418.23 218.257 418.14 218.531 418.14C218.804 418.14 219.034 418.23 219.221 418.41C219.407 418.583 219.501 418.813 219.501 419.1C219.501 419.38 219.407 419.613 219.221 419.8C219.034 419.987 218.804 420.08 218.531 420.08ZM223.101 420.12C222.521 420.12 222.004 419.977 221.551 419.69C221.098 419.403 220.741 418.99 220.481 418.45C220.228 417.903 220.101 417.253 220.101 416.5C220.101 415.747 220.228 415.1 220.481 414.56C220.741 414.013 221.098 413.597 221.551 413.31C222.004 413.023 222.521 412.88 223.101 412.88C223.681 412.88 224.198 413.023 224.651 413.31C225.104 413.597 225.458 414.013 225.711 414.56C225.971 415.1 226.101 415.747 226.101 416.5C226.101 417.253 225.971 417.903 225.711 418.45C225.458 418.99 225.104 419.403 224.651 419.69C224.198 419.977 223.681 420.12 223.101 420.12ZM223.101 418.75C223.528 418.75 223.861 418.567 224.101 418.2C224.348 417.833 224.471 417.267 224.471 416.5C224.471 415.733 224.348 415.167 224.101 414.8C223.861 414.433 223.528 414.25 223.101 414.25C222.681 414.25 222.348 414.433 222.101 414.8C221.861 415.167 221.741 415.733 221.741 416.5C221.741 417.267 221.861 417.833 222.101 418.2C222.348 418.567 222.681 418.75 223.101 418.75ZM231.31 421.94C230.91 421.333 230.6 420.63 230.38 419.83C230.167 419.03 230.06 418.173 230.06 417.26C230.06 416.347 230.167 415.49 230.38 414.69C230.6 413.883 230.91 413.18 231.31 412.58H232.8C232.38 413.32 232.073 414.073 231.88 414.84C231.687 415.6 231.59 416.407 231.59 417.26C231.59 418.113 231.687 418.923 231.88 419.69C232.073 420.45 232.38 421.2 232.8 421.94H231.31ZM236.092 413V420H234.472V414.3H233.072V413H236.092ZM240.308 420.12C239.728 420.12 239.211 419.977 238.758 419.69C238.305 419.403 237.948 418.99 237.688 418.45C237.435 417.903 237.308 417.253 237.308 416.5C237.308 415.747 237.435 415.1 237.688 414.56C237.948 414.013 238.305 413.597 238.758 413.31C239.211 413.023 239.728 412.88 240.308 412.88C240.888 412.88 241.405 413.023 241.858 413.31C242.311 413.597 242.665 414.013 242.918 414.56C243.178 415.1 243.308 415.747 243.308 416.5C243.308 417.253 243.178 417.903 242.918 418.45C242.665 418.99 242.311 419.403 241.858 419.69C241.405 419.977 240.888 420.12 240.308 420.12ZM240.308 418.75C240.735 418.75 241.068 418.567 241.308 418.2C241.555 417.833 241.678 417.267 241.678 416.5C241.678 415.733 241.555 415.167 241.308 414.8C241.068 414.433 240.735 414.25 240.308 414.25C239.888 414.25 239.555 414.433 239.308 414.8C239.068 415.167 238.948 415.733 238.948 416.5C238.948 417.267 239.068 417.833 239.308 418.2C239.555 418.567 239.888 418.75 240.308 418.75ZM251.977 418.5H248.727L248.107 420H246.447L249.567 413H251.167L254.297 420H252.597L251.977 418.5ZM251.467 417.27L250.357 414.59L249.247 417.27H251.467ZM259.97 414.62L257.7 420H256.09L253.83 414.62H255.44L256.93 418.28L258.47 414.62H259.97ZM262.601 414.54C263.434 414.54 264.074 414.74 264.521 415.14C264.968 415.533 265.191 416.13 265.191 416.93V420H263.731V419.33C263.438 419.83 262.891 420.08 262.091 420.08C261.678 420.08 261.318 420.01 261.011 419.87C260.711 419.73 260.481 419.537 260.321 419.29C260.161 419.043 260.081 418.763 260.081 418.45C260.081 417.95 260.268 417.557 260.641 417.27C261.021 416.983 261.604 416.84 262.391 416.84H263.631C263.631 416.5 263.528 416.24 263.321 416.06C263.114 415.873 262.804 415.78 262.391 415.78C262.104 415.78 261.821 415.827 261.541 415.92C261.268 416.007 261.034 416.127 260.841 416.28L260.281 415.19C260.574 414.983 260.924 414.823 261.331 414.71C261.744 414.597 262.168 414.54 262.601 414.54ZM262.481 419.03C262.748 419.03 262.984 418.97 263.191 418.85C263.398 418.723 263.544 418.54 263.631 418.3V417.75H262.561C261.921 417.75 261.601 417.96 261.601 418.38C261.601 418.58 261.678 418.74 261.831 418.86C261.991 418.973 262.208 419.03 262.481 419.03ZM266.603 412.58H268.163V420H266.603V412.58ZM269.611 414.62H271.171V420H269.611V414.62ZM270.391 413.87C270.104 413.87 269.871 413.787 269.691 413.62C269.511 413.453 269.421 413.247 269.421 413C269.421 412.753 269.511 412.547 269.691 412.38C269.871 412.213 270.104 412.13 270.391 412.13C270.677 412.13 270.911 412.21 271.091 412.37C271.271 412.53 271.361 412.73 271.361 412.97C271.361 413.23 271.271 413.447 271.091 413.62C270.911 413.787 270.677 413.87 270.391 413.87ZM274.788 414.54C275.622 414.54 276.262 414.74 276.708 415.14C277.155 415.533 277.378 416.13 277.378 416.93V420H275.918V419.33C275.625 419.83 275.078 420.08 274.278 420.08C273.865 420.08 273.505 420.01 273.198 419.87C272.898 419.73 272.668 419.537 272.508 419.29C272.348 419.043 272.268 418.763 272.268 418.45C272.268 417.95 272.455 417.557 272.828 417.27C273.208 416.983 273.792 416.84 274.578 416.84H275.818C275.818 416.5 275.715 416.24 275.508 416.06C275.302 415.873 274.992 415.78 274.578 415.78C274.292 415.78 274.008 415.827 273.728 415.92C273.455 416.007 273.222 416.127 273.028 416.28L272.468 415.19C272.762 414.983 273.112 414.823 273.518 414.71C273.932 414.597 274.355 414.54 274.788 414.54ZM274.668 419.03C274.935 419.03 275.172 418.97 275.378 418.85C275.585 418.723 275.732 418.54 275.818 418.3V417.75H274.748C274.108 417.75 273.788 417.96 273.788 418.38C273.788 418.58 273.865 418.74 274.018 418.86C274.178 418.973 274.395 419.03 274.668 419.03ZM281.449 420.08C280.876 420.08 280.359 419.963 279.899 419.73C279.446 419.49 279.089 419.16 278.829 418.74C278.576 418.32 278.449 417.843 278.449 417.31C278.449 416.777 278.576 416.3 278.829 415.88C279.089 415.46 279.446 415.133 279.899 414.9C280.359 414.66 280.876 414.54 281.449 414.54C282.016 414.54 282.509 414.66 282.929 414.9C283.356 415.133 283.666 415.47 283.859 415.91L282.649 416.56C282.369 416.067 281.966 415.82 281.439 415.82C281.032 415.82 280.696 415.953 280.429 416.22C280.162 416.487 280.029 416.85 280.029 417.31C280.029 417.77 280.162 418.133 280.429 418.4C280.696 418.667 281.032 418.8 281.439 418.8C281.972 418.8 282.376 418.553 282.649 418.06L283.859 418.72C283.666 419.147 283.356 419.48 282.929 419.72C282.509 419.96 282.016 420.08 281.449 420.08ZM280.879 422.32C280.706 422.32 280.536 422.3 280.369 422.26C280.202 422.227 280.062 422.177 279.949 422.11L280.189 421.44C280.402 421.54 280.619 421.59 280.839 421.59C281.186 421.59 281.359 421.483 281.359 421.27C281.359 421.077 281.196 420.98 280.869 420.98H280.529L280.789 419.92H281.619L281.479 420.5C281.772 420.533 281.989 420.623 282.129 420.77C282.276 420.923 282.349 421.11 282.349 421.33C282.349 421.637 282.216 421.877 281.949 422.05C281.682 422.23 281.326 422.32 280.879 422.32ZM287.249 420.08C286.682 420.08 286.172 419.963 285.719 419.73C285.272 419.49 284.922 419.16 284.669 418.74C284.415 418.32 284.289 417.843 284.289 417.31C284.289 416.777 284.415 416.3 284.669 415.88C284.922 415.46 285.272 415.133 285.719 414.9C286.172 414.66 286.682 414.54 287.249 414.54C287.815 414.54 288.322 414.66 288.769 414.9C289.215 415.133 289.565 415.46 289.819 415.88C290.072 416.3 290.199 416.777 290.199 417.31C290.199 417.843 290.072 418.32 289.819 418.74C289.565 419.16 289.215 419.49 288.769 419.73C288.322 419.963 287.815 420.08 287.249 420.08ZM287.249 418.8C287.649 418.8 287.975 418.667 288.229 418.4C288.489 418.127 288.619 417.763 288.619 417.31C288.619 416.857 288.489 416.497 288.229 416.23C287.975 415.957 287.649 415.82 287.249 415.82C286.849 415.82 286.519 415.957 286.259 416.23C285.999 416.497 285.869 416.857 285.869 417.31C285.869 417.763 285.999 418.127 286.259 418.4C286.519 418.667 286.849 418.8 287.249 418.8ZM287.979 413.96C287.799 413.96 287.639 413.927 287.499 413.86C287.365 413.787 287.215 413.69 287.049 413.57C286.942 413.49 286.852 413.43 286.779 413.39C286.712 413.35 286.645 413.33 286.579 413.33C286.439 413.33 286.325 413.38 286.239 413.48C286.152 413.573 286.105 413.71 286.099 413.89H285.309C285.322 413.443 285.432 413.09 285.639 412.83C285.852 412.563 286.132 412.43 286.479 412.43C286.652 412.43 286.805 412.467 286.939 412.54C287.079 412.607 287.235 412.703 287.409 412.83C287.515 412.91 287.602 412.97 287.669 413.01C287.742 413.05 287.812 413.07 287.879 413.07C288.012 413.07 288.122 413.023 288.209 412.93C288.302 412.83 288.352 412.697 288.359 412.53H289.149C289.135 412.963 289.022 413.31 288.809 413.57C288.602 413.83 288.325 413.96 287.979 413.96ZM296.511 417.33C296.511 417.35 296.501 417.49 296.481 417.75H292.411C292.485 418.083 292.658 418.347 292.931 418.54C293.205 418.733 293.545 418.83 293.951 418.83C294.231 418.83 294.478 418.79 294.691 418.71C294.911 418.623 295.115 418.49 295.301 418.31L296.131 419.21C295.625 419.79 294.885 420.08 293.911 420.08C293.305 420.08 292.768 419.963 292.301 419.73C291.835 419.49 291.475 419.16 291.221 418.74C290.968 418.32 290.841 417.843 290.841 417.31C290.841 416.783 290.965 416.31 291.211 415.89C291.465 415.463 291.808 415.133 292.241 414.9C292.681 414.66 293.171 414.54 293.711 414.54C294.238 414.54 294.715 414.653 295.141 414.88C295.568 415.107 295.901 415.433 296.141 415.86C296.388 416.28 296.511 416.77 296.511 417.33ZM293.721 415.72C293.368 415.72 293.071 415.82 292.831 416.02C292.591 416.22 292.445 416.493 292.391 416.84H295.041C294.988 416.5 294.841 416.23 294.601 416.03C294.361 415.823 294.068 415.72 293.721 415.72ZM299.36 420.08C298.913 420.08 298.477 420.027 298.05 419.92C297.623 419.807 297.283 419.667 297.03 419.5L297.55 418.38C297.79 418.533 298.08 418.66 298.42 418.76C298.76 418.853 299.093 418.9 299.42 418.9C300.08 418.9 300.41 418.737 300.41 418.41C300.41 418.257 300.32 418.147 300.14 418.08C299.96 418.013 299.683 417.957 299.31 417.91C298.87 417.843 298.507 417.767 298.22 417.68C297.933 417.593 297.683 417.44 297.47 417.22C297.263 417 297.16 416.687 297.16 416.28C297.16 415.94 297.257 415.64 297.45 415.38C297.65 415.113 297.937 414.907 298.31 414.76C298.69 414.613 299.137 414.54 299.65 414.54C300.03 414.54 300.407 414.583 300.78 414.67C301.16 414.75 301.473 414.863 301.72 415.01L301.2 416.12C300.727 415.853 300.21 415.72 299.65 415.72C299.317 415.72 299.067 415.767 298.9 415.86C298.733 415.953 298.65 416.073 298.65 416.22C298.65 416.387 298.74 416.503 298.92 416.57C299.1 416.637 299.387 416.7 299.78 416.76C300.22 416.833 300.58 416.913 300.86 417C301.14 417.08 301.383 417.23 301.59 417.45C301.797 417.67 301.9 417.977 301.9 418.37C301.9 418.703 301.8 419 301.6 419.26C301.4 419.52 301.107 419.723 300.72 419.87C300.34 420.01 299.887 420.08 299.36 420.08ZM302.243 421.94C302.663 421.2 302.969 420.45 303.163 419.69C303.363 418.923 303.463 418.113 303.463 417.26C303.463 416.407 303.363 415.6 303.163 414.84C302.969 414.073 302.663 413.32 302.243 412.58H303.733C304.139 413.173 304.449 413.873 304.663 414.68C304.883 415.48 304.993 416.34 304.993 417.26C304.993 418.18 304.886 419.04 304.673 419.84C304.459 420.633 304.146 421.333 303.733 421.94H302.243Z" fill="black"/>
<defs>
<linearGradient id="paint0_linear" x1="49" y1="23" x2="49" y2="294" gradientUnits="userSpaceOnUse">
<stop stop-color="#1D0024"/>
<stop offset="1" stop-color="#100014"/>
</linearGradient>
<linearGradient id="paint1_linear" x1="145.515" y1="90.75" x2="145.515" y2="204.558" gradientUnits="userSpaceOnUse">
<stop stop-color="#FFD4B3"/>
<stop offset="1" stop-color="#FFDCC2"/>
</linearGradient>
<linearGradient id="paint2_linear" x1="76.1" y1="196.031" x2="76.1" y2="300.601" gradientUnits="userSpaceOnUse">
<stop stop-color="#806A6A"/>
<stop offset="1" stop-color="#665654"/>
</linearGradient>
<linearGradient id="paint3_linear" x1="253.002" y1="186.503" x2="253.002" y2="51.9036" gradientUnits="userSpaceOnUse">
<stop stop-color="#E6864E"/>
<stop offset="1" stop-color="#E67240"/>
</linearGradient>
</defs>
</svg>
