<svg width="348" height="450" viewBox="0 0 348 450" fill="none" xmlns="http://www.w3.org/2000/svg">
<circle cx="173.5" cy="158.5" r="135.5" fill="url(#paint0_linear)"/>
<mask id="mask0" mask-type="alpha" maskUnits="userSpaceOnUse" x="38" y="23" width="271" height="271">
<circle cx="173.5" cy="158.5" r="135.5" fill="white"/>
</mask>
<g mask="url(#mask0)">
<path d="M183.314 67.9001C179.701 52.0918 196.834 39.9609 214.479 48.2885C256.032 67.9001 231.92 97.2585 217.015 94.0968C202.11 90.9351 186.927 83.7085 183.314 67.9001Z" fill="url(#paint1_linear)"/>
<path d="M193.373 167.533C173.966 176.856 171.136 176.357 128.333 141.337C63.7449 88.4916 124.72 40.1633 190.212 65.9083C261.123 97.0733 237.366 146.4 193.373 167.533Z" fill="url(#paint2_linear)"/>
<path fill-rule="evenodd" clip-rule="evenodd" d="M195.18 204.57C188.555 219.023 180.124 226.25 173.5 226.25C166.875 226.25 158.444 219.023 151.82 204.57V186.503C151.82 186.503 148.873 186.59 146.852 186.503C125.723 185.598 118.663 151.61 121.978 117.613C124.407 92.7158 145.497 126.883 179.823 102.945C178.468 129.142 189.76 126.432 194.728 123.27C217.312 112.882 217.763 155.338 195.443 152.048C195.452 152.5 195.364 170.007 195.18 204.57Z" fill="url(#paint3_linear)"/>
<path d="M151.82 186.503C159.95 185.901 170.077 181.354 182.202 172.862C178.487 185.658 168.36 193.216 151.82 195.537L151.82 186.503Z" fill="#FF9768"/>
<path fill-rule="evenodd" clip-rule="evenodd" d="M144.351 209.824C144.351 209.824 145.714 200.415 148.91 199.609C152.106 198.802 170.785 198.705 170.802 202.319C170.805 202.982 171.445 210.09 173.575 210.09C175.706 210.09 176.253 202.982 176.256 202.319C176.273 198.705 194.844 198.845 198.148 199.609C201.452 200.373 202.693 209.836 202.693 209.836C202.693 209.836 251.471 232.806 256.607 242.61C261.023 251.042 264.335 270.614 266.543 301.327H80.4567C82.6648 270.614 85.977 251.042 90.3933 242.61C95.5268 232.81 144.351 209.824 144.351 209.824Z" fill="url(#paint4_linear)"/>
<path fill-rule="evenodd" clip-rule="evenodd" d="M177.113 235.283C177.113 237.279 175.496 238.897 173.5 238.897C171.505 238.897 169.887 237.279 169.887 235.283C169.887 233.288 171.505 231.67 173.5 231.67C175.496 231.67 177.113 233.288 177.113 235.283ZM177.113 253.35C177.113 255.346 175.496 256.963 173.5 256.963C171.504 256.963 169.887 255.346 169.887 253.35C169.887 251.354 171.504 249.737 173.5 249.737C175.496 249.737 177.113 251.354 177.113 253.35ZM173.5 275.03C175.496 275.03 177.113 273.412 177.113 271.417C177.113 269.421 175.496 267.803 173.5 267.803C171.504 267.803 169.887 269.421 169.887 271.417C169.887 273.412 171.504 275.03 173.5 275.03Z" fill="#664F4D"/>
<path d="M183.067 94.7498C168.613 130.883 176.743 148.498 188.035 169.726C199.327 190.955 185.325 210.828 185.325 210.828C185.325 210.828 201.585 200.44 201.585 177.405C201.585 154.37 185.325 139.916 198.875 120.946C212.425 101.976 197.52 58.6165 183.067 94.7498Z" fill="url(#paint5_linear)"/>
</g>
<rect width="348" height="450" fill="#03658C" fill-opacity="0.16"/>
<path d="M113.608 306.4H116.524V316.624H122.842V319H113.608V306.4ZM128.285 309.172C129.785 309.172 130.937 309.532 131.741 310.252C132.545 310.96 132.947 312.034 132.947 313.474V319H130.319V317.794C129.791 318.694 128.807 319.144 127.367 319.144C126.623 319.144 125.975 319.018 125.423 318.766C124.883 318.514 124.469 318.166 124.181 317.722C123.893 317.278 123.749 316.774 123.749 316.21C123.749 315.31 124.085 314.602 124.757 314.086C125.441 313.57 126.491 313.312 127.907 313.312H130.139C130.139 312.7 129.953 312.232 129.581 311.908C129.209 311.572 128.651 311.404 127.907 311.404C127.391 311.404 126.881 311.488 126.377 311.656C125.885 311.812 125.465 312.028 125.117 312.304L124.109 310.342C124.637 309.97 125.267 309.682 125.999 309.478C126.743 309.274 127.505 309.172 128.285 309.172ZM128.069 317.254C128.549 317.254 128.975 317.146 129.347 316.93C129.719 316.702 129.983 316.372 130.139 315.94V314.95H128.213C127.061 314.95 126.485 315.328 126.485 316.084C126.485 316.444 126.623 316.732 126.899 316.948C127.187 317.152 127.577 317.254 128.069 317.254ZM138.17 310.594C138.506 310.126 138.956 309.772 139.52 309.532C140.096 309.292 140.756 309.172 141.5 309.172V311.764C141.188 311.74 140.978 311.728 140.87 311.728C140.066 311.728 139.436 311.956 138.98 312.412C138.524 312.856 138.296 313.528 138.296 314.428V319H135.488V309.316H138.17V310.594ZM143.17 309.316H145.978V319H143.17V309.316ZM144.574 307.966C144.058 307.966 143.638 307.816 143.314 307.516C142.99 307.216 142.828 306.844 142.828 306.4C142.828 305.956 142.99 305.584 143.314 305.284C143.638 304.984 144.058 304.834 144.574 304.834C145.09 304.834 145.51 304.978 145.834 305.266C146.158 305.554 146.32 305.914 146.32 306.346C146.32 306.814 146.158 307.204 145.834 307.516C145.51 307.816 145.09 307.966 144.574 307.966ZM151.842 319.144C151.038 319.144 150.252 319.048 149.484 318.856C148.716 318.652 148.104 318.4 147.648 318.1L148.584 316.084C149.016 316.36 149.538 316.588 150.15 316.768C150.762 316.936 151.362 317.02 151.95 317.02C153.138 317.02 153.732 316.726 153.732 316.138C153.732 315.862 153.57 315.664 153.246 315.544C152.922 315.424 152.424 315.322 151.752 315.238C150.96 315.118 150.306 314.98 149.79 314.824C149.274 314.668 148.824 314.392 148.44 313.996C148.068 313.6 147.882 313.036 147.882 312.304C147.882 311.692 148.056 311.152 148.404 310.684C148.764 310.204 149.28 309.832 149.952 309.568C150.636 309.304 151.44 309.172 152.364 309.172C153.048 309.172 153.726 309.25 154.398 309.406C155.082 309.55 155.646 309.754 156.09 310.018L155.154 312.016C154.302 311.536 153.372 311.296 152.364 311.296C151.764 311.296 151.314 311.38 151.014 311.548C150.714 311.716 150.564 311.932 150.564 312.196C150.564 312.496 150.726 312.706 151.05 312.826C151.374 312.946 151.89 313.06 152.598 313.168C153.39 313.3 154.038 313.444 154.542 313.6C155.046 313.744 155.484 314.014 155.856 314.41C156.228 314.806 156.414 315.358 156.414 316.066C156.414 316.666 156.234 317.2 155.874 317.668C155.514 318.136 154.986 318.502 154.29 318.766C153.606 319.018 152.79 319.144 151.842 319.144ZM161.405 319.144C160.601 319.144 159.815 319.048 159.047 318.856C158.279 318.652 157.667 318.4 157.211 318.1L158.147 316.084C158.579 316.36 159.101 316.588 159.713 316.768C160.325 316.936 160.925 317.02 161.513 317.02C162.701 317.02 163.295 316.726 163.295 316.138C163.295 315.862 163.133 315.664 162.809 315.544C162.485 315.424 161.987 315.322 161.315 315.238C160.523 315.118 159.869 314.98 159.353 314.824C158.837 314.668 158.387 314.392 158.003 313.996C157.631 313.6 157.445 313.036 157.445 312.304C157.445 311.692 157.619 311.152 157.967 310.684C158.327 310.204 158.843 309.832 159.515 309.568C160.199 309.304 161.003 309.172 161.927 309.172C162.611 309.172 163.289 309.25 163.961 309.406C164.645 309.55 165.209 309.754 165.653 310.018L164.717 312.016C163.865 311.536 162.935 311.296 161.927 311.296C161.327 311.296 160.877 311.38 160.577 311.548C160.277 311.716 160.127 311.932 160.127 312.196C160.127 312.496 160.289 312.706 160.613 312.826C160.937 312.946 161.453 313.06 162.161 313.168C162.953 313.3 163.601 313.444 164.105 313.6C164.609 313.744 165.047 314.014 165.419 314.41C165.791 314.806 165.977 315.358 165.977 316.066C165.977 316.666 165.797 317.2 165.437 317.668C165.077 318.136 164.549 318.502 163.853 318.766C163.169 319.018 162.353 319.144 161.405 319.144ZM171.615 309.172C173.115 309.172 174.267 309.532 175.071 310.252C175.875 310.96 176.277 312.034 176.277 313.474V319H173.649V317.794C173.121 318.694 172.137 319.144 170.697 319.144C169.953 319.144 169.305 319.018 168.753 318.766C168.213 318.514 167.799 318.166 167.511 317.722C167.223 317.278 167.079 316.774 167.079 316.21C167.079 315.31 167.415 314.602 168.087 314.086C168.771 313.57 169.821 313.312 171.237 313.312H173.469C173.469 312.7 173.283 312.232 172.911 311.908C172.539 311.572 171.981 311.404 171.237 311.404C170.721 311.404 170.211 311.488 169.707 311.656C169.215 311.812 168.795 312.028 168.447 312.304L167.439 310.342C167.967 309.97 168.597 309.682 169.329 309.478C170.073 309.274 170.835 309.172 171.615 309.172ZM171.399 317.254C171.879 317.254 172.305 317.146 172.677 316.93C173.049 316.702 173.313 316.372 173.469 315.94V314.95H171.543C170.391 314.95 169.815 315.328 169.815 316.084C169.815 316.444 169.953 316.732 170.229 316.948C170.517 317.152 170.907 317.254 171.399 317.254ZM184.114 306.4H187.03V316.624H193.348V319H184.114V306.4ZM194.779 309.316H197.587V319H194.779V309.316ZM196.183 307.966C195.667 307.966 195.247 307.816 194.923 307.516C194.599 307.216 194.437 306.844 194.437 306.4C194.437 305.956 194.599 305.584 194.923 305.284C195.247 304.984 195.667 304.834 196.183 304.834C196.699 304.834 197.119 304.978 197.443 305.266C197.767 305.554 197.929 305.914 197.929 306.346C197.929 306.814 197.767 307.204 197.443 307.516C197.119 307.816 196.699 307.966 196.183 307.966ZM212.595 309.172C213.807 309.172 214.767 309.532 215.475 310.252C216.195 310.96 216.555 312.028 216.555 313.456V319H213.747V313.888C213.747 313.12 213.585 312.55 213.261 312.178C212.949 311.794 212.499 311.602 211.911 311.602C211.251 311.602 210.729 311.818 210.345 312.25C209.961 312.67 209.769 313.3 209.769 314.14V319H206.961V313.888C206.961 312.364 206.349 311.602 205.125 311.602C204.477 311.602 203.961 311.818 203.577 312.25C203.193 312.67 203.001 313.3 203.001 314.14V319H200.193V309.316H202.875V310.432C203.235 310.024 203.673 309.712 204.189 309.496C204.717 309.28 205.293 309.172 205.917 309.172C206.601 309.172 207.219 309.31 207.771 309.586C208.323 309.85 208.767 310.24 209.103 310.756C209.499 310.252 209.997 309.862 210.597 309.586C211.209 309.31 211.875 309.172 212.595 309.172ZM222.978 309.172C224.478 309.172 225.63 309.532 226.434 310.252C227.238 310.96 227.64 312.034 227.64 313.474V319H225.012V317.794C224.484 318.694 223.5 319.144 222.06 319.144C221.316 319.144 220.668 319.018 220.116 318.766C219.576 318.514 219.162 318.166 218.874 317.722C218.586 317.278 218.442 316.774 218.442 316.21C218.442 315.31 218.778 314.602 219.45 314.086C220.134 313.57 221.184 313.312 222.6 313.312H224.832C224.832 312.7 224.646 312.232 224.274 311.908C223.902 311.572 223.344 311.404 222.6 311.404C222.084 311.404 221.574 311.488 221.07 311.656C220.578 311.812 220.158 312.028 219.81 312.304L218.802 310.342C219.33 309.97 219.96 309.682 220.692 309.478C221.436 309.274 222.198 309.172 222.978 309.172ZM222.762 317.254C223.242 317.254 223.668 317.146 224.04 316.93C224.412 316.702 224.676 316.372 224.832 315.94V314.95H222.906C221.754 314.95 221.178 315.328 221.178 316.084C221.178 316.444 221.316 316.732 221.592 316.948C221.88 317.152 222.27 317.254 222.762 317.254Z" fill="black"/>
<path d="M68.571 345.4C69.687 345.4 70.653 345.586 71.469 345.958C72.297 346.33 72.933 346.858 73.377 347.542C73.821 348.226 74.043 349.036 74.043 349.972C74.043 350.896 73.821 351.706 73.377 352.402C72.933 353.086 72.297 353.614 71.469 353.986C70.653 354.346 69.687 354.526 68.571 354.526H66.033V358H63.117V345.4H68.571ZM68.409 352.15C69.285 352.15 69.951 351.964 70.407 351.592C70.863 351.208 71.091 350.668 71.091 349.972C71.091 349.264 70.863 348.724 70.407 348.352C69.951 347.968 69.285 347.776 68.409 347.776H66.033V352.15H68.409ZM78.6089 349.594C78.9449 349.126 79.3949 348.772 79.9589 348.532C80.5349 348.292 81.1949 348.172 81.9389 348.172V350.764C81.6269 350.74 81.4169 350.728 81.3089 350.728C80.5049 350.728 79.8749 350.956 79.4189 351.412C78.9629 351.856 78.7349 352.528 78.7349 353.428V358H75.9269V348.316H78.6089V349.594ZM88.1286 358.144C87.1086 358.144 86.1906 357.934 85.3746 357.514C84.5706 357.082 83.9406 356.488 83.4846 355.732C83.0286 354.976 82.8006 354.118 82.8006 353.158C82.8006 352.198 83.0286 351.34 83.4846 350.584C83.9406 349.828 84.5706 349.24 85.3746 348.82C86.1906 348.388 87.1086 348.172 88.1286 348.172C89.1486 348.172 90.0606 348.388 90.8646 348.82C91.6686 349.24 92.2986 349.828 92.7546 350.584C93.2106 351.34 93.4386 352.198 93.4386 353.158C93.4386 354.118 93.2106 354.976 92.7546 355.732C92.2986 356.488 91.6686 357.082 90.8646 357.514C90.0606 357.934 89.1486 358.144 88.1286 358.144ZM88.1286 355.84C88.8486 355.84 89.4366 355.6 89.8926 355.12C90.3606 354.628 90.5946 353.974 90.5946 353.158C90.5946 352.342 90.3606 351.694 89.8926 351.214C89.4366 350.722 88.8486 350.476 88.1286 350.476C87.4086 350.476 86.8146 350.722 86.3466 351.214C85.8786 351.694 85.6446 352.342 85.6446 353.158C85.6446 353.974 85.8786 354.628 86.3466 355.12C86.8146 355.6 87.4086 355.84 88.1286 355.84ZM98.3935 348.532H100.878V350.692H98.4655V358H95.6575V350.692H94.1635V348.532H95.6575V348.1C95.6575 346.996 95.9815 346.12 96.6295 345.472C97.2895 344.824 98.2135 344.5 99.4015 344.5C99.8215 344.5 100.218 344.548 100.59 344.644C100.974 344.728 101.292 344.854 101.544 345.022L100.806 347.056C100.482 346.828 100.104 346.714 99.6715 346.714C98.8195 346.714 98.3935 347.182 98.3935 348.118V348.532ZM111.639 353.194C111.639 353.23 111.621 353.482 111.585 353.95H104.259C104.391 354.55 104.703 355.024 105.195 355.372C105.687 355.72 106.299 355.894 107.031 355.894C107.535 355.894 107.979 355.822 108.363 355.678C108.759 355.522 109.125 355.282 109.461 354.958L110.955 356.578C110.043 357.622 108.711 358.144 106.959 358.144C105.867 358.144 104.901 357.934 104.061 357.514C103.221 357.082 102.573 356.488 102.117 355.732C101.661 354.976 101.433 354.118 101.433 353.158C101.433 352.21 101.655 351.358 102.099 350.602C102.555 349.834 103.173 349.24 103.953 348.82C104.745 348.388 105.627 348.172 106.599 348.172C107.547 348.172 108.405 348.376 109.173 348.784C109.941 349.192 110.541 349.78 110.973 350.548C111.417 351.304 111.639 352.186 111.639 353.194ZM106.617 350.296C105.981 350.296 105.447 350.476 105.015 350.836C104.583 351.196 104.319 351.688 104.223 352.312H108.993C108.897 351.7 108.633 351.214 108.201 350.854C107.769 350.482 107.241 350.296 106.617 350.296ZM116.767 358.144C115.963 358.144 115.177 358.048 114.409 357.856C113.641 357.652 113.029 357.4 112.573 357.1L113.509 355.084C113.941 355.36 114.463 355.588 115.075 355.768C115.687 355.936 116.287 356.02 116.875 356.02C118.063 356.02 118.657 355.726 118.657 355.138C118.657 354.862 118.495 354.664 118.171 354.544C117.847 354.424 117.349 354.322 116.677 354.238C115.885 354.118 115.231 353.98 114.715 353.824C114.199 353.668 113.749 353.392 113.365 352.996C112.993 352.6 112.807 352.036 112.807 351.304C112.807 350.692 112.981 350.152 113.329 349.684C113.689 349.204 114.205 348.832 114.877 348.568C115.561 348.304 116.365 348.172 117.289 348.172C117.973 348.172 118.651 348.25 119.323 348.406C120.007 348.55 120.571 348.754 121.015 349.018L120.079 351.016C119.227 350.536 118.297 350.296 117.289 350.296C116.689 350.296 116.239 350.38 115.939 350.548C115.639 350.716 115.489 350.932 115.489 351.196C115.489 351.496 115.651 351.706 115.975 351.826C116.299 351.946 116.815 352.06 117.523 352.168C118.315 352.3 118.963 352.444 119.467 352.6C119.971 352.744 120.409 353.014 120.781 353.41C121.153 353.806 121.339 354.358 121.339 355.066C121.339 355.666 121.159 356.2 120.799 356.668C120.439 357.136 119.911 357.502 119.215 357.766C118.531 358.018 117.715 358.144 116.767 358.144ZM126.329 358.144C125.525 358.144 124.739 358.048 123.971 357.856C123.203 357.652 122.591 357.4 122.135 357.1L123.071 355.084C123.503 355.36 124.025 355.588 124.637 355.768C125.249 355.936 125.849 356.02 126.437 356.02C127.625 356.02 128.219 355.726 128.219 355.138C128.219 354.862 128.057 354.664 127.733 354.544C127.409 354.424 126.911 354.322 126.239 354.238C125.447 354.118 124.793 353.98 124.277 353.824C123.761 353.668 123.311 353.392 122.927 352.996C122.555 352.6 122.369 352.036 122.369 351.304C122.369 350.692 122.543 350.152 122.891 349.684C123.251 349.204 123.767 348.832 124.439 348.568C125.123 348.304 125.927 348.172 126.851 348.172C127.535 348.172 128.213 348.25 128.885 348.406C129.569 348.55 130.133 348.754 130.577 349.018L129.641 351.016C128.789 350.536 127.859 350.296 126.851 350.296C126.251 350.296 125.801 350.38 125.501 350.548C125.201 350.716 125.051 350.932 125.051 351.196C125.051 351.496 125.213 351.706 125.537 351.826C125.861 351.946 126.377 352.06 127.085 352.168C127.877 352.3 128.525 352.444 129.029 352.6C129.533 352.744 129.971 353.014 130.343 353.41C130.715 353.806 130.901 354.358 130.901 355.066C130.901 355.666 130.721 356.2 130.361 356.668C130.001 357.136 129.473 357.502 128.777 357.766C128.093 358.018 127.277 358.144 126.329 358.144ZM137.242 358.144C136.222 358.144 135.304 357.934 134.488 357.514C133.684 357.082 133.054 356.488 132.598 355.732C132.142 354.976 131.914 354.118 131.914 353.158C131.914 352.198 132.142 351.34 132.598 350.584C133.054 349.828 133.684 349.24 134.488 348.82C135.304 348.388 136.222 348.172 137.242 348.172C138.262 348.172 139.174 348.388 139.978 348.82C140.782 349.24 141.412 349.828 141.868 350.584C142.324 351.34 142.552 352.198 142.552 353.158C142.552 354.118 142.324 354.976 141.868 355.732C141.412 356.488 140.782 357.082 139.978 357.514C139.174 357.934 138.262 358.144 137.242 358.144ZM137.242 355.84C137.962 355.84 138.55 355.6 139.006 355.12C139.474 354.628 139.708 353.974 139.708 353.158C139.708 352.342 139.474 351.694 139.006 351.214C138.55 350.722 137.962 350.476 137.242 350.476C136.522 350.476 135.928 350.722 135.46 351.214C134.992 351.694 134.758 352.342 134.758 353.158C134.758 353.974 134.992 354.628 135.46 355.12C135.928 355.6 136.522 355.84 137.242 355.84ZM147.111 349.594C147.447 349.126 147.897 348.772 148.461 348.532C149.037 348.292 149.697 348.172 150.441 348.172V350.764C150.129 350.74 149.919 350.728 149.811 350.728C149.007 350.728 148.377 350.956 147.921 351.412C147.465 351.856 147.237 352.528 147.237 353.428V358H144.429V348.316H147.111V349.594ZM155.964 348.172C157.464 348.172 158.616 348.532 159.42 349.252C160.224 349.96 160.626 351.034 160.626 352.474V358H157.998V356.794C157.47 357.694 156.486 358.144 155.046 358.144C154.302 358.144 153.654 358.018 153.102 357.766C152.562 357.514 152.148 357.166 151.86 356.722C151.572 356.278 151.428 355.774 151.428 355.21C151.428 354.31 151.764 353.602 152.436 353.086C153.12 352.57 154.17 352.312 155.586 352.312H157.818C157.818 351.7 157.632 351.232 157.26 350.908C156.888 350.572 156.33 350.404 155.586 350.404C155.07 350.404 154.56 350.488 154.056 350.656C153.564 350.812 153.144 351.028 152.796 351.304L151.788 349.342C152.316 348.97 152.946 348.682 153.678 348.478C154.422 348.274 155.184 348.172 155.964 348.172ZM155.748 356.254C156.228 356.254 156.654 356.146 157.026 355.93C157.398 355.702 157.662 355.372 157.818 354.94V353.95H155.892C154.74 353.95 154.164 354.328 154.164 355.084C154.164 355.444 154.302 355.732 154.578 355.948C154.866 356.152 155.256 356.254 155.748 356.254ZM178.129 344.644V358H175.447V356.884C174.751 357.724 173.743 358.144 172.423 358.144C171.511 358.144 170.683 357.94 169.939 357.532C169.207 357.124 168.631 356.542 168.211 355.786C167.791 355.03 167.581 354.154 167.581 353.158C167.581 352.162 167.791 351.286 168.211 350.53C168.631 349.774 169.207 349.192 169.939 348.784C170.683 348.376 171.511 348.172 172.423 348.172C173.659 348.172 174.625 348.562 175.321 349.342V344.644H178.129ZM172.909 355.84C173.617 355.84 174.205 355.6 174.673 355.12C175.141 354.628 175.375 353.974 175.375 353.158C175.375 352.342 175.141 351.694 174.673 351.214C174.205 350.722 173.617 350.476 172.909 350.476C172.189 350.476 171.595 350.722 171.127 351.214C170.659 351.694 170.425 352.342 170.425 353.158C170.425 353.974 170.659 354.628 171.127 355.12C171.595 355.6 172.189 355.84 172.909 355.84ZM190.214 353.194C190.214 353.23 190.196 353.482 190.16 353.95H182.834C182.966 354.55 183.278 355.024 183.77 355.372C184.262 355.72 184.874 355.894 185.606 355.894C186.11 355.894 186.554 355.822 186.938 355.678C187.334 355.522 187.7 355.282 188.036 354.958L189.53 356.578C188.618 357.622 187.286 358.144 185.534 358.144C184.442 358.144 183.476 357.934 182.636 357.514C181.796 357.082 181.148 356.488 180.692 355.732C180.236 354.976 180.008 354.118 180.008 353.158C180.008 352.21 180.23 351.358 180.674 350.602C181.13 349.834 181.748 349.24 182.528 348.82C183.32 348.388 184.202 348.172 185.174 348.172C186.122 348.172 186.98 348.376 187.748 348.784C188.516 349.192 189.116 349.78 189.548 350.548C189.992 351.304 190.214 352.186 190.214 353.194ZM185.192 350.296C184.556 350.296 184.022 350.476 183.59 350.836C183.158 351.196 182.894 351.688 182.798 352.312H187.568C187.472 351.7 187.208 351.214 186.776 350.854C186.344 350.482 185.816 350.296 185.192 350.296ZM200.295 347.74V351.07H206.127V353.41H200.295V358H197.379V345.4H206.901V347.74H200.295ZM211.183 349.594C211.519 349.126 211.969 348.772 212.533 348.532C213.109 348.292 213.769 348.172 214.513 348.172V350.764C214.201 350.74 213.991 350.728 213.883 350.728C213.079 350.728 212.449 350.956 211.993 351.412C211.537 351.856 211.309 352.528 211.309 353.428V358H208.501V348.316H211.183V349.594ZM220.036 348.172C221.536 348.172 222.688 348.532 223.492 349.252C224.296 349.96 224.698 351.034 224.698 352.474V358H222.07V356.794C221.542 357.694 220.558 358.144 219.118 358.144C218.374 358.144 217.726 358.018 217.174 357.766C216.634 357.514 216.22 357.166 215.932 356.722C215.644 356.278 215.5 355.774 215.5 355.21C215.5 354.31 215.836 353.602 216.508 353.086C217.192 352.57 218.242 352.312 219.658 352.312H221.89C221.89 351.7 221.704 351.232 221.332 350.908C220.96 350.572 220.402 350.404 219.658 350.404C219.142 350.404 218.632 350.488 218.128 350.656C217.636 350.812 217.216 351.028 216.868 351.304L215.86 349.342C216.388 348.97 217.018 348.682 217.75 348.478C218.494 348.274 219.256 348.172 220.036 348.172ZM219.82 356.254C220.3 356.254 220.726 356.146 221.098 355.93C221.47 355.702 221.734 355.372 221.89 354.94V353.95H219.964C218.812 353.95 218.236 354.328 218.236 355.084C218.236 355.444 218.374 355.732 218.65 355.948C218.938 356.152 219.328 356.254 219.82 356.254ZM221.89 347.074L220.324 345.706L218.758 347.074H216.706L219.082 344.482H221.566L223.942 347.074H221.89ZM233.125 348.172C234.325 348.172 235.291 348.532 236.023 349.252C236.767 349.972 237.139 351.04 237.139 352.456V358H234.331V352.888C234.331 352.12 234.163 351.55 233.827 351.178C233.491 350.794 233.005 350.602 232.369 350.602C231.661 350.602 231.097 350.824 230.677 351.268C230.257 351.7 230.047 352.348 230.047 353.212V358H227.239V348.316H229.921V349.45C230.293 349.042 230.755 348.73 231.307 348.514C231.859 348.286 232.465 348.172 233.125 348.172ZM244.47 358.144C243.438 358.144 242.508 357.934 241.68 357.514C240.864 357.082 240.222 356.488 239.754 355.732C239.298 354.976 239.07 354.118 239.07 353.158C239.07 352.198 239.298 351.34 239.754 350.584C240.222 349.828 240.864 349.24 241.68 348.82C242.508 348.388 243.438 348.172 244.47 348.172C245.49 348.172 246.378 348.388 247.134 348.82C247.902 349.24 248.46 349.846 248.808 350.638L246.63 351.808C246.126 350.92 245.4 350.476 244.452 350.476C243.72 350.476 243.114 350.716 242.634 351.196C242.154 351.676 241.914 352.33 241.914 353.158C241.914 353.986 242.154 354.64 242.634 355.12C243.114 355.6 243.72 355.84 244.452 355.84C245.412 355.84 246.138 355.396 246.63 354.508L248.808 355.696C248.46 356.464 247.902 357.064 247.134 357.496C246.378 357.928 245.49 358.144 244.47 358.144ZM259.788 353.194C259.788 353.23 259.77 353.482 259.734 353.95H252.408C252.54 354.55 252.852 355.024 253.344 355.372C253.836 355.72 254.448 355.894 255.18 355.894C255.684 355.894 256.128 355.822 256.512 355.678C256.908 355.522 257.274 355.282 257.61 354.958L259.104 356.578C258.192 357.622 256.86 358.144 255.108 358.144C254.016 358.144 253.05 357.934 252.21 357.514C251.37 357.082 250.722 356.488 250.266 355.732C249.81 354.976 249.582 354.118 249.582 353.158C249.582 352.21 249.804 351.358 250.248 350.602C250.704 349.834 251.322 349.24 252.102 348.82C252.894 348.388 253.776 348.172 254.748 348.172C255.696 348.172 256.554 348.376 257.322 348.784C258.09 349.192 258.69 349.78 259.122 350.548C259.566 351.304 259.788 352.186 259.788 353.194ZM254.766 350.296C254.13 350.296 253.596 350.476 253.164 350.836C252.732 351.196 252.468 351.688 252.372 352.312H257.142C257.046 351.7 256.782 351.214 256.35 350.854C255.918 350.482 255.39 350.296 254.766 350.296ZM264.915 358.144C264.111 358.144 263.325 358.048 262.557 357.856C261.789 357.652 261.177 357.4 260.721 357.1L261.657 355.084C262.089 355.36 262.611 355.588 263.223 355.768C263.835 355.936 264.435 356.02 265.023 356.02C266.211 356.02 266.805 355.726 266.805 355.138C266.805 354.862 266.643 354.664 266.319 354.544C265.995 354.424 265.497 354.322 264.825 354.238C264.033 354.118 263.379 353.98 262.863 353.824C262.347 353.668 261.897 353.392 261.513 352.996C261.141 352.6 260.955 352.036 260.955 351.304C260.955 350.692 261.129 350.152 261.477 349.684C261.837 349.204 262.353 348.832 263.025 348.568C263.709 348.304 264.513 348.172 265.437 348.172C266.121 348.172 266.799 348.25 267.471 348.406C268.155 348.55 268.719 348.754 269.163 349.018L268.227 351.016C267.375 350.536 266.445 350.296 265.437 350.296C264.837 350.296 264.387 350.38 264.087 350.548C263.787 350.716 263.637 350.932 263.637 351.196C263.637 351.496 263.799 351.706 264.123 351.826C264.447 351.946 264.963 352.06 265.671 352.168C266.463 352.3 267.111 352.444 267.615 352.6C268.119 352.744 268.557 353.014 268.929 353.41C269.301 353.806 269.487 354.358 269.487 355.066C269.487 355.666 269.307 356.2 268.947 356.668C268.587 357.136 268.059 357.502 267.363 357.766C266.679 358.018 265.863 358.144 264.915 358.144ZM285.803 353.194C285.803 353.23 285.785 353.482 285.749 353.95H278.423C278.555 354.55 278.867 355.024 279.359 355.372C279.851 355.72 280.463 355.894 281.195 355.894C281.699 355.894 282.143 355.822 282.527 355.678C282.923 355.522 283.289 355.282 283.625 354.958L285.119 356.578C284.207 357.622 282.875 358.144 281.123 358.144C280.031 358.144 279.065 357.934 278.225 357.514C277.385 357.082 276.737 356.488 276.281 355.732C275.825 354.976 275.597 354.118 275.597 353.158C275.597 352.21 275.819 351.358 276.263 350.602C276.719 349.834 277.337 349.24 278.117 348.82C278.909 348.388 279.791 348.172 280.763 348.172C281.711 348.172 282.569 348.376 283.337 348.784C284.105 349.192 284.705 349.78 285.137 350.548C285.581 351.304 285.803 352.186 285.803 353.194ZM280.781 350.296C280.145 350.296 279.611 350.476 279.179 350.836C278.747 351.196 278.483 351.688 278.387 352.312H283.157C283.061 351.7 282.797 351.214 282.365 350.854C281.933 350.482 281.405 350.296 280.781 350.296ZM139.933 365.4H142.849V378H139.933V365.4ZM151.888 377.532C151.612 377.736 151.27 377.892 150.862 378C150.466 378.096 150.046 378.144 149.602 378.144C148.45 378.144 147.556 377.85 146.92 377.262C146.296 376.674 145.984 375.81 145.984 374.67V370.692H144.49V368.532H145.984V366.174H148.792V368.532H151.204V370.692H148.792V374.634C148.792 375.042 148.894 375.36 149.098 375.588C149.314 375.804 149.614 375.912 149.998 375.912C150.442 375.912 150.82 375.792 151.132 375.552L151.888 377.532ZM157.37 368.172C158.87 368.172 160.022 368.532 160.826 369.252C161.63 369.96 162.032 371.034 162.032 372.474V378H159.404V376.794C158.876 377.694 157.892 378.144 156.452 378.144C155.708 378.144 155.06 378.018 154.508 377.766C153.968 377.514 153.554 377.166 153.266 376.722C152.978 376.278 152.834 375.774 152.834 375.21C152.834 374.31 153.17 373.602 153.842 373.086C154.526 372.57 155.576 372.312 156.992 372.312H159.224C159.224 371.7 159.038 371.232 158.666 370.908C158.294 370.572 157.736 370.404 156.992 370.404C156.476 370.404 155.966 370.488 155.462 370.656C154.97 370.812 154.55 371.028 154.202 371.304L153.194 369.342C153.722 368.97 154.352 368.682 155.084 368.478C155.828 368.274 156.59 368.172 157.37 368.172ZM157.154 376.254C157.634 376.254 158.06 376.146 158.432 375.93C158.804 375.702 159.068 375.372 159.224 374.94V373.95H157.298C156.146 373.95 155.57 374.328 155.57 375.084C155.57 375.444 155.708 375.732 155.984 375.948C156.272 376.152 156.662 376.254 157.154 376.254ZM164.573 364.644H167.381V378H164.573V364.644ZM169.987 368.316H172.795V378H169.987V368.316ZM171.391 366.966C170.875 366.966 170.455 366.816 170.131 366.516C169.807 366.216 169.645 365.844 169.645 365.4C169.645 364.956 169.807 364.584 170.131 364.284C170.455 363.984 170.875 363.834 171.391 363.834C171.907 363.834 172.327 363.978 172.651 364.266C172.975 364.554 173.137 364.914 173.137 365.346C173.137 365.814 172.975 366.204 172.651 366.516C172.327 366.816 171.907 366.966 171.391 366.966ZM179.307 368.172C180.807 368.172 181.959 368.532 182.763 369.252C183.567 369.96 183.969 371.034 183.969 372.474V378H181.341V376.794C180.813 377.694 179.829 378.144 178.389 378.144C177.645 378.144 176.997 378.018 176.445 377.766C175.905 377.514 175.491 377.166 175.203 376.722C174.915 376.278 174.771 375.774 174.771 375.21C174.771 374.31 175.107 373.602 175.779 373.086C176.463 372.57 177.513 372.312 178.929 372.312H181.161C181.161 371.7 180.975 371.232 180.603 370.908C180.231 370.572 179.673 370.404 178.929 370.404C178.413 370.404 177.903 370.488 177.399 370.656C176.907 370.812 176.487 371.028 176.139 371.304L175.131 369.342C175.659 368.97 176.289 368.682 177.021 368.478C177.765 368.274 178.527 368.172 179.307 368.172ZM179.091 376.254C179.571 376.254 179.997 376.146 180.369 375.93C180.741 375.702 181.005 375.372 181.161 374.94V373.95H179.235C178.083 373.95 177.507 374.328 177.507 375.084C177.507 375.444 177.645 375.732 177.921 375.948C178.209 376.152 178.599 376.254 179.091 376.254ZM192.397 368.172C193.597 368.172 194.563 368.532 195.295 369.252C196.039 369.972 196.411 371.04 196.411 372.456V378H193.603V372.888C193.603 372.12 193.435 371.55 193.099 371.178C192.763 370.794 192.277 370.602 191.641 370.602C190.933 370.602 190.369 370.824 189.949 371.268C189.529 371.7 189.319 372.348 189.319 373.212V378H186.511V368.316H189.193V369.45C189.565 369.042 190.027 368.73 190.579 368.514C191.131 368.286 191.737 368.172 192.397 368.172ZM203.67 378.144C202.65 378.144 201.732 377.934 200.916 377.514C200.112 377.082 199.482 376.488 199.026 375.732C198.57 374.976 198.342 374.118 198.342 373.158C198.342 372.198 198.57 371.34 199.026 370.584C199.482 369.828 200.112 369.24 200.916 368.82C201.732 368.388 202.65 368.172 203.67 368.172C204.69 368.172 205.602 368.388 206.406 368.82C207.21 369.24 207.84 369.828 208.296 370.584C208.752 371.34 208.98 372.198 208.98 373.158C208.98 374.118 208.752 374.976 208.296 375.732C207.84 376.488 207.21 377.082 206.406 377.514C205.602 377.934 204.69 378.144 203.67 378.144ZM203.67 375.84C204.39 375.84 204.978 375.6 205.434 375.12C205.902 374.628 206.136 373.974 206.136 373.158C206.136 372.342 205.902 371.694 205.434 371.214C204.978 370.722 204.39 370.476 203.67 370.476C202.95 370.476 202.356 370.722 201.888 371.214C201.42 371.694 201.186 372.342 201.186 373.158C201.186 373.974 201.42 374.628 201.888 375.12C202.356 375.6 202.95 375.84 203.67 375.84Z" fill="black"/>
<rect x="33" y="400" width="140" height="32" rx="16" fill="#03658C" fill-opacity="0.6"/>
<path d="M34.639 420L33.019 417.66H32.923H31.231V420H29.287V411.6H32.923C33.667 411.6 34.311 411.724 34.855 411.972C35.407 412.22 35.831 412.572 36.127 413.028C36.423 413.484 36.571 414.024 36.571 414.648C36.571 415.272 36.419 415.812 36.115 416.268C35.819 416.716 35.395 417.06 34.843 417.3L36.727 420H34.639ZM34.603 414.648C34.603 414.176 34.451 413.816 34.147 413.568C33.843 413.312 33.399 413.184 32.815 413.184H31.231V416.112H32.815C33.399 416.112 33.843 415.984 34.147 415.728C34.451 415.472 34.603 415.112 34.603 414.648ZM44.4352 417.54C44.4352 418.196 44.1952 418.76 43.7152 419.232C43.2352 419.696 42.5432 419.984 41.6392 420.096V421.44H40.4392V420.132C39.8472 420.1 39.2832 419.996 38.7472 419.82C38.2112 419.644 37.7792 419.428 37.4512 419.172L38.1112 417.708C38.4152 417.932 38.7712 418.12 39.1792 418.272C39.5872 418.424 40.0072 418.52 40.4392 418.56V416.556C39.8712 416.42 39.3912 416.268 38.9992 416.1C38.6072 415.932 38.2792 415.688 38.0152 415.368C37.7512 415.04 37.6192 414.608 37.6192 414.072C37.6192 413.408 37.8592 412.84 38.3392 412.368C38.8272 411.888 39.5272 411.596 40.4392 411.492V410.16H41.6392V411.468C42.6232 411.548 43.4352 411.792 44.0752 412.2L43.4752 413.676C42.8752 413.332 42.2632 413.124 41.6392 413.052V415.092C42.1992 415.22 42.6712 415.368 43.0552 415.536C43.4472 415.696 43.7752 415.94 44.0392 416.268C44.3032 416.588 44.4352 417.012 44.4352 417.54ZM39.5512 413.976C39.5512 414.176 39.6272 414.34 39.7792 414.468C39.9312 414.596 40.1512 414.704 40.4392 414.792V413.088C40.1352 413.16 39.9112 413.276 39.7672 413.436C39.6232 413.588 39.5512 413.768 39.5512 413.976ZM41.6392 418.512C41.9272 418.448 42.1432 418.344 42.2872 418.2C42.4312 418.056 42.5032 417.884 42.5032 417.684C42.5032 417.484 42.4272 417.32 42.2752 417.192C42.1312 417.064 41.9192 416.952 41.6392 416.856V418.512ZM52.558 415.02C53.294 415.14 53.858 415.416 54.25 415.848C54.642 416.272 54.838 416.8 54.838 417.432C54.838 417.92 54.71 418.372 54.454 418.788C54.198 419.196 53.806 419.524 53.278 419.772C52.758 420.02 52.118 420.144 51.358 420.144C50.766 420.144 50.182 420.068 49.606 419.916C49.038 419.756 48.554 419.532 48.154 419.244L48.91 417.756C49.23 417.996 49.598 418.184 50.014 418.32C50.438 418.448 50.87 418.512 51.31 418.512C51.798 418.512 52.182 418.42 52.462 418.236C52.742 418.044 52.882 417.776 52.882 417.432C52.882 416.744 52.358 416.4 51.31 416.4H50.422V415.116L52.15 413.16H48.574V411.6H54.454V412.86L52.558 415.02ZM59.3356 420.144C58.6396 420.144 58.0196 419.972 57.4756 419.628C56.9316 419.284 56.5036 418.788 56.1916 418.14C55.8876 417.484 55.7356 416.704 55.7356 415.8C55.7356 414.896 55.8876 414.12 56.1916 413.472C56.5036 412.816 56.9316 412.316 57.4756 411.972C58.0196 411.628 58.6396 411.456 59.3356 411.456C60.0316 411.456 60.6516 411.628 61.1956 411.972C61.7396 412.316 62.1636 412.816 62.4676 413.472C62.7796 414.12 62.9356 414.896 62.9356 415.8C62.9356 416.704 62.7796 417.484 62.4676 418.14C62.1636 418.788 61.7396 419.284 61.1956 419.628C60.6516 419.972 60.0316 420.144 59.3356 420.144ZM59.3356 418.5C59.8476 418.5 60.2476 418.28 60.5356 417.84C60.8316 417.4 60.9796 416.72 60.9796 415.8C60.9796 414.88 60.8316 414.2 60.5356 413.76C60.2476 413.32 59.8476 413.1 59.3356 413.1C58.8316 413.1 58.4316 413.32 58.1356 413.76C57.8476 414.2 57.7036 414.88 57.7036 415.8C57.7036 416.72 57.8476 417.4 58.1356 417.84C58.4316 418.28 58.8316 418.5 59.3356 418.5ZM66.7417 409.896H68.4097L64.4497 421.2H62.7817L66.7417 409.896ZM76.577 411.6V420H74.633V416.556H70.817V420H68.873V411.6H70.817V414.912H74.633V411.6H76.577ZM81.5908 415.872H84.9868V417.372H81.5908V415.872ZM92.7021 411.6V420H90.7581V413.16H89.0781V411.6H92.7021ZM95.9854 411C96.6494 411 97.1534 411.144 97.4974 411.432C97.8494 411.72 98.0254 412.152 98.0254 412.728V414.912H96.8254V414.444C96.7214 414.612 96.5614 414.744 96.3454 414.84C96.1294 414.928 95.8694 414.972 95.5654 414.972C95.0774 414.972 94.6974 414.864 94.4254 414.648C94.1614 414.424 94.0294 414.14 94.0294 413.796C94.0294 413.436 94.1734 413.156 94.4614 412.956C94.7494 412.748 95.1934 412.644 95.7934 412.644H96.7294C96.7214 412.172 96.4134 411.936 95.8054 411.936C95.5974 411.936 95.3854 411.972 95.1694 412.044C94.9534 412.108 94.7694 412.196 94.6174 412.308L94.1734 411.492C94.3974 411.34 94.6734 411.22 95.0014 411.132C95.3294 411.044 95.6574 411 95.9854 411ZM95.9014 414.168C96.3094 414.168 96.5854 414.02 96.7294 413.724V413.328H95.9854C95.4974 413.328 95.2534 413.468 95.2534 413.748C95.2534 413.884 95.3094 413.988 95.4214 414.06C95.5414 414.132 95.7014 414.168 95.9014 414.168ZM108.565 418.2H104.665L103.921 420H101.929L105.673 411.6H107.593L111.349 420H109.309L108.565 418.2ZM107.953 416.724L106.621 413.508L105.289 416.724H107.953ZM118.475 413.544V420H116.699V419.232C116.451 419.512 116.155 419.728 115.811 419.88C115.467 420.024 115.095 420.096 114.695 420.096C113.847 420.096 113.175 419.852 112.679 419.364C112.183 418.876 111.935 418.152 111.935 417.192V413.544H113.807V416.916C113.807 417.956 114.243 418.476 115.115 418.476C115.563 418.476 115.923 418.332 116.195 418.044C116.467 417.748 116.603 417.312 116.603 416.736V413.544H118.475ZM120.21 411.096H122.082V420H120.21V411.096ZM126.423 413.448C127.423 413.448 128.191 413.688 128.727 414.168C129.263 414.64 129.531 415.356 129.531 416.316V420H127.779V419.196C127.427 419.796 126.771 420.096 125.811 420.096C125.315 420.096 124.883 420.012 124.515 419.844C124.155 419.676 123.879 419.444 123.687 419.148C123.495 418.852 123.399 418.516 123.399 418.14C123.399 417.54 123.623 417.068 124.071 416.724C124.527 416.38 125.227 416.208 126.171 416.208H127.659C127.659 415.8 127.535 415.488 127.287 415.272C127.039 415.048 126.667 414.936 126.171 414.936C125.827 414.936 125.487 414.992 125.151 415.104C124.823 415.208 124.543 415.352 124.311 415.536L123.639 414.228C123.991 413.98 124.411 413.788 124.899 413.652C125.395 413.516 125.903 413.448 126.423 413.448ZM126.279 418.836C126.599 418.836 126.883 418.764 127.131 418.62C127.379 418.468 127.555 418.248 127.659 417.96V417.3H126.375C125.607 417.3 125.223 417.552 125.223 418.056C125.223 418.296 125.315 418.488 125.499 418.632C125.691 418.768 125.951 418.836 126.279 418.836ZM140.432 415.668H142.208V419.076C141.752 419.42 141.224 419.684 140.624 419.868C140.024 420.052 139.42 420.144 138.812 420.144C137.94 420.144 137.156 419.96 136.46 419.592C135.764 419.216 135.216 418.7 134.816 418.044C134.424 417.38 134.228 416.632 134.228 415.8C134.228 414.968 134.424 414.224 134.816 413.568C135.216 412.904 135.768 412.388 136.472 412.02C137.176 411.644 137.968 411.456 138.848 411.456C139.584 411.456 140.252 411.58 140.852 411.828C141.452 412.076 141.956 412.436 142.364 412.908L141.116 414.06C140.516 413.428 139.792 413.112 138.944 413.112C138.408 413.112 137.932 413.224 137.516 413.448C137.1 413.672 136.776 413.988 136.544 414.396C136.312 414.804 136.196 415.272 136.196 415.8C136.196 416.32 136.312 416.784 136.544 417.192C136.776 417.6 137.096 417.92 137.504 418.152C137.92 418.376 138.392 418.488 138.92 418.488C139.48 418.488 139.984 418.368 140.432 418.128V415.668ZM145.67 414.396C145.894 414.084 146.194 413.848 146.57 413.688C146.954 413.528 147.394 413.448 147.89 413.448V415.176C147.682 415.16 147.542 415.152 147.47 415.152C146.934 415.152 146.514 415.304 146.21 415.608C145.906 415.904 145.754 416.352 145.754 416.952V420H143.882V413.544H145.67V414.396ZM151.572 413.448C152.572 413.448 153.34 413.688 153.876 414.168C154.412 414.64 154.68 415.356 154.68 416.316V420H152.928V419.196C152.576 419.796 151.92 420.096 150.96 420.096C150.464 420.096 150.032 420.012 149.664 419.844C149.304 419.676 149.028 419.444 148.836 419.148C148.644 418.852 148.548 418.516 148.548 418.14C148.548 417.54 148.772 417.068 149.22 416.724C149.676 416.38 150.376 416.208 151.32 416.208H152.808C152.808 415.8 152.684 415.488 152.436 415.272C152.188 415.048 151.816 414.936 151.32 414.936C150.976 414.936 150.636 414.992 150.3 415.104C149.972 415.208 149.692 415.352 149.46 415.536L148.788 414.228C149.14 413.98 149.56 413.788 150.048 413.652C150.544 413.516 151.052 413.448 151.572 413.448ZM151.428 418.836C151.748 418.836 152.032 418.764 152.28 418.62C152.528 418.468 152.704 418.248 152.808 417.96V417.3H151.524C150.756 417.3 150.372 417.552 150.372 418.056C150.372 418.296 150.464 418.488 150.648 418.632C150.84 418.768 151.1 418.836 151.428 418.836ZM152.292 410.988H154.308L152.136 412.716H150.672L152.292 410.988ZM160.538 419.688C160.354 419.824 160.126 419.928 159.854 420C159.59 420.064 159.31 420.096 159.014 420.096C158.246 420.096 157.65 419.9 157.226 419.508C156.81 419.116 156.602 418.54 156.602 417.78V415.128H155.606V413.688H156.602V412.116H158.474V413.688H160.082V415.128H158.474V417.756C158.474 418.028 158.542 418.24 158.678 418.392C158.822 418.536 159.022 418.608 159.278 418.608C159.574 418.608 159.826 418.528 160.034 418.368L160.538 419.688ZM161.589 413.544H163.461V420H161.589V413.544ZM162.525 412.644C162.181 412.644 161.901 412.544 161.685 412.344C161.469 412.144 161.361 411.896 161.361 411.6C161.361 411.304 161.469 411.056 161.685 410.856C161.901 410.656 162.181 410.556 162.525 410.556C162.869 410.556 163.149 410.652 163.365 410.844C163.581 411.036 163.689 411.276 163.689 411.564C163.689 411.876 163.581 412.136 163.365 412.344C163.149 412.544 162.869 412.644 162.525 412.644ZM167.37 420.096C166.834 420.096 166.31 420.032 165.798 419.904C165.286 419.768 164.878 419.6 164.574 419.4L165.198 418.056C165.486 418.24 165.834 418.392 166.242 418.512C166.65 418.624 167.05 418.68 167.442 418.68C168.234 418.68 168.63 418.484 168.63 418.092C168.63 417.908 168.522 417.776 168.306 417.696C168.09 417.616 167.758 417.548 167.31 417.492C166.782 417.412 166.346 417.32 166.002 417.216C165.658 417.112 165.358 416.928 165.102 416.664C164.854 416.4 164.73 416.024 164.73 415.536C164.73 415.128 164.846 414.768 165.078 414.456C165.318 414.136 165.662 413.888 166.11 413.712C166.566 413.536 167.102 413.448 167.718 413.448C168.174 413.448 168.626 413.5 169.074 413.604C169.53 413.7 169.906 413.836 170.202 414.012L169.578 415.344C169.01 415.024 168.39 414.864 167.718 414.864C167.318 414.864 167.018 414.92 166.818 415.032C166.618 415.144 166.518 415.288 166.518 415.464C166.518 415.664 166.626 415.804 166.842 415.884C167.058 415.964 167.402 416.04 167.874 416.112C168.402 416.2 168.834 416.296 169.17 416.4C169.506 416.496 169.798 416.676 170.046 416.94C170.294 417.204 170.418 417.572 170.418 418.044C170.418 418.444 170.298 418.8 170.058 419.112C169.818 419.424 169.466 419.668 169.002 419.844C168.546 420.012 168.002 420.096 167.37 420.096Z" fill="black"/>
<path d="M188 416C188 407.163 195.163 400 204 400H312C320.837 400 328 407.163 328 416C328 424.837 320.837 432 312 432H204C195.163 432 188 424.837 188 416Z" fill="#03658C" fill-opacity="0.6"/>
<path d="M217.397 418.53H216.257V420H214.677V418.53H210.907V417.44L214.207 413H215.907L212.847 417.21H214.727V415.9H216.257V417.21H217.397V418.53ZM218.997 420.08C218.723 420.08 218.493 419.987 218.307 419.8C218.12 419.613 218.027 419.38 218.027 419.1C218.027 418.813 218.12 418.583 218.307 418.41C218.493 418.23 218.723 418.14 218.997 418.14C219.27 418.14 219.5 418.23 219.687 418.41C219.873 418.583 219.967 418.813 219.967 419.1C219.967 419.38 219.873 419.613 219.687 419.8C219.5 419.987 219.27 420.08 218.997 420.08ZM223.237 413V420H221.617V414.3H220.217V413H223.237ZM228.876 421.94C228.476 421.333 228.166 420.63 227.946 419.83C227.732 419.03 227.626 418.173 227.626 417.26C227.626 416.347 227.732 415.49 227.946 414.69C228.166 413.883 228.476 413.18 228.876 412.58H230.366C229.946 413.32 229.639 414.073 229.446 414.84C229.252 415.6 229.156 416.407 229.156 417.26C229.156 418.113 229.252 418.923 229.446 419.69C229.639 420.45 229.946 421.2 230.366 421.94H228.876ZM233.657 413V420H232.037V414.3H230.637V413H233.657ZM240.103 418.68V420H234.813V418.95L237.513 416.4C237.8 416.127 237.993 415.893 238.093 415.7C238.193 415.5 238.243 415.303 238.243 415.11C238.243 414.83 238.147 414.617 237.953 414.47C237.767 414.317 237.49 414.24 237.123 414.24C236.817 414.24 236.54 414.3 236.293 414.42C236.047 414.533 235.84 414.707 235.673 414.94L234.493 414.18C234.767 413.773 235.143 413.457 235.623 413.23C236.103 412.997 236.653 412.88 237.273 412.88C237.793 412.88 238.247 412.967 238.633 413.14C239.027 413.307 239.33 413.547 239.543 413.86C239.763 414.167 239.873 414.53 239.873 414.95C239.873 415.33 239.793 415.687 239.633 416.02C239.473 416.353 239.163 416.733 238.703 417.16L237.093 418.68H240.103ZM248.654 418.5H245.404L244.784 420H243.124L246.244 413H247.844L250.974 420H249.274L248.654 418.5ZM248.144 417.27L247.034 414.59L245.924 417.27H248.144ZM256.647 414.62L254.377 420H252.767L250.507 414.62H252.117L253.607 418.28L255.147 414.62H256.647ZM259.278 414.54C260.111 414.54 260.751 414.74 261.198 415.14C261.644 415.533 261.868 416.13 261.868 416.93V420H260.408V419.33C260.114 419.83 259.568 420.08 258.768 420.08C258.354 420.08 257.994 420.01 257.688 419.87C257.388 419.73 257.158 419.537 256.998 419.29C256.838 419.043 256.758 418.763 256.758 418.45C256.758 417.95 256.944 417.557 257.318 417.27C257.698 416.983 258.281 416.84 259.068 416.84H260.308C260.308 416.5 260.204 416.24 259.998 416.06C259.791 415.873 259.481 415.78 259.068 415.78C258.781 415.78 258.498 415.827 258.218 415.92C257.944 416.007 257.711 416.127 257.518 416.28L256.958 415.19C257.251 414.983 257.601 414.823 258.008 414.71C258.421 414.597 258.844 414.54 259.278 414.54ZM259.158 419.03C259.424 419.03 259.661 418.97 259.868 418.85C260.074 418.723 260.221 418.54 260.308 418.3V417.75H259.238C258.598 417.75 258.278 417.96 258.278 418.38C258.278 418.58 258.354 418.74 258.508 418.86C258.668 418.973 258.884 419.03 259.158 419.03ZM263.28 412.58H264.84V420H263.28V412.58ZM266.287 414.62H267.847V420H266.287V414.62ZM267.067 413.87C266.781 413.87 266.547 413.787 266.367 413.62C266.187 413.453 266.097 413.247 266.097 413C266.097 412.753 266.187 412.547 266.367 412.38C266.547 412.213 266.781 412.13 267.067 412.13C267.354 412.13 267.587 412.21 267.767 412.37C267.947 412.53 268.037 412.73 268.037 412.97C268.037 413.23 267.947 413.447 267.767 413.62C267.587 413.787 267.354 413.87 267.067 413.87ZM271.465 414.54C272.299 414.54 272.939 414.74 273.385 415.14C273.832 415.533 274.055 416.13 274.055 416.93V420H272.595V419.33C272.302 419.83 271.755 420.08 270.955 420.08C270.542 420.08 270.182 420.01 269.875 419.87C269.575 419.73 269.345 419.537 269.185 419.29C269.025 419.043 268.945 418.763 268.945 418.45C268.945 417.95 269.132 417.557 269.505 417.27C269.885 416.983 270.469 416.84 271.255 416.84H272.495C272.495 416.5 272.392 416.24 272.185 416.06C271.979 415.873 271.669 415.78 271.255 415.78C270.969 415.78 270.685 415.827 270.405 415.92C270.132 416.007 269.899 416.127 269.705 416.28L269.145 415.19C269.439 414.983 269.789 414.823 270.195 414.71C270.609 414.597 271.032 414.54 271.465 414.54ZM271.345 419.03C271.612 419.03 271.849 418.97 272.055 418.85C272.262 418.723 272.409 418.54 272.495 418.3V417.75H271.425C270.785 417.75 270.465 417.96 270.465 418.38C270.465 418.58 270.542 418.74 270.695 418.86C270.855 418.973 271.072 419.03 271.345 419.03ZM278.126 420.08C277.552 420.08 277.036 419.963 276.576 419.73C276.122 419.49 275.766 419.16 275.506 418.74C275.252 418.32 275.126 417.843 275.126 417.31C275.126 416.777 275.252 416.3 275.506 415.88C275.766 415.46 276.122 415.133 276.576 414.9C277.036 414.66 277.552 414.54 278.126 414.54C278.692 414.54 279.186 414.66 279.606 414.9C280.032 415.133 280.342 415.47 280.536 415.91L279.326 416.56C279.046 416.067 278.642 415.82 278.116 415.82C277.709 415.82 277.372 415.953 277.106 416.22C276.839 416.487 276.706 416.85 276.706 417.31C276.706 417.77 276.839 418.133 277.106 418.4C277.372 418.667 277.709 418.8 278.116 418.8C278.649 418.8 279.052 418.553 279.326 418.06L280.536 418.72C280.342 419.147 280.032 419.48 279.606 419.72C279.186 419.96 278.692 420.08 278.126 420.08ZM277.556 422.32C277.382 422.32 277.212 422.3 277.046 422.26C276.879 422.227 276.739 422.177 276.626 422.11L276.866 421.44C277.079 421.54 277.296 421.59 277.516 421.59C277.862 421.59 278.036 421.483 278.036 421.27C278.036 421.077 277.872 420.98 277.546 420.98H277.206L277.466 419.92H278.296L278.156 420.5C278.449 420.533 278.666 420.623 278.806 420.77C278.952 420.923 279.026 421.11 279.026 421.33C279.026 421.637 278.892 421.877 278.626 422.05C278.359 422.23 278.002 422.32 277.556 422.32ZM283.926 420.08C283.359 420.08 282.849 419.963 282.396 419.73C281.949 419.49 281.599 419.16 281.346 418.74C281.092 418.32 280.966 417.843 280.966 417.31C280.966 416.777 281.092 416.3 281.346 415.88C281.599 415.46 281.949 415.133 282.396 414.9C282.849 414.66 283.359 414.54 283.926 414.54C284.492 414.54 284.999 414.66 285.446 414.9C285.892 415.133 286.242 415.46 286.496 415.88C286.749 416.3 286.876 416.777 286.876 417.31C286.876 417.843 286.749 418.32 286.496 418.74C286.242 419.16 285.892 419.49 285.446 419.73C284.999 419.963 284.492 420.08 283.926 420.08ZM283.926 418.8C284.326 418.8 284.652 418.667 284.906 418.4C285.166 418.127 285.296 417.763 285.296 417.31C285.296 416.857 285.166 416.497 284.906 416.23C284.652 415.957 284.326 415.82 283.926 415.82C283.526 415.82 283.196 415.957 282.936 416.23C282.676 416.497 282.546 416.857 282.546 417.31C282.546 417.763 282.676 418.127 282.936 418.4C283.196 418.667 283.526 418.8 283.926 418.8ZM284.656 413.96C284.476 413.96 284.316 413.927 284.176 413.86C284.042 413.787 283.892 413.69 283.726 413.57C283.619 413.49 283.529 413.43 283.456 413.39C283.389 413.35 283.322 413.33 283.256 413.33C283.116 413.33 283.002 413.38 282.916 413.48C282.829 413.573 282.782 413.71 282.776 413.89H281.986C281.999 413.443 282.109 413.09 282.316 412.83C282.529 412.563 282.809 412.43 283.156 412.43C283.329 412.43 283.482 412.467 283.616 412.54C283.756 412.607 283.912 412.703 284.086 412.83C284.192 412.91 284.279 412.97 284.346 413.01C284.419 413.05 284.489 413.07 284.556 413.07C284.689 413.07 284.799 413.023 284.886 412.93C284.979 412.83 285.029 412.697 285.036 412.53H285.826C285.812 412.963 285.699 413.31 285.486 413.57C285.279 413.83 285.002 413.96 284.656 413.96ZM293.188 417.33C293.188 417.35 293.178 417.49 293.158 417.75H289.088C289.162 418.083 289.335 418.347 289.608 418.54C289.882 418.733 290.222 418.83 290.628 418.83C290.908 418.83 291.155 418.79 291.368 418.71C291.588 418.623 291.792 418.49 291.978 418.31L292.808 419.21C292.302 419.79 291.562 420.08 290.588 420.08C289.982 420.08 289.445 419.963 288.978 419.73C288.512 419.49 288.152 419.16 287.898 418.74C287.645 418.32 287.518 417.843 287.518 417.31C287.518 416.783 287.642 416.31 287.888 415.89C288.142 415.463 288.485 415.133 288.918 414.9C289.358 414.66 289.848 414.54 290.388 414.54C290.915 414.54 291.392 414.653 291.818 414.88C292.245 415.107 292.578 415.433 292.818 415.86C293.065 416.28 293.188 416.77 293.188 417.33ZM290.398 415.72C290.045 415.72 289.748 415.82 289.508 416.02C289.268 416.22 289.122 416.493 289.068 416.84H291.718C291.665 416.5 291.518 416.23 291.278 416.03C291.038 415.823 290.745 415.72 290.398 415.72ZM296.037 420.08C295.59 420.08 295.154 420.027 294.727 419.92C294.3 419.807 293.96 419.667 293.707 419.5L294.227 418.38C294.467 418.533 294.757 418.66 295.097 418.76C295.437 418.853 295.77 418.9 296.097 418.9C296.757 418.9 297.087 418.737 297.087 418.41C297.087 418.257 296.997 418.147 296.817 418.08C296.637 418.013 296.36 417.957 295.987 417.91C295.547 417.843 295.184 417.767 294.897 417.68C294.61 417.593 294.36 417.44 294.147 417.22C293.94 417 293.837 416.687 293.837 416.28C293.837 415.94 293.934 415.64 294.127 415.38C294.327 415.113 294.614 414.907 294.987 414.76C295.367 414.613 295.814 414.54 296.327 414.54C296.707 414.54 297.084 414.583 297.457 414.67C297.837 414.75 298.15 414.863 298.397 415.01L297.877 416.12C297.404 415.853 296.887 415.72 296.327 415.72C295.994 415.72 295.744 415.767 295.577 415.86C295.41 415.953 295.327 416.073 295.327 416.22C295.327 416.387 295.417 416.503 295.597 416.57C295.777 416.637 296.064 416.7 296.457 416.76C296.897 416.833 297.257 416.913 297.537 417C297.817 417.08 298.06 417.23 298.267 417.45C298.474 417.67 298.577 417.977 298.577 418.37C298.577 418.703 298.477 419 298.277 419.26C298.077 419.52 297.784 419.723 297.397 419.87C297.017 420.01 296.564 420.08 296.037 420.08ZM298.919 421.94C299.339 421.2 299.646 420.45 299.839 419.69C300.039 418.923 300.139 418.113 300.139 417.26C300.139 416.407 300.039 415.6 299.839 414.84C299.646 414.073 299.339 413.32 298.919 412.58H300.409C300.816 413.173 301.126 413.873 301.339 414.68C301.559 415.48 301.669 416.34 301.669 417.26C301.669 418.18 301.563 419.04 301.349 419.84C301.136 420.633 300.823 421.333 300.409 421.94H298.919Z" fill="black"/>
<defs>
<linearGradient id="paint0_linear" x1="38" y1="23" x2="38" y2="294" gradientUnits="userSpaceOnUse">
<stop stop-color="#806A6A"/>
<stop offset="1" stop-color="#665654"/>
</linearGradient>
<linearGradient id="paint1_linear" x1="237.637" y1="45.5833" x2="237.637" y2="94.3324" gradientUnits="userSpaceOnUse">
<stop stop-color="#1D0024"/>
<stop offset="1" stop-color="#100014"/>
</linearGradient>
<linearGradient id="paint2_linear" x1="100.837" y1="58.7786" x2="100.837" y2="172.667" gradientUnits="userSpaceOnUse">
<stop stop-color="#1D0024"/>
<stop offset="1" stop-color="#100014"/>
</linearGradient>
<linearGradient id="paint3_linear" x1="121.198" y1="102.945" x2="121.198" y2="226.25" gradientUnits="userSpaceOnUse">
<stop stop-color="#F7B186"/>
<stop offset="1" stop-color="#FFC299"/>
</linearGradient>
<linearGradient id="paint4_linear" x1="266.543" y1="301.327" x2="266.543" y2="199.15" gradientUnits="userSpaceOnUse">
<stop stop-color="#FCF2EB"/>
<stop offset="1" stop-color="#FFF9F5"/>
</linearGradient>
<linearGradient id="paint5_linear" x1="204.199" y1="80.8134" x2="204.199" y2="210.828" gradientUnits="userSpaceOnUse">
<stop stop-color="#1D0024"/>
<stop offset="1" stop-color="#100014"/>
</linearGradient>
</defs>
</svg>
