<svg width="348" height="450" viewBox="0 0 348 450" fill="none" xmlns="http://www.w3.org/2000/svg">
<rect width="348" height="450" fill="#03658C" fill-opacity="0.16"/>
<path d="M112.622 308.74V312.07H118.454V314.41H112.622V319H109.706V306.4H119.228V308.74H112.622ZM121.004 305.644H123.812V319H121.004V305.644ZM130.324 309.172C131.824 309.172 132.976 309.532 133.78 310.252C134.584 310.96 134.986 312.034 134.986 313.474V319H132.358V317.794C131.83 318.694 130.846 319.144 129.406 319.144C128.662 319.144 128.014 319.018 127.462 318.766C126.922 318.514 126.508 318.166 126.22 317.722C125.932 317.278 125.788 316.774 125.788 316.21C125.788 315.31 126.124 314.602 126.796 314.086C127.48 313.57 128.53 313.312 129.946 313.312H132.178C132.178 312.7 131.992 312.232 131.62 311.908C131.248 311.572 130.69 311.404 129.946 311.404C129.43 311.404 128.92 311.488 128.416 311.656C127.924 311.812 127.504 312.028 127.156 312.304L126.148 310.342C126.676 309.97 127.306 309.682 128.038 309.478C128.782 309.274 129.544 309.172 130.324 309.172ZM130.108 317.254C130.588 317.254 131.014 317.146 131.386 316.93C131.758 316.702 132.022 316.372 132.178 315.94V314.95H130.252C129.1 314.95 128.524 315.328 128.524 316.084C128.524 316.444 128.662 316.732 128.938 316.948C129.226 317.152 129.616 317.254 130.108 317.254ZM131.404 305.482H134.428L131.17 308.074H128.974L131.404 305.482ZM146.964 309.316L142.878 319H139.98L135.912 309.316H138.81L141.492 315.904L144.264 309.316H146.964ZM148.109 309.316H150.917V319H148.109V309.316ZM149.513 307.966C148.997 307.966 148.577 307.816 148.253 307.516C147.929 307.216 147.767 306.844 147.767 306.4C147.767 305.956 147.929 305.584 148.253 305.284C148.577 304.984 148.997 304.834 149.513 304.834C150.029 304.834 150.449 304.978 150.773 305.266C151.097 305.554 151.259 305.914 151.259 306.346C151.259 306.814 151.097 307.204 150.773 307.516C150.449 307.816 150.029 307.966 149.513 307.966ZM157.43 309.172C158.93 309.172 160.082 309.532 160.886 310.252C161.69 310.96 162.092 312.034 162.092 313.474V319H159.464V317.794C158.936 318.694 157.952 319.144 156.512 319.144C155.768 319.144 155.12 319.018 154.568 318.766C154.028 318.514 153.614 318.166 153.326 317.722C153.038 317.278 152.894 316.774 152.894 316.21C152.894 315.31 153.23 314.602 153.902 314.086C154.586 313.57 155.636 313.312 157.052 313.312H159.284C159.284 312.7 159.098 312.232 158.726 311.908C158.354 311.572 157.796 311.404 157.052 311.404C156.536 311.404 156.026 311.488 155.522 311.656C155.03 311.812 154.61 312.028 154.262 312.304L153.254 310.342C153.782 309.97 154.412 309.682 155.144 309.478C155.888 309.274 156.65 309.172 157.43 309.172ZM157.214 317.254C157.694 317.254 158.12 317.146 158.492 316.93C158.864 316.702 159.128 316.372 159.284 315.94V314.95H157.358C156.206 314.95 155.63 315.328 155.63 316.084C155.63 316.444 155.768 316.732 156.044 316.948C156.332 317.152 156.722 317.254 157.214 317.254ZM172.845 308.74V312.07H178.677V314.41H172.845V319H169.929V306.4H179.451V308.74H172.845ZM183.733 310.594C184.069 310.126 184.519 309.772 185.083 309.532C185.659 309.292 186.319 309.172 187.063 309.172V311.764C186.751 311.74 186.541 311.728 186.433 311.728C185.629 311.728 184.999 311.956 184.543 312.412C184.087 312.856 183.859 313.528 183.859 314.428V319H181.051V309.316H183.733V310.594ZM192.586 309.172C194.086 309.172 195.238 309.532 196.042 310.252C196.846 310.96 197.248 312.034 197.248 313.474V319H194.62V317.794C194.092 318.694 193.108 319.144 191.668 319.144C190.924 319.144 190.276 319.018 189.724 318.766C189.184 318.514 188.77 318.166 188.482 317.722C188.194 317.278 188.05 316.774 188.05 316.21C188.05 315.31 188.386 314.602 189.058 314.086C189.742 313.57 190.792 313.312 192.208 313.312H194.44C194.44 312.7 194.254 312.232 193.882 311.908C193.51 311.572 192.952 311.404 192.208 311.404C191.692 311.404 191.182 311.488 190.678 311.656C190.186 311.812 189.766 312.028 189.418 312.304L188.41 310.342C188.938 309.97 189.568 309.682 190.3 309.478C191.044 309.274 191.806 309.172 192.586 309.172ZM192.37 317.254C192.85 317.254 193.276 317.146 193.648 316.93C194.02 316.702 194.284 316.372 194.44 315.94V314.95H192.514C191.362 314.95 190.786 315.328 190.786 316.084C190.786 316.444 190.924 316.732 191.2 316.948C191.488 317.152 191.878 317.254 192.37 317.254ZM205.675 309.172C206.875 309.172 207.841 309.532 208.573 310.252C209.317 310.972 209.689 312.04 209.689 313.456V319H206.881V313.888C206.881 313.12 206.713 312.55 206.377 312.178C206.041 311.794 205.555 311.602 204.919 311.602C204.211 311.602 203.647 311.824 203.227 312.268C202.807 312.7 202.597 313.348 202.597 314.212V319H199.789V309.316H202.471V310.45C202.843 310.042 203.305 309.73 203.857 309.514C204.409 309.286 205.015 309.172 205.675 309.172ZM217.02 319.144C215.988 319.144 215.058 318.934 214.23 318.514C213.414 318.082 212.772 317.488 212.304 316.732C211.848 315.976 211.62 315.118 211.62 314.158C211.62 313.198 211.848 312.34 212.304 311.584C212.772 310.828 213.414 310.24 214.23 309.82C215.058 309.388 215.988 309.172 217.02 309.172C218.04 309.172 218.928 309.388 219.684 309.82C220.452 310.24 221.01 310.846 221.358 311.638L219.18 312.808C218.676 311.92 217.95 311.476 217.002 311.476C216.27 311.476 215.664 311.716 215.184 312.196C214.704 312.676 214.464 313.33 214.464 314.158C214.464 314.986 214.704 315.64 215.184 316.12C215.664 316.6 216.27 316.84 217.002 316.84C217.962 316.84 218.688 316.396 219.18 315.508L221.358 316.696C221.01 317.464 220.452 318.064 219.684 318.496C218.928 318.928 218.04 319.144 217.02 319.144ZM215.994 323.176C215.682 323.176 215.376 323.14 215.076 323.068C214.776 323.008 214.524 322.918 214.32 322.798L214.752 321.592C215.136 321.772 215.526 321.862 215.922 321.862C216.546 321.862 216.858 321.67 216.858 321.286C216.858 320.938 216.564 320.764 215.976 320.764H215.364L215.832 318.856H217.326L217.074 319.9C217.602 319.96 217.992 320.122 218.244 320.386C218.508 320.662 218.64 320.998 218.64 321.394C218.64 321.946 218.4 322.378 217.92 322.69C217.44 323.014 216.798 323.176 215.994 323.176ZM226.881 309.172C228.381 309.172 229.533 309.532 230.337 310.252C231.141 310.96 231.543 312.034 231.543 313.474V319H228.915V317.794C228.387 318.694 227.403 319.144 225.963 319.144C225.219 319.144 224.571 319.018 224.019 318.766C223.479 318.514 223.065 318.166 222.777 317.722C222.489 317.278 222.345 316.774 222.345 316.21C222.345 315.31 222.681 314.602 223.353 314.086C224.037 313.57 225.087 313.312 226.503 313.312H228.735C228.735 312.7 228.549 312.232 228.177 311.908C227.805 311.572 227.247 311.404 226.503 311.404C225.987 311.404 225.477 311.488 224.973 311.656C224.481 311.812 224.061 312.028 223.713 312.304L222.705 310.342C223.233 309.97 223.863 309.682 224.595 309.478C225.339 309.274 226.101 309.172 226.881 309.172ZM226.665 317.254C227.145 317.254 227.571 317.146 227.943 316.93C228.315 316.702 228.579 316.372 228.735 315.94V314.95H226.809C225.657 314.95 225.081 315.328 225.081 316.084C225.081 316.444 225.219 316.732 225.495 316.948C225.783 317.152 226.173 317.254 226.665 317.254Z" fill="black"/>
<path d="M61.1843 351.4C62.3003 351.4 63.2663 351.586 64.0823 351.958C64.9103 352.33 65.5463 352.858 65.9903 353.542C66.4343 354.226 66.6563 355.036 66.6563 355.972C66.6563 356.896 66.4343 357.706 65.9903 358.402C65.5463 359.086 64.9103 359.614 64.0823 359.986C63.2663 360.346 62.3003 360.526 61.1843 360.526H58.6463V364H55.7303V351.4H61.1843ZM61.0223 358.15C61.8983 358.15 62.5643 357.964 63.0203 357.592C63.4763 357.208 63.7043 356.668 63.7043 355.972C63.7043 355.264 63.4763 354.724 63.0203 354.352C62.5643 353.968 61.8983 353.776 61.0223 353.776H58.6463V358.15H61.0223ZM71.2221 355.594C71.5581 355.126 72.0081 354.772 72.5721 354.532C73.1481 354.292 73.8081 354.172 74.5521 354.172V356.764C74.2401 356.74 74.0301 356.728 73.9221 356.728C73.1181 356.728 72.4881 356.956 72.0321 357.412C71.5761 357.856 71.3481 358.528 71.3481 359.428V364H68.5401V354.316H71.2221V355.594ZM80.7419 364.144C79.7219 364.144 78.8039 363.934 77.9879 363.514C77.1839 363.082 76.5539 362.488 76.0979 361.732C75.6419 360.976 75.4139 360.118 75.4139 359.158C75.4139 358.198 75.6419 357.34 76.0979 356.584C76.5539 355.828 77.1839 355.24 77.9879 354.82C78.8039 354.388 79.7219 354.172 80.7419 354.172C81.7619 354.172 82.6739 354.388 83.4779 354.82C84.2819 355.24 84.9119 355.828 85.3679 356.584C85.8239 357.34 86.0519 358.198 86.0519 359.158C86.0519 360.118 85.8239 360.976 85.3679 361.732C84.9119 362.488 84.2819 363.082 83.4779 363.514C82.6739 363.934 81.7619 364.144 80.7419 364.144ZM80.7419 361.84C81.4619 361.84 82.0499 361.6 82.5059 361.12C82.9739 360.628 83.2079 359.974 83.2079 359.158C83.2079 358.342 82.9739 357.694 82.5059 357.214C82.0499 356.722 81.4619 356.476 80.7419 356.476C80.0219 356.476 79.4279 356.722 78.9599 357.214C78.4919 357.694 78.2579 358.342 78.2579 359.158C78.2579 359.974 78.4919 360.628 78.9599 361.12C79.4279 361.6 80.0219 361.84 80.7419 361.84ZM91.0068 354.532H93.4908V356.692H91.0788V364H88.2708V356.692H86.7768V354.532H88.2708V354.1C88.2708 352.996 88.5948 352.12 89.2428 351.472C89.9028 350.824 90.8268 350.5 92.0148 350.5C92.4348 350.5 92.8308 350.548 93.2028 350.644C93.5868 350.728 93.9048 350.854 94.1568 351.022L93.4188 353.056C93.0948 352.828 92.7168 352.714 92.2848 352.714C91.4328 352.714 91.0068 353.182 91.0068 354.118V354.532ZM104.253 359.194C104.253 359.23 104.235 359.482 104.199 359.95H96.8727C97.0047 360.55 97.3167 361.024 97.8087 361.372C98.3007 361.72 98.9127 361.894 99.6447 361.894C100.149 361.894 100.593 361.822 100.977 361.678C101.373 361.522 101.739 361.282 102.075 360.958L103.569 362.578C102.657 363.622 101.325 364.144 99.5727 364.144C98.4807 364.144 97.5147 363.934 96.6747 363.514C95.8347 363.082 95.1867 362.488 94.7307 361.732C94.2747 360.976 94.0467 360.118 94.0467 359.158C94.0467 358.21 94.2687 357.358 94.7127 356.602C95.1687 355.834 95.7867 355.24 96.5667 354.82C97.3587 354.388 98.2407 354.172 99.2127 354.172C100.161 354.172 101.019 354.376 101.787 354.784C102.555 355.192 103.155 355.78 103.587 356.548C104.031 357.304 104.253 358.186 104.253 359.194ZM99.2307 356.296C98.5947 356.296 98.0607 356.476 97.6287 356.836C97.1967 357.196 96.9327 357.688 96.8367 358.312H101.607C101.511 357.7 101.247 357.214 100.815 356.854C100.383 356.482 99.8547 356.296 99.2307 356.296ZM109.38 364.144C108.576 364.144 107.79 364.048 107.022 363.856C106.254 363.652 105.642 363.4 105.186 363.1L106.122 361.084C106.554 361.36 107.076 361.588 107.688 361.768C108.3 361.936 108.9 362.02 109.488 362.02C110.676 362.02 111.27 361.726 111.27 361.138C111.27 360.862 111.108 360.664 110.784 360.544C110.46 360.424 109.962 360.322 109.29 360.238C108.498 360.118 107.844 359.98 107.328 359.824C106.812 359.668 106.362 359.392 105.978 358.996C105.606 358.6 105.42 358.036 105.42 357.304C105.42 356.692 105.594 356.152 105.942 355.684C106.302 355.204 106.818 354.832 107.49 354.568C108.174 354.304 108.978 354.172 109.902 354.172C110.586 354.172 111.264 354.25 111.936 354.406C112.62 354.55 113.184 354.754 113.628 355.018L112.692 357.016C111.84 356.536 110.91 356.296 109.902 356.296C109.302 356.296 108.852 356.38 108.552 356.548C108.252 356.716 108.102 356.932 108.102 357.196C108.102 357.496 108.264 357.706 108.588 357.826C108.912 357.946 109.428 358.06 110.136 358.168C110.928 358.3 111.576 358.444 112.08 358.6C112.584 358.744 113.022 359.014 113.394 359.41C113.766 359.806 113.952 360.358 113.952 361.066C113.952 361.666 113.772 362.2 113.412 362.668C113.052 363.136 112.524 363.502 111.828 363.766C111.144 364.018 110.328 364.144 109.38 364.144ZM118.943 364.144C118.139 364.144 117.353 364.048 116.585 363.856C115.817 363.652 115.205 363.4 114.749 363.1L115.685 361.084C116.117 361.36 116.639 361.588 117.251 361.768C117.863 361.936 118.463 362.02 119.051 362.02C120.239 362.02 120.833 361.726 120.833 361.138C120.833 360.862 120.671 360.664 120.347 360.544C120.023 360.424 119.525 360.322 118.853 360.238C118.061 360.118 117.407 359.98 116.891 359.824C116.375 359.668 115.925 359.392 115.541 358.996C115.169 358.6 114.983 358.036 114.983 357.304C114.983 356.692 115.157 356.152 115.505 355.684C115.865 355.204 116.381 354.832 117.053 354.568C117.737 354.304 118.541 354.172 119.465 354.172C120.149 354.172 120.827 354.25 121.499 354.406C122.183 354.55 122.747 354.754 123.191 355.018L122.255 357.016C121.403 356.536 120.473 356.296 119.465 356.296C118.865 356.296 118.415 356.38 118.115 356.548C117.815 356.716 117.665 356.932 117.665 357.196C117.665 357.496 117.827 357.706 118.151 357.826C118.475 357.946 118.991 358.06 119.699 358.168C120.491 358.3 121.139 358.444 121.643 358.6C122.147 358.744 122.585 359.014 122.957 359.41C123.329 359.806 123.515 360.358 123.515 361.066C123.515 361.666 123.335 362.2 122.975 362.668C122.615 363.136 122.087 363.502 121.391 363.766C120.707 364.018 119.891 364.144 118.943 364.144ZM129.855 364.144C128.835 364.144 127.917 363.934 127.101 363.514C126.297 363.082 125.667 362.488 125.211 361.732C124.755 360.976 124.527 360.118 124.527 359.158C124.527 358.198 124.755 357.34 125.211 356.584C125.667 355.828 126.297 355.24 127.101 354.82C127.917 354.388 128.835 354.172 129.855 354.172C130.875 354.172 131.787 354.388 132.591 354.82C133.395 355.24 134.025 355.828 134.481 356.584C134.937 357.34 135.165 358.198 135.165 359.158C135.165 360.118 134.937 360.976 134.481 361.732C134.025 362.488 133.395 363.082 132.591 363.514C131.787 363.934 130.875 364.144 129.855 364.144ZM129.855 361.84C130.575 361.84 131.163 361.6 131.619 361.12C132.087 360.628 132.321 359.974 132.321 359.158C132.321 358.342 132.087 357.694 131.619 357.214C131.163 356.722 130.575 356.476 129.855 356.476C129.135 356.476 128.541 356.722 128.073 357.214C127.605 357.694 127.371 358.342 127.371 359.158C127.371 359.974 127.605 360.628 128.073 361.12C128.541 361.6 129.135 361.84 129.855 361.84ZM139.724 355.594C140.06 355.126 140.51 354.772 141.074 354.532C141.65 354.292 142.31 354.172 143.054 354.172V356.764C142.742 356.74 142.532 356.728 142.424 356.728C141.62 356.728 140.99 356.956 140.534 357.412C140.078 357.856 139.85 358.528 139.85 359.428V364H137.042V354.316H139.724V355.594ZM148.577 354.172C150.077 354.172 151.229 354.532 152.033 355.252C152.837 355.96 153.239 357.034 153.239 358.474V364H150.611V362.794C150.083 363.694 149.099 364.144 147.659 364.144C146.915 364.144 146.267 364.018 145.715 363.766C145.175 363.514 144.761 363.166 144.473 362.722C144.185 362.278 144.041 361.774 144.041 361.21C144.041 360.31 144.377 359.602 145.049 359.086C145.733 358.57 146.783 358.312 148.199 358.312H150.431C150.431 357.7 150.245 357.232 149.873 356.908C149.501 356.572 148.943 356.404 148.199 356.404C147.683 356.404 147.173 356.488 146.669 356.656C146.177 356.812 145.757 357.028 145.409 357.304L144.401 355.342C144.929 354.97 145.559 354.682 146.291 354.478C147.035 354.274 147.797 354.172 148.577 354.172ZM148.361 362.254C148.841 362.254 149.267 362.146 149.639 361.93C150.011 361.702 150.275 361.372 150.431 360.94V359.95H148.505C147.353 359.95 146.777 360.328 146.777 361.084C146.777 361.444 146.915 361.732 147.191 361.948C147.479 362.152 147.869 362.254 148.361 362.254ZM170.742 350.644V364H168.06V362.884C167.364 363.724 166.356 364.144 165.036 364.144C164.124 364.144 163.296 363.94 162.552 363.532C161.82 363.124 161.244 362.542 160.824 361.786C160.404 361.03 160.194 360.154 160.194 359.158C160.194 358.162 160.404 357.286 160.824 356.53C161.244 355.774 161.82 355.192 162.552 354.784C163.296 354.376 164.124 354.172 165.036 354.172C166.272 354.172 167.238 354.562 167.934 355.342V350.644H170.742ZM165.522 361.84C166.23 361.84 166.818 361.6 167.286 361.12C167.754 360.628 167.988 359.974 167.988 359.158C167.988 358.342 167.754 357.694 167.286 357.214C166.818 356.722 166.23 356.476 165.522 356.476C164.802 356.476 164.208 356.722 163.74 357.214C163.272 357.694 163.038 358.342 163.038 359.158C163.038 359.974 163.272 360.628 163.74 361.12C164.208 361.6 164.802 361.84 165.522 361.84ZM182.827 359.194C182.827 359.23 182.809 359.482 182.773 359.95H175.447C175.579 360.55 175.891 361.024 176.383 361.372C176.875 361.72 177.487 361.894 178.219 361.894C178.723 361.894 179.167 361.822 179.551 361.678C179.947 361.522 180.313 361.282 180.649 360.958L182.143 362.578C181.231 363.622 179.899 364.144 178.147 364.144C177.055 364.144 176.089 363.934 175.249 363.514C174.409 363.082 173.761 362.488 173.305 361.732C172.849 360.976 172.621 360.118 172.621 359.158C172.621 358.21 172.843 357.358 173.287 356.602C173.743 355.834 174.361 355.24 175.141 354.82C175.933 354.388 176.815 354.172 177.787 354.172C178.735 354.172 179.593 354.376 180.361 354.784C181.129 355.192 181.729 355.78 182.161 356.548C182.605 357.304 182.827 358.186 182.827 359.194ZM177.805 356.296C177.169 356.296 176.635 356.476 176.203 356.836C175.771 357.196 175.507 357.688 175.411 358.312H180.181C180.085 357.7 179.821 357.214 179.389 356.854C178.957 356.482 178.429 356.296 177.805 356.296ZM189.992 351.4H192.908V361.624H199.226V364H189.992V351.4ZM200.657 354.316H203.465V364H200.657V354.316ZM202.061 352.966C201.545 352.966 201.125 352.816 200.801 352.516C200.477 352.216 200.315 351.844 200.315 351.4C200.315 350.956 200.477 350.584 200.801 350.284C201.125 349.984 201.545 349.834 202.061 349.834C202.577 349.834 202.997 349.978 203.321 350.266C203.645 350.554 203.807 350.914 203.807 351.346C203.807 351.814 203.645 352.204 203.321 352.516C202.997 352.816 202.577 352.966 202.061 352.966ZM212.317 363.532C212.041 363.736 211.699 363.892 211.291 364C210.895 364.096 210.475 364.144 210.031 364.144C208.879 364.144 207.985 363.85 207.349 363.262C206.725 362.674 206.413 361.81 206.413 360.67V356.692H204.919V354.532H206.413V352.174H209.221V354.532H211.633V356.692H209.221V360.634C209.221 361.042 209.323 361.36 209.527 361.588C209.743 361.804 210.043 361.912 210.427 361.912C210.871 361.912 211.249 361.792 211.561 361.552L212.317 363.532ZM223.081 359.194C223.081 359.23 223.063 359.482 223.027 359.95H215.701C215.833 360.55 216.145 361.024 216.637 361.372C217.129 361.72 217.741 361.894 218.473 361.894C218.977 361.894 219.421 361.822 219.805 361.678C220.201 361.522 220.567 361.282 220.903 360.958L222.397 362.578C221.485 363.622 220.153 364.144 218.401 364.144C217.309 364.144 216.343 363.934 215.503 363.514C214.663 363.082 214.015 362.488 213.559 361.732C213.103 360.976 212.875 360.118 212.875 359.158C212.875 358.21 213.097 357.358 213.541 356.602C213.997 355.834 214.615 355.24 215.395 354.82C216.187 354.388 217.069 354.172 218.041 354.172C218.989 354.172 219.847 354.376 220.615 354.784C221.383 355.192 221.983 355.78 222.415 356.548C222.859 357.304 223.081 358.186 223.081 359.194ZM218.059 356.296C217.423 356.296 216.889 356.476 216.457 356.836C216.025 357.196 215.761 357.688 215.665 358.312H220.435C220.339 357.7 220.075 357.214 219.643 356.854C219.211 356.482 218.683 356.296 218.059 356.296ZM227.632 355.594C227.968 355.126 228.418 354.772 228.982 354.532C229.558 354.292 230.218 354.172 230.962 354.172V356.764C230.65 356.74 230.44 356.728 230.332 356.728C229.528 356.728 228.898 356.956 228.442 357.412C227.986 357.856 227.758 358.528 227.758 359.428V364H224.95V354.316H227.632V355.594ZM236.485 354.172C237.985 354.172 239.137 354.532 239.941 355.252C240.745 355.96 241.147 357.034 241.147 358.474V364H238.519V362.794C237.991 363.694 237.007 364.144 235.567 364.144C234.823 364.144 234.175 364.018 233.623 363.766C233.083 363.514 232.669 363.166 232.381 362.722C232.093 362.278 231.949 361.774 231.949 361.21C231.949 360.31 232.285 359.602 232.957 359.086C233.641 358.57 234.691 358.312 236.107 358.312H238.339C238.339 357.7 238.153 357.232 237.781 356.908C237.409 356.572 236.851 356.404 236.107 356.404C235.591 356.404 235.081 356.488 234.577 356.656C234.085 356.812 233.665 357.028 233.317 357.304L232.309 355.342C232.837 354.97 233.467 354.682 234.199 354.478C234.943 354.274 235.705 354.172 236.485 354.172ZM236.269 362.254C236.749 362.254 237.175 362.146 237.547 361.93C237.919 361.702 238.183 361.372 238.339 360.94V359.95H236.413C235.261 359.95 234.685 360.328 234.685 361.084C234.685 361.444 234.823 361.732 235.099 361.948C235.387 362.152 235.777 362.254 236.269 362.254ZM249.935 363.532C249.659 363.736 249.317 363.892 248.909 364C248.513 364.096 248.093 364.144 247.649 364.144C246.497 364.144 245.603 363.85 244.967 363.262C244.343 362.674 244.031 361.81 244.031 360.67V356.692H242.537V354.532H244.031V352.174H246.839V354.532H249.251V356.692H246.839V360.634C246.839 361.042 246.941 361.36 247.145 361.588C247.361 361.804 247.661 361.912 248.045 361.912C248.489 361.912 248.867 361.792 249.179 361.552L249.935 363.532ZM261.267 354.316V364H258.603V362.848C258.231 363.268 257.787 363.592 257.271 363.82C256.755 364.036 256.197 364.144 255.597 364.144C254.325 364.144 253.317 363.778 252.573 363.046C251.829 362.314 251.457 361.228 251.457 359.788V354.316H254.265V359.374C254.265 360.934 254.919 361.714 256.227 361.714C256.899 361.714 257.439 361.498 257.847 361.066C258.255 360.622 258.459 359.968 258.459 359.104V354.316H261.267ZM266.55 355.594C266.886 355.126 267.336 354.772 267.9 354.532C268.476 354.292 269.136 354.172 269.88 354.172V356.764C269.568 356.74 269.358 356.728 269.25 356.728C268.446 356.728 267.816 356.956 267.36 357.412C266.904 357.856 266.676 358.528 266.676 359.428V364H263.868V354.316H266.55V355.594ZM275.403 354.172C276.903 354.172 278.055 354.532 278.859 355.252C279.663 355.96 280.065 357.034 280.065 358.474V364H277.437V362.794C276.909 363.694 275.925 364.144 274.485 364.144C273.741 364.144 273.093 364.018 272.541 363.766C272.001 363.514 271.587 363.166 271.299 362.722C271.011 362.278 270.867 361.774 270.867 361.21C270.867 360.31 271.203 359.602 271.875 359.086C272.559 358.57 273.609 358.312 275.025 358.312H277.257C277.257 357.7 277.071 357.232 276.699 356.908C276.327 356.572 275.769 356.404 275.025 356.404C274.509 356.404 273.999 356.488 273.495 356.656C273.003 356.812 272.583 357.028 272.235 357.304L271.227 355.342C271.755 354.97 272.385 354.682 273.117 354.478C273.861 354.274 274.623 354.172 275.403 354.172ZM275.187 362.254C275.667 362.254 276.093 362.146 276.465 361.93C276.837 361.702 277.101 361.372 277.257 360.94V359.95H275.331C274.179 359.95 273.603 360.328 273.603 361.084C273.603 361.444 273.741 361.732 274.017 361.948C274.305 362.152 274.695 362.254 275.187 362.254ZM297.19 359.194C297.19 359.23 297.172 359.482 297.136 359.95H289.81C289.942 360.55 290.254 361.024 290.746 361.372C291.238 361.72 291.85 361.894 292.582 361.894C293.086 361.894 293.53 361.822 293.914 361.678C294.31 361.522 294.676 361.282 295.012 360.958L296.506 362.578C295.594 363.622 294.262 364.144 292.51 364.144C291.418 364.144 290.452 363.934 289.612 363.514C288.772 363.082 288.124 362.488 287.668 361.732C287.212 360.976 286.984 360.118 286.984 359.158C286.984 358.21 287.206 357.358 287.65 356.602C288.106 355.834 288.724 355.24 289.504 354.82C290.296 354.388 291.178 354.172 292.15 354.172C293.098 354.172 293.956 354.376 294.724 354.784C295.492 355.192 296.092 355.78 296.524 356.548C296.968 357.304 297.19 358.186 297.19 359.194ZM292.168 356.296C291.532 356.296 290.998 356.476 290.566 356.836C290.134 357.196 289.87 357.688 289.774 358.312H294.544C294.448 357.7 294.184 357.214 293.752 356.854C293.32 356.482 292.792 356.296 292.168 356.296ZM132.907 384.216C131.911 384.216 130.945 384.084 130.009 383.82C129.085 383.544 128.341 383.19 127.777 382.758L128.767 380.562C129.307 380.958 129.949 381.276 130.693 381.516C131.437 381.756 132.181 381.876 132.925 381.876C133.753 381.876 134.365 381.756 134.761 381.516C135.157 381.264 135.355 380.934 135.355 380.526C135.355 380.226 135.235 379.98 134.995 379.788C134.767 379.584 134.467 379.422 134.095 379.302C133.735 379.182 133.243 379.05 132.619 378.906C131.659 378.678 130.873 378.45 130.261 378.222C129.649 377.994 129.121 377.628 128.677 377.124C128.245 376.62 128.029 375.948 128.029 375.108C128.029 374.376 128.227 373.716 128.623 373.128C129.019 372.528 129.613 372.054 130.405 371.706C131.209 371.358 132.187 371.184 133.339 371.184C134.143 371.184 134.929 371.28 135.697 371.472C136.465 371.664 137.137 371.94 137.713 372.3L136.813 374.514C135.649 373.854 134.485 373.524 133.321 373.524C132.505 373.524 131.899 373.656 131.503 373.92C131.119 374.184 130.927 374.532 130.927 374.964C130.927 375.396 131.149 375.72 131.593 375.936C132.049 376.14 132.739 376.344 133.663 376.548C134.623 376.776 135.409 377.004 136.021 377.232C136.633 377.46 137.155 377.82 137.587 378.312C138.031 378.804 138.253 379.47 138.253 380.31C138.253 381.03 138.049 381.69 137.641 382.29C137.245 382.878 136.645 383.346 135.841 383.694C135.037 384.042 134.059 384.216 132.907 384.216ZM144.656 384.144C143.636 384.144 142.718 383.934 141.902 383.514C141.098 383.082 140.468 382.488 140.012 381.732C139.556 380.976 139.328 380.118 139.328 379.158C139.328 378.198 139.556 377.34 140.012 376.584C140.468 375.828 141.098 375.24 141.902 374.82C142.718 374.388 143.636 374.172 144.656 374.172C145.676 374.172 146.588 374.388 147.392 374.82C148.196 375.24 148.826 375.828 149.282 376.584C149.738 377.34 149.966 378.198 149.966 379.158C149.966 380.118 149.738 380.976 149.282 381.732C148.826 382.488 148.196 383.082 147.392 383.514C146.588 383.934 145.676 384.144 144.656 384.144ZM144.656 381.84C145.376 381.84 145.964 381.6 146.42 381.12C146.888 380.628 147.122 379.974 147.122 379.158C147.122 378.342 146.888 377.694 146.42 377.214C145.964 376.722 145.376 376.476 144.656 376.476C143.936 376.476 143.342 376.722 142.874 377.214C142.406 377.694 142.172 378.342 142.172 379.158C142.172 379.974 142.406 380.628 142.874 381.12C143.342 381.6 143.936 381.84 144.656 381.84ZM156.523 384.144C155.491 384.144 154.561 383.934 153.733 383.514C152.917 383.082 152.275 382.488 151.807 381.732C151.351 380.976 151.123 380.118 151.123 379.158C151.123 378.198 151.351 377.34 151.807 376.584C152.275 375.828 152.917 375.24 153.733 374.82C154.561 374.388 155.491 374.172 156.523 374.172C157.543 374.172 158.431 374.388 159.187 374.82C159.955 375.24 160.513 375.846 160.861 376.638L158.683 377.808C158.179 376.92 157.453 376.476 156.505 376.476C155.773 376.476 155.167 376.716 154.687 377.196C154.207 377.676 153.967 378.33 153.967 379.158C153.967 379.986 154.207 380.64 154.687 381.12C155.167 381.6 155.773 381.84 156.505 381.84C157.465 381.84 158.191 381.396 158.683 380.508L160.861 381.696C160.513 382.464 159.955 383.064 159.187 383.496C158.431 383.928 157.543 384.144 156.523 384.144ZM162.478 374.316H165.286V384H162.478V374.316ZM163.882 372.966C163.366 372.966 162.946 372.816 162.622 372.516C162.298 372.216 162.136 371.844 162.136 371.4C162.136 370.956 162.298 370.584 162.622 370.284C162.946 369.984 163.366 369.834 163.882 369.834C164.398 369.834 164.818 369.978 165.142 370.266C165.466 370.554 165.628 370.914 165.628 371.346C165.628 371.814 165.466 372.204 165.142 372.516C164.818 372.816 164.398 372.966 163.882 372.966ZM172.5 384.144C171.48 384.144 170.562 383.934 169.746 383.514C168.942 383.082 168.312 382.488 167.856 381.732C167.4 380.976 167.172 380.118 167.172 379.158C167.172 378.198 167.4 377.34 167.856 376.584C168.312 375.828 168.942 375.24 169.746 374.82C170.562 374.388 171.48 374.172 172.5 374.172C173.52 374.172 174.432 374.388 175.236 374.82C176.04 375.24 176.67 375.828 177.126 376.584C177.582 377.34 177.81 378.198 177.81 379.158C177.81 380.118 177.582 380.976 177.126 381.732C176.67 382.488 176.04 383.082 175.236 383.514C174.432 383.934 173.52 384.144 172.5 384.144ZM172.5 381.84C173.22 381.84 173.808 381.6 174.264 381.12C174.732 380.628 174.966 379.974 174.966 379.158C174.966 378.342 174.732 377.694 174.264 377.214C173.808 376.722 173.22 376.476 172.5 376.476C171.78 376.476 171.186 376.722 170.718 377.214C170.25 377.694 170.016 378.342 170.016 379.158C170.016 379.974 170.25 380.628 170.718 381.12C171.186 381.6 171.78 381.84 172.5 381.84ZM179.687 370.644H182.495V384H179.687V370.644ZM189.709 384.144C188.689 384.144 187.771 383.934 186.955 383.514C186.151 383.082 185.521 382.488 185.065 381.732C184.609 380.976 184.381 380.118 184.381 379.158C184.381 378.198 184.609 377.34 185.065 376.584C185.521 375.828 186.151 375.24 186.955 374.82C187.771 374.388 188.689 374.172 189.709 374.172C190.729 374.172 191.641 374.388 192.445 374.82C193.249 375.24 193.879 375.828 194.335 376.584C194.791 377.34 195.019 378.198 195.019 379.158C195.019 380.118 194.791 380.976 194.335 381.732C193.879 382.488 193.249 383.082 192.445 383.514C191.641 383.934 190.729 384.144 189.709 384.144ZM189.709 381.84C190.429 381.84 191.017 381.6 191.473 381.12C191.941 380.628 192.175 379.974 192.175 379.158C192.175 378.342 191.941 377.694 191.473 377.214C191.017 376.722 190.429 376.476 189.709 376.476C188.989 376.476 188.395 376.722 187.927 377.214C187.459 377.694 187.225 378.342 187.225 379.158C187.225 379.974 187.459 380.628 187.927 381.12C188.395 381.6 188.989 381.84 189.709 381.84ZM206.886 374.316V382.38C206.886 384.156 206.424 385.476 205.5 386.34C204.576 387.204 203.226 387.636 201.45 387.636C200.514 387.636 199.626 387.522 198.786 387.294C197.946 387.066 197.25 386.736 196.698 386.304L197.814 384.288C198.222 384.624 198.738 384.888 199.362 385.08C199.986 385.284 200.61 385.386 201.234 385.386C202.206 385.386 202.92 385.164 203.376 384.72C203.844 384.288 204.078 383.628 204.078 382.74V382.326C203.346 383.13 202.326 383.532 201.018 383.532C200.13 383.532 199.314 383.34 198.57 382.956C197.838 382.56 197.256 382.008 196.824 381.3C196.392 380.592 196.176 379.776 196.176 378.852C196.176 377.928 196.392 377.112 196.824 376.404C197.256 375.696 197.838 375.15 198.57 374.766C199.314 374.37 200.13 374.172 201.018 374.172C202.422 374.172 203.49 374.634 204.222 375.558V374.316H206.886ZM201.576 381.228C202.32 381.228 202.926 381.012 203.394 380.58C203.874 380.136 204.114 379.56 204.114 378.852C204.114 378.144 203.874 377.574 203.394 377.142C202.926 376.698 202.32 376.476 201.576 376.476C200.832 376.476 200.22 376.698 199.74 377.142C199.26 377.574 199.02 378.144 199.02 378.852C199.02 379.56 199.26 380.136 199.74 380.58C200.22 381.012 200.832 381.228 201.576 381.228ZM209.499 374.316H212.307V384H209.499V374.316ZM210.903 372.966C210.387 372.966 209.967 372.816 209.643 372.516C209.319 372.216 209.157 371.844 209.157 371.4C209.157 370.956 209.319 370.584 209.643 370.284C209.967 369.984 210.387 369.834 210.903 369.834C211.419 369.834 211.839 369.978 212.163 370.266C212.487 370.554 212.649 370.914 212.649 371.346C212.649 371.814 212.487 372.204 212.163 372.516C211.839 372.816 211.419 372.966 210.903 372.966ZM218.819 374.172C220.319 374.172 221.471 374.532 222.275 375.252C223.079 375.96 223.481 377.034 223.481 378.474V384H220.853V382.794C220.325 383.694 219.341 384.144 217.901 384.144C217.157 384.144 216.509 384.018 215.957 383.766C215.417 383.514 215.003 383.166 214.715 382.722C214.427 382.278 214.283 381.774 214.283 381.21C214.283 380.31 214.619 379.602 215.291 379.086C215.975 378.57 217.025 378.312 218.441 378.312H220.673C220.673 377.7 220.487 377.232 220.115 376.908C219.743 376.572 219.185 376.404 218.441 376.404C217.925 376.404 217.415 376.488 216.911 376.656C216.419 376.812 215.999 377.028 215.651 377.304L214.643 375.342C215.171 374.97 215.801 374.682 216.533 374.478C217.277 374.274 218.039 374.172 218.819 374.172ZM218.603 382.254C219.083 382.254 219.509 382.146 219.881 381.93C220.253 381.702 220.517 381.372 220.673 380.94V379.95H218.747C217.595 379.95 217.019 380.328 217.019 381.084C217.019 381.444 217.157 381.732 217.433 381.948C217.721 382.152 218.111 382.254 218.603 382.254Z" fill="black"/>
<rect x="33" y="400" width="140" height="32" rx="16" fill="#03658C" fill-opacity="0.6"/>
<path d="M50.2246 420L48.8746 418.05H48.7946H47.3846V420H45.7646V413H48.7946C49.4146 413 49.9512 413.103 50.4046 413.31C50.8646 413.517 51.2179 413.81 51.4646 414.19C51.7112 414.57 51.8346 415.02 51.8346 415.54C51.8346 416.06 51.7079 416.51 51.4546 416.89C51.2079 417.263 50.8546 417.55 50.3946 417.75L51.9646 420H50.2246ZM50.1946 415.54C50.1946 415.147 50.0679 414.847 49.8146 414.64C49.5612 414.427 49.1912 414.32 48.7046 414.32H47.3846V416.76H48.7046C49.1912 416.76 49.5612 416.653 49.8146 416.44C50.0679 416.227 50.1946 415.927 50.1946 415.54ZM58.3881 417.95C58.3881 418.497 58.1881 418.967 57.7881 419.36C57.3881 419.747 56.8114 419.987 56.0581 420.08V421.2H55.0581V420.11C54.5648 420.083 54.0948 419.997 53.6481 419.85C53.2014 419.703 52.8414 419.523 52.5681 419.31L53.1181 418.09C53.3714 418.277 53.6681 418.433 54.0081 418.56C54.3481 418.687 54.6981 418.767 55.0581 418.8V417.13C54.5848 417.017 54.1848 416.89 53.8581 416.75C53.5314 416.61 53.2581 416.407 53.0381 416.14C52.8181 415.867 52.7081 415.507 52.7081 415.06C52.7081 414.507 52.9081 414.033 53.3081 413.64C53.7148 413.24 54.2981 412.997 55.0581 412.91V411.8H56.0581V412.89C56.8781 412.957 57.5548 413.16 58.0881 413.5L57.5881 414.73C57.0881 414.443 56.5781 414.27 56.0581 414.21V415.91C56.5248 416.017 56.9181 416.14 57.2381 416.28C57.5648 416.413 57.8381 416.617 58.0581 416.89C58.2781 417.157 58.3881 417.51 58.3881 417.95ZM54.3181 414.98C54.3181 415.147 54.3814 415.283 54.5081 415.39C54.6348 415.497 54.8181 415.587 55.0581 415.66V414.24C54.8048 414.3 54.6181 414.397 54.4981 414.53C54.3781 414.657 54.3181 414.807 54.3181 414.98ZM56.0581 418.76C56.2981 418.707 56.4781 418.62 56.5981 418.5C56.7181 418.38 56.7781 418.237 56.7781 418.07C56.7781 417.903 56.7148 417.767 56.5881 417.66C56.4681 417.553 56.2914 417.46 56.0581 417.38V418.76ZM65.2571 415.61C65.7037 415.61 66.1104 415.7 66.4771 415.88C66.8437 416.06 67.1337 416.317 67.3471 416.65C67.5604 416.977 67.6671 417.357 67.6671 417.79C67.6671 418.257 67.5504 418.667 67.3171 419.02C67.0837 419.373 66.7637 419.647 66.3571 419.84C65.9571 420.027 65.5104 420.12 65.0171 420.12C64.0371 420.12 63.2704 419.82 62.7171 419.22C62.1637 418.62 61.8871 417.763 61.8871 416.65C61.8871 415.857 62.0371 415.177 62.3371 414.61C62.6371 414.043 63.0537 413.613 63.5871 413.32C64.1271 413.027 64.7504 412.88 65.4571 412.88C65.8304 412.88 66.1871 412.923 66.5271 413.01C66.8737 413.09 67.1671 413.207 67.4071 413.36L66.8071 414.55C66.4604 414.317 66.0237 414.2 65.4971 414.2C64.9037 414.2 64.4337 414.373 64.0871 414.72C63.7404 415.067 63.5537 415.57 63.5271 416.23C63.9404 415.817 64.5171 415.61 65.2571 415.61ZM64.9271 418.91C65.2737 418.91 65.5537 418.817 65.7671 418.63C65.9871 418.443 66.0971 418.19 66.0971 417.87C66.0971 417.55 65.9871 417.297 65.7671 417.11C65.5537 416.917 65.2671 416.82 64.9071 416.82C64.5537 416.82 64.2637 416.92 64.0371 417.12C63.8104 417.313 63.6971 417.563 63.6971 417.87C63.6971 418.177 63.8071 418.427 64.0271 418.62C64.2471 418.813 64.5471 418.91 64.9271 418.91ZM71.2543 420.12C70.6743 420.12 70.1576 419.977 69.7043 419.69C69.2509 419.403 68.8943 418.99 68.6343 418.45C68.3809 417.903 68.2543 417.253 68.2543 416.5C68.2543 415.747 68.3809 415.1 68.6343 414.56C68.8943 414.013 69.2509 413.597 69.7043 413.31C70.1576 413.023 70.6743 412.88 71.2543 412.88C71.8343 412.88 72.3509 413.023 72.8043 413.31C73.2576 413.597 73.6109 414.013 73.8643 414.56C74.1243 415.1 74.2543 415.747 74.2543 416.5C74.2543 417.253 74.1243 417.903 73.8643 418.45C73.6109 418.99 73.2576 419.403 72.8043 419.69C72.3509 419.977 71.8343 420.12 71.2543 420.12ZM71.2543 418.75C71.6809 418.75 72.0143 418.567 72.2543 418.2C72.5009 417.833 72.6243 417.267 72.6243 416.5C72.6243 415.733 72.5009 415.167 72.2543 414.8C72.0143 414.433 71.6809 414.25 71.2543 414.25C70.8343 414.25 70.5009 414.433 70.2543 414.8C70.0143 415.167 69.8943 415.733 69.8943 416.5C69.8943 417.267 70.0143 417.833 70.2543 418.2C70.5009 418.567 70.8343 418.75 71.2543 418.75ZM77.4261 411.58H78.8161L75.5161 421H74.1261L77.4261 411.58ZM85.6221 413V420H84.0021V417.13H80.8221V420H79.2021V413H80.8221V415.76H84.0021V413H85.6221ZM89.8003 416.56H92.6303V417.81H89.8003V416.56ZM99.0597 413V420H97.4397V414.3H96.0397V413H99.0597ZM101.796 412.5C102.349 412.5 102.769 412.62 103.056 412.86C103.349 413.1 103.496 413.46 103.496 413.94V415.76H102.496V415.37C102.409 415.51 102.276 415.62 102.096 415.7C101.916 415.773 101.699 415.81 101.446 415.81C101.039 415.81 100.722 415.72 100.496 415.54C100.276 415.353 100.166 415.117 100.166 414.83C100.166 414.53 100.286 414.297 100.526 414.13C100.766 413.957 101.136 413.87 101.636 413.87H102.416C102.409 413.477 102.152 413.28 101.646 413.28C101.472 413.28 101.296 413.31 101.116 413.37C100.936 413.423 100.782 413.497 100.656 413.59L100.286 412.91C100.472 412.783 100.702 412.683 100.976 412.61C101.249 412.537 101.522 412.5 101.796 412.5ZM101.726 415.14C102.066 415.14 102.296 415.017 102.416 414.77V414.44H101.796C101.389 414.44 101.186 414.557 101.186 414.79C101.186 414.903 101.232 414.99 101.326 415.05C101.426 415.11 101.559 415.14 101.726 415.14ZM112.279 418.5H109.029L108.409 420H106.749L109.869 413H111.469L114.599 420H112.899L112.279 418.5ZM111.769 417.27L110.659 414.59L109.549 417.27H111.769ZM120.537 414.62V420H119.057V419.36C118.851 419.593 118.604 419.773 118.317 419.9C118.031 420.02 117.721 420.08 117.387 420.08C116.681 420.08 116.121 419.877 115.707 419.47C115.294 419.063 115.087 418.46 115.087 417.66V414.62H116.647V417.43C116.647 418.297 117.011 418.73 117.737 418.73C118.111 418.73 118.411 418.61 118.637 418.37C118.864 418.123 118.977 417.76 118.977 417.28V414.62H120.537ZM121.983 412.58H123.543V420H121.983V412.58ZM127.161 414.54C127.994 414.54 128.634 414.74 129.081 415.14C129.527 415.533 129.751 416.13 129.751 416.93V420H128.291V419.33C127.997 419.83 127.451 420.08 126.651 420.08C126.237 420.08 125.877 420.01 125.571 419.87C125.271 419.73 125.041 419.537 124.881 419.29C124.721 419.043 124.641 418.763 124.641 418.45C124.641 417.95 124.827 417.557 125.201 417.27C125.581 416.983 126.164 416.84 126.951 416.84H128.191C128.191 416.5 128.087 416.24 127.881 416.06C127.674 415.873 127.364 415.78 126.951 415.78C126.664 415.78 126.381 415.827 126.101 415.92C125.827 416.007 125.594 416.127 125.401 416.28L124.841 415.19C125.134 414.983 125.484 414.823 125.891 414.71C126.304 414.597 126.727 414.54 127.161 414.54ZM127.041 419.03C127.307 419.03 127.544 418.97 127.751 418.85C127.957 418.723 128.104 418.54 128.191 418.3V417.75H127.121C126.481 417.75 126.161 417.96 126.161 418.38C126.161 418.58 126.237 418.74 126.391 418.86C126.551 418.973 126.767 419.03 127.041 419.03ZM138.834 416.39H140.314V419.23C139.934 419.517 139.494 419.737 138.994 419.89C138.494 420.043 137.991 420.12 137.484 420.12C136.758 420.12 136.104 419.967 135.524 419.66C134.944 419.347 134.488 418.917 134.154 418.37C133.828 417.817 133.664 417.193 133.664 416.5C133.664 415.807 133.828 415.187 134.154 414.64C134.488 414.087 134.948 413.657 135.534 413.35C136.121 413.037 136.781 412.88 137.514 412.88C138.128 412.88 138.684 412.983 139.184 413.19C139.684 413.397 140.104 413.697 140.444 414.09L139.404 415.05C138.904 414.523 138.301 414.26 137.594 414.26C137.148 414.26 136.751 414.353 136.404 414.54C136.058 414.727 135.788 414.99 135.594 415.33C135.401 415.67 135.304 416.06 135.304 416.5C135.304 416.933 135.401 417.32 135.594 417.66C135.788 418 136.054 418.267 136.394 418.46C136.741 418.647 137.134 418.74 137.574 418.74C138.041 418.74 138.461 418.64 138.834 418.44V416.39ZM143.199 415.33C143.386 415.07 143.636 414.873 143.949 414.74C144.269 414.607 144.636 414.54 145.049 414.54V415.98C144.876 415.967 144.759 415.96 144.699 415.96C144.253 415.96 143.903 416.087 143.649 416.34C143.396 416.587 143.269 416.96 143.269 417.46V420H141.709V414.62H143.199V415.33ZM148.118 414.54C148.951 414.54 149.591 414.74 150.038 415.14C150.484 415.533 150.708 416.13 150.708 416.93V420H149.248V419.33C148.954 419.83 148.408 420.08 147.608 420.08C147.194 420.08 146.834 420.01 146.528 419.87C146.228 419.73 145.998 419.537 145.838 419.29C145.678 419.043 145.598 418.763 145.598 418.45C145.598 417.95 145.784 417.557 146.158 417.27C146.538 416.983 147.121 416.84 147.908 416.84H149.148C149.148 416.5 149.044 416.24 148.838 416.06C148.631 415.873 148.321 415.78 147.908 415.78C147.621 415.78 147.338 415.827 147.058 415.92C146.784 416.007 146.551 416.127 146.358 416.28L145.798 415.19C146.091 414.983 146.441 414.823 146.848 414.71C147.261 414.597 147.684 414.54 148.118 414.54ZM147.998 419.03C148.264 419.03 148.501 418.97 148.708 418.85C148.914 418.723 149.061 418.54 149.148 418.3V417.75H148.078C147.438 417.75 147.118 417.96 147.118 418.38C147.118 418.58 147.194 418.74 147.348 418.86C147.508 418.973 147.724 419.03 147.998 419.03ZM148.718 412.49H150.398L148.588 413.93H147.368L148.718 412.49ZM155.589 419.74C155.436 419.853 155.246 419.94 155.019 420C154.799 420.053 154.566 420.08 154.319 420.08C153.679 420.08 153.183 419.917 152.829 419.59C152.483 419.263 152.309 418.783 152.309 418.15V415.94H151.479V414.74H152.309V413.43H153.869V414.74H155.209V415.94H153.869V418.13C153.869 418.357 153.926 418.533 154.039 418.66C154.159 418.78 154.326 418.84 154.539 418.84C154.786 418.84 154.996 418.773 155.169 418.64L155.589 419.74ZM156.465 414.62H158.025V420H156.465V414.62ZM157.245 413.87C156.958 413.87 156.725 413.787 156.545 413.62C156.365 413.453 156.275 413.247 156.275 413C156.275 412.753 156.365 412.547 156.545 412.38C156.725 412.213 156.958 412.13 157.245 412.13C157.532 412.13 157.765 412.21 157.945 412.37C158.125 412.53 158.215 412.73 158.215 412.97C158.215 413.23 158.125 413.447 157.945 413.62C157.765 413.787 157.532 413.87 157.245 413.87ZM161.283 420.08C160.836 420.08 160.4 420.027 159.973 419.92C159.546 419.807 159.206 419.667 158.953 419.5L159.473 418.38C159.713 418.533 160.003 418.66 160.343 418.76C160.683 418.853 161.016 418.9 161.343 418.9C162.003 418.9 162.333 418.737 162.333 418.41C162.333 418.257 162.243 418.147 162.063 418.08C161.883 418.013 161.606 417.957 161.233 417.91C160.793 417.843 160.43 417.767 160.143 417.68C159.856 417.593 159.606 417.44 159.393 417.22C159.186 417 159.083 416.687 159.083 416.28C159.083 415.94 159.18 415.64 159.373 415.38C159.573 415.113 159.86 414.907 160.233 414.76C160.613 414.613 161.06 414.54 161.573 414.54C161.953 414.54 162.33 414.583 162.703 414.67C163.083 414.75 163.396 414.863 163.643 415.01L163.123 416.12C162.65 415.853 162.133 415.72 161.573 415.72C161.24 415.72 160.99 415.767 160.823 415.86C160.656 415.953 160.573 416.073 160.573 416.22C160.573 416.387 160.663 416.503 160.843 416.57C161.023 416.637 161.31 416.7 161.703 416.76C162.143 416.833 162.503 416.913 162.783 417C163.063 417.08 163.306 417.23 163.513 417.45C163.72 417.67 163.823 417.977 163.823 418.37C163.823 418.703 163.723 419 163.523 419.26C163.323 419.52 163.03 419.723 162.643 419.87C162.263 420.01 161.81 420.08 161.283 420.08Z" fill="black"/>
<path d="M188 416C188 407.163 195.163 400 204 400H312C320.837 400 328 407.163 328 416C328 424.837 320.837 432 312 432H204C195.163 432 188 424.837 188 416Z" fill="#03658C" fill-opacity="0.6"/>
<path d="M210.994 418.53H209.854V420H208.274V418.53H204.504V417.44L207.804 413H209.504L206.444 417.21H208.324V415.9H209.854V417.21H210.994V418.53ZM212.594 420.08C212.321 420.08 212.091 419.987 211.904 419.8C211.718 419.613 211.624 419.38 211.624 419.1C211.624 418.813 211.718 418.583 211.904 418.41C212.091 418.23 212.321 418.14 212.594 418.14C212.868 418.14 213.098 418.23 213.284 418.41C213.471 418.583 213.564 418.813 213.564 419.1C213.564 419.38 213.471 419.613 213.284 419.8C213.098 419.987 212.868 420.08 212.594 420.08ZM217.164 420.12C216.584 420.12 216.068 419.977 215.614 419.69C215.161 419.403 214.804 418.99 214.544 418.45C214.291 417.903 214.164 417.253 214.164 416.5C214.164 415.747 214.291 415.1 214.544 414.56C214.804 414.013 215.161 413.597 215.614 413.31C216.068 413.023 216.584 412.88 217.164 412.88C217.744 412.88 218.261 413.023 218.714 413.31C219.168 413.597 219.521 414.013 219.774 414.56C220.034 415.1 220.164 415.747 220.164 416.5C220.164 417.253 220.034 417.903 219.774 418.45C219.521 418.99 219.168 419.403 218.714 419.69C218.261 419.977 217.744 420.12 217.164 420.12ZM217.164 418.75C217.591 418.75 217.924 418.567 218.164 418.2C218.411 417.833 218.534 417.267 218.534 416.5C218.534 415.733 218.411 415.167 218.164 414.8C217.924 414.433 217.591 414.25 217.164 414.25C216.744 414.25 216.411 414.433 216.164 414.8C215.924 415.167 215.804 415.733 215.804 416.5C215.804 417.267 215.924 417.833 216.164 418.2C216.411 418.567 216.744 418.75 217.164 418.75ZM225.374 421.94C224.974 421.333 224.664 420.63 224.444 419.83C224.23 419.03 224.124 418.173 224.124 417.26C224.124 416.347 224.23 415.49 224.444 414.69C224.664 413.883 224.974 413.18 225.374 412.58H226.864C226.444 413.32 226.137 414.073 225.944 414.84C225.75 415.6 225.654 416.407 225.654 417.26C225.654 418.113 225.75 418.923 225.944 419.69C226.137 420.45 226.444 421.2 226.864 421.94H225.374ZM232.588 418.68V420H227.298V418.95L229.998 416.4C230.284 416.127 230.478 415.893 230.578 415.7C230.678 415.5 230.728 415.303 230.728 415.11C230.728 414.83 230.631 414.617 230.438 414.47C230.251 414.317 229.974 414.24 229.608 414.24C229.301 414.24 229.024 414.3 228.778 414.42C228.531 414.533 228.324 414.707 228.158 414.94L226.978 414.18C227.251 413.773 227.628 413.457 228.108 413.23C228.588 412.997 229.138 412.88 229.758 412.88C230.278 412.88 230.731 412.967 231.118 413.14C231.511 413.307 231.814 413.547 232.028 413.86C232.248 414.167 232.358 414.53 232.358 414.95C232.358 415.33 232.278 415.687 232.118 416.02C231.958 416.353 231.648 416.733 231.188 417.16L229.578 418.68H232.588ZM236.526 415.85C237.14 415.95 237.61 416.18 237.936 416.54C238.263 416.893 238.426 417.333 238.426 417.86C238.426 418.267 238.32 418.643 238.106 418.99C237.893 419.33 237.566 419.603 237.126 419.81C236.693 420.017 236.16 420.12 235.526 420.12C235.033 420.12 234.546 420.057 234.066 419.93C233.593 419.797 233.19 419.61 232.856 419.37L233.486 418.13C233.753 418.33 234.06 418.487 234.406 418.6C234.76 418.707 235.12 418.76 235.486 418.76C235.893 418.76 236.213 418.683 236.446 418.53C236.68 418.37 236.796 418.147 236.796 417.86C236.796 417.287 236.36 417 235.486 417H234.746V415.93L236.186 414.3H233.206V413H238.106V414.05L236.526 415.85ZM247.056 418.5H243.806L243.186 420H241.526L244.646 413H246.246L249.376 420H247.676L247.056 418.5ZM246.546 417.27L245.436 414.59L244.326 417.27H246.546ZM255.049 414.62L252.779 420H251.169L248.909 414.62H250.519L252.009 418.28L253.549 414.62H255.049ZM257.68 414.54C258.513 414.54 259.153 414.74 259.6 415.14C260.047 415.533 260.27 416.13 260.27 416.93V420H258.81V419.33C258.517 419.83 257.97 420.08 257.17 420.08C256.757 420.08 256.397 420.01 256.09 419.87C255.79 419.73 255.56 419.537 255.4 419.29C255.24 419.043 255.16 418.763 255.16 418.45C255.16 417.95 255.347 417.557 255.72 417.27C256.1 416.983 256.683 416.84 257.47 416.84H258.71C258.71 416.5 258.607 416.24 258.4 416.06C258.193 415.873 257.883 415.78 257.47 415.78C257.183 415.78 256.9 415.827 256.62 415.92C256.347 416.007 256.113 416.127 255.92 416.28L255.36 415.19C255.653 414.983 256.003 414.823 256.41 414.71C256.823 414.597 257.247 414.54 257.68 414.54ZM257.56 419.03C257.827 419.03 258.063 418.97 258.27 418.85C258.477 418.723 258.623 418.54 258.71 418.3V417.75H257.64C257 417.75 256.68 417.96 256.68 418.38C256.68 418.58 256.757 418.74 256.91 418.86C257.07 418.973 257.287 419.03 257.56 419.03ZM261.682 412.58H263.242V420H261.682V412.58ZM264.69 414.62H266.25V420H264.69V414.62ZM265.47 413.87C265.183 413.87 264.95 413.787 264.77 413.62C264.59 413.453 264.5 413.247 264.5 413C264.5 412.753 264.59 412.547 264.77 412.38C264.95 412.213 265.183 412.13 265.47 412.13C265.756 412.13 265.99 412.21 266.17 412.37C266.35 412.53 266.44 412.73 266.44 412.97C266.44 413.23 266.35 413.447 266.17 413.62C265.99 413.787 265.756 413.87 265.47 413.87ZM269.868 414.54C270.701 414.54 271.341 414.74 271.788 415.14C272.234 415.533 272.458 416.13 272.458 416.93V420H270.998V419.33C270.704 419.83 270.158 420.08 269.358 420.08C268.944 420.08 268.584 420.01 268.278 419.87C267.978 419.73 267.748 419.537 267.588 419.29C267.428 419.043 267.348 418.763 267.348 418.45C267.348 417.95 267.534 417.557 267.908 417.27C268.288 416.983 268.871 416.84 269.658 416.84H270.898C270.898 416.5 270.794 416.24 270.588 416.06C270.381 415.873 270.071 415.78 269.658 415.78C269.371 415.78 269.088 415.827 268.808 415.92C268.534 416.007 268.301 416.127 268.108 416.28L267.548 415.19C267.841 414.983 268.191 414.823 268.598 414.71C269.011 414.597 269.434 414.54 269.868 414.54ZM269.748 419.03C270.014 419.03 270.251 418.97 270.458 418.85C270.664 418.723 270.811 418.54 270.898 418.3V417.75H269.828C269.188 417.75 268.868 417.96 268.868 418.38C268.868 418.58 268.944 418.74 269.098 418.86C269.258 418.973 269.474 419.03 269.748 419.03ZM276.528 420.08C275.955 420.08 275.438 419.963 274.978 419.73C274.525 419.49 274.168 419.16 273.908 418.74C273.655 418.32 273.528 417.843 273.528 417.31C273.528 416.777 273.655 416.3 273.908 415.88C274.168 415.46 274.525 415.133 274.978 414.9C275.438 414.66 275.955 414.54 276.528 414.54C277.095 414.54 277.588 414.66 278.008 414.9C278.435 415.133 278.745 415.47 278.938 415.91L277.728 416.56C277.448 416.067 277.045 415.82 276.518 415.82C276.111 415.82 275.775 415.953 275.508 416.22C275.241 416.487 275.108 416.85 275.108 417.31C275.108 417.77 275.241 418.133 275.508 418.4C275.775 418.667 276.111 418.8 276.518 418.8C277.051 418.8 277.455 418.553 277.728 418.06L278.938 418.72C278.745 419.147 278.435 419.48 278.008 419.72C277.588 419.96 277.095 420.08 276.528 420.08ZM275.958 422.32C275.785 422.32 275.615 422.3 275.448 422.26C275.281 422.227 275.141 422.177 275.028 422.11L275.268 421.44C275.481 421.54 275.698 421.59 275.918 421.59C276.265 421.59 276.438 421.483 276.438 421.27C276.438 421.077 276.275 420.98 275.948 420.98H275.608L275.868 419.92H276.698L276.558 420.5C276.851 420.533 277.068 420.623 277.208 420.77C277.355 420.923 277.428 421.11 277.428 421.33C277.428 421.637 277.295 421.877 277.028 422.05C276.761 422.23 276.405 422.32 275.958 422.32ZM282.328 420.08C281.761 420.08 281.251 419.963 280.798 419.73C280.351 419.49 280.001 419.16 279.748 418.74C279.495 418.32 279.368 417.843 279.368 417.31C279.368 416.777 279.495 416.3 279.748 415.88C280.001 415.46 280.351 415.133 280.798 414.9C281.251 414.66 281.761 414.54 282.328 414.54C282.895 414.54 283.401 414.66 283.848 414.9C284.295 415.133 284.645 415.46 284.898 415.88C285.151 416.3 285.278 416.777 285.278 417.31C285.278 417.843 285.151 418.32 284.898 418.74C284.645 419.16 284.295 419.49 283.848 419.73C283.401 419.963 282.895 420.08 282.328 420.08ZM282.328 418.8C282.728 418.8 283.055 418.667 283.308 418.4C283.568 418.127 283.698 417.763 283.698 417.31C283.698 416.857 283.568 416.497 283.308 416.23C283.055 415.957 282.728 415.82 282.328 415.82C281.928 415.82 281.598 415.957 281.338 416.23C281.078 416.497 280.948 416.857 280.948 417.31C280.948 417.763 281.078 418.127 281.338 418.4C281.598 418.667 281.928 418.8 282.328 418.8ZM283.058 413.96C282.878 413.96 282.718 413.927 282.578 413.86C282.445 413.787 282.295 413.69 282.128 413.57C282.021 413.49 281.931 413.43 281.858 413.39C281.791 413.35 281.725 413.33 281.658 413.33C281.518 413.33 281.405 413.38 281.318 413.48C281.231 413.573 281.185 413.71 281.178 413.89H280.388C280.401 413.443 280.511 413.09 280.718 412.83C280.931 412.563 281.211 412.43 281.558 412.43C281.731 412.43 281.885 412.467 282.018 412.54C282.158 412.607 282.315 412.703 282.488 412.83C282.595 412.91 282.681 412.97 282.748 413.01C282.821 413.05 282.891 413.07 282.958 413.07C283.091 413.07 283.201 413.023 283.288 412.93C283.381 412.83 283.431 412.697 283.438 412.53H284.228C284.215 412.963 284.101 413.31 283.888 413.57C283.681 413.83 283.405 413.96 283.058 413.96ZM291.591 417.33C291.591 417.35 291.581 417.49 291.561 417.75H287.491C287.564 418.083 287.737 418.347 288.011 418.54C288.284 418.733 288.624 418.83 289.031 418.83C289.311 418.83 289.557 418.79 289.771 418.71C289.991 418.623 290.194 418.49 290.381 418.31L291.211 419.21C290.704 419.79 289.964 420.08 288.991 420.08C288.384 420.08 287.847 419.963 287.381 419.73C286.914 419.49 286.554 419.16 286.301 418.74C286.047 418.32 285.921 417.843 285.921 417.31C285.921 416.783 286.044 416.31 286.291 415.89C286.544 415.463 286.887 415.133 287.321 414.9C287.761 414.66 288.251 414.54 288.791 414.54C289.317 414.54 289.794 414.653 290.221 414.88C290.647 415.107 290.981 415.433 291.221 415.86C291.467 416.28 291.591 416.77 291.591 417.33ZM288.801 415.72C288.447 415.72 288.151 415.82 287.911 416.02C287.671 416.22 287.524 416.493 287.471 416.84H290.121C290.067 416.5 289.921 416.23 289.681 416.03C289.441 415.823 289.147 415.72 288.801 415.72ZM294.439 420.08C293.993 420.08 293.556 420.027 293.129 419.92C292.703 419.807 292.363 419.667 292.109 419.5L292.629 418.38C292.869 418.533 293.159 418.66 293.499 418.76C293.839 418.853 294.173 418.9 294.499 418.9C295.159 418.9 295.489 418.737 295.489 418.41C295.489 418.257 295.399 418.147 295.219 418.08C295.039 418.013 294.763 417.957 294.389 417.91C293.949 417.843 293.586 417.767 293.299 417.68C293.013 417.593 292.763 417.44 292.549 417.22C292.343 417 292.239 416.687 292.239 416.28C292.239 415.94 292.336 415.64 292.529 415.38C292.729 415.113 293.016 414.907 293.389 414.76C293.769 414.613 294.216 414.54 294.729 414.54C295.109 414.54 295.486 414.583 295.859 414.67C296.239 414.75 296.553 414.863 296.799 415.01L296.279 416.12C295.806 415.853 295.289 415.72 294.729 415.72C294.396 415.72 294.146 415.767 293.979 415.86C293.813 415.953 293.729 416.073 293.729 416.22C293.729 416.387 293.819 416.503 293.999 416.57C294.179 416.637 294.466 416.7 294.859 416.76C295.299 416.833 295.659 416.913 295.939 417C296.219 417.08 296.463 417.23 296.669 417.45C296.876 417.67 296.979 417.977 296.979 418.37C296.979 418.703 296.879 419 296.679 419.26C296.479 419.52 296.186 419.723 295.799 419.87C295.419 420.01 294.966 420.08 294.439 420.08ZM297.322 421.94C297.742 421.2 298.048 420.45 298.242 419.69C298.442 418.923 298.542 418.113 298.542 417.26C298.542 416.407 298.442 415.6 298.242 414.84C298.048 414.073 297.742 413.32 297.322 412.58H298.812C299.218 413.173 299.528 413.873 299.742 414.68C299.962 415.48 300.072 416.34 300.072 417.26C300.072 418.18 299.965 419.04 299.752 419.84C299.538 420.633 299.225 421.333 298.812 421.94H297.322Z" fill="black"/>
<circle cx="175.5" cy="158.5" r="135.5" fill="url(#paint0_linear)"/>
<mask id="mask0" mask-type="alpha" maskUnits="userSpaceOnUse" x="40" y="23" width="271" height="271">
<circle cx="175.5" cy="158.5" r="135.5" fill="white"/>
</mask>
<g mask="url(#mask0)">
<path d="M151.354 211.753C159.179 198.74 177.144 173.794 219.923 138.74C284.476 85.8453 223.54 37.4773 158.085 63.2485C151.083 66.0054 131.678 54.9732 113.705 66.6004C102.111 74.101 106.624 79.9776 102.11 85.8547C97.5957 91.7318 80.1899 91.3882 76.379 106.651C74.1216 115.693 80.3718 125.162 79.5375 131.967C78.7033 138.771 72.106 144.906 71.7923 153.89C71.2347 169.859 83.7091 183.256 99.6547 183.813C99.7419 199.343 112.027 212.198 127.64 212.743C132.623 212.917 137.355 211.817 141.523 209.735C145.793 213.669 149.459 214.906 151.354 211.753Z" fill="url(#paint1_linear)"/>
<path fill-rule="evenodd" clip-rule="evenodd" d="M152.917 198.247C152.917 190.117 152.64 150.016 152.654 149.338C130.333 152.628 130.785 110.172 153.368 120.56C158.337 123.722 172.338 120.56 170.983 94.3634C195.373 120.56 223.69 90.0058 226.118 114.903C229.434 148.901 226.099 184.479 204.97 184.481C202.948 184.482 200.653 184.252 198.083 183.793C198.083 188.912 198.083 194.935 198.083 198.247C198.083 207.28 214.343 211.797 214.343 211.797C214.343 211.797 186.257 238.26 174.597 238.118C162.936 237.976 136.657 211.797 136.657 211.797C136.657 211.797 152.917 207.28 152.917 198.247Z" fill="url(#paint2_linear)"/>
<mask id="mask1" mask-type="alpha" maskUnits="userSpaceOnUse" x="136" y="94" width="92" height="145">
<path fill-rule="evenodd" clip-rule="evenodd" d="M152.917 198.247C152.917 190.117 152.64 150.016 152.654 149.338C130.333 152.628 130.785 110.172 153.368 120.56C158.337 123.722 172.338 120.56 170.983 94.3634C195.373 120.56 223.69 90.0058 226.118 114.903C229.434 148.901 226.099 184.479 204.97 184.481C202.948 184.482 200.653 184.252 198.083 183.793C198.083 188.912 198.083 194.935 198.083 198.247C198.083 207.28 214.343 211.797 214.343 211.797C214.343 211.797 186.257 238.26 174.597 238.118C162.936 237.976 136.657 211.797 136.657 211.797C136.657 211.797 152.917 207.28 152.917 198.247Z" fill="white"/>
</mask>
<g mask="url(#mask1)">
<g style="mix-blend-mode:multiply" opacity="0.7">
<path fill-rule="evenodd" clip-rule="evenodd" d="M198.083 183.793C179.724 179.814 166.797 170.153 166.797 170.153C166.797 170.153 174.597 189.213 198.056 192.827L198.083 183.793Z" fill="url(#paint3_linear)"/>
</g>
</g>
<path fill-rule="evenodd" clip-rule="evenodd" d="M258.607 238.897C265.161 253.46 268.543 297.613 268.543 297.613H82.4567C82.4567 297.613 85.8394 253.46 92.3933 238.897C98.1346 226.139 135.969 211.491 147.057 207.28C153.461 214.442 162.633 219.023 175.5 219.023C188.367 219.023 197.539 214.442 203.943 207.28C215.031 211.491 252.865 226.139 258.607 238.897Z" fill="url(#paint4_linear)"/>
<mask id="mask2" mask-type="alpha" maskUnits="userSpaceOnUse" x="82" y="207" width="187" height="91">
<path fill-rule="evenodd" clip-rule="evenodd" d="M258.607 238.897C265.161 253.46 268.543 297.613 268.543 297.613H82.4567C82.4567 297.613 85.8394 253.46 92.3933 238.897C98.1346 226.139 135.969 211.491 147.057 207.28C153.461 214.442 162.633 219.023 175.5 219.023C188.367 219.023 197.539 214.442 203.943 207.28C215.031 211.491 252.865 226.139 258.607 238.897Z" fill="white"/>
</mask>
<g mask="url(#mask2)">
</g>
<path fill-rule="evenodd" clip-rule="evenodd" d="M90.6546 239.191C95.5701 229.843 111.75 220.033 126.711 213.422C134.172 210.125 156.53 304.84 156.53 304.84H81.6286C81.6286 304.84 80.726 258.071 90.6546 239.191Z" fill="url(#paint5_linear)"/>
</g>
<defs>
<linearGradient id="paint0_linear" x1="40" y1="23" x2="40" y2="294" gradientUnits="userSpaceOnUse">
<stop stop-color="#806A6A"/>
<stop offset="1" stop-color="#665654"/>
</linearGradient>
<linearGradient id="paint1_linear" x1="248.688" y1="57.9597" x2="243.139" y2="216.849" gradientUnits="userSpaceOnUse">
<stop stop-color="#1D0024"/>
<stop offset="1" stop-color="#100014"/>
</linearGradient>
<linearGradient id="paint2_linear" x1="136.169" y1="94.3634" x2="136.169" y2="238.119" gradientUnits="userSpaceOnUse">
<stop stop-color="#E6864E"/>
<stop offset="1" stop-color="#EB965E"/>
</linearGradient>
<linearGradient id="paint3_linear" x1="187.273" y1="171.188" x2="191.953" y2="192.273" gradientUnits="userSpaceOnUse">
<stop stop-color="#E68349"/>
<stop offset="1" stop-color="#F09960"/>
</linearGradient>
<linearGradient id="paint4_linear" x1="268.543" y1="297.613" x2="268.543" y2="207.28" gradientUnits="userSpaceOnUse">
<stop stop-color="#FFC9B3"/>
<stop offset="1" stop-color="#FFD2C2"/>
</linearGradient>
<linearGradient id="paint5_linear" x1="156.53" y1="304.84" x2="156.53" y2="213.311" gradientUnits="userSpaceOnUse">
<stop stop-color="#FCF2EB"/>
<stop offset="1" stop-color="#FFF9F5"/>
</linearGradient>
</defs>
</svg>
