<svg width="89" height="112" viewBox="0 0 89 112" fill="none" xmlns="http://www.w3.org/2000/svg">
<circle cx="44.5" cy="44.5" r="44.5" fill="url(#paint0_linear)"/>
<mask id="mask0" mask-type="alpha" maskUnits="userSpaceOnUse" x="0" y="0" width="89" height="89">
<circle cx="44.5" cy="44.5" r="44.5" fill="white"/>
</mask>
<g mask="url(#mask0)">
<path d="M71.7934 72.09C73.9689 76.2433 75.0567 91.3733 75.0567 91.3733H13.9434C13.9434 91.3733 15.0311 76.2433 17.2067 72.09C20.47 65.86 44.5 57.85 44.5 57.85C44.5 57.85 68.53 65.86 71.7934 72.09Z" fill="url(#paint1_linear)"/>
<mask id="mask1" mask-type="alpha" maskUnits="userSpaceOnUse" x="13" y="57" width="63" height="35">
<path d="M71.7934 72.09C73.9689 76.2433 75.0567 91.3733 75.0567 91.3733H13.9434C13.9434 91.3733 15.0311 76.2433 17.2067 72.09C20.47 65.86 44.5 57.85 44.5 57.85C44.5 57.85 68.53 65.86 71.7934 72.09Z" fill="white"/>
</mask>
<g mask="url(#mask1)">
<path opacity="0.4" fill-rule="evenodd" clip-rule="evenodd" d="M14.8332 66.7499C15.8163 66.7499 16.6132 65.953 16.6132 64.9699C16.6132 63.9869 15.8163 63.1899 14.8332 63.1899C13.8502 63.1899 13.0532 63.9869 13.0532 64.9699C13.0532 65.953 13.8502 66.7499 14.8332 66.7499ZM20.7667 72.6833C21.7497 72.6833 22.5467 71.8864 22.5467 70.9033C22.5467 69.9203 21.7497 69.1233 20.7667 69.1233C19.7836 69.1233 18.9867 69.9203 18.9867 70.9033C18.9867 71.8864 19.7836 72.6833 20.7667 72.6833ZM32.6333 72.6833C33.6164 72.6833 34.4133 71.8864 34.4133 70.9033C34.4133 69.9203 33.6164 69.1233 32.6333 69.1233C31.6503 69.1233 30.8533 69.9203 30.8533 70.9033C30.8533 71.8864 31.6503 72.6833 32.6333 72.6833ZM46.28 70.9033C46.28 71.8864 45.4831 72.6833 44.5 72.6833C43.5169 72.6833 42.72 71.8864 42.72 70.9033C42.72 69.9203 43.5169 69.1233 44.5 69.1233C45.4831 69.1233 46.28 69.9203 46.28 70.9033ZM56.3667 72.6833C57.3497 72.6833 58.1467 71.8864 58.1467 70.9033C58.1467 69.9203 57.3497 69.1233 56.3667 69.1233C55.3836 69.1233 54.5867 69.9203 54.5867 70.9033C54.5867 71.8864 55.3836 72.6833 56.3667 72.6833ZM70.0133 70.9033C70.0133 71.8864 69.2164 72.6833 68.2333 72.6833C67.2503 72.6833 66.4533 71.8864 66.4533 70.9033C66.4533 69.9203 67.2503 69.1233 68.2333 69.1233C69.2164 69.1233 70.0133 69.9203 70.0133 70.9033ZM28.48 64.97C28.48 65.9531 27.6831 66.75 26.7 66.75C25.7169 66.75 24.92 65.9531 24.92 64.97C24.92 63.9869 25.7169 63.19 26.7 63.19C27.6831 63.19 28.48 63.9869 28.48 64.97ZM62.3 66.75C63.2831 66.75 64.08 65.9531 64.08 64.97C64.08 63.9869 63.2831 63.19 62.3 63.19C61.3169 63.19 60.52 63.9869 60.52 64.97C60.52 65.9531 61.3169 66.75 62.3 66.75ZM75.9467 64.97C75.9467 65.9531 75.1497 66.75 74.1667 66.75C73.1836 66.75 72.3867 65.9531 72.3867 64.97C72.3867 63.9869 73.1836 63.19 74.1667 63.19C75.1497 63.19 75.9467 63.9869 75.9467 64.97ZM20.7667 84.55C21.7497 84.55 22.5467 83.7531 22.5467 82.77C22.5467 81.7869 21.7497 80.99 20.7667 80.99C19.7836 80.99 18.9867 81.7869 18.9867 82.77C18.9867 83.7531 19.7836 84.55 20.7667 84.55ZM34.4133 82.77C34.4133 83.7531 33.6164 84.55 32.6333 84.55C31.6503 84.55 30.8533 83.7531 30.8533 82.77C30.8533 81.7869 31.6503 80.99 32.6333 80.99C33.6164 80.99 34.4133 81.7869 34.4133 82.77ZM44.5 84.55C45.4831 84.55 46.28 83.7531 46.28 82.77C46.28 81.7869 45.4831 80.99 44.5 80.99C43.5169 80.99 42.72 81.7869 42.72 82.77C42.72 83.7531 43.5169 84.55 44.5 84.55ZM58.1467 82.77C58.1467 83.7531 57.3497 84.55 56.3667 84.55C55.3836 84.55 54.5867 83.7531 54.5867 82.77C54.5867 81.7869 55.3836 80.99 56.3667 80.99C57.3497 80.99 58.1467 81.7869 58.1467 82.77ZM68.2333 84.55C69.2164 84.55 70.0133 83.7531 70.0133 82.77C70.0133 81.7869 69.2164 80.99 68.2333 80.99C67.2503 80.99 66.4533 81.7869 66.4533 82.77C66.4533 83.7531 67.2503 84.55 68.2333 84.55ZM16.6133 76.8367C16.6133 77.8197 15.8164 78.6167 14.8333 78.6167C13.8503 78.6167 13.0533 77.8197 13.0533 76.8367C13.0533 75.8536 13.8503 75.0567 14.8333 75.0567C15.8164 75.0567 16.6133 75.8536 16.6133 76.8367ZM26.7 78.6167C27.6831 78.6167 28.48 77.8197 28.48 76.8367C28.48 75.8536 27.6831 75.0567 26.7 75.0567C25.7169 75.0567 24.92 75.8536 24.92 76.8367C24.92 77.8197 25.7169 78.6167 26.7 78.6167ZM40.3467 76.8367C40.3467 77.8197 39.5497 78.6167 38.5667 78.6167C37.5836 78.6167 36.7867 77.8197 36.7867 76.8367C36.7867 75.8536 37.5836 75.0567 38.5667 75.0567C39.5497 75.0567 40.3467 75.8536 40.3467 76.8367ZM50.4333 78.6167C51.4164 78.6167 52.2133 77.8197 52.2133 76.8367C52.2133 75.8536 51.4164 75.0567 50.4333 75.0567C49.4503 75.0567 48.6533 75.8536 48.6533 76.8367C48.6533 77.8197 49.4503 78.6167 50.4333 78.6167ZM64.08 76.8367C64.08 77.8197 63.2831 78.6167 62.3 78.6167C61.3169 78.6167 60.52 77.8197 60.52 76.8367C60.52 75.8536 61.3169 75.0567 62.3 75.0567C63.2831 75.0567 64.08 75.8536 64.08 76.8367ZM74.1667 78.6167C75.1497 78.6167 75.9467 77.8197 75.9467 76.8367C75.9467 75.8536 75.1497 75.0567 74.1667 75.0567C73.1836 75.0567 72.3867 75.8536 72.3867 76.8367C72.3867 77.8197 73.1836 78.6167 74.1667 78.6167ZM16.6133 88.7033C16.6133 89.6864 15.8164 90.4833 14.8333 90.4833C13.8503 90.4833 13.0533 89.6864 13.0533 88.7033C13.0533 87.7203 13.8503 86.9233 14.8333 86.9233C15.8164 86.9233 16.6133 87.7203 16.6133 88.7033ZM26.7 90.4833C27.6831 90.4833 28.48 89.6864 28.48 88.7033C28.48 87.7203 27.6831 86.9233 26.7 86.9233C25.7169 86.9233 24.92 87.7203 24.92 88.7033C24.92 89.6864 25.7169 90.4833 26.7 90.4833ZM40.3467 88.7033C40.3467 89.6864 39.5497 90.4833 38.5667 90.4833C37.5836 90.4833 36.7867 89.6864 36.7867 88.7033C36.7867 87.7203 37.5836 86.9233 38.5667 86.9233C39.5497 86.9233 40.3467 87.7203 40.3467 88.7033ZM50.4333 90.4833C51.4164 90.4833 52.2133 89.6864 52.2133 88.7033C52.2133 87.7203 51.4164 86.9233 50.4333 86.9233C49.4503 86.9233 48.6533 87.7203 48.6533 88.7033C48.6533 89.6864 49.4503 90.4833 50.4333 90.4833ZM64.08 88.7033C64.08 89.6864 63.2831 90.4833 62.3 90.4833C61.3169 90.4833 60.52 89.6864 60.52 88.7033C60.52 87.7203 61.3169 86.9233 62.3 86.9233C63.2831 86.9233 64.08 87.7203 64.08 88.7033ZM74.1667 90.4833C75.1497 90.4833 75.9467 89.6864 75.9467 88.7033C75.9467 87.7203 75.1497 86.9233 74.1667 86.9233C73.1836 86.9233 72.3867 87.7203 72.3867 88.7033C72.3867 89.6864 73.1836 90.4833 74.1667 90.4833Z" fill="#13001E"/>
</g>
<path fill-rule="evenodd" clip-rule="evenodd" d="M47.723 15.6358C46.5364 10.4441 52.1633 6.46015 57.958 9.19507C71.6047 15.6358 63.4866 24.6233 58.4433 24.03C53.4 23.4366 48.9097 20.8274 47.723 15.6358Z" fill="url(#paint2_linear)"/>
<mask id="mask2" mask-type="alpha" maskUnits="userSpaceOnUse" x="47" y="8" width="19" height="17">
<path fill-rule="evenodd" clip-rule="evenodd" d="M47.723 15.6358C46.5364 10.4441 52.1633 6.46015 57.958 9.19507C71.6047 15.6358 63.4866 24.6233 58.4433 24.03C53.4 23.4366 48.9097 20.8274 47.723 15.6358Z" fill="white"/>
</mask>
<g mask="url(#mask2)">
<g style="mix-blend-mode:multiply" opacity="0.6">
<path fill-rule="evenodd" clip-rule="evenodd" d="M52.6582 16.465C52.6582 16.465 62.7449 22.9916 65.2665 19.4316C65.5267 20.9182 64.3302 25.1173 62.4482 25.0683C56.8184 24.9218 52.6582 16.465 52.6582 16.465Z" fill="#E0713F"/>
</g>
</g>
<path fill-rule="evenodd" clip-rule="evenodd" d="M51.0267 48.3566C44.6533 51.4184 43.7236 51.2544 29.6667 39.7533C8.45505 22.3983 28.4801 6.52664 49.9884 14.9816C73.2767 25.2166 65.4745 41.416 51.0267 48.3566Z" fill="url(#paint3_linear)"/>
<path fill-rule="evenodd" clip-rule="evenodd" d="M51.6198 60.52C49.4443 64.08 39.5554 64.08 37.3798 60.52V54.5867C37.3798 54.5867 36.4119 54.6151 35.7481 54.5867C28.8093 54.2893 26.4905 43.1274 27.5795 31.9622C28.3769 23.7856 35.3031 35.0067 46.5765 27.145C46.1315 35.7484 49.8398 34.8584 51.4715 33.82C58.8881 30.4084 58.9501 44.3939 51.6198 43.3134V60.52Z" fill="url(#paint4_linear)"/>
<path d="M37.3798 54.5866C41.3848 54.2899 47.3578 50.1068 47.3578 50.1068C47.3578 50.1068 44.4998 56.2183 37.3798 57.2566L37.3798 54.5866Z" fill="#FFBB94"/>
<path d="M51.6199 59.7665V57.85C52.164 57.85 53.7219 59.1352 54.5231 60.2233C57.6904 64.525 54.1772 68.3816 51.3121 68.3816C47.6967 68.3816 45.3015 65.3611 44.4999 63.9078C43.6983 65.3611 41.3031 68.3816 37.6877 68.3816C34.8226 68.3816 31.3094 64.525 34.4767 60.2233C35.2779 59.1352 36.8358 57.85 37.3799 57.85V59.7665C37.3799 62.0353 42.346 63.0855 44.4901 63.1825C46.5196 63.0855 51.6199 62.0353 51.6199 59.7665Z" fill="#FFF9F5"/>
<path fill-rule="evenodd" clip-rule="evenodd" d="M48.235 21.1902C43.4883 33.0569 46.1583 38.8419 49.8667 45.8135C53.575 52.7852 48.9767 59.3119 48.9767 59.3119C48.9767 59.3119 54.3167 55.9002 54.3167 48.3352C54.3167 40.7702 48.9767 36.0235 53.4267 29.7935C57.8767 23.5635 52.9817 9.32353 48.235 21.1902Z" fill="url(#paint5_linear)"/>
</g>
<defs>
<linearGradient id="paint0_linear" x1="0" y1="0" x2="0" y2="89" gradientUnits="userSpaceOnUse">
<stop stop-color="#1D0024"/>
<stop offset="1" stop-color="#100014"/>
</linearGradient>
<linearGradient id="paint1_linear" x1="13.9434" y1="57.85" x2="13.9434" y2="91.3733" gradientUnits="userSpaceOnUse">
<stop stop-color="#806A6A"/>
<stop offset="1" stop-color="#665654"/>
</linearGradient>
<linearGradient id="paint2_linear" x1="47.5633" y1="24.0579" x2="47.5633" y2="8.30664" gradientUnits="userSpaceOnUse">
<stop stop-color="#E6864E"/>
<stop offset="1" stop-color="#E67240"/>
</linearGradient>
<linearGradient id="paint3_linear" x1="64.7701" y1="50.0427" x2="64.7701" y2="12.6401" gradientUnits="userSpaceOnUse">
<stop stop-color="#E6864E"/>
<stop offset="1" stop-color="#E67240"/>
</linearGradient>
<linearGradient id="paint4_linear" x1="27.3232" y1="27.145" x2="27.3232" y2="63.19" gradientUnits="userSpaceOnUse">
<stop stop-color="#FFD4B3"/>
<stop offset="1" stop-color="#FFDCC2"/>
</linearGradient>
<linearGradient id="paint5_linear" x1="45.6866" y1="59.3119" x2="45.6866" y2="16.6133" gradientUnits="userSpaceOnUse">
<stop stop-color="#E6864E"/>
<stop offset="1" stop-color="#E57442"/>
</linearGradient>
</defs>
</svg>
