<svg width="557" height="456" viewBox="0 0 557 456" fill="none" xmlns="http://www.w3.org/2000/svg">
<path fill-rule="evenodd" clip-rule="evenodd" d="M443.857 316.494C443.949 316.44 444.528 317.204 445.384 318.709C446.243 320.208 447.312 322.486 448.306 325.424C450.343 331.282 451.621 339.929 450.863 349.358C450.112 358.787 447.932 367.064 446.251 372.955C444.53 378.849 443.264 382.426 443.046 382.366C442.805 382.299 443.66 378.598 445.071 372.646C446.446 366.696 448.409 358.463 449.144 349.228C449.883 339.995 448.832 331.592 447.142 325.782C445.5 319.943 443.586 316.634 443.857 316.494Z" fill="white"/>
<path fill-rule="evenodd" clip-rule="evenodd" d="M449.666 269.305C449.774 269.258 450.475 270.539 451.643 272.901C452.81 275.264 454.45 278.707 456.39 283.004C460.238 291.597 465.418 303.625 469.174 317.59C471.022 324.575 472.28 331.366 472.917 337.603C473.56 343.838 473.625 349.503 473.304 354.231C472.993 358.962 472.395 362.758 471.821 365.339C471.252 367.925 470.802 369.318 470.7 369.295C470.382 369.234 471.788 363.541 472.087 354.175C472.458 344.828 471.231 331.842 467.508 318.034C463.794 304.221 458.826 292.187 455.27 283.487C453.48 279.134 452.032 275.611 451.029 273.175C450.05 270.729 449.557 269.354 449.666 269.305Z" fill="white"/>
<path fill-rule="evenodd" clip-rule="evenodd" d="M234.666 324.69C234.866 324.905 232.911 326.77 230.374 330.232C229.744 331.101 229.06 332.052 228.42 333.139C227.72 334.185 227.111 335.386 226.434 336.626C225.174 339.153 223.978 342.025 223.056 345.152C222.174 348.291 221.659 351.359 221.382 354.169C221.298 355.579 221.175 356.92 221.21 358.177C221.175 359.438 221.248 360.609 221.318 361.681C221.625 365.961 222.291 368.58 222.007 368.656C221.835 368.715 220.741 366.185 220.106 361.805C219.954 360.711 219.809 359.509 219.781 358.207C219.683 356.907 219.753 355.517 219.797 354.053C219.996 351.134 220.482 347.933 221.4 344.676C222.356 341.428 223.644 338.459 225.031 335.882C225.771 334.617 226.45 333.402 227.226 332.355C227.94 331.267 228.704 330.326 229.414 329.48C232.281 326.108 234.553 324.55 234.666 324.69Z" fill="white"/>
<path fill-rule="evenodd" clip-rule="evenodd" d="M239.254 339.798C239.399 340.029 238.31 340.862 236.887 342.456C236.166 343.243 235.407 344.263 234.661 345.445C233.945 346.647 233.26 348.026 232.722 349.547C232.208 351.075 231.898 352.584 231.721 353.973C231.579 355.363 231.548 356.633 231.63 357.698C231.768 359.829 232.113 361.158 231.856 361.25C231.672 361.328 230.896 360.112 230.422 357.86C230.175 356.737 230.073 355.362 230.137 353.838C230.238 352.32 230.529 350.655 231.092 348.985C231.678 347.322 232.476 345.833 233.333 344.574C234.22 343.334 235.149 342.316 236.035 341.584C237.796 340.101 239.157 339.621 239.254 339.798Z" fill="white"/>
<path fill-rule="evenodd" clip-rule="evenodd" d="M175.558 199.004C175.647 198.927 176.418 199.686 177.742 201.134C178.415 201.85 179.209 202.753 180.05 203.866C180.899 204.969 181.921 206.193 182.879 207.665C183.374 208.392 183.893 209.152 184.433 209.945C184.967 210.743 185.452 211.616 185.991 212.499C187.095 214.25 188.085 216.228 189.162 218.291C191.195 222.476 193.138 227.225 194.687 232.373C196.185 237.537 197.136 242.581 197.705 247.198C197.922 249.515 198.165 251.714 198.19 253.783C198.216 254.817 198.284 255.813 198.269 256.774C198.248 257.733 198.225 258.653 198.205 259.531C198.2 261.29 198.008 262.871 197.895 264.26C197.794 265.651 197.618 266.839 197.442 267.805C197.119 269.741 196.884 270.798 196.766 270.782C196.462 270.741 197.034 266.451 196.987 259.518C196.97 258.651 196.955 257.745 196.939 256.799C196.919 255.854 196.819 254.873 196.762 253.858C196.677 251.824 196.383 249.667 196.129 247.395C195.482 242.869 194.504 237.931 193.033 232.863C191.512 227.81 189.651 223.132 187.733 218.981C186.713 216.936 185.785 214.966 184.753 213.211C184.247 212.328 183.798 211.451 183.302 210.647C182.802 209.845 182.322 209.074 181.864 208.339C178.136 202.493 175.323 199.204 175.558 199.004Z" fill="white"/>
<path fill-rule="evenodd" clip-rule="evenodd" d="M195.079 207.082C195.226 206.951 197.206 208.803 199.725 212.373C200.992 214.15 202.327 216.39 203.627 218.972C204.889 221.572 206.094 224.525 207.055 227.724C207.987 230.933 208.58 234.067 208.933 236.936C209.245 239.811 209.341 242.416 209.242 244.596C209.068 248.961 208.412 251.592 208.218 251.562C207.941 251.528 208.163 248.864 208.023 244.595C207.966 242.462 207.746 239.929 207.359 237.143C206.928 234.362 206.306 231.331 205.403 228.214C204.468 225.106 203.342 222.222 202.193 219.655C201.005 217.104 199.813 214.859 198.701 213.036C196.499 209.377 194.866 207.261 195.079 207.082Z" fill="white"/>
<path fill-rule="evenodd" clip-rule="evenodd" d="M126.72 348.155L125.22 345.091L83.4406 377.013L101.667 406.541L143.256 371.476L126.72 348.155Z" fill="#FF7B5B"/>
<path fill-rule="evenodd" clip-rule="evenodd" d="M85.1915 377.696L101.204 405.387L102.228 404.93L87.9683 379.038L85.1915 377.696Z" fill="#D7D4D4"/>
<path fill-rule="evenodd" clip-rule="evenodd" d="M125.895 347.549L85.1915 377.695C85.1915 377.695 85.3621 378.343 86.3722 378.742C87.3836 379.141 87.9683 379.039 87.9683 379.039L130.761 349.751C130.761 349.751 128.294 349.178 127.4 348.51C126.504 347.84 125.895 347.549 125.895 347.549Z" fill="#F5F3F3"/>
<path fill-rule="evenodd" clip-rule="evenodd" d="M131.808 348.569L87.2042 378.362L101.691 405.817L104.024 409.619L148.629 376.607C148.629 376.607 143.931 369.595 141.111 365.361C138.29 361.127 132.753 351.143 132.451 350.503C132.149 349.863 131.808 348.569 131.808 348.569Z" fill="#FF7B5B"/>
<path fill-rule="evenodd" clip-rule="evenodd" d="M499.641 142.886L500.901 140.312L535.984 167.119L520.679 191.915L485.756 162.468L499.641 142.886Z" fill="#775298"/>
<path fill-rule="evenodd" clip-rule="evenodd" d="M534.514 167.691L521.069 190.944L520.208 190.561L532.182 168.819L534.514 167.691Z" fill="#D7D4D4"/>
<path fill-rule="evenodd" clip-rule="evenodd" d="M500.335 142.375L534.515 167.691C534.515 167.691 534.37 168.234 533.523 168.569C532.674 168.904 532.182 168.819 532.182 168.819L496.248 144.225C496.248 144.225 498.319 143.744 499.071 143.182C499.823 142.62 500.335 142.375 500.335 142.375Z" fill="#F5F3F3"/>
<path fill-rule="evenodd" clip-rule="evenodd" d="M495.369 143.234L532.824 168.251L520.66 191.307L518.7 194.499L481.243 166.776C481.243 166.776 485.189 160.888 487.557 157.333C489.927 153.778 494.576 145.393 494.828 144.856C495.082 144.321 495.369 143.234 495.369 143.234Z" fill="#775298"/>
<path fill-rule="evenodd" clip-rule="evenodd" d="M76.8415 94.6383C76.8415 94.6383 74.1926 96.4716 75.5164 99.5283C76.8415 102.585 82.6486 111.652 90.4934 111.346C90.8147 111.335 80.6108 94.6383 80.6108 94.6383H76.8415Z" fill="#FF7B5B"/>
<path fill-rule="evenodd" clip-rule="evenodd" d="M64.8407 261.794C64.8407 261.794 55.0308 253.031 51.8901 254.601C48.053 256.519 26.0906 278.038 26.9489 288.175C27.3015 292.327 32.1349 288.77 40.7477 279.836C49.363 270.903 60.2105 274.731 60.2105 274.731L64.8407 261.794Z" fill="#775298"/>
<path fill-rule="evenodd" clip-rule="evenodd" d="M88.6746 276.574L76.8321 269.469C76.8321 269.469 46.1352 298.248 50.9309 302.086C54.5685 304.995 56.7067 302.385 65.3207 293.451C73.9335 284.52 84.8463 289.655 84.8463 289.655L88.6746 276.574Z" fill="#775298"/>
<path fill-rule="evenodd" clip-rule="evenodd" d="M161.016 181.893L163.237 213.429L113.94 200.586L161.016 181.893Z" fill="#F3A683"/>
<path fill-rule="evenodd" clip-rule="evenodd" d="M113.939 201.671C113.939 201.671 157.061 204.389 162.803 202.473C162.803 202.473 171.23 285.261 156.235 294.192C141.24 303.127 107.589 290.045 107.589 290.045L116.675 272.179L136.264 270.903V239L134.859 239.319L113.939 201.671Z" fill="#112129"/>
<path fill-rule="evenodd" clip-rule="evenodd" d="M59.8851 258.141C59.8851 258.141 49.0388 262.609 52.5484 273.456C52.5484 273.456 89.5731 302.489 107.589 295.788C117.683 292.035 128.525 263.398 136.11 238.932L162.803 202.472C162.803 202.472 150.214 203.102 146.014 203.086C137.987 203.056 113.94 201.67 113.94 201.67C113.94 201.67 101.378 267.394 96.9023 268.989C92.4265 270.583 59.8851 258.141 59.8851 258.141Z" fill="#22343D"/>
<path fill-rule="evenodd" clip-rule="evenodd" d="M123.988 119.239C123.988 119.239 149.832 94.991 154.297 88.6091C158.763 82.2285 168.337 60.8529 180.138 51.92L174.396 39.7961C174.396 39.7961 177.907 37.8826 180.138 42.9858C180.138 42.9858 188.432 26.3974 190.347 26.7148C192.263 27.0335 186.52 39.4774 186.52 39.4774C186.52 39.4774 194.498 27.991 196.73 28.3109C198.961 28.6297 190.987 41.2228 190.987 41.2228C190.987 41.2228 199.919 30.8632 201.196 32.1393C202.472 33.4155 194.177 41.2228 194.177 41.2228C194.177 41.2228 203.109 36.0945 204.067 37.7847C205.024 39.4774 195.134 43.9432 195.134 43.9432C195.134 43.9432 194.177 51.2813 188.116 54.471C188.116 54.471 176.114 86.8976 165.267 97.4254L130.42 133.641L123.988 119.239Z" fill="#FFC6B2"/>
<path fill-rule="evenodd" clip-rule="evenodd" d="M93.1387 131.806C93.1387 131.806 68.6517 157.422 62.2298 161.827C55.8065 166.232 34.3436 175.606 25.3016 187.326L13.2319 181.47C13.2319 181.47 11.2858 184.961 16.3689 187.241C16.3689 187.241 -0.298336 195.381 0.00406575 197.299C0.303958 199.217 12.8003 193.59 12.8003 193.59C12.8003 193.59 1.24002 201.46 1.53866 203.695C1.8373 205.93 14.503 198.072 14.503 198.072C14.503 198.072 4.06076 206.907 5.32558 208.195C6.58789 209.483 14.4742 201.263 14.4742 201.263C14.4742 201.263 9.26182 210.147 10.9457 211.12C12.6271 212.092 17.1857 202.244 17.1857 202.244C17.1857 202.244 24.5312 201.359 27.7798 195.325C27.7798 195.325 58.493 183.105 69.1235 172.356L107.344 145.274L93.1387 131.806Z" fill="#FFC6B2"/>
<path fill-rule="evenodd" clip-rule="evenodd" d="M102.319 121.596L89.934 133.72L93.0747 147.387C93.0747 147.387 105.276 176.681 107.121 183.827C109.988 194.939 105.35 211.883 105.35 211.883C105.35 211.883 126.035 210.165 144.857 209.528C163.677 208.889 169.835 202.826 169.835 202.826C169.835 202.826 153.516 148.475 142.249 133.282C130.982 118.092 126.883 113.336 126.883 113.336L110.294 116.962L102.319 121.596Z" fill="white"/>
<path fill-rule="evenodd" clip-rule="evenodd" d="M138.665 131.491L151.57 123.245C151.57 123.245 153.541 114.412 137.979 103.992L119.731 115.427L138.665 131.491Z" fill="white"/>
<path fill-rule="evenodd" clip-rule="evenodd" d="M92.5439 132.761C85.4695 133.754 72.5415 151.684 71.0998 151.65C71.0998 151.65 80.1982 166.498 87.4056 166.98C87.4056 166.98 119.123 129.033 92.5439 132.761Z" fill="white"/>
<path fill-rule="evenodd" clip-rule="evenodd" d="M117.516 121.095C117.516 121.095 107.233 113.412 107.59 110.349C107.68 109.577 109.106 108.325 109.476 107.213C111.47 101.232 101.857 85.819 95.9505 82.5704C91.304 80.0156 93.3405 79.7897 83.562 85.6007C73.7836 91.4117 79.3548 101.46 83.7214 106.658C87.8496 111.57 92.5776 113.674 96.8313 114.029L102.879 127.463L117.516 121.095Z" fill="#FFC6B2"/>
<path fill-rule="evenodd" clip-rule="evenodd" d="M98.9619 131.761C97.0169 126.99 100.7 120.981 107.188 118.335C113.679 115.687 120.514 117.409 122.463 122.177C124.406 126.946 117.876 134.116 114.231 135.603C110.586 137.09 100.906 136.529 98.9619 131.761Z" fill="#FFC6B2"/>
<path fill-rule="evenodd" clip-rule="evenodd" d="M83.7218 106.658C83.7218 106.658 80.3866 106.473 80.0164 108.695C79.645 110.919 86.1297 110.919 88.5389 109.251L83.7218 106.658Z" fill="#FFC6B2"/>
<path fill-rule="evenodd" clip-rule="evenodd" d="M85.3896 108.696C84.756 104.679 80.4759 101.693 80.6892 97.7788C82.7408 97.7952 84.0583 95.2542 83.1248 93.0821C82.7571 92.2289 82.1348 91.4986 81.737 90.6566C81.3405 89.8159 81.2351 88.7142 81.8436 88.2386C82.1322 88.014 82.5225 87.9751 82.8964 87.9374C85.938 87.625 91.1491 88.5372 93.9485 87.4995C96.6136 86.512 99.4695 84.5909 99.1922 81.3259C98.95 78.4825 96.4392 76.1774 94.1329 74.4358C92.8117 73.437 89.036 70.8257 87.6119 71.0629C85.4373 71.4243 84.9103 74.3254 84.7535 76.7534C83.2327 75.3054 80.9891 75.5375 79.6666 76.7158C78.3441 77.894 77.7179 79.7662 77.142 81.5731C76.5648 83.3813 75.9537 85.2584 74.6488 86.4593C73.4329 87.5786 71.5093 88.4256 71.7615 90.3291C72.0614 92.5978 75.0252 93.4046 76.3954 95.3395C76.0579 94.8652 75.7718 97.8943 75.9663 98.4075C76.551 99.9547 78.0103 100.979 79.0656 102.162C81.3129 104.684 82.4121 107.224 85.3896 108.696Z" fill="#FF7B5B"/>
<path fill-rule="evenodd" clip-rule="evenodd" d="M104.021 99.5115L96.4221 103.442C96.4221 103.442 105.549 110.067 104.021 99.5115Z" fill="white"/>
<path fill-rule="evenodd" clip-rule="evenodd" d="M93.567 101.069C93.9823 101.858 93.3675 102.997 92.1943 103.614C91.0211 104.232 89.7337 104.094 89.3183 103.306C88.9043 102.518 89.5178 101.379 90.6911 100.761C91.8655 100.143 93.1517 100.281 93.567 101.069Z" fill="#FFB2A0"/>
<path fill-rule="evenodd" clip-rule="evenodd" d="M104.663 93.4897C105.078 94.2777 104.463 95.417 103.29 96.0344C102.117 96.6518 100.829 96.5137 100.414 95.7257C100 94.9377 100.614 93.7983 101.787 93.181C102.961 92.5636 104.247 92.7016 104.663 93.4897Z" fill="#FFB2A0"/>
<path fill-rule="evenodd" clip-rule="evenodd" d="M98.7166 99.2322C98.6815 99.1883 98.8232 99.0013 99.152 98.7642C99.4657 98.522 100.012 98.261 100.417 97.8243C100.818 97.4014 100.963 96.5193 100.348 96.3951C99.7091 96.178 98.9839 96.9108 98.1519 97.6072C97.9462 97.7779 97.7429 97.9473 97.5409 98.1142C97.3526 98.2873 96.9561 98.5408 96.5446 98.4894C95.7603 98.3626 95.4266 97.8394 95.1254 97.4893C94.5231 96.7163 94.1517 95.907 93.9459 95.2068C93.5381 93.7914 93.7213 92.8779 93.8192 92.8854C93.956 92.8791 94.0011 93.7575 94.5194 95.0023C94.7804 95.6209 95.1706 96.3236 95.739 96.9874C96.0163 97.3237 96.3651 97.6374 96.6136 97.6474C96.7177 97.6524 96.7993 97.6173 96.995 97.4529C97.1945 97.286 97.3953 97.1166 97.5986 96.946C98.0177 96.6072 98.3803 96.2646 98.8596 95.9459C99.3252 95.6322 99.9889 95.4339 100.584 95.6359C101.219 95.8028 101.591 96.5432 101.481 97.0576C101.409 97.5821 101.148 97.9686 100.852 98.2509C100.226 98.7742 99.6665 98.9009 99.3139 99.059C98.9525 99.1958 98.7542 99.2811 98.7166 99.2322Z" fill="#FF7B5B"/>
<path fill-rule="evenodd" clip-rule="evenodd" d="M96.8312 114.03C96.8312 114.03 101.678 114.057 104.308 112.437C104.308 112.437 102.084 115.17 97.6318 115.878L96.8312 114.03Z" fill="#FFA192"/>
<path fill-rule="evenodd" clip-rule="evenodd" d="M98.9335 92.2916C98.8896 92.5313 98.212 92.6053 97.4955 92.9215C96.769 93.2151 96.2445 93.6506 96.0425 93.515C95.8354 93.4059 96.178 92.5401 97.1592 92.1272C98.1392 91.7119 98.9975 92.0658 98.9335 92.2916Z" fill="#22343D"/>
<path fill-rule="evenodd" clip-rule="evenodd" d="M89.4344 98.5231C89.2512 98.3876 89.5386 97.6071 90.2362 96.8254C90.9427 96.0273 91.8448 95.7613 91.9402 95.9846C92.0406 96.2017 91.491 96.7074 90.8724 97.4088C90.2437 98.1078 89.6327 98.6712 89.4344 98.5231Z" fill="#22343D"/>
<path fill-rule="evenodd" clip-rule="evenodd" d="M85.7521 97.3182C85.3594 97.0271 85.0532 95.7811 86.5564 94.1022C88.0735 92.3856 89.7687 92.688 89.9719 93.1648C90.1903 93.6329 89.6256 94.2992 88.2943 95.8087C86.9429 97.3132 86.1775 97.6369 85.7521 97.3182Z" fill="#FF7B5B"/>
<path fill-rule="evenodd" clip-rule="evenodd" d="M93.732 90.705C93.5149 90.2985 93.7545 89.1152 95.7095 88.2908C97.692 87.4388 99.0133 88.3786 98.9945 88.8667C98.9907 89.3523 98.2441 89.6924 96.5025 90.4428C94.7483 91.1793 93.9666 91.148 93.732 90.705Z" fill="#FF7B5B"/>
<path fill-rule="evenodd" clip-rule="evenodd" d="M510.71 102.475C510.838 102.602 508.732 104.971 504.363 107.551C500.048 110.128 493.258 112.683 485.449 112.74C477.639 112.798 470.812 110.344 466.459 107.83C462.053 105.316 459.913 102.977 460.038 102.848C460.22 102.618 462.614 104.591 467.026 106.75C471.395 108.918 477.98 111.07 485.435 111.016C492.892 110.96 499.443 108.711 503.781 106.479C508.159 104.254 510.525 102.247 510.71 102.475Z" fill="#775298"/>
<path fill-rule="evenodd" clip-rule="evenodd" d="M463.065 98.8967C462.945 99.159 460.614 98.1915 456.686 97.3157C454.729 96.8539 452.354 96.4975 449.709 96.1688C447.054 95.8751 444.119 95.6417 441.019 95.4209C437.919 95.2038 434.951 94.9541 432.256 94.6203C429.561 94.2627 427.139 93.8373 425.144 93.2978C421.139 92.2525 418.87 91.0153 418.949 90.8409C419.053 90.5774 421.439 91.3917 425.405 92.1057C427.384 92.4834 429.772 92.7758 432.43 93.0405C435.096 93.284 438.039 93.4835 441.144 93.7018C444.25 93.9227 447.223 94.2075 449.916 94.594C452.607 95.0169 455.021 95.5087 456.996 96.1361C460.963 97.347 463.154 98.7323 463.065 98.8967Z" fill="#775298"/>
<mask id="mask0" mask-type="alpha" maskUnits="userSpaceOnUse" x="400" y="32" width="157" height="78">
<path fill-rule="evenodd" clip-rule="evenodd" d="M400.085 32.4191H556.527V109.067H400.085V32.4191Z" fill="white"/>
</mask>
<g mask="url(#mask0)">
<path fill-rule="evenodd" clip-rule="evenodd" d="M415.821 47.9441C423.267 46.3643 430.981 47.7245 438.488 48.9756C445.997 50.2266 453.792 51.3547 461.132 49.3394C474.385 45.7018 484.446 32.3118 498.189 32.4197C503.849 32.4636 509.183 34.8804 514.696 36.159C521.542 37.7476 528.674 37.5769 535.609 38.71C542.546 39.8431 549.711 42.6325 553.631 48.4661C558.281 55.3888 557.006 65.1537 552.126 71.9171C547.246 78.6817 539.432 82.8 531.425 85.1339C525.84 86.7614 519.89 87.7025 515.056 90.9411C510.168 94.2174 506.975 99.4901 502.421 103.216C490.991 112.563 473.203 109.884 461.397 101.017C458.431 98.7899 455.681 96.205 452.349 94.575C438.793 87.9396 419.298 96.7232 407.623 84.6508C395.768 72.3901 397.457 51.839 415.821 47.9441Z" fill="#775298"/>
</g>
<path fill-rule="evenodd" clip-rule="evenodd" d="M412.1 285.389C412.1 285.389 424.52 312.01 425.973 307.081C427.423 302.15 426.943 290.311 426.165 288.62C425.384 286.93 420.307 279.463 420.307 279.463L412.1 285.389Z" fill="#FFB2A0"/>
<path fill-rule="evenodd" clip-rule="evenodd" d="M501.906 70.1243C503.056 71.5962 502.288 70.0151 503.589 72.1383C508.997 71.95 512.627 67.3738 512.627 67.3738C512.627 67.3738 521.211 67.6009 521.112 66.0675C521.014 64.5317 512.883 65.1051 512.883 65.1051C512.883 65.1051 521.485 62.4035 521.013 61.0546C520.544 59.707 510.613 64.0059 510.613 64.0059C510.613 64.0059 520.634 57.7859 519.153 56.7883C517.674 55.7932 508.032 61.2228 508.032 61.2228C508.032 61.2228 516.412 54.3402 515.155 53.453C513.902 52.5659 502.279 61.5239 502.279 61.5239C502.448 57.117 499.288 57.2714 499.288 57.2714L499.418 68.0313C499.418 68.0313 501.377 69.4467 501.906 70.1243Z" fill="#FFC6B2"/>
<path fill-rule="evenodd" clip-rule="evenodd" d="M374.667 21.4256C372.83 21.7644 374.255 21.1257 371.871 21.8535C367.954 18.1192 368.474 12.2505 368.474 12.2505C368.474 12.2505 361.906 6.72188 362.995 5.6415C364.091 4.55861 369.789 10.3859 369.789 10.3859C369.789 10.3859 365.152 2.65382 366.4 1.95866C367.646 1.2635 372.219 11.071 372.219 11.071C372.219 11.071 368.854 -0.233477 370.623 0.00367998C372.39 0.240837 375.996 10.7009 375.996 10.7009C375.996 10.7009 374.3 -0.00761322 375.824 0.161785C377.351 0.329928 380.098 14.7463 380.098 14.7463C382.896 11.3383 385.156 13.553 385.156 13.553L378.063 21.3541C378.063 21.3541 375.512 21.2713 374.667 21.4256Z" fill="#FFC6B2"/>
<path fill-rule="evenodd" clip-rule="evenodd" d="M419.222 66.3708C416.846 65.9806 411.103 69.7977 408.23 76.019C406.621 79.5011 405.514 83.0384 407.36 88.7013C408.23 91.3652 410.049 91.699 410.456 92.8923C410.969 94.4031 409.269 99.1651 409.269 99.1651L416.048 101.903C416.489 98.6318 416.988 95.3404 420.322 93.92C421.569 93.388 422.904 93.0517 424.081 92.3766C427.257 90.5559 428.954 86.5731 430.259 83.3119C431.232 80.8763 425.177 67.3471 419.222 66.3708Z" fill="#FFC6B2"/>
<path fill-rule="evenodd" clip-rule="evenodd" d="M411.152 158.829L399.793 154.271C399.793 154.271 366.085 216.782 366.226 234.126C366.365 251.468 412.522 286.192 412.522 286.192L420.306 279.464C420.306 279.464 406.056 254.615 398.438 245.854C390.819 237.091 411.152 158.829 411.152 158.829Z" fill="#FFB2A0"/>
<path fill-rule="evenodd" clip-rule="evenodd" d="M467.547 230.038C467.547 230.038 492.581 218.16 487.55 217.111C482.52 216.067 470.755 217.506 469.135 218.42C467.513 219.334 460.484 225 460.484 225L467.547 230.038Z" fill="#FFC6B2"/>
<path fill-rule="evenodd" clip-rule="evenodd" d="M422.308 158.287L405.078 164.556C405.078 164.556 387.842 240.366 394.422 252.267C401 264.174 419.479 256.295 445.796 241.932L467.84 229.898L460.482 225.001C460.482 225.001 434.831 230.027 427.627 235.039C427.627 235.039 431.387 224.387 436.399 209.351C441.411 194.313 444.868 178.963 422.308 158.287Z" fill="#FFC6B2"/>
<path fill-rule="evenodd" clip-rule="evenodd" d="M401.1 106.639C401.1 101.603 402.721 97.96 407.758 97.96C412.794 97.96 419.757 99.7255 419.757 104.763C419.757 109.803 415.788 117.983 410.749 117.983C405.712 117.983 401.1 111.679 401.1 106.639Z" fill="#FFC6B2"/>
<path fill-rule="evenodd" clip-rule="evenodd" d="M405.077 97.2384C405.077 97.2384 389.415 80.2885 386.282 63.6837C383.147 47.0815 377.825 20.1396 377.825 20.1396L371.872 21.8537C371.872 21.8537 369.051 58.6733 371.872 64.3111C374.69 69.9502 388.466 107.491 392.661 117.35L405.077 97.2384Z" fill="#FFC6B2"/>
<path fill-rule="evenodd" clip-rule="evenodd" d="M421.904 110.449C421.904 110.449 423.108 105.176 442.914 98.0101C462.719 90.8452 500.084 67.6201 500.084 67.6201L503.812 71.8852C503.812 71.8852 483.509 95.3362 471.698 99.4494C459.887 103.564 434.8 119.782 432.219 121.08C428.316 123.043 428.363 125.514 421.904 110.449Z" fill="#FFC6B2"/>
<path fill-rule="evenodd" clip-rule="evenodd" d="M405.077 97.2379C405.077 97.2379 389.164 102.395 389.164 126.609C389.164 126.609 389.174 159.772 392.925 165.805C392.925 165.805 399.021 167.367 406.623 165.805C414.593 164.166 422.308 158.286 422.308 158.286L434.825 120.706L433.328 103.099L416.309 99.8128C416.309 99.8128 421.191 122.629 403.526 112.82C400.093 110.914 408.577 97.9695 408.577 97.9695L405.077 97.2379Z" fill="#22343D"/>
<path fill-rule="evenodd" clip-rule="evenodd" d="M391.613 116.931L383.772 100.595C383.772 100.595 384.896 90.6846 399.291 87.1335C399.291 87.1335 400.746 92.1289 402.342 94.0375C403.937 95.9448 408.582 97.975 408.582 97.975L391.613 116.931Z" fill="#22343D"/>
<path fill-rule="evenodd" clip-rule="evenodd" d="M421.257 123.498L446.191 118.387C446.191 118.387 450.526 109.405 440.247 98.7206C440.247 98.7206 420.798 99.8951 418.281 100.105C415.803 100.31 417.504 102.219 417.504 102.219L421.257 123.498Z" fill="#22343D"/>
<path fill-rule="evenodd" clip-rule="evenodd" d="M392.885 157.728C392.885 157.728 369.301 201.331 365.405 209.122C365.405 209.122 434.981 241.083 463.225 202.612C463.225 202.612 447.159 168.607 422.322 155.661L411.607 152.453L393.304 157.518" fill="#22343D"/>
<path fill-rule="evenodd" clip-rule="evenodd" d="M429.346 82.9C429.346 82.9 432.032 80.2135 433.685 82.0731C435.337 83.9327 427.693 86.6192 427.693 86.6192L429.346 82.9Z" fill="#FFC6B2"/>
<path fill-rule="evenodd" clip-rule="evenodd" d="M478.485 46.2601C478.511 46.353 477.473 46.8022 475.492 47.2727C473.516 47.7483 470.583 48.18 466.941 48.254C463.301 48.3268 458.972 48.003 454.234 47.3606C449.492 46.7319 444.341 45.8084 438.922 45.2174C433.511 44.6389 428.309 44.5335 423.701 45.2776C419.092 46.0092 415.103 47.5187 412.054 49.2817C409.005 51.0585 406.883 53.0298 405.581 54.5217C404.271 56.0149 403.681 56.9686 403.548 56.8883C403.475 56.8506 403.869 55.7765 405.056 54.1026C406.236 52.4337 408.318 50.2316 411.422 48.2402C414.524 46.2614 418.647 44.5611 423.438 43.7104C428.235 42.8471 433.6 42.9136 439.105 43.5033C444.615 44.1044 449.772 45.0806 454.458 45.7883C459.144 46.5098 463.379 46.9515 466.945 47.0343C474.093 47.2338 478.42 45.9652 478.485 46.2601Z" fill="#775298"/>
<path fill-rule="evenodd" clip-rule="evenodd" d="M415.665 81.3745C415.657 81.4799 414.892 81.5539 413.724 81.1662C413.435 81.0645 413.094 80.9315 412.776 80.6404C412.619 80.4949 412.474 80.3016 412.385 80.0695C412.257 79.7445 412.267 79.3756 412.394 79.0945C412.431 79.038 412.429 78.9038 412.503 78.9013L412.73 78.8937C412.875 78.8737 413.047 78.9213 413.215 78.9527C413.524 79.0117 413.623 79.0029 413.843 79.018C414.228 79.0267 414.627 78.9866 415.026 78.8988C416.657 78.5549 417.749 77.3679 418.238 76.3917C418.752 75.4092 418.797 74.6701 418.933 74.6789C419.03 74.6663 419.221 75.4518 418.797 76.6376C418.581 77.2186 418.206 77.8849 417.6 78.4696C416.997 79.0531 416.163 79.5324 415.216 79.7395C414.743 79.8449 414.267 79.885 413.809 79.8612C413.609 79.8511 413.296 79.811 413.204 79.7909C413.12 79.7771 413.13 79.7583 413.114 79.7683C413.104 79.7784 413.099 79.7947 413.1 79.8185C413.134 79.9315 413.195 80.0394 413.282 80.136C413.456 80.333 413.71 80.4798 413.957 80.6028C414.967 81.0984 415.684 81.2452 415.665 81.3745Z" fill="#FF7B5B"/>
<path fill-rule="evenodd" clip-rule="evenodd" d="M410.072 81.6653L419.257 85.2841C419.257 85.2841 411.185 90.8504 410.072 81.6653Z" fill="white"/>
<path fill-rule="evenodd" clip-rule="evenodd" d="M423.179 83.4068C422.853 84.0266 421.841 84.1345 420.919 83.6489C419.997 83.1646 419.514 82.2687 419.839 81.65C420.165 81.0302 421.178 80.921 422.1 81.4066C423.022 81.8922 423.505 82.7869 423.179 83.4068Z" fill="#FFB2A0"/>
<path fill-rule="evenodd" clip-rule="evenodd" d="M412.928 77.9714C412.649 78.6138 411.649 78.7995 410.693 78.3855C409.737 77.9714 409.186 77.1156 409.465 76.4731C409.742 75.8307 410.743 75.645 411.699 76.0591C412.656 76.4731 413.206 77.3289 412.928 77.9714Z" fill="#FFB2A0"/>
<path fill-rule="evenodd" clip-rule="evenodd" d="M409.526 91.7389C409.526 91.7389 412.745 94.4355 416.104 93.5671C416.104 93.5671 414.946 95.3038 410.488 94.6663C410.488 94.6663 410.858 92.7528 409.526 91.7389Z" fill="#FFA192"/>
<path fill-rule="evenodd" clip-rule="evenodd" d="M422.298 77.6382C422.298 78.0397 421.972 78.366 421.571 78.366C421.169 78.366 420.843 78.0397 420.843 77.6382C420.843 77.2366 421.169 76.9104 421.571 76.9104C421.972 76.9104 422.298 77.2366 422.298 77.6382Z" fill="#22343D"/>
<path fill-rule="evenodd" clip-rule="evenodd" d="M416.343 75.4929C416.343 75.8945 416.016 76.2207 415.615 76.2207C415.213 76.2207 414.888 75.8945 414.888 75.4929C414.888 75.0914 415.213 74.7651 415.615 74.7651C416.016 74.7651 416.343 75.0914 416.343 75.4929Z" fill="#22343D"/>
<path fill-rule="evenodd" clip-rule="evenodd" d="M424.636 75.6998C424.412 75.7951 423.978 75.2694 423.32 74.844C422.676 74.3998 422.024 74.2003 422.025 73.9569C422.004 73.7235 422.915 73.534 423.799 74.1275C424.685 74.7173 424.861 75.6295 424.636 75.6998Z" fill="#775298"/>
<path fill-rule="evenodd" clip-rule="evenodd" d="M414.141 72.1689C414.126 71.9417 414.907 71.6556 415.954 71.6832C417.019 71.7058 417.806 72.2228 417.697 72.4386C417.596 72.657 416.855 72.5629 415.92 72.5453C414.98 72.5177 414.156 72.416 414.141 72.1689Z" fill="#775298"/>
<path fill-rule="evenodd" clip-rule="evenodd" d="M417.42 296.206C417.42 296.206 421.241 309.768 425.186 308.657C429.131 307.548 426.165 288.621 426.165 288.621L422.229 282.399C422.229 282.399 425.927 314.082 417.42 296.206Z" fill="#22343D"/>
<path fill-rule="evenodd" clip-rule="evenodd" d="M465.6 221.02C465.6 221.02 468.378 217.988 471.746 217.484C475.115 216.978 487.154 215.546 488.922 217.146C490.691 218.746 479.164 224.11 479.164 224.11C479.164 224.11 483.18 221.551 481.513 220.599C478.565 218.914 465.6 221.02 465.6 221.02Z" fill="#22343D"/>
<path fill-rule="evenodd" clip-rule="evenodd" d="M460.822 224.651L464.592 232.304L466.648 231.162L461.621 223.623L460.822 224.651Z" fill="#22343D"/>
<path fill-rule="evenodd" clip-rule="evenodd" d="M418.673 276.395L409.42 284.734L412.161 287.019L419.929 278.566L418.673 276.395Z" fill="#22343D"/>
<path fill-rule="evenodd" clip-rule="evenodd" d="M225.231 193.375C222.599 186.845 221.588 179.574 217.662 173.731C212.012 165.322 201.159 161.15 196.574 152.116C194.627 148.278 194.015 143.889 193.995 139.586C193.958 131.074 196.506 122.024 203.081 116.615C210.636 110.398 221.972 110.485 230.821 114.661C239.667 118.837 246.426 126.417 252.173 134.335C257.921 142.252 262.953 150.748 269.646 157.883C274.609 163.173 280.495 167.735 284.233 173.95C294.481 190.989 283.937 212.548 265.845 218.698C249.948 224.1 230.73 207.027 225.231 193.375Z" fill="#22343D"/>
<path fill-rule="evenodd" clip-rule="evenodd" d="M202.584 313.547C204.157 314.84 202.441 313.945 204.73 315.435C204.219 321.153 198.93 324.756 198.93 324.756C198.93 324.756 198.707 333.859 197.008 333.672C195.305 333.488 196.395 324.906 196.395 324.906C196.395 324.906 192.913 333.873 191.44 333.302C189.968 332.734 195.299 322.445 195.299 322.445C195.299 322.445 187.828 332.728 186.801 331.106C185.776 329.486 192.35 319.564 192.35 319.564C192.35 319.564 184.233 328.074 183.316 326.696C182.4 325.322 193.002 313.487 193.002 313.487C188.095 313.433 188.443 310.092 188.443 310.092L200.396 310.801C200.396 310.801 201.86 312.949 202.584 313.547Z" fill="#FFC6B2"/>
<path fill-rule="evenodd" clip-rule="evenodd" d="M316.774 141.854C318.82 142.213 317.232 141.535 319.886 142.307C324.245 138.347 323.667 132.124 323.667 132.124C323.667 132.124 330.977 126.262 329.765 125.116C328.545 123.968 322.204 130.146 322.204 130.146C322.204 130.146 327.363 121.948 325.976 121.21C324.59 120.474 319.5 130.873 319.5 130.873C319.5 130.873 323.245 118.886 321.275 119.137C319.31 119.389 315.296 130.481 315.296 130.481C315.296 130.481 317.183 119.126 315.486 119.305C313.787 119.484 311.039 134.359 311.039 134.359C307.036 131.102 304.234 133.187 304.234 133.187L312.995 141.778C312.995 141.778 315.834 141.691 316.774 141.854Z" fill="#FFC6B2"/>
<path fill-rule="evenodd" clip-rule="evenodd" d="M266.734 191.572C270.431 190.995 281.708 198.303 278.838 213.143C278.599 214.389 276.971 217.132 276.566 218.267C276.054 219.703 280.043 224.962 280.043 224.962L269.745 228.252C269.306 225.142 270.045 220.596 266.717 219.244C265.472 218.738 264.14 218.418 262.965 217.777C259.795 216.046 258.102 212.257 256.799 209.157C255.827 206.839 255.087 204.347 255.114 201.832C255.182 195.501 260.79 192.501 266.734 191.572Z" fill="#FFC6B2"/>
<path fill-rule="evenodd" clip-rule="evenodd" d="M287.356 232.216C287.356 226.875 285.662 224.835 280.055 224.835C274.449 224.835 267.048 226.875 267.048 232.216C267.048 237.559 271.007 244.245 276.616 244.245C282.221 244.245 287.356 237.559 287.356 232.216Z" fill="#FFC6B2"/>
<path fill-rule="evenodd" clip-rule="evenodd" d="M282.928 222.247C282.928 222.247 300.361 204.273 303.848 186.666C307.336 169.06 313.261 140.49 313.261 140.49L319.887 142.307C319.887 142.307 323.026 181.352 319.887 187.331C316.75 193.311 298.966 234.836 299.315 245.466L282.928 222.247Z" fill="#FFC6B2"/>
<path fill-rule="evenodd" clip-rule="evenodd" d="M251.853 230.949C251.853 230.949 245.926 231.945 236.86 252.543C227.794 273.139 199.901 311.483 199.901 311.483L204.434 315.658C204.434 315.658 231.63 295.396 236.86 283.105C242.089 270.814 248.714 255.533 251.853 256.196C254.99 256.862 268.241 238.588 251.853 230.949Z" fill="#FFC6B2"/>
<path fill-rule="evenodd" clip-rule="evenodd" d="M298.524 248.211L306.641 225.807C306.641 225.807 305.389 215.299 289.368 211.532L280.292 224.609L298.524 248.211Z" fill="#FF7B5B"/>
<path fill-rule="evenodd" clip-rule="evenodd" d="M254.56 229.23C254.56 229.23 244.983 230.037 237.221 247.086C237.221 247.086 245.757 258.871 252.002 259.268C252.002 259.268 275.197 239.443 254.56 229.23Z" fill="#FF7B5B"/>
<path fill-rule="evenodd" clip-rule="evenodd" d="M280.872 431.412C280.872 431.412 267.048 459.641 265.432 454.415C263.819 449.186 264.352 436.631 265.218 434.839C266.087 433.046 271.739 425.128 271.739 425.128L280.872 431.412Z" fill="#FFC6B2"/>
<path fill-rule="evenodd" clip-rule="evenodd" d="M281.928 297.205L294.57 292.371C294.57 292.371 332.088 358.66 331.932 377.051C331.777 395.44 280.403 432.264 280.403 432.264L271.738 425.128C271.738 425.128 296.088 389.326 304.567 380.035C308.807 375.389 278.454 352.619 273.856 330.71C269.259 308.801 281.928 297.205 281.928 297.205Z" fill="#654287"/>
<path fill-rule="evenodd" clip-rule="evenodd" d="M205.919 416.624C205.919 416.624 180.06 435.685 181.135 430.335C182.215 424.981 188.724 414.054 190.357 412.838C191.992 411.625 200.82 407.052 200.82 407.052L205.919 416.624Z" fill="#FFC6B2"/>
<path fill-rule="evenodd" clip-rule="evenodd" d="M247.533 320.679L284.936 299.002C284.936 299.002 286.42 374.3 277.441 390.581C268.463 406.862 205.093 417.177 205.093 417.177L200.82 407.053C200.82 407.053 239.917 383.759 251.92 379.2C263.924 374.639 247.533 320.679 247.533 320.679Z" fill="#775298"/>
<path fill-rule="evenodd" clip-rule="evenodd" d="M269.809 284.174C269.809 284.174 242.269 293.925 247.534 320.679C252.798 347.431 261.573 352.447 261.573 352.447L277.366 326.531L293.223 292.593L277.366 290.581L269.809 284.174Z" fill="#775298"/>
<path fill-rule="evenodd" clip-rule="evenodd" d="M282.928 222.247C282.928 222.247 303.204 233.61 303.204 259.287C303.204 259.287 300.628 288.561 296.454 294.956C296.454 294.956 289.668 296.614 281.207 294.956C272.335 293.22 263.75 286.984 263.75 286.984L256.821 251.145L251.431 230.219L254.353 229.255L269.603 227.58C269.603 227.58 267.412 250.359 284.439 239.047C288.025 236.664 279.975 224.787 279.975 224.787L282.928 222.247Z" fill="#FF7B5B"/>
<path fill-rule="evenodd" clip-rule="evenodd" d="M295.339 125.217L337.851 150.017L361.764 104.846L321.909 82.7041L295.339 125.217Z" fill="white"/>
<path fill-rule="evenodd" clip-rule="evenodd" d="M354.48 341.443L384.884 322.621L359.765 278.774L331.972 296.797L354.48 341.443Z" fill="white"/>
<path fill-rule="evenodd" clip-rule="evenodd" d="M204.777 154.604C204.858 154.532 205.796 155.384 207.281 157.122C208.759 158.862 210.775 161.509 212.799 165.08C214.831 168.636 216.841 173.148 218.276 178.386C219.762 183.584 220.758 189.428 223.042 195.057C224.228 197.838 225.664 200.426 227.375 202.715C229.1 204.989 231.013 206.984 232.983 208.724C237.009 212.112 241.226 214.442 244.984 215.789C248.738 217.154 251.954 217.766 254.19 217.986C256.424 218.233 257.686 218.27 257.688 218.416C257.694 218.508 256.435 218.7 254.142 218.656C251.849 218.639 248.513 218.201 244.583 216.941C240.65 215.699 236.207 213.4 231.958 209.938C229.874 208.158 227.849 206.098 226.024 203.73C224.215 201.349 222.687 198.626 221.446 195.711C219.067 189.827 218.127 183.932 216.743 178.802C215.422 173.655 213.585 169.226 211.728 165.662C209.882 162.088 208.05 159.379 206.751 157.532C205.445 155.689 204.679 154.69 204.777 154.604Z" fill="#22343D"/>
<path fill-rule="evenodd" clip-rule="evenodd" d="M257.007 125.59C257.32 125.542 257.623 129.727 259.965 135.917C261.134 139 262.873 142.547 265.371 146.103C266.62 147.884 268.057 149.638 269.683 151.386C271.298 153.141 273.057 154.924 274.72 156.925C278.054 160.961 280.347 165.324 282.507 169.175C284.651 173.064 286.359 176.763 287.227 180.072C288.133 183.371 288.186 186.21 287.899 188.094C287.599 189.986 287.128 190.945 287.05 190.918C286.901 190.88 287.144 189.867 287.23 188.034C287.304 186.203 287.07 183.535 286.058 180.417C285.079 177.286 283.319 173.758 281.121 169.952C278.89 166.147 276.577 161.872 273.392 158.025C271.793 156.1 270.059 154.323 268.434 152.524C266.801 150.733 265.315 148.869 264.062 147.003C261.547 143.267 259.868 139.544 258.817 136.326C257.741 133.109 257.283 130.393 257.066 128.522C256.852 126.648 256.909 125.599 257.007 125.59Z" fill="#22343D"/>
<path fill-rule="evenodd" clip-rule="evenodd" d="M270.04 207.703C270.024 207.582 270.717 207.472 271.37 206.704C271.521 206.527 271.673 206.269 271.67 206.118C271.667 205.956 271.554 205.675 271.359 205.513C271.157 205.333 270.933 205.245 270.636 205.275C270.33 205.297 269.958 205.449 269.471 205.522C268.404 205.664 267.572 205.062 267.025 204.573C266.463 204.06 266.034 203.54 265.714 203.073C265.076 202.133 264.878 201.454 264.976 201.404C265.089 201.344 265.473 201.906 266.192 202.694C266.551 203.085 267.004 203.534 267.538 203.967C268.065 204.388 268.71 204.77 269.354 204.669C269.695 204.625 270.093 204.466 270.577 204.433C271.071 204.384 271.619 204.611 271.92 204.95C272.24 205.296 272.419 205.704 272.382 206.187C272.286 206.682 272.024 206.912 271.807 207.128C270.87 207.949 270.01 207.815 270.04 207.703Z" fill="#FF7B5B"/>
<path fill-rule="evenodd" clip-rule="evenodd" d="M275.064 208.41L266.899 211.379C266.899 211.379 273.827 217.44 275.064 208.41Z" fill="white"/>
<path fill-rule="evenodd" clip-rule="evenodd" d="M266.085 207.904C266.411 208.524 265.928 209.42 265.006 209.905C264.083 210.39 263.072 210.282 262.746 209.662C262.42 209.044 262.903 208.148 263.825 207.662C264.747 207.177 265.759 207.285 266.085 207.904Z" fill="#FFB2A0"/>
<path fill-rule="evenodd" clip-rule="evenodd" d="M275.764 202.941C276.032 203.588 275.467 204.434 274.505 204.832C273.541 205.231 272.543 205.029 272.276 204.381C272.009 203.734 272.573 202.888 273.537 202.49C274.499 202.093 275.497 202.293 275.764 202.941Z" fill="#FFB2A0"/>
<path fill-rule="evenodd" clip-rule="evenodd" d="M267.141 219.462C267.141 219.462 269.873 220.018 273.355 219.148C273.355 219.148 271.638 220.816 268.834 221.203C268.834 221.203 268.205 220.041 267.141 219.462Z" fill="#FFA192"/>
<path fill-rule="evenodd" clip-rule="evenodd" d="M269.932 201.108C270.238 201.367 270.276 201.827 270.016 202.133C269.756 202.439 269.298 202.477 268.991 202.217C268.685 201.958 268.647 201.499 268.907 201.192C269.167 200.886 269.626 200.848 269.932 201.108Z" fill="#22343D"/>
<path fill-rule="evenodd" clip-rule="evenodd" d="M264.445 204.264C264.751 204.524 264.789 204.983 264.529 205.29C264.271 205.596 263.812 205.633 263.504 205.374C263.198 205.114 263.16 204.656 263.42 204.349C263.68 204.042 264.139 204.005 264.445 204.264Z" fill="#22343D"/>
<path fill-rule="evenodd" clip-rule="evenodd" d="M269.964 198.071C269.892 198.304 269.21 198.295 268.461 198.523C267.706 198.726 267.132 199.095 266.947 198.935C266.755 198.802 267.199 197.984 268.224 197.693C269.247 197.398 270.056 197.855 269.964 198.071Z" fill="#22343D"/>
<path fill-rule="evenodd" clip-rule="evenodd" d="M260.486 203.795C260.303 203.66 260.59 202.879 261.288 202.099C261.993 201.301 262.897 201.035 262.991 201.257C263.092 201.474 262.541 201.98 261.923 202.681C261.295 203.38 260.684 203.945 260.486 203.795Z" fill="#22343D"/>
<path fill-rule="evenodd" clip-rule="evenodd" d="M257.407 209.858C257.407 209.858 254.788 207.658 253.531 209.648C252.275 211.639 259.187 212.686 259.187 212.686L257.407 209.858Z" fill="#FFC6B2"/>
<path fill-rule="evenodd" clip-rule="evenodd" d="M194.44 410.43C194.44 410.43 190.686 412.062 189.707 413.042C188.727 414.021 179.749 429.528 180.892 431.487C182.035 433.445 191.038 426.796 191.038 426.796C191.038 426.796 183.505 428.223 194.44 410.43Z" fill="#775298"/>
<path fill-rule="evenodd" clip-rule="evenodd" d="M267.7 430.935C267.7 430.935 265.033 433.818 264.622 435.141C264.21 436.463 263.474 454.366 265.397 455.568C267.32 456.772 272.575 446.893 272.575 446.893C272.575 446.893 266.292 451.814 267.7 430.977" fill="#775298"/>
</svg>
