<svg width="522" height="516" viewBox="0 0 522 516" fill="none" xmlns="http://www.w3.org/2000/svg">
<path d="M519.547 335.014C512.583 369.474 492.555 400.849 462.72 424.035C452.419 432.017 441.273 439.114 429.434 445.23C387.707 467.401 335.993 480.839 282.157 491.86L272.943 493.683C264.941 495.28 256.732 495.936 248.534 495.633C162.907 492.496 104.585 380.966 86.4465 263.586C70.6238 159.093 97.1076 40.7377 215.682 35.3964C260.208 33.4465 312.162 52.9462 360.403 84.3154C363.876 86.5621 367.349 88.8936 370.774 91.2675L372.897 92.7512C462.961 155.829 536.527 258.118 519.547 335.014Z" fill="#FDE6D6"/>
<path d="M99.2782 433.403C105.984 445.315 108.444 460.406 94.9848 465.239C79.9338 470.665 55.9102 461.932 48.9637 442.051C44.4773 429.334 46.021 411.614 58.6117 404.789C68.8869 398.94 91.2703 418.821 99.2782 433.403Z" fill="#F5F9FD"/>
<path d="M467.544 166.257C461.514 161.636 456.689 154.769 461.803 150.148C466.916 145.527 480.713 145.146 488.817 153.582C493.979 158.965 497.549 167.783 493.641 173.166C490.168 177.744 475.069 171.894 467.544 166.257Z" fill="#FFAD69"/>
<path fill-rule="evenodd" clip-rule="evenodd" d="M182.927 97.8383C179.743 97.5416 176.511 97.3296 173.279 97.2025C173.023 97.2667 172.748 97.182 172.595 96.9911C172.441 96.8003 172.441 96.5449 172.595 96.354C172.748 96.1632 173.023 96.0784 173.279 96.1427C176.171 96.1427 179.142 96.4225 182.049 96.6962C182.342 96.7238 182.635 96.7514 182.927 96.7786C183.09 96.7885 183.241 96.8587 183.342 96.9718C183.443 97.0848 183.485 97.2303 183.457 97.372C183.417 97.6136 183.202 97.8033 182.927 97.8383ZM135.169 100.89C134.908 100.872 134.682 100.724 134.59 100.509C134.497 100.216 134.691 99.9129 135.024 99.8306C138.063 99.11 141.247 98.4741 144.672 97.923C144.826 97.8847 144.991 97.904 145.128 97.9762C145.265 98.0485 145.362 98.1673 145.395 98.3046C145.455 98.596 145.242 98.8768 144.913 98.9404C141.729 99.4915 138.594 100.127 135.554 100.848L135.169 100.89ZM211.485 102.586C214.572 103.307 217.659 104.07 220.747 104.918H221.181C221.501 104.918 221.76 104.69 221.76 104.409C221.76 104.128 221.501 103.9 221.181 103.9C218.045 103.01 214.91 102.247 211.87 101.526C211.697 101.474 211.507 101.491 211.35 101.573C211.192 101.654 211.083 101.792 211.05 101.95C211.008 102.225 211.188 102.489 211.485 102.586ZM116.982 106.655C116.761 106.639 116.562 106.528 116.452 106.359C116.312 106.089 116.44 105.771 116.741 105.638C119.636 104.493 122.627 103.391 125.714 102.416C125.861 102.361 126.027 102.362 126.173 102.418C126.319 102.474 126.432 102.581 126.486 102.713C126.589 102.982 126.442 103.275 126.148 103.391C123.109 104.366 120.118 105.468 117.272 106.613L116.982 106.655ZM229.961 107.588C232.951 108.521 235.991 109.538 238.981 110.555L239.416 110.598C239.735 110.598 239.994 110.37 239.994 110.089C239.994 109.808 239.735 109.58 239.416 109.58C236.425 108.563 233.386 107.546 230.346 106.613C230.042 106.542 229.722 106.665 229.575 106.91C229.478 107.19 229.647 107.488 229.961 107.588ZM100.291 115.134C100.098 115.145 99.9135 115.064 99.8086 114.922C99.6996 114.826 99.6383 114.696 99.6383 114.561C99.6383 114.426 99.6996 114.296 99.8086 114.201C102.462 112.548 105.163 110.979 107.961 109.58C108.245 109.49 108.562 109.59 108.715 109.818C108.869 110.046 108.815 110.338 108.588 110.513C105.839 111.912 103.089 113.438 100.532 115.049C100.474 115.087 100.409 115.116 100.339 115.134H100.291ZM256.444 117.296H256.734H256.782C256.982 117.29 257.165 117.194 257.265 117.041C257.33 116.918 257.336 116.776 257.281 116.649C257.227 116.521 257.117 116.418 256.975 116.363C254.081 115.134 251.138 113.989 248.147 112.844C248.007 112.787 247.846 112.782 247.701 112.83C247.556 112.878 247.438 112.975 247.375 113.099C247.236 113.368 247.364 113.687 247.665 113.819C250.607 114.922 253.598 116.109 256.444 117.296ZM85.7906 126.248C85.6736 126.278 85.5484 126.276 85.4329 126.24C85.3239 126.144 85.2627 126.015 85.2627 125.88C85.2627 125.744 85.3239 125.615 85.4329 125.519C87.7002 123.442 90.257 121.28 92.476 119.627C92.7186 119.422 93.1017 119.422 93.3443 119.627C93.5771 119.84 93.5771 120.177 93.3443 120.39C90.9806 122.213 88.5203 124.163 86.3977 126.198C86.2185 126.306 85.9888 126.324 85.7906 126.248ZM290.791 133.446H290.502C287.8 131.963 285.003 130.521 282.205 129.207C282.024 129.109 281.916 128.933 281.923 128.746C281.929 128.559 282.049 128.39 282.236 128.301C282.424 128.213 282.651 128.219 282.832 128.317C284.294 129.048 285.757 129.803 287.205 130.55L287.206 130.55C288.529 131.232 289.84 131.909 291.129 132.556C291.238 132.652 291.299 132.781 291.299 132.917C291.299 133.052 291.238 133.181 291.129 133.277C291.045 133.369 290.924 133.429 290.791 133.446ZM73.4211 139.466H73.7588C73.9536 139.543 74.1817 139.509 74.3377 139.381C75.9102 137.141 77.595 135.262 79.2932 133.368L79.2932 133.368C79.5226 133.112 79.7522 132.856 79.9818 132.599C80.1064 132.502 80.1778 132.363 80.1778 132.217C80.1778 132.071 80.1064 131.932 79.9818 131.836C79.8732 131.74 79.7256 131.686 79.5718 131.686C79.4179 131.686 79.2703 131.74 79.1617 131.836C77.1839 134.04 75.2543 136.329 73.4211 138.746C73.3121 138.841 73.2509 138.971 73.2509 139.106C73.2509 139.241 73.3121 139.371 73.4211 139.466ZM307.049 142.645C306.942 142.691 306.818 142.691 306.711 142.645L298.703 137.897C298.423 137.745 298.337 137.423 298.51 137.177C298.683 136.931 299.05 136.855 299.33 137.007C302.064 138.533 304.765 140.102 307.435 141.713C307.638 141.92 307.638 142.226 307.435 142.433C307.354 142.556 307.209 142.636 307.049 142.645ZM64.3041 154.091C64.1496 154.036 64.0293 153.926 63.9739 153.788C63.9184 153.65 63.9333 153.498 64.0147 153.37C65.3654 150.784 66.8608 148.241 68.4045 145.782C68.4648 145.555 68.6806 145.387 68.9437 145.36C69.2069 145.334 69.4606 145.455 69.5777 145.664C69.6948 145.873 69.65 146.124 69.4658 146.291C67.9221 148.707 66.4749 151.251 65.076 153.836C65.0128 153.961 64.8956 154.058 64.7506 154.105C64.6055 154.153 64.4447 154.148 64.3041 154.091ZM337.584 162.993C337.708 163.035 337.846 163.035 337.97 162.993C338.106 162.999 338.24 162.97 338.356 162.908C338.465 162.812 338.526 162.683 338.526 162.548C338.526 162.412 338.465 162.283 338.356 162.187C336.62 161.016 335.023 159.862 333.451 158.725C332.577 158.094 331.71 157.467 330.831 156.846C330.563 156.717 330.23 156.776 330.039 156.985C329.849 157.194 329.857 157.493 330.059 157.694C331.924 158.865 333.605 160.096 335.293 161.332L335.294 161.333L335.295 161.334L335.296 161.335L335.297 161.335L335.298 161.336L335.299 161.337L335.3 161.337L335.301 161.338L335.302 161.339L335.303 161.34L335.304 161.34L335.305 161.341L335.306 161.342L335.307 161.343L335.308 161.343C336.06 161.894 336.813 162.445 337.584 162.993ZM57.502 170.072C57.2043 169.957 57.0421 169.672 57.1161 169.394C58.1291 166.638 59.1904 163.925 60.3482 161.34C60.4951 161.094 60.8154 160.971 61.12 161.043C61.2702 161.09 61.3915 161.189 61.4554 161.318C61.5193 161.446 61.5202 161.592 61.4577 161.721C60.3482 164.264 59.2869 166.977 58.2738 169.69C58.1802 169.983 57.835 170.153 57.502 170.072ZM352.683 174.084C352.618 174.084 352.553 174.075 352.491 174.057C350.127 172.149 347.667 170.284 345.206 168.461C344.996 168.241 344.996 167.919 345.206 167.698C345.449 167.494 345.832 167.494 346.075 167.698L353.359 173.294C353.57 173.515 353.57 173.836 353.359 174.057C353.158 174.182 352.893 174.191 352.683 174.084ZM52.273 186.298C52.3654 186.42 52.5129 186.5 52.6779 186.52C52.8611 186.533 53.0416 186.474 53.1716 186.36C53.3016 186.246 53.368 186.087 53.3533 185.926C54.0286 183.171 54.7522 180.373 55.5723 177.66C55.6358 177.382 55.4478 177.106 55.1382 177.024C54.9783 176.972 54.8001 176.984 54.6512 177.057C54.5024 177.131 54.3982 177.258 54.3663 177.406C54.2103 177.997 54.0542 178.583 53.8993 179.165L53.8989 179.167L53.8988 179.167L53.8988 179.167C53.2879 181.462 52.6957 183.686 52.1955 185.884C52.1524 186.025 52.1807 186.176 52.273 186.298ZM380.277 197.88C380.139 197.935 379.981 197.935 379.843 197.88C377.672 195.803 375.405 193.641 373.186 191.734C372.953 191.521 372.953 191.184 373.186 190.971C373.437 190.786 373.803 190.786 374.054 190.971C375.011 191.849 375.978 192.758 376.942 193.665L376.942 193.666L376.943 193.667L376.945 193.668C378.214 194.862 379.478 196.052 380.711 197.16C380.944 197.373 380.944 197.71 380.711 197.923C380.565 197.946 380.414 197.931 380.277 197.88ZM48.8672 202.671C48.8379 202.961 49.0703 203.22 49.3978 203.264C49.7123 203.293 50.0019 203.111 50.0732 202.84C50.4591 199.915 50.8932 197.075 51.3756 194.362C51.4199 194.226 51.391 194.079 51.2971 193.963C51.2032 193.848 51.0546 193.776 50.8932 193.769C50.7394 193.744 50.5809 193.775 50.4537 193.855C50.3265 193.935 50.2414 194.057 50.2179 194.192C49.6872 196.99 49.2531 199.83 48.8672 202.671ZM393.109 210.598C392.955 210.654 392.781 210.654 392.627 210.598L386.307 204.154C386.198 204.059 386.137 203.929 386.137 203.794C386.137 203.659 386.198 203.529 386.307 203.433C386.417 203.324 386.575 203.261 386.741 203.261C386.907 203.261 387.065 203.324 387.175 203.433C388.709 204.937 390.268 206.534 391.835 208.138C392.387 208.704 392.941 209.27 393.495 209.834C393.728 210.048 393.728 210.384 393.495 210.598C393.371 210.64 393.233 210.64 393.109 210.598ZM47.4263 220.015C47.5364 220.12 47.6915 220.179 47.8537 220.178C48.1656 220.182 48.4329 219.983 48.4808 219.712C48.5392 218.567 48.6446 217.414 48.7497 216.266C48.9051 214.568 49.0597 212.878 49.0597 211.234C49.0632 210.937 48.8157 210.683 48.4808 210.64C48.3191 210.629 48.1592 210.677 48.04 210.774C47.9207 210.87 47.8532 211.007 47.8537 211.149C47.8019 211.751 47.7455 212.355 47.689 212.96L47.689 212.96C47.4829 215.169 47.2748 217.398 47.2748 219.627C47.2613 219.769 47.3163 219.91 47.4263 220.015ZM405.362 223.866C405.209 223.927 405.033 223.927 404.88 223.866C402.902 221.577 400.924 219.33 398.946 217.168C398.837 217.073 398.776 216.943 398.776 216.808C398.776 216.672 398.837 216.543 398.946 216.447C399.056 216.338 399.214 216.275 399.38 216.275C399.546 216.275 399.705 216.338 399.814 216.447C400.401 217.104 400.996 217.753 401.595 218.407L401.599 218.411C402.973 219.909 404.372 221.435 405.748 223.145C405.981 223.358 405.981 223.695 405.748 223.908L405.362 223.866ZM47.2751 236.668C47.2751 236.949 47.5343 237.177 47.854 237.177H47.9022C48.0645 237.178 48.2195 237.118 48.3296 237.013C48.4397 236.909 48.4946 236.768 48.4811 236.626V230.691V228.148C48.4817 228.005 48.4141 227.869 48.2949 227.772C48.1756 227.676 48.0157 227.627 47.854 227.639C47.5343 227.639 47.2751 227.867 47.2751 228.148V230.691V236.668ZM416.409 237.685C416.238 237.74 416.05 237.74 415.879 237.685C414.142 235.396 412.309 233.065 410.427 230.691C410.318 230.595 410.257 230.466 410.257 230.33C410.257 230.195 410.318 230.065 410.427 229.97C410.67 229.765 411.053 229.765 411.296 229.97C413.225 232.302 415.059 234.675 416.795 236.965C416.999 237.171 416.999 237.478 416.795 237.685C416.672 237.732 416.532 237.732 416.409 237.685ZM426.153 251.844C426.246 252.003 426.433 252.102 426.636 252.099L426.973 251.844C427.082 251.749 427.144 251.619 427.144 251.484C427.144 251.349 427.082 251.219 426.973 251.124C425.574 248.707 423.886 246.291 422.149 243.833C421.914 243.654 421.565 243.654 421.329 243.833C421.119 244.053 421.119 244.375 421.329 244.596C422.255 246.045 423.234 247.495 424.212 248.945L424.213 248.947L424.215 248.949L424.216 248.951L424.217 248.952L424.219 248.954L424.22 248.956L424.221 248.958L424.222 248.96L424.224 248.962L424.225 248.964C424.873 249.924 425.521 250.884 426.153 251.844ZM48.6256 254.133C48.3238 254.134 48.0719 253.931 48.0467 253.666C48.0467 251.935 47.8727 250.203 47.7023 248.508C47.589 247.382 47.4774 246.271 47.4196 245.188C47.4187 244.9 47.6711 244.659 47.9985 244.637C48.1602 244.625 48.3202 244.674 48.4394 244.77C48.5586 244.867 48.6262 245.003 48.6256 245.146C48.6256 247.122 48.8241 249.142 49.0254 251.19C49.1048 251.997 49.1845 252.809 49.2527 253.624C49.2663 253.766 49.2113 253.907 49.1012 254.011C48.9912 254.116 48.8361 254.176 48.6739 254.175L48.6256 254.133ZM435.223 266.765C435.349 266.942 435.565 267.052 435.802 267.062V267.02C436.103 266.887 436.231 266.569 436.091 266.299C434.692 263.798 433.197 261.255 431.653 258.711C431.485 258.462 431.127 258.37 430.833 258.499C430.63 258.706 430.63 259.013 430.833 259.22C432.377 261.763 433.872 264.307 435.223 266.765ZM50.6516 271.047C50.3397 271.05 50.0724 270.852 50.0245 270.581C49.6386 267.783 49.2526 264.943 48.9149 262.103C48.8873 261.961 48.9292 261.815 49.0303 261.702C49.1314 261.589 49.2823 261.519 49.4456 261.509C49.7755 261.484 50.0713 261.688 50.121 261.975C50.4586 264.773 50.8446 267.613 51.2305 270.454C51.2581 270.595 51.2162 270.741 51.1151 270.854C51.014 270.967 50.8631 271.037 50.6998 271.047H50.6516ZM442.844 282.28C442.942 282.486 443.17 282.62 443.423 282.62L443.616 282.577C443.766 282.53 443.888 282.43 443.951 282.302C444.015 282.174 444.016 282.028 443.954 281.899C442.844 279.271 441.59 276.642 440.287 274.014C440.136 273.75 439.774 273.637 439.467 273.76C439.326 273.815 439.216 273.918 439.161 274.046C439.107 274.173 439.113 274.315 439.178 274.438C440.48 277.066 441.686 279.695 442.844 282.28ZM53.5464 287.833C53.2608 287.837 53.015 287.657 52.9675 287.409C52.3886 284.612 51.8579 281.771 51.3755 278.931C51.3479 278.785 51.3886 278.635 51.4885 278.515C51.5884 278.395 51.739 278.316 51.9062 278.295C52.2361 278.27 52.5319 278.474 52.5815 278.762C52.9454 280.872 53.3367 282.982 53.7347 285.129L53.7348 285.129L53.735 285.13C53.8646 285.829 53.9949 286.532 54.1252 287.24C54.1849 287.531 53.9719 287.812 53.6428 287.876L53.5464 287.833ZM449.308 298.304C449.356 298.551 449.602 298.731 449.887 298.728L450.032 298.685C450.188 298.656 450.323 298.57 450.406 298.45C450.488 298.33 450.51 298.185 450.466 298.05C449.598 295.379 448.633 292.623 447.62 289.91C447.577 289.771 447.468 289.654 447.32 289.589C447.173 289.525 447.001 289.518 446.848 289.571C446.689 289.609 446.556 289.705 446.483 289.835C446.409 289.964 446.401 290.115 446.462 290.25C447.475 292.92 448.44 295.676 449.308 298.304ZM57.5021 304.493C57.2166 304.497 56.9708 304.317 56.9232 304.069C56.1996 301.272 55.5243 298.474 54.9454 295.591C54.9023 295.45 54.9305 295.299 55.0229 295.177C55.1153 295.056 55.2628 294.975 55.4278 294.955C55.5816 294.931 55.7402 294.962 55.8674 295.042C55.9946 295.122 56.0796 295.244 56.1032 295.379C56.3629 296.503 56.6309 297.641 56.9037 298.8L56.904 298.801L56.9046 298.804L56.9047 298.804L56.9055 298.807L56.9057 298.808C57.2911 300.445 57.686 302.122 58.081 303.857C58.1246 303.993 58.1027 304.138 58.0205 304.258C57.9382 304.378 57.803 304.464 57.6469 304.493H57.5021ZM453.168 314.752C453.236 315.006 453.498 315.182 453.795 315.175L453.891 315.133C454.046 315.112 454.184 315.038 454.275 314.926C454.366 314.814 454.401 314.675 454.374 314.54C453.891 311.657 453.312 308.859 452.589 306.061C452.516 305.772 452.197 305.585 451.865 305.638C451.556 305.719 451.368 305.995 451.431 306.273C452.106 309.241 452.685 312.039 453.168 314.752ZM62.0364 321.407C61.7656 321.415 61.5251 321.256 61.4575 321.026V320.602C60.6374 317.846 59.8173 315.091 59.0455 312.124C59.009 311.837 59.2125 311.569 59.5279 311.488C59.841 311.451 60.1415 311.609 60.2515 311.869C61.0234 314.625 61.7952 317.38 62.6153 320.093V320.517C62.708 320.81 62.5138 321.113 62.1811 321.195L62.0364 321.407ZM454.856 331.623C454.856 331.904 455.115 332.132 455.435 332.132L455.483 332.09C455.81 332.067 456.063 331.827 456.062 331.538C456.039 330.223 455.931 328.889 455.823 327.554V327.554V327.554V327.553V327.553V327.553V327.553V327.552V327.552V327.552V327.552V327.551V327.551V327.551V327.55V327.55V327.55V327.55V327.549V327.549V327.549V327.549V327.548V327.548V327.548V327.547V327.547V327.547V327.547V327.546V327.546V327.546V327.546V327.545V327.545V327.545V327.544V327.544V327.544C455.701 326.042 455.579 324.539 455.579 323.06C455.567 322.914 455.489 322.778 455.362 322.683C455.235 322.587 455.071 322.54 454.904 322.552C454.741 322.562 454.59 322.632 454.489 322.745C454.388 322.858 454.346 323.003 454.373 323.145C454.615 325.985 454.856 328.825 454.856 331.623ZM67.1499 337.728C66.8967 337.728 66.6684 337.594 66.571 337.389C65.6545 334.676 64.7379 331.92 63.8696 329.207C63.826 329.072 63.8479 328.927 63.9301 328.807C64.0124 328.686 64.1476 328.601 64.3037 328.571C64.4509 328.532 64.6099 328.545 64.7457 328.609C64.8814 328.673 64.9828 328.781 65.0273 328.91C65.8957 331.666 66.8122 334.379 67.7288 337.049C67.8258 337.33 67.6562 337.628 67.3429 337.728H67.1499ZM453.815 348.966C453.918 349.072 454.07 349.133 454.229 349.131L454.422 349.088C454.678 349.037 454.87 348.851 454.904 348.622C454.977 348.03 455.056 347.435 455.135 346.836L455.136 346.835C455.427 344.645 455.724 342.407 455.724 340.144C455.705 339.863 455.463 339.632 455.145 339.593C454.984 339.581 454.824 339.629 454.704 339.726C454.585 339.823 454.518 339.959 454.518 340.101C454.325 342.984 454.036 345.824 453.698 348.58C453.669 348.717 453.712 348.859 453.815 348.966ZM73.1317 353.921C72.8709 353.903 72.6454 353.754 72.5528 353.539L72.5524 353.538L72.5515 353.536L72.5505 353.533C71.5382 350.865 70.526 348.196 69.5619 345.485C69.5361 345.231 69.7126 344.994 69.9883 344.913C70.2639 344.833 70.5666 344.929 70.7197 345.146C71.684 347.858 72.6964 350.527 73.7089 353.196L73.7099 353.199L73.7106 353.2C73.7713 353.335 73.7639 353.486 73.6902 353.615C73.6165 353.745 73.4836 353.84 73.3247 353.878L73.1317 353.921ZM450.515 365.027C450.455 365.319 450.668 365.599 450.997 365.663L451.287 366.045C451.486 366 451.652 365.878 451.737 365.713C451.821 365.548 451.815 365.358 451.721 365.197C452.396 362.272 453.023 359.474 453.506 356.719C453.534 356.583 453.498 356.444 453.407 356.332C453.316 356.221 453.178 356.146 453.023 356.125C452.692 356.073 452.372 356.26 452.3 356.549C451.817 359.432 451.19 362.229 450.515 365.027ZM79.3063 369.902C79.0532 369.902 78.8248 369.768 78.7275 369.563C77.6179 366.935 76.5084 364.264 75.4471 361.593C75.3272 361.324 75.4784 361.021 75.7848 360.915C76.0912 360.81 76.4368 360.943 76.5566 361.212C76.9265 362.102 77.291 362.992 77.6554 363.883C78.3844 365.663 79.1134 367.443 79.8852 369.224C79.9822 369.504 79.8126 369.802 79.4993 369.902H79.3063ZM445.546 381.475C445.449 381.755 445.619 382.053 445.932 382.153H446.125C446.378 382.153 446.607 382.019 446.704 381.814C447.717 379.143 448.682 376.388 449.55 373.675C449.63 373.394 449.436 373.109 449.116 373.039C448.796 372.969 448.472 373.14 448.393 373.421C447.524 376.091 446.608 378.804 445.546 381.475ZM86.4461 385.714C86.2144 385.728 85.9994 385.608 85.9155 385.418C84.6612 382.789 83.4552 380.161 82.2975 377.533C82.2181 377.4 82.21 377.242 82.2751 377.103C82.3403 376.964 82.4721 376.858 82.6351 376.812C82.9541 376.727 83.2932 376.876 83.407 377.151C84.5648 379.78 85.7708 382.408 87.025 384.994C87.1328 385.274 86.9887 385.582 86.6873 385.714H86.4461ZM438.31 397.117C438.17 397.386 438.298 397.705 438.599 397.838C438.906 397.96 439.268 397.848 439.419 397.583C440.818 395.082 442.121 392.454 443.375 389.826C443.478 389.557 443.331 389.264 443.037 389.147C442.897 389.09 442.736 389.085 442.591 389.133C442.446 389.181 442.328 389.277 442.265 389.402C441.011 392.03 439.709 394.616 438.31 397.117ZM94.2607 401.313C94.0327 401.315 93.825 401.199 93.73 401.017C92.3793 398.431 91.0768 395.845 89.7743 393.217C89.7092 393.093 89.7032 392.952 89.7576 392.825C89.812 392.697 89.9223 392.594 90.0638 392.539C90.2154 392.469 90.3943 392.462 90.5525 392.519C90.7108 392.576 90.832 392.692 90.8838 392.835C91.8683 394.865 92.9121 396.894 93.9454 398.903C94.2286 399.454 94.5111 400.003 94.7913 400.55C94.9308 400.82 94.803 401.138 94.5019 401.271L94.2607 401.313ZM428.903 412.632H429.192L429.289 412.674C429.542 412.723 429.804 412.641 429.964 412.462C430.7 411.33 431.469 410.179 432.245 409.018L432.245 409.017L432.246 409.017L432.246 409.016L432.246 409.016L432.247 409.015L432.249 409.012L432.257 408.999C433.104 407.731 433.959 406.451 434.788 405.171C434.972 405.004 435.017 404.753 434.9 404.544C434.783 404.335 434.529 404.214 434.266 404.24C434.003 404.267 433.787 404.436 433.727 404.662C432.28 407.121 430.64 409.537 428.903 411.911C428.794 412.006 428.733 412.136 428.733 412.271C428.733 412.407 428.794 412.536 428.903 412.632ZM102.655 416.617C102.427 416.618 102.219 416.502 102.124 416.32C100.629 413.777 99.1816 411.191 97.8309 408.69C97.7658 408.566 97.7598 408.425 97.8142 408.298C97.8686 408.17 97.9788 408.067 98.1203 408.012C98.3401 407.839 98.6724 407.839 98.8922 408.012L103.186 415.642C103.333 415.901 103.227 416.215 102.944 416.363L102.655 416.617ZM417.47 426.324H417.856H417.952C418.047 426.348 418.147 426.348 418.242 426.324C420.316 424.12 422.294 421.831 424.175 419.584C424.284 419.489 424.345 419.359 424.345 419.224C424.345 419.089 424.284 418.959 424.175 418.864C424.067 418.768 423.919 418.714 423.765 418.714C423.611 418.714 423.464 418.768 423.355 418.864C421.817 420.874 420.213 422.602 418.572 424.37C418.206 424.764 417.839 425.16 417.47 425.561C417.237 425.774 417.237 426.111 417.47 426.324ZM111.82 431.581C111.606 431.581 111.405 431.485 111.29 431.326L110.925 430.755C109.495 428.516 108.021 426.209 106.466 423.865C106.401 423.624 106.528 423.375 106.776 423.256C107.024 423.138 107.331 423.179 107.527 423.357C109.071 425.9 110.663 428.401 112.351 430.775C112.554 430.982 112.554 431.289 112.351 431.496L111.82 431.581ZM404.445 438.872C404.567 438.925 404.71 438.925 404.831 438.872C404.944 438.939 405.081 438.969 405.217 438.957C407.343 437.205 409.428 435.204 411.398 433.314C411.574 433.145 411.749 432.977 411.922 432.81C412.155 432.597 412.155 432.26 411.922 432.047C411.814 431.951 411.666 431.897 411.512 431.897C411.359 431.897 411.211 431.951 411.102 432.047C409.943 433.066 408.74 434.186 407.518 435.325L407.516 435.326L407.515 435.327C406.501 436.272 405.473 437.229 404.445 438.151C404.323 438.24 404.251 438.372 404.251 438.512C404.251 438.651 404.323 438.783 404.445 438.872ZM121.758 446.078C121.545 446.071 121.349 445.977 121.227 445.824C119.539 443.492 117.802 441.034 116.114 438.617C115.91 438.41 115.91 438.104 116.114 437.897C116.222 437.801 116.37 437.747 116.524 437.747C116.678 437.747 116.825 437.801 116.934 437.897C118.316 439.933 119.766 441.969 121.199 443.979C121.466 444.355 121.733 444.73 121.999 445.103C122.203 445.31 122.203 445.617 121.999 445.824L121.758 446.078ZM390.021 450.106C390.142 450.232 390.316 450.309 390.504 450.318L390.649 450.275C390.666 450.264 390.684 450.252 390.7 450.239C390.706 450.235 390.711 450.231 390.716 450.226C390.729 450.216 390.741 450.204 390.753 450.193C390.767 450.179 390.781 450.164 390.793 450.148L398.126 444.595C398.359 444.382 398.359 444.045 398.126 443.832C398.017 443.736 397.87 443.682 397.716 443.682C397.562 443.682 397.414 443.736 397.306 443.832C396.349 444.558 395.406 445.283 394.467 446.006C392.992 447.142 391.525 448.271 390.021 449.385C389.912 449.481 389.851 449.61 389.851 449.745C389.851 449.881 389.912 450.01 390.021 450.106ZM132.66 460.195C132.46 460.189 132.278 460.093 132.178 459.94C130.296 457.736 128.415 455.404 126.582 453.031C126.371 452.81 126.371 452.488 126.582 452.268C126.824 452.063 127.207 452.063 127.45 452.268C129.283 454.599 131.165 456.931 132.998 459.177C133.107 459.273 133.168 459.402 133.168 459.538C133.168 459.673 133.107 459.802 132.998 459.898C132.962 459.997 132.895 460.085 132.805 460.152L132.66 460.195ZM374.681 460.618C374.834 460.68 375.01 460.68 375.164 460.618L375.308 460.576C375.329 460.585 375.35 460.593 375.371 460.6C375.398 460.608 375.425 460.614 375.453 460.618C378.154 458.965 380.759 457.27 383.268 455.574C383.377 455.478 383.438 455.349 383.438 455.214C383.438 455.078 383.377 454.949 383.268 454.853C383.159 454.758 383.012 454.704 382.858 454.704C382.704 454.704 382.556 454.758 382.448 454.853C380.191 456.379 377.856 457.87 375.478 459.389L374.681 459.898C374.572 459.993 374.511 460.123 374.511 460.258C374.511 460.393 374.572 460.523 374.681 460.618ZM359.003 469.987C358.8 469.99 358.613 469.891 358.521 469.732C358.412 469.637 358.351 469.507 358.351 469.372C358.351 469.237 358.412 469.107 358.521 469.012C361.319 467.486 364.069 465.96 366.674 464.434C366.782 464.338 366.93 464.284 367.084 464.284C367.237 464.284 367.385 464.338 367.494 464.434C367.603 464.529 367.664 464.659 367.664 464.794C367.664 464.929 367.603 465.059 367.494 465.154C364.889 466.68 362.139 468.206 359.341 469.732L359.003 469.987ZM144.19 473.505C144.345 473.557 144.517 473.557 144.672 473.505L145.106 473.59C145.339 473.377 145.339 473.04 145.106 472.827C144.028 471.608 142.936 470.474 141.844 469.341L141.844 469.34L141.843 469.339L141.842 469.338C140.884 468.343 139.926 467.349 138.98 466.299C138.78 466.076 138.413 466.038 138.159 466.214C137.906 466.389 137.863 466.712 138.063 466.934C140.089 469.266 142.115 471.428 144.19 473.505ZM342.457 478.507C342.235 478.491 342.036 478.38 341.926 478.21C341.779 477.952 341.884 477.637 342.167 477.49C345.013 476.133 347.859 474.734 350.561 473.251C350.796 473.072 351.146 473.072 351.381 473.251C351.49 473.346 351.551 473.476 351.551 473.611C351.551 473.746 351.49 473.876 351.381 473.971L342.939 478.21L342.457 478.507ZM157.601 485.883C157.725 485.926 157.862 485.926 157.987 485.883V485.841C158.123 485.901 158.284 485.901 158.421 485.841C158.543 485.752 158.615 485.62 158.615 485.481C158.615 485.341 158.543 485.209 158.421 485.12C156.202 483.298 153.934 481.178 151.667 479.058C151.424 478.854 151.041 478.854 150.799 479.058C150.676 479.147 150.605 479.279 150.605 479.419C150.605 479.558 150.676 479.691 150.799 479.779C153.082 481.899 155.349 483.933 157.601 485.883ZM325.283 486.307C325.055 486.309 324.847 486.193 324.752 486.011C324.671 485.883 324.656 485.731 324.711 485.593C324.767 485.455 324.887 485.344 325.042 485.29L333.629 481.475C333.819 481.313 334.104 481.274 334.342 481.376C334.579 481.479 334.718 481.702 334.688 481.934C334.658 482.165 334.465 482.354 334.207 482.407C331.313 483.721 328.467 484.993 325.524 486.223L325.283 486.307ZM307.241 493.174C307.321 493.373 307.532 493.508 307.772 493.514L308.013 493.471L316.793 489.91C317.055 489.877 317.264 489.703 317.318 489.476C317.371 489.248 317.256 489.016 317.03 488.895C316.804 488.773 316.517 488.79 316.31 488.935C314.255 489.808 312.175 490.639 310.089 491.472L310.084 491.473L310.081 491.475L310.077 491.476L310.073 491.478L310.07 491.479L310.066 491.481C309.222 491.818 308.376 492.155 307.531 492.496C307.389 492.552 307.279 492.655 307.225 492.782C307.17 492.91 307.176 493.051 307.241 493.174ZM172.7 496.99C172.59 497.022 172.471 497.022 172.362 496.99C170.872 495.983 169.451 494.946 167.977 493.871L167.976 493.871L167.975 493.87L167.968 493.865L167.962 493.86L167.959 493.858L167.95 493.851C166.949 493.122 165.924 492.374 164.836 491.606C164.583 491.419 164.551 491.087 164.764 490.864C164.977 490.642 165.355 490.613 165.608 490.801L166.148 491.21L166.148 491.211L166.15 491.212L166.152 491.213C168.419 492.934 170.628 494.611 173.085 496.142C173.21 496.238 173.281 496.377 173.281 496.523C173.281 496.669 173.21 496.808 173.085 496.905C172.939 496.98 172.763 496.996 172.603 496.947L172.7 496.99ZM289.585 499.915C289.669 500.105 289.884 500.226 290.116 500.212L290.357 500.169C293.348 499.11 296.291 498.007 299.282 496.863C299.423 496.807 299.533 496.704 299.588 496.577C299.642 496.449 299.636 496.308 299.571 496.185C299.424 495.94 299.104 495.816 298.799 495.888C295.856 497.032 292.866 498.135 289.875 499.194C289.574 499.327 289.446 499.645 289.585 499.915ZM188.812 506.189H188.522C185.98 504.995 183.438 503.661 180.933 502.346L180.177 501.95C179.973 501.743 179.973 501.436 180.177 501.229C180.285 501.133 180.433 501.08 180.587 501.08C180.741 501.08 180.888 501.133 180.997 501.229C183.698 502.798 186.496 504.239 189.246 505.468C189.449 505.675 189.449 505.982 189.246 506.189C189.1 506.221 188.946 506.206 188.812 506.147V506.189ZM271.592 506.231C271.671 506.43 271.882 506.565 272.122 506.57L272.363 506.528L281.336 503.391C281.63 503.275 281.776 502.981 281.674 502.713C281.542 502.454 281.208 502.326 280.902 502.416L271.929 505.553C271.769 505.588 271.636 505.686 271.57 505.819C271.504 505.952 271.512 506.104 271.592 506.231ZM254.081 512.547C253.81 512.555 253.569 512.396 253.502 512.165C253.405 511.885 253.574 511.587 253.888 511.487C255.287 511.106 256.734 510.639 258.181 510.173L263.005 508.605C263.152 508.55 263.318 508.551 263.464 508.607C263.61 508.663 263.723 508.769 263.777 508.901C263.857 509.028 263.865 509.181 263.799 509.314C263.732 509.447 263.6 509.545 263.439 509.58L258.615 511.19C257.168 511.657 255.673 512.123 254.225 512.505L254.081 512.547ZM197.447 509.876C200.425 510.993 203.468 511.97 206.564 512.801V512.759C206.869 512.83 207.189 512.707 207.336 512.462C207.429 512.169 207.235 511.866 206.902 511.784C203.854 510.966 200.859 510.004 197.929 508.901C197.61 508.806 197.26 508.933 197.109 509.198C197.007 509.467 197.153 509.76 197.447 509.876ZM235.122 515.769C234.802 515.769 234.543 515.541 234.543 515.26C234.514 515.123 234.557 514.981 234.66 514.874C234.763 514.768 234.915 514.707 235.074 514.709C238.313 514.517 241.535 514.149 244.722 513.607C245.054 513.555 245.373 513.742 245.446 514.031C245.473 514.166 245.438 514.306 245.347 514.417C245.256 514.529 245.118 514.604 244.963 514.625C241.776 515.175 238.554 515.557 235.315 515.769H235.122ZM225.475 515.769C222.238 515.599 219.017 515.259 215.827 514.752C215.662 514.732 215.514 514.651 215.422 514.53C215.329 514.408 215.301 514.257 215.344 514.116C215.368 513.98 215.453 513.858 215.58 513.779C215.707 513.699 215.866 513.668 216.02 513.692C219.209 514.2 222.431 514.54 225.668 514.709C225.83 514.709 225.985 514.768 226.095 514.873C226.205 514.978 226.26 515.118 226.246 515.26C226.237 515.424 226.146 515.576 225.996 515.674C225.847 515.772 225.656 515.807 225.475 515.769ZM366.625 185.714C366.707 185.751 366.798 185.765 366.887 185.758C367.071 185.857 367.306 185.859 367.494 185.757C367.726 185.543 367.726 185.207 367.494 184.994C365.776 183.418 363.848 181.841 361.971 180.307L361.965 180.303C361.471 179.899 360.981 179.498 360.499 179.101C360.256 178.897 359.873 178.897 359.63 179.101C359.522 179.197 359.46 179.326 359.46 179.462C359.46 179.597 359.522 179.727 359.63 179.822C361.064 181.081 362.623 182.378 364.197 183.686L364.203 183.691C365.012 184.363 365.824 185.039 366.625 185.714ZM322.485 152.522H322.823C322.965 152.523 323.102 152.478 323.208 152.395C323.317 152.3 323.379 152.17 323.379 152.035C323.379 151.899 323.317 151.77 323.208 151.674C320.604 149.979 317.999 148.283 315.345 146.63C315.074 146.544 314.771 146.632 314.611 146.843C314.451 147.054 314.475 147.333 314.67 147.52C317.275 149.131 319.928 150.827 322.485 152.522ZM273.956 124.968H273.666C270.836 123.612 267.99 122.297 265.128 121.026C264.957 120.949 264.835 120.808 264.798 120.643C264.76 120.478 264.811 120.306 264.935 120.178C265.006 120.05 265.136 119.953 265.292 119.913C265.448 119.873 265.616 119.892 265.755 119.966C268.553 121.195 271.447 122.552 274.294 123.908C274.403 124.004 274.464 124.133 274.464 124.269C274.464 124.404 274.403 124.534 274.294 124.629C274.265 124.776 274.157 124.902 274.004 124.968H273.956ZM192.574 98.9824C195.855 99.4063 199.039 99.9574 202.222 100.551C202.528 100.604 202.826 100.435 202.898 100.169C202.958 99.8779 202.745 99.5971 202.415 99.5335C199.087 98.8976 195.855 98.3889 192.767 97.9226C192.614 97.8982 192.455 97.9294 192.328 98.0092C192.201 98.0891 192.116 98.2107 192.092 98.3465C192.032 98.6379 192.245 98.9187 192.574 98.9824ZM153.575 97.7175C153.686 97.8062 153.833 97.85 153.982 97.8381H153.934C157.118 97.5414 160.35 97.287 163.582 97.287C163.744 97.2875 163.899 97.2281 164.009 97.1234C164.119 97.0186 164.174 96.878 164.161 96.7359C164.138 96.4638 163.892 96.2475 163.582 96.2273C160.302 96.312 157.07 96.524 153.934 96.8207C153.775 96.8184 153.623 96.879 153.52 96.9858C153.417 97.0925 153.374 97.2343 153.403 97.3718C153.403 97.5032 153.465 97.6287 153.575 97.7175Z" fill="#D8D5DB"/>
<path d="M453.072 335.396C453.072 335.904 453.072 336.328 453.072 336.795C451.866 348.622 440.288 373.844 428.952 396.142C429.338 404.196 429.627 411.402 429.675 417.337C429.675 418.439 429.675 419.457 429.675 420.474H428.276C428.614 425.73 429.048 434.844 429.386 445.315C387.658 467.485 335.945 480.923 282.109 491.945L272.895 493.768C264.892 495.365 256.684 496.021 248.485 495.718C247.992 493.944 247.813 492.113 247.954 490.292C249.095 466.392 251.93 442.579 256.445 418.99L253.454 418.609C264.404 386.137 269.904 339.296 272.75 298.643C273.088 293.853 273.377 289.19 273.618 284.569C266.623 290.843 261.799 294.743 261.799 294.743L246.99 273.336C228.707 284.951 211.437 295.209 202.995 299.957C196 305.722 184.085 306.57 174.726 295.718C159.578 278.295 138.208 205.171 135.7 192.751C135.334 192.629 134.992 192.457 134.687 192.242C131.213 188.003 119.057 164.9 120.215 160.407C121.372 155.913 127.065 146.206 133.674 144.892C132.902 142.814 132.033 140.653 130.779 137.643C127.981 130.945 124.653 124.163 129.67 124.926C134.687 125.689 146.168 150.36 148.146 154.599C148.435 152.607 148.724 150.996 148.724 150.996C150.268 147.011 158.372 144.892 157.166 150.996C155.768 159.474 159.144 163.713 159 170.708C159 171.089 159 171.513 159 172.106C159.019 172.361 159.019 172.615 159 172.87C159.025 173.053 159.025 173.238 159 173.421C159 173.421 159 173.633 159 173.717C157.825 178.927 155.742 183.946 152.825 188.596C158.083 203.688 182.203 243.153 196.241 264.9C204.828 258.626 215.537 251.165 226.632 243.704L225.668 242.306C225.668 242.306 282.88 195.294 312.5 191.733C312.934 189.911 313.223 187.918 313.513 185.841C313.802 183.764 313.995 180.245 314.092 177.363C292.335 177.151 290.309 163.077 292.48 145.188L289.055 144.425L294.12 132.895V132.047C293.564 131.478 293.241 130.762 293.204 130.012C293.204 128.614 293.638 127.427 294.506 127.384C294.63 127.342 294.768 127.342 294.892 127.384C294.892 126.367 295.278 125.349 295.423 124.332C295.809 122.085 296.291 120.093 296.774 118.016C295.483 117.793 294.156 117.793 292.866 118.016L292.48 115.939C294.076 115.689 295.709 115.689 297.304 115.939C298.905 110.255 301.492 104.822 304.974 99.8302C298.028 99.4063 294.747 97.4139 299.571 92.4966C307.049 84.8663 342.457 81.0511 360.306 84.2728C366.577 85.4174 370.678 87.4097 370.726 90.3771C370.726 90.7162 370.726 90.9282 370.726 91.2249C372.551 90.5461 374.123 89.4297 375.26 88.0032L377.286 89.1901C376.122 90.6376 374.606 91.8394 372.848 92.7086L372.125 93.0477C391.228 103.985 364.213 162.569 364.117 162.569C363.586 172.615 363.249 182.535 363.297 189.529C380.47 191.267 391.324 195.676 398.512 202.585C417.808 216.193 447.428 272.022 447.428 272.022L435.319 274.819C443.954 299.152 451.287 323.569 453.409 331.75C453.473 332.973 453.36 334.198 453.072 335.396Z" fill="#D1CDD3"/>
<rect opacity="0.3" x="363.634" y="241.415" width="322.872" height="221.492" rx="33.6" transform="rotate(180 363.634 241.415)" fill="#4D8DFF"/>
<path opacity="0.3" fill-rule="evenodd" clip-rule="evenodd" d="M38.5922 261.466H342.119C352.38 261.466 362.218 257.876 369.459 251.488C376.701 245.101 380.75 236.443 380.712 227.426V33.9126C380.712 15.1832 363.433 0 342.119 0H38.5922C17.2783 0 0 15.1832 0 33.9126V227.554C0 246.283 17.2783 261.466 38.5922 261.466ZM1.06093 33.9125C1.08751 15.7078 17.8751 0.955837 38.5918 0.932482H342.119C362.836 0.955837 379.623 15.7078 379.65 33.9125V227.426C379.623 245.631 362.836 260.383 342.119 260.406H38.5918C17.8751 260.383 1.08751 245.631 1.06093 227.426V33.9125Z" fill="#4D8DFF"/>
<g opacity="0.3">
<rect x="121.469" y="85.5447" width="53.9325" height="37.0071" rx="5.6" transform="rotate(180 121.469 85.5447)" fill="#4D8DFF"/>
<rect x="193.25" y="85.5447" width="53.9325" height="37.0071" rx="5.6" transform="rotate(180 193.25 85.5447)" fill="#4D8DFF"/>
<rect x="265.08" y="85.5447" width="53.9325" height="37.0071" rx="5.6" transform="rotate(180 265.08 85.5447)" fill="#4D8DFF"/>
<rect x="336.909" y="85.5447" width="53.9325" height="37.0071" rx="5.6" transform="rotate(180 336.909 85.5447)" fill="#4D8DFF"/>
</g>
<g opacity="0.3">
<rect x="121.469" y="149.173" width="53.9325" height="37.0071" rx="5.6" transform="rotate(180 121.469 149.173)" fill="#4D8DFF"/>
<rect x="193.25" y="149.173" width="53.9325" height="37.0071" rx="5.6" transform="rotate(180 193.25 149.173)" fill="#4D8DFF"/>
<rect x="265.08" y="149.173" width="53.9325" height="37.0071" rx="5.6" transform="rotate(180 265.08 149.173)" fill="#4D8DFF"/>
<rect x="336.909" y="149.173" width="53.9325" height="37.0071" rx="5.6" transform="rotate(180 336.909 149.173)" fill="#4D8DFF"/>
</g>
<g opacity="0.3">
<rect x="121.469" y="212.759" width="53.9325" height="37.0071" rx="5.6" transform="rotate(180 121.469 212.759)" fill="#4D8DFF"/>
<rect x="193.25" y="212.759" width="53.9325" height="37.0071" rx="5.6" transform="rotate(180 193.25 212.759)" fill="#4D8DFF"/>
<rect x="265.08" y="212.759" width="53.9325" height="37.0071" rx="5.6" transform="rotate(180 265.08 212.759)" fill="#4D8DFF"/>
<rect x="336.909" y="212.759" width="53.9325" height="37.0071" rx="5.6" transform="rotate(180 336.909 212.759)" fill="#4D8DFF"/>
</g>
<rect x="271.93" y="79.5249" width="53.9325" height="37.0071" rx="5.6" transform="rotate(180 271.93 79.5249)" fill="#4D8DFF"/>
<rect x="271.93" y="206.74" width="53.9325" height="37.0071" rx="5.6" transform="rotate(180 271.93 206.74)" fill="#FF4E4A"/>
<rect x="128.271" y="143.154" width="53.9325" height="37.0071" rx="5.6" transform="rotate(180 128.271 143.154)" fill="#FFC84D"/>
<path d="M401.31 125.985C399.67 135.227 396.486 185.333 397.788 196.778C399.091 208.224 335.076 211.7 343.615 198.94C352.153 186.18 346.075 143.832 346.075 143.832L401.31 125.985Z" fill="#FFAD69"/>
<path d="M396.872 127.427L346.075 143.747C347.977 157.713 348.429 171.803 347.426 185.841C368.362 178.253 363.731 162.823 363.731 154.514C363.731 146.969 396.92 128.868 396.872 127.427Z" fill="#D88344"/>
<path d="M329.914 129.334L322.003 144.171L331.651 147.604L329.914 129.334Z" fill="#D88344"/>
<path d="M329.77 124.417C324.946 152.946 317.034 181.39 356.398 176.685C395.762 171.979 401.841 127.723 401.744 119.33C401.117 74.7348 339.032 68.3762 329.77 124.417Z" fill="#FFAD69"/>
<path d="M406.52 93.2171C408.553 92.294 410.318 90.9745 411.682 89.3596L409.656 88.1726C408.424 89.6238 406.752 90.7405 404.832 91.3943C404.858 91.098 404.858 90.8004 404.832 90.5041C404.832 78.9738 343.759 82.2803 333.677 92.5813C327.695 98.6855 334.063 100.296 344.387 99.9996C343.62 100.518 343.049 101.227 342.746 102.034C335.945 131.326 368.073 160.152 371.691 162.611H397.933C397.933 162.611 425.43 103.984 406.52 93.2171Z" fill="#232323"/>
<path d="M487.564 331.793C484.09 318.185 466 259.304 451.625 231.072L414.914 237.939C414.914 237.939 438.6 307.545 451.19 333.531C448.248 347.52 433.39 412.589 424.224 430.775C420.172 439.253 435.512 442.517 439.227 438.448C442.941 434.378 485.103 359.94 487.467 336.71C487.467 336.201 487.467 335.777 487.467 335.311C487.708 334.15 487.74 332.963 487.564 331.793Z" fill="#FFAD69"/>
<path d="M432.425 202.373C451.721 215.642 481.582 272.064 481.582 272.064L418.387 286.477C418.387 286.477 381.628 167.443 432.425 202.373Z" fill="#E5AA33"/>
<path d="M462.72 424.077C452.419 432.059 441.273 439.157 429.434 445.273C387.706 467.443 335.993 480.881 282.157 491.903C282.108 491.352 282.108 490.8 282.157 490.249C283.893 464.01 286.981 434.039 291.805 415.006L429.82 417.422L462.43 418.016C462.43 419.457 462.72 421.492 462.72 424.077Z" fill="#232323"/>
<path d="M386.211 188.851C424.079 189.953 436.911 201.187 443.424 220.644C450.852 242.687 463.926 376.006 463.926 420.516C463.926 420.516 350.513 427.596 287.704 418.524C307.386 360.067 309.509 254.98 309.943 223.527C310.232 200.169 338.163 187.452 386.211 188.851Z" fill="#FFC84D"/>
<path fill-rule="evenodd" clip-rule="evenodd" d="M390.89 211.742C391.568 212.548 392.644 213.02 393.785 213.014L394.364 212.844C395.658 212.7 396.764 211.955 397.258 210.894L402.757 198.855C403.124 197.888 402.948 196.825 402.283 195.989C401.617 195.154 400.541 194.644 399.38 194.616H383.606C382.236 194.616 380.983 195.296 380.37 196.374C379.757 197.451 379.889 198.74 380.712 199.703L390.89 211.742ZM382.399 197.329C382.606 196.958 383.039 196.726 383.509 196.735H399.235C399.641 196.731 400.021 196.906 400.248 197.202C400.466 197.514 400.466 197.907 400.248 198.219L394.749 210.216C394.603 210.586 394.228 210.85 393.784 210.894C393.355 210.938 392.931 210.776 392.675 210.47L382.399 198.431C382.153 198.095 382.153 197.664 382.399 197.329Z" fill="white"/>
<path d="M309.798 231.284C309.509 246.672 308.833 271.216 306.952 298.643C323.016 281.686 338.791 261.636 339.707 246.587C341.01 225.9 327.647 224.628 309.798 231.284Z" fill="#E5AA33"/>
<path d="M331.169 238.448L311.872 210.258C311.872 210.258 258.808 243.874 230.298 264.688C216.212 242.899 192.14 203.433 186.882 188.385C189.79 183.749 191.857 178.743 193.009 173.548C193.037 173.451 193.037 173.348 193.009 173.251C193.009 173.251 193.009 172.87 193.009 172.7C193.03 172.446 193.03 172.191 193.009 171.937C193.009 171.344 193.009 170.877 193.009 170.496C193.009 163.671 189.777 159.474 191.176 150.826C192.14 144.765 184.277 146.842 182.734 150.826L182.106 154.387C180.129 150.148 168.213 125.265 163.679 124.714C159.144 124.163 161.99 130.86 164.788 137.431C165.994 140.356 166.911 142.645 167.683 144.68C161.025 146.036 155.14 156.041 154.224 160.237C153.307 164.434 165.367 187.834 168.696 192.073C168.953 192.356 169.263 192.6 169.612 192.793C172.072 205.256 193.732 278.338 208.59 295.803C217.949 306.613 229.912 305.765 236.907 300.042C254.081 290.419 306.856 258.541 331.169 238.448Z" fill="#FFAD69"/>
<path d="M363.731 210.258C361.802 241.373 296.195 294.743 296.195 294.743L259.629 242.178C259.629 242.178 367.301 153.666 363.731 210.258Z" fill="#FFC84D"/>
<path d="M343.47 133.234C342.023 140.695 339.9 148.114 347.86 147.562C355.819 147.011 357.845 135.396 357.99 133.192C358.666 121.323 346.316 118.482 343.47 133.234Z" fill="#FFAD69"/>
</svg>
