<svg width="113" height="26" viewBox="0 0 113 26" fill="none" xmlns="http://www.w3.org/2000/svg">
<path fill-rule="evenodd" clip-rule="evenodd" d="M19.5385 6.38527H15.9721C15.8927 6.38527 15.8281 6.443 15.8281 6.51402V8.76884H19.5386C19.8604 8.76884 20.1641 8.90139 20.3621 9.12816C20.5601 9.3549 20.6302 9.65061 20.5522 9.92975L19.3634 14.1819C19.2471 14.5979 18.8292 14.8897 18.3497 14.8897H15.8281V22.4597C15.8281 22.9757 15.3604 23.394 14.7833 23.394H10.028C9.45095 23.394 8.98314 22.9757 8.98314 22.4597V14.8896H6.46154C5.8845 14.8896 5.41669 14.4713 5.41669 13.9553V9.70311C5.41669 9.18712 5.8845 8.7688 6.46154 8.7688H8.98314V6.51397C8.98314 3.06797 12.1183 0.264404 15.9721 0.264404H19.5386C20.1156 0.264404 20.5834 0.682726 20.5834 1.19872V5.45096C20.5834 5.96695 20.1156 6.38527 19.5385 6.38527ZM18.2003 10.6375H14.7833C14.2062 10.6375 13.7384 10.2192 13.7384 9.70316V6.51403C13.7384 5.4127 14.7404 4.51665 15.9721 4.51665H18.4936V2.13308H15.9721C13.2706 2.13308 11.0728 4.09838 11.0728 6.51403V9.70316C11.0728 10.2192 10.605 10.6375 10.0279 10.6375H7.50634V13.021H10.0279C10.605 13.021 11.0728 13.4393 11.0728 13.9554V21.5254H13.7384V13.9554C13.7384 13.4393 14.2061 13.021 14.7832 13.021H17.5339L18.2003 10.6375Z" fill="#F2F2F2"/>
<mask id="mask0" mask-type="alpha" maskUnits="userSpaceOnUse" x="5" y="0" width="16" height="24">
<path fill-rule="evenodd" clip-rule="evenodd" d="M19.5385 6.38527H15.9721C15.8927 6.38527 15.8281 6.443 15.8281 6.51402V8.76884H19.5386C19.8604 8.76884 20.1641 8.90139 20.3621 9.12816C20.5601 9.3549 20.6302 9.65061 20.5522 9.92975L19.3634 14.1819C19.2471 14.5979 18.8292 14.8897 18.3497 14.8897H15.8281V22.4597C15.8281 22.9757 15.3604 23.394 14.7833 23.394H10.028C9.45095 23.394 8.98314 22.9757 8.98314 22.4597V14.8896H6.46154C5.8845 14.8896 5.41669 14.4713 5.41669 13.9553V9.70311C5.41669 9.18712 5.8845 8.7688 6.46154 8.7688H8.98314V6.51397C8.98314 3.06797 12.1183 0.264404 15.9721 0.264404H19.5386C20.1156 0.264404 20.5834 0.682726 20.5834 1.19872V5.45096C20.5834 5.96695 20.1156 6.38527 19.5385 6.38527ZM18.2003 10.6375H14.7833C14.2062 10.6375 13.7384 10.2192 13.7384 9.70316V6.51403C13.7384 5.4127 14.7404 4.51665 15.9721 4.51665H18.4936V2.13308H15.9721C13.2706 2.13308 11.0728 4.09838 11.0728 6.51403V9.70316C11.0728 10.2192 10.605 10.6375 10.0279 10.6375H7.50634V13.021H10.0279C10.605 13.021 11.0728 13.4393 11.0728 13.9554V21.5254H13.7384V13.9554C13.7384 13.4393 14.2061 13.021 14.7832 13.021H17.5339L18.2003 10.6375Z" fill="white"/>
</mask>
<g mask="url(#mask0)">
<rect x="-74" y="0.264404" width="100" height="23" fill="#F2F2F2"/>
<mask id="mask1" mask-type="alpha" maskUnits="userSpaceOnUse" x="-74" y="0" width="100" height="24">
<rect x="-74" y="0.264404" width="100" height="23" fill="white"/>
</mask>
<g mask="url(#mask1)">
</g>
</g>
<mask id="mask2" mask-type="alpha" maskUnits="userSpaceOnUse" x="44" y="0" width="25" height="25">
<path fill-rule="evenodd" clip-rule="evenodd" d="M68.9186 17.526C68.9729 16.5926 69 14.9115 69 12.4827C69 10.0539 68.9729 8.37283 68.9186 7.43948C68.8101 5.2334 68.1374 3.5258 66.9004 2.3167C65.6634 1.1076 63.9165 0.450012 61.6595 0.343951C60.7047 0.29092 58.9849 0.264404 56.5001 0.264404C54.0153 0.264404 52.2954 0.29092 51.3406 0.343951C49.0836 0.450012 47.3367 1.1076 46.0997 2.3167C44.8627 3.5258 44.19 5.2334 44.0815 7.43948C44.0272 8.37283 44.0001 10.0539 44.0001 12.4827C44.0001 14.9115 44.0272 16.5926 44.0815 17.526C44.19 19.732 44.8627 21.4396 46.0997 22.6487C47.3367 23.8578 49.0836 24.5154 51.3406 24.6215C52.2954 24.6745 54.0153 24.701 56.5001 24.701C58.9849 24.701 60.7047 24.6745 61.6595 24.6215C63.9165 24.5154 65.6634 23.8578 66.9004 22.6487C68.1374 21.4396 68.8101 19.732 68.9186 17.526ZM56.5001 2.45987C56.4241 2.45987 56.0091 2.45722 55.2549 2.45192C54.5008 2.44661 53.9285 2.44661 53.5378 2.45192C53.1472 2.45722 52.6237 2.47313 51.9672 2.49964C51.3107 2.52616 50.7519 2.57919 50.2908 2.65874C49.8296 2.73828 49.4417 2.83639 49.127 2.95306C48.5845 3.16518 48.1071 3.47276 47.6948 3.87579C47.2824 4.27883 46.9678 4.7455 46.7508 5.27581C46.6314 5.58339 46.531 5.96256 46.4497 6.41332C46.3683 6.86408 46.314 7.4103 46.2869 8.05198C46.2598 8.69365 46.2435 9.2054 46.2381 9.58722C46.2326 9.96904 46.2326 10.5285 46.2381 11.2656C46.2435 12.0028 46.2462 12.4085 46.2462 12.4827C46.2462 12.557 46.2435 12.9626 46.2381 13.6998C46.2326 14.4369 46.2326 14.9964 46.2381 15.3782C46.2435 15.76 46.2598 16.2718 46.2869 16.9134C46.314 17.5551 46.3683 18.1013 46.4497 18.5521C46.531 19.0029 46.6314 19.382 46.7508 19.6896C46.9678 20.2199 47.2824 20.6866 47.6948 21.0896C48.1071 21.4927 48.5845 21.8002 49.127 22.0124C49.4417 22.129 49.8296 22.2271 50.2908 22.3067C50.7519 22.3862 51.3107 22.4393 51.9672 22.4658C52.6237 22.4923 53.1472 22.5082 53.5378 22.5135C53.9285 22.5188 54.5008 22.5188 55.2549 22.5135C56.0091 22.5082 56.4241 22.5055 56.5001 22.5055C56.576 22.5055 56.991 22.5082 57.7452 22.5135C58.4993 22.5188 59.0717 22.5188 59.4623 22.5135C59.8529 22.5082 60.3764 22.4923 61.0329 22.4658C61.6894 22.4393 62.2482 22.3862 62.7093 22.3067C63.1705 22.2271 63.5584 22.129 63.8731 22.0124C64.4156 21.8002 64.893 21.4927 65.3054 21.0896C65.7177 20.6866 66.0323 20.2199 66.2494 19.6896C66.3687 19.382 66.4691 19.0029 66.5505 18.5521C66.6318 18.1013 66.6861 17.5551 66.7132 16.9134C66.7404 16.2718 66.7566 15.76 66.7621 15.3782C66.7675 14.9964 66.7675 14.4369 66.7621 13.6998C66.7566 12.9626 66.7539 12.557 66.7539 12.4827C66.7539 12.4085 66.7566 12.0028 66.7621 11.2656C66.7675 10.5285 66.7675 9.96904 66.7621 9.58722C66.7566 9.2054 66.7404 8.69365 66.7132 8.05198C66.6861 7.4103 66.6318 6.86408 66.5505 6.41332C66.4691 5.96256 66.3687 5.58339 66.2494 5.27581C66.0323 4.7455 65.7177 4.27883 65.3054 3.87579C64.893 3.47276 64.4156 3.16518 63.8731 2.95306C63.5584 2.83639 63.1705 2.73828 62.7093 2.65874C62.2482 2.57919 61.6894 2.52616 61.0329 2.49964C60.3764 2.47313 59.8529 2.45722 59.4623 2.45192C59.0717 2.44661 58.4993 2.44661 57.7452 2.45192C56.991 2.45722 56.576 2.45987 56.5001 2.45987ZM64.2311 6.99402C64.5241 6.70766 64.6706 6.36296 64.6706 5.95992C64.6706 5.55689 64.5241 5.21219 64.2311 4.92582C63.9382 4.63945 63.5855 4.49627 63.1732 4.49627C62.7609 4.49627 62.4082 4.63945 62.1153 4.92582C61.8223 5.21219 61.6758 5.55689 61.6758 5.95992C61.6758 6.36296 61.8223 6.70766 62.1153 6.99402C62.4082 7.28039 62.7609 7.42357 63.1732 7.42357C63.5855 7.42357 63.9382 7.28039 64.2311 6.99402ZM62.9128 12.4827C62.9128 14.2222 62.2889 15.7017 61.0411 16.9214C59.7932 18.1411 58.2796 18.751 56.5001 18.751C54.7206 18.751 53.2069 18.1411 51.9591 16.9214C50.7112 15.7017 50.0873 14.2222 50.0873 12.4827C50.0873 10.7433 50.7112 9.26376 51.9591 8.04405C53.2069 6.82434 54.7206 6.21449 56.5001 6.21449C58.2796 6.21449 59.7932 6.82434 61.0411 8.04405C62.2889 9.26376 62.9128 10.7433 62.9128 12.4827ZM60.6667 12.4827C60.6667 11.3585 60.2598 10.3986 59.446 9.60315C58.6322 8.80769 57.6502 8.40995 56.5001 8.40995C55.3499 8.40995 54.3679 8.80769 53.5541 9.60315C52.7403 10.3986 52.3334 11.3585 52.3334 12.4827C52.3334 13.607 52.7403 14.5668 53.5541 15.3623C54.3679 16.1578 55.3499 16.5555 56.5001 16.5555C57.6502 16.5555 58.6322 16.1578 59.446 15.3623C60.2598 14.5668 60.6667 13.607 60.6667 12.4827Z" fill="white"/>
</mask>
<g mask="url(#mask2)">
<rect x="-30.9999" y="0.264404" width="100" height="24" fill="white"/>
<mask id="mask3" mask-type="alpha" maskUnits="userSpaceOnUse" x="-31" y="0" width="101" height="25">
<rect x="-30.9999" y="0.264404" width="100" height="24" fill="white"/>
</mask>
<g mask="url(#mask3)">
</g>
</g>
<mask id="mask4" mask-type="alpha" maskUnits="userSpaceOnUse" x="87" y="5" width="26" height="19">
<path fill-rule="evenodd" clip-rule="evenodd" d="M111.344 5.50334C111.702 5.2854 112.179 5.28198 112.541 5.49474C112.903 5.70746 113.074 6.09172 112.97 6.4591C112.598 7.779 111.852 8.99287 110.801 9.99639C110.818 10.1516 110.827 10.3075 110.827 10.4629C110.827 13.113 110.154 15.5048 108.825 17.5748C107.591 19.4974 105.787 21.0987 103.609 22.2055C101.331 23.3631 98.676 23.9742 95.9285 23.9743L95.8628 23.9742C93.0262 23.9641 90.1484 23.2974 87.5403 22.0463C87.1152 21.8423 86.9078 21.4129 87.0391 21.0085C87.1705 20.6042 87.6059 20.3307 88.0921 20.3473C89.9036 20.4096 91.7239 20.0946 93.371 19.4475C88.8104 17.2658 87.517 13.9845 87.2753 11.4791C86.9864 8.486 88.1134 6.01152 88.1616 5.90764C88.3003 5.60801 88.6131 5.39463 88.9827 5.34736C89.3525 5.29996 89.7233 5.42594 89.9568 5.6779C91.884 7.75799 94.6207 10.1233 98.9497 10.457C98.9432 8.97024 99.6838 7.55891 100.983 6.58285C102.176 5.68716 103.7 5.24602 105.277 5.34074C106.613 5.42098 107.85 5.87756 108.828 6.64117C109.721 6.35965 110.565 5.97815 111.344 5.50334ZM108.658 9.85733C108.593 9.56002 108.703 9.25395 108.953 9.0414C109.226 8.80895 109.476 8.55953 109.702 8.29564C109.419 8.38825 109.132 8.47249 108.841 8.54809C108.446 8.65105 108.017 8.54409 107.746 8.27494C107.077 7.61078 106.149 7.21135 105.132 7.15026C104.114 7.08909 103.131 7.37368 102.362 7.95141C101.521 8.58308 101.043 9.49732 101.05 10.4597V10.4658V11.4038C101.05 11.9047 100.58 12.3108 100 12.3108C97.3754 12.3108 94.9434 11.689 92.7714 10.4626C91.5149 9.75314 90.4613 8.90604 89.6164 8.12072C89.4103 8.98808 89.2456 10.1452 89.3744 11.3876C89.72 14.7211 91.9643 17.1258 96.0447 18.5353C96.4054 18.6599 96.6569 18.9462 96.6988 19.2796C96.7407 19.6132 96.5659 19.9393 96.2445 20.1277C95.0386 20.8345 93.7166 21.3682 92.3152 21.714C92.2784 21.7231 92.2413 21.7321 92.2043 21.7409C95.788 22.5687 99.4672 22.2054 102.544 20.6422C106.473 18.6457 108.727 14.9365 108.727 10.4657C108.726 10.2642 108.703 10.0585 108.658 9.85733Z" fill="white"/>
</mask>
<g mask="url(#mask4)">
<rect x="13" y="3.46338" width="100" height="22" fill="white"/>
<mask id="mask5" mask-type="alpha" maskUnits="userSpaceOnUse" x="13" y="3" width="100" height="23">
<rect x="13" y="3.46338" width="100" height="22" fill="white"/>
</mask>
<g mask="url(#mask5)">
</g>
</g>
</svg>
