<svg width="89" height="107" viewBox="0 0 89 107" fill="none" xmlns="http://www.w3.org/2000/svg">
<path d="M4.996 90.6H6.94V97.416H11.152V99H4.996V90.6ZM14.7805 92.448C15.7805 92.448 16.5485 92.688 17.0845 93.168C17.6205 93.64 17.8885 94.356 17.8885 95.316V99H16.1365V98.196C15.7845 98.796 15.1285 99.096 14.1685 99.096C13.6725 99.096 13.2405 99.012 12.8725 98.844C12.5125 98.676 12.2365 98.444 12.0445 98.148C11.8525 97.852 11.7565 97.516 11.7565 97.14C11.7565 96.54 11.9805 96.068 12.4285 95.724C12.8845 95.38 13.5845 95.208 14.5285 95.208H16.0165C16.0165 94.8 15.8925 94.488 15.6445 94.272C15.3965 94.048 15.0245 93.936 14.5285 93.936C14.1845 93.936 13.8445 93.992 13.5085 94.104C13.1805 94.208 12.9005 94.352 12.6685 94.536L11.9965 93.228C12.3485 92.98 12.7685 92.788 13.2565 92.652C13.7525 92.516 14.2605 92.448 14.7805 92.448ZM14.6365 97.836C14.9565 97.836 15.2405 97.764 15.4885 97.62C15.7365 97.468 15.9125 97.248 16.0165 96.96V96.3H14.7325C13.9645 96.3 13.5805 96.552 13.5805 97.056C13.5805 97.296 13.6725 97.488 13.8565 97.632C14.0485 97.768 14.3085 97.836 14.6365 97.836ZM21.3708 93.396C21.5948 93.084 21.8948 92.848 22.2708 92.688C22.6548 92.528 23.0948 92.448 23.5908 92.448V94.176C23.3828 94.16 23.2428 94.152 23.1708 94.152C22.6348 94.152 22.2148 94.304 21.9108 94.608C21.6068 94.904 21.4548 95.352 21.4548 95.952V99H19.5828V92.544H21.3708V93.396ZM24.7038 92.544H26.5758V99H24.7038V92.544ZM25.6398 91.644C25.2958 91.644 25.0158 91.544 24.7998 91.344C24.5838 91.144 24.4758 90.896 24.4758 90.6C24.4758 90.304 24.5838 90.056 24.7998 89.856C25.0158 89.656 25.2958 89.556 25.6398 89.556C25.9838 89.556 26.2638 89.652 26.4798 89.844C26.6958 90.036 26.8038 90.276 26.8038 90.564C26.8038 90.876 26.6958 91.136 26.4798 91.344C26.2638 91.544 25.9838 91.644 25.6398 91.644ZM30.4852 99.096C29.9492 99.096 29.4252 99.032 28.9132 98.904C28.4012 98.768 27.9932 98.6 27.6892 98.4L28.3132 97.056C28.6012 97.24 28.9492 97.392 29.3572 97.512C29.7652 97.624 30.1652 97.68 30.5572 97.68C31.3492 97.68 31.7452 97.484 31.7452 97.092C31.7452 96.908 31.6372 96.776 31.4212 96.696C31.2052 96.616 30.8732 96.548 30.4252 96.492C29.8972 96.412 29.4612 96.32 29.1172 96.216C28.7732 96.112 28.4732 95.928 28.2172 95.664C27.9692 95.4 27.8452 95.024 27.8452 94.536C27.8452 94.128 27.9612 93.768 28.1932 93.456C28.4332 93.136 28.7772 92.888 29.2252 92.712C29.6812 92.536 30.2172 92.448 30.8332 92.448C31.2892 92.448 31.7412 92.5 32.1892 92.604C32.6452 92.7 33.0212 92.836 33.3172 93.012L32.6932 94.344C32.1252 94.024 31.5052 93.864 30.8332 93.864C30.4332 93.864 30.1332 93.92 29.9332 94.032C29.7332 94.144 29.6332 94.288 29.6332 94.464C29.6332 94.664 29.7412 94.804 29.9572 94.884C30.1732 94.964 30.5172 95.04 30.9892 95.112C31.5172 95.2 31.9492 95.296 32.2852 95.4C32.6212 95.496 32.9132 95.676 33.1612 95.94C33.4092 96.204 33.5332 96.572 33.5332 97.044C33.5332 97.444 33.4132 97.8 33.1732 98.112C32.9332 98.424 32.5812 98.668 32.1172 98.844C31.6612 99.012 31.1172 99.096 30.4852 99.096ZM36.8602 99.096C36.3242 99.096 35.8002 99.032 35.2882 98.904C34.7762 98.768 34.3682 98.6 34.0642 98.4L34.6882 97.056C34.9762 97.24 35.3242 97.392 35.7322 97.512C36.1402 97.624 36.5402 97.68 36.9322 97.68C37.7242 97.68 38.1202 97.484 38.1202 97.092C38.1202 96.908 38.0122 96.776 37.7962 96.696C37.5802 96.616 37.2482 96.548 36.8002 96.492C36.2722 96.412 35.8362 96.32 35.4922 96.216C35.1482 96.112 34.8482 95.928 34.5922 95.664C34.3442 95.4 34.2202 95.024 34.2202 94.536C34.2202 94.128 34.3362 93.768 34.5682 93.456C34.8082 93.136 35.1522 92.888 35.6002 92.712C36.0562 92.536 36.5922 92.448 37.2082 92.448C37.6642 92.448 38.1162 92.5 38.5642 92.604C39.0202 92.7 39.3962 92.836 39.6922 93.012L39.0682 94.344C38.5002 94.024 37.8802 93.864 37.2082 93.864C36.8082 93.864 36.5082 93.92 36.3082 94.032C36.1082 94.144 36.0082 94.288 36.0082 94.464C36.0082 94.664 36.1162 94.804 36.3322 94.884C36.5482 94.964 36.8922 95.04 37.3642 95.112C37.8922 95.2 38.3242 95.296 38.6602 95.4C38.9962 95.496 39.2882 95.676 39.5362 95.94C39.7842 96.204 39.9082 96.572 39.9082 97.044C39.9082 97.444 39.7882 97.8 39.5482 98.112C39.3082 98.424 38.9562 98.668 38.4922 98.844C38.0362 99.012 37.4922 99.096 36.8602 99.096ZM43.6672 92.448C44.6672 92.448 45.4352 92.688 45.9712 93.168C46.5072 93.64 46.7752 94.356 46.7752 95.316V99H45.0232V98.196C44.6712 98.796 44.0152 99.096 43.0552 99.096C42.5592 99.096 42.1272 99.012 41.7592 98.844C41.3992 98.676 41.1232 98.444 40.9312 98.148C40.7392 97.852 40.6432 97.516 40.6432 97.14C40.6432 96.54 40.8672 96.068 41.3152 95.724C41.7712 95.38 42.4712 95.208 43.4152 95.208H44.9032C44.9032 94.8 44.7792 94.488 44.5312 94.272C44.2832 94.048 43.9112 93.936 43.4152 93.936C43.0712 93.936 42.7312 93.992 42.3952 94.104C42.0672 94.208 41.7872 94.352 41.5552 94.536L40.8832 93.228C41.2352 92.98 41.6552 92.788 42.1432 92.652C42.6392 92.516 43.1472 92.448 43.6672 92.448ZM43.5232 97.836C43.8432 97.836 44.1272 97.764 44.3752 97.62C44.6232 97.468 44.7992 97.248 44.9032 96.96V96.3H43.6192C42.8512 96.3 42.4672 96.552 42.4672 97.056C42.4672 97.296 42.5592 97.488 42.7432 97.632C42.9352 97.768 43.1952 97.836 43.5232 97.836ZM51.9999 90.6H53.9439V97.416H58.1559V99H51.9999V90.6ZM59.1101 92.544H60.9821V99H59.1101V92.544ZM60.0461 91.644C59.7021 91.644 59.4221 91.544 59.2061 91.344C58.9901 91.144 58.8821 90.896 58.8821 90.6C58.8821 90.304 58.9901 90.056 59.2061 89.856C59.4221 89.656 59.7021 89.556 60.0461 89.556C60.3901 89.556 60.6701 89.652 60.8861 89.844C61.1021 90.036 61.2101 90.276 61.2101 90.564C61.2101 90.876 61.1021 91.136 60.8861 91.344C60.6701 91.544 60.3901 91.644 60.0461 91.644ZM70.9875 92.448C71.7955 92.448 72.4355 92.688 72.9075 93.168C73.3875 93.64 73.6275 94.352 73.6275 95.304V99H71.7555V95.592C71.7555 95.08 71.6475 94.7 71.4315 94.452C71.2235 94.196 70.9235 94.068 70.5315 94.068C70.0915 94.068 69.7435 94.212 69.4875 94.5C69.2315 94.78 69.1035 95.2 69.1035 95.76V99H67.2315V95.592C67.2315 94.576 66.8235 94.068 66.0075 94.068C65.5755 94.068 65.2315 94.212 64.9755 94.5C64.7195 94.78 64.5915 95.2 64.5915 95.76V99H62.7195V92.544H64.5075V93.288C64.7475 93.016 65.0395 92.808 65.3835 92.664C65.7355 92.52 66.1195 92.448 66.5355 92.448C66.9915 92.448 67.4035 92.54 67.7715 92.724C68.1395 92.9 68.4355 93.16 68.6595 93.504C68.9235 93.168 69.2555 92.908 69.6555 92.724C70.0635 92.54 70.5075 92.448 70.9875 92.448ZM77.9094 92.448C78.9094 92.448 79.6774 92.688 80.2134 93.168C80.7494 93.64 81.0174 94.356 81.0174 95.316V99H79.2654V98.196C78.9134 98.796 78.2574 99.096 77.2974 99.096C76.8014 99.096 76.3694 99.012 76.0014 98.844C75.6414 98.676 75.3654 98.444 75.1734 98.148C74.9814 97.852 74.8854 97.516 74.8854 97.14C74.8854 96.54 75.1094 96.068 75.5574 95.724C76.0134 95.38 76.7134 95.208 77.6574 95.208H79.1454C79.1454 94.8 79.0214 94.488 78.7734 94.272C78.5254 94.048 78.1534 93.936 77.6574 93.936C77.3134 93.936 76.9734 93.992 76.6374 94.104C76.3094 94.208 76.0294 94.352 75.7974 94.536L75.1254 93.228C75.4774 92.98 75.8974 92.788 76.3854 92.652C76.8814 92.516 77.3894 92.448 77.9094 92.448ZM77.7654 97.836C78.0854 97.836 78.3694 97.764 78.6174 97.62C78.8654 97.468 79.0414 97.248 79.1454 96.96V96.3H77.8614C77.0934 96.3 76.7094 96.552 76.7094 97.056C76.7094 97.296 76.8014 97.488 76.9854 97.632C77.1774 97.768 77.4374 97.836 77.7654 97.836Z" fill="black"/>
<circle cx="44.5" cy="44.5" r="44.5" fill="url(#paint0_linear)"/>
<mask id="mask0" mask-type="alpha" maskUnits="userSpaceOnUse" x="0" y="0" width="89" height="89">
<circle cx="44.5" cy="44.5" r="44.5" fill="white"/>
</mask>
<g mask="url(#mask0)">
<path d="M47.7232 14.7458C46.5365 9.55413 52.1634 5.57017 57.9582 8.30508C71.6049 14.7458 63.6861 24.3875 58.7911 23.3491C53.8961 22.3108 48.9099 19.9375 47.7232 14.7458Z" fill="url(#paint1_linear)"/>
<path d="M51.0267 47.4667C44.6533 50.5284 43.7236 50.3644 29.6667 38.8633C8.45505 21.5083 28.4801 5.63665 49.9884 14.0917C73.2767 24.3267 65.4745 40.5261 51.0267 47.4667Z" fill="url(#paint2_linear)"/>
<path fill-rule="evenodd" clip-rule="evenodd" d="M51.6198 59.63C49.4443 64.3767 46.6754 66.75 44.4998 66.75C42.3243 66.75 39.5554 64.3767 37.3798 59.63V53.6967C37.3798 53.6967 36.4119 53.7251 35.7481 53.6967C28.8093 53.3993 26.4905 42.2374 27.5795 31.0722C28.3769 22.8956 35.3031 34.1167 46.5765 26.255C46.1315 34.8583 49.8398 33.9683 51.4715 32.93C58.8881 29.5183 59.0365 43.4617 51.7062 42.3812C51.7091 42.5296 51.6804 48.2792 51.6198 59.63Z" fill="url(#paint3_linear)"/>
<path d="M37.3799 53.6967C40.0499 53.4989 43.3759 52.0056 47.3579 49.2168C46.1378 53.419 42.8117 55.9012 37.3799 56.6633L37.3799 53.6967Z" fill="#FF9768"/>
<path fill-rule="evenodd" clip-rule="evenodd" d="M34.9272 61.3556C34.9272 61.3556 35.3749 58.2654 36.4245 58.0007C37.4741 57.7359 43.6085 57.704 43.614 58.8907C43.6151 59.1085 43.8252 61.443 44.5247 61.443C45.2243 61.443 45.4042 59.1083 45.4052 58.8907C45.4107 57.704 51.5096 57.7498 52.5947 58.0007C53.6799 58.2515 54.0875 61.3595 54.0875 61.3595C54.0875 61.3595 70.1067 68.903 71.7934 72.123C73.2437 74.8919 74.3315 81.3196 75.0567 91.4063H13.9434C14.6685 81.3196 15.7563 74.8919 17.2067 72.123C18.8926 68.9045 34.9272 61.3556 34.9272 61.3556Z" fill="url(#paint4_linear)"/>
<path fill-rule="evenodd" clip-rule="evenodd" d="M45.687 69.7167C45.687 70.372 45.1557 70.9033 44.5003 70.9033C43.8449 70.9033 43.3136 70.372 43.3136 69.7167C43.3136 69.0613 43.8449 68.53 44.5003 68.53C45.1557 68.53 45.687 69.0613 45.687 69.7167ZM45.6868 75.65C45.6868 76.3053 45.1555 76.8366 44.5001 76.8366C43.8448 76.8366 43.3135 76.3053 43.3135 75.65C43.3135 74.9946 43.8448 74.4633 44.5001 74.4633C45.1555 74.4633 45.6868 74.9946 45.6868 75.65ZM44.5001 82.77C45.1555 82.77 45.6868 82.2387 45.6868 81.5833C45.6868 80.9279 45.1555 80.3966 44.5001 80.3966C43.8448 80.3966 43.3135 80.9279 43.3135 81.5833C43.3135 82.2387 43.8448 82.77 44.5001 82.77Z" fill="#664F4D"/>
<path d="M47.6417 23.5636C42.8951 35.4303 45.5651 41.2153 49.2734 48.1869C52.9817 55.1586 48.3834 61.6852 48.3834 61.6852C48.3834 61.6852 53.7234 58.2736 53.7234 50.7086C53.7234 43.1436 48.3834 38.3969 52.8334 32.1669C57.2834 25.9369 52.3884 11.6969 47.6417 23.5636Z" fill="url(#paint5_linear)"/>
</g>
<defs>
<linearGradient id="paint0_linear" x1="0" y1="0" x2="0" y2="89" gradientUnits="userSpaceOnUse">
<stop stop-color="#806A6A"/>
<stop offset="1" stop-color="#665654"/>
</linearGradient>
<linearGradient id="paint1_linear" x1="65.5635" y1="7.41666" x2="65.5635" y2="23.4265" gradientUnits="userSpaceOnUse">
<stop stop-color="#1D0024"/>
<stop offset="1" stop-color="#100014"/>
</linearGradient>
<linearGradient id="paint2_linear" x1="20.6367" y1="11.7502" x2="20.6367" y2="49.1527" gradientUnits="userSpaceOnUse">
<stop stop-color="#1D0024"/>
<stop offset="1" stop-color="#100014"/>
</linearGradient>
<linearGradient id="paint3_linear" x1="27.3232" y1="26.255" x2="27.3232" y2="66.75" gradientUnits="userSpaceOnUse">
<stop stop-color="#F7B186"/>
<stop offset="1" stop-color="#FFC299"/>
</linearGradient>
<linearGradient id="paint4_linear" x1="75.0567" y1="91.4063" x2="75.0567" y2="57.85" gradientUnits="userSpaceOnUse">
<stop stop-color="#FCF2EB"/>
<stop offset="1" stop-color="#FFF9F5"/>
</linearGradient>
<linearGradient id="paint5_linear" x1="54.582" y1="18.9867" x2="54.582" y2="61.6852" gradientUnits="userSpaceOnUse">
<stop stop-color="#1D0024"/>
<stop offset="1" stop-color="#100014"/>
</linearGradient>
</defs>
</svg>
