<svg width="368" height="405" viewBox="0 0 368 405" fill="none" xmlns="http://www.w3.org/2000/svg">
<rect width="368" height="405" rx="36" fill="#03658C" fill-opacity="0.22"/>
<path fill-rule="evenodd" clip-rule="evenodd" d="M182.262 373.132C182.558 373.176 182.804 373.39 182.896 373.684C182.989 373.977 182.911 374.3 182.697 374.515L178.519 378.71L179.505 384.636C179.556 384.94 179.434 385.247 179.192 385.429C179.055 385.531 178.893 385.584 178.73 385.584C178.604 385.584 178.479 385.553 178.364 385.49L173.199 382.691L168.035 385.49C167.77 385.634 167.449 385.61 167.207 385.429C166.965 385.247 166.843 384.94 166.894 384.636L167.88 378.71L163.702 374.515C163.488 374.3 163.41 373.977 163.503 373.684C163.595 373.39 163.841 373.176 164.137 373.132L169.912 372.262L172.494 366.869C172.627 366.592 172.9 366.417 173.2 366.417C173.499 366.417 173.772 366.592 173.905 366.869L176.487 372.262L182.262 373.132ZM176.899 378.564C176.855 378.301 176.94 378.032 177.125 377.846L180.458 374.499L175.851 373.805C175.595 373.767 175.374 373.601 175.259 373.362L173.199 369.06L171.14 373.362C171.025 373.601 170.804 373.767 170.548 373.805L165.94 374.499L169.274 377.846C169.459 378.032 169.544 378.301 169.5 378.564L168.714 383.291L172.833 381.058C172.948 380.996 173.074 380.965 173.199 380.965C173.325 380.965 173.451 380.996 173.566 381.058L177.685 383.291L176.899 378.564Z" fill="#F3C04C"/>
<mask id="mask0" mask-type="alpha" maskUnits="userSpaceOnUse" x="163" y="366" width="20" height="20">
<path fill-rule="evenodd" clip-rule="evenodd" d="M182.262 373.132C182.558 373.176 182.804 373.39 182.896 373.684C182.989 373.977 182.911 374.3 182.697 374.515L178.519 378.71L179.505 384.636C179.556 384.94 179.434 385.247 179.192 385.429C179.055 385.531 178.893 385.584 178.73 385.584C178.604 385.584 178.479 385.553 178.364 385.49L173.199 382.691L168.035 385.49C167.77 385.634 167.449 385.61 167.207 385.429C166.965 385.247 166.843 384.94 166.894 384.636L167.88 378.71L163.702 374.515C163.488 374.3 163.41 373.977 163.503 373.684C163.595 373.39 163.841 373.176 164.137 373.132L169.912 372.262L172.494 366.869C172.627 366.592 172.9 366.417 173.2 366.417C173.499 366.417 173.772 366.592 173.905 366.869L176.487 372.262L182.262 373.132ZM176.899 378.564C176.855 378.301 176.94 378.032 177.125 377.846L180.458 374.499L175.851 373.805C175.595 373.767 175.374 373.601 175.259 373.362L173.199 369.06L171.14 373.362C171.025 373.601 170.804 373.767 170.548 373.805L165.94 374.499L169.274 377.846C169.459 378.032 169.544 378.301 169.5 378.564L168.714 383.291L172.833 381.058C172.948 380.996 173.074 380.965 173.199 380.965C173.325 380.965 173.451 380.996 173.566 381.058L177.685 383.291L176.899 378.564Z" fill="white"/>
</mask>
<g mask="url(#mask0)">
<rect x="82.4644" y="366" width="100" height="20" fill="#F3C04C"/>
<mask id="mask1" mask-type="alpha" maskUnits="userSpaceOnUse" x="82" y="366" width="101" height="20">
<rect x="82.4644" y="366" width="100" height="20" fill="white"/>
</mask>
<g mask="url(#mask1)">
</g>
</g>
<path d="M77.432 373.684C77.3396 373.39 77.0937 373.176 76.7975 373.132L71.0227 372.262L68.4404 366.869C68.308 366.592 68.0345 366.417 67.7352 366.417C67.4358 366.417 67.1624 366.592 67.0299 366.869L64.4476 372.262L58.6728 373.132C58.3766 373.176 58.1307 373.39 58.0384 373.684C57.946 373.977 58.0234 374.3 58.2378 374.515L62.4158 378.71L61.4297 384.636C61.3791 384.94 61.5005 385.247 61.7427 385.429C61.9849 385.61 62.306 385.634 62.571 385.49L67.7351 382.691L72.8993 385.49C73.0144 385.553 73.14 385.584 73.2653 385.584C73.4283 385.584 73.5906 385.531 73.7276 385.429C73.9699 385.247 74.0912 384.94 74.0405 384.636L73.0546 378.71L77.2326 374.515C77.447 374.3 77.5243 373.977 77.432 373.684Z" fill="#F3C04C"/>
<mask id="mask2" mask-type="alpha" maskUnits="userSpaceOnUse" x="58" y="366" width="20" height="20">
<path d="M77.432 373.684C77.3396 373.39 77.0937 373.176 76.7975 373.132L71.0227 372.262L68.4404 366.869C68.308 366.592 68.0345 366.417 67.7352 366.417C67.4358 366.417 67.1624 366.592 67.0299 366.869L64.4476 372.262L58.6728 373.132C58.3766 373.176 58.1307 373.39 58.0384 373.684C57.946 373.977 58.0234 374.3 58.2378 374.515L62.4158 378.71L61.4297 384.636C61.3791 384.94 61.5005 385.247 61.7427 385.429C61.9849 385.61 62.306 385.634 62.571 385.49L67.7351 382.691L72.8993 385.49C73.0144 385.553 73.14 385.584 73.2653 385.584C73.4283 385.584 73.5906 385.531 73.7276 385.429C73.9699 385.247 74.0912 384.94 74.0405 384.636L73.0546 378.71L77.2326 374.515C77.447 374.3 77.5243 373.977 77.432 373.684Z" fill="white"/>
</mask>
<g mask="url(#mask2)">
<rect x="-23" y="366" width="100" height="20" fill="#F3C04C"/>
<mask id="mask3" mask-type="alpha" maskUnits="userSpaceOnUse" x="-23" y="366" width="100" height="20">
<rect x="-23" y="366" width="100" height="20" fill="white"/>
</mask>
<g mask="url(#mask3)">
</g>
</g>
<path d="M104.204 373.684C104.111 373.39 103.865 373.176 103.569 373.132L97.7945 372.262L95.2122 366.869C95.0797 366.592 94.8063 366.417 94.5069 366.417C94.2076 366.417 93.9342 366.592 93.8016 366.869L91.2194 372.262L85.4445 373.132C85.1484 373.176 84.9024 373.39 84.8101 373.684C84.7178 373.977 84.7951 374.3 85.0095 374.515L89.1875 378.71L88.2015 384.636C88.1509 384.94 88.2722 385.247 88.5144 385.429C88.7566 385.61 89.0777 385.634 89.3427 385.49L94.5069 382.691L99.671 385.49C99.7861 385.553 99.9118 385.584 100.037 385.584C100.2 385.584 100.362 385.531 100.499 385.429C100.742 385.247 100.863 384.94 100.812 384.636L99.8263 378.71L104.004 374.515C104.219 374.3 104.296 373.977 104.204 373.684Z" fill="#FFC33F"/>
<mask id="mask4" mask-type="alpha" maskUnits="userSpaceOnUse" x="84" y="366" width="21" height="20">
<path d="M104.204 373.684C104.111 373.39 103.865 373.176 103.569 373.132L97.7945 372.262L95.2122 366.869C95.0797 366.592 94.8063 366.417 94.5069 366.417C94.2076 366.417 93.9342 366.592 93.8016 366.869L91.2194 372.262L85.4445 373.132C85.1484 373.176 84.9024 373.39 84.8101 373.684C84.7178 373.977 84.7951 374.3 85.0095 374.515L89.1875 378.71L88.2015 384.636C88.1509 384.94 88.2722 385.247 88.5144 385.429C88.7566 385.61 89.0777 385.634 89.3427 385.49L94.5069 382.691L99.671 385.49C99.7861 385.553 99.9118 385.584 100.037 385.584C100.2 385.584 100.362 385.531 100.499 385.429C100.742 385.247 100.863 384.94 100.812 384.636L99.8263 378.71L104.004 374.515C104.219 374.3 104.296 373.977 104.204 373.684Z" fill="white"/>
</mask>
<g mask="url(#mask4)">
<rect x="3.77173" y="366" width="100" height="20" fill="#FFC33F"/>
<mask id="mask5" mask-type="alpha" maskUnits="userSpaceOnUse" x="3" y="366" width="101" height="20">
<rect x="3.77173" y="366" width="100" height="20" fill="white"/>
</mask>
<g mask="url(#mask5)">
</g>
</g>
<path d="M130.975 373.684C130.883 373.39 130.637 373.176 130.341 373.132L124.566 372.262L121.984 366.869C121.851 366.592 121.578 366.417 121.279 366.417C120.979 366.417 120.706 366.592 120.573 366.869L117.991 372.262L112.216 373.132C111.92 373.176 111.674 373.39 111.582 373.684C111.489 373.977 111.567 374.3 111.781 374.515L115.959 378.71L114.973 384.636C114.923 384.94 115.044 385.247 115.286 385.429C115.528 385.61 115.849 385.634 116.114 385.49L121.279 382.691L126.443 385.49C126.558 385.553 126.684 385.584 126.809 385.584C126.972 385.584 127.134 385.531 127.271 385.429C127.513 385.247 127.635 384.94 127.584 384.636L126.598 378.71L130.776 374.515C130.99 374.3 131.068 373.977 130.975 373.684Z" fill="#F3C04C"/>
<mask id="mask6" mask-type="alpha" maskUnits="userSpaceOnUse" x="111" y="366" width="21" height="20">
<path d="M130.975 373.684C130.883 373.39 130.637 373.176 130.341 373.132L124.566 372.262L121.984 366.869C121.851 366.592 121.578 366.417 121.279 366.417C120.979 366.417 120.706 366.592 120.573 366.869L117.991 372.262L112.216 373.132C111.92 373.176 111.674 373.39 111.582 373.684C111.489 373.977 111.567 374.3 111.781 374.515L115.959 378.71L114.973 384.636C114.923 384.94 115.044 385.247 115.286 385.429C115.528 385.61 115.849 385.634 116.114 385.49L121.279 382.691L126.443 385.49C126.558 385.553 126.684 385.584 126.809 385.584C126.972 385.584 127.134 385.531 127.271 385.429C127.513 385.247 127.635 384.94 127.584 384.636L126.598 378.71L130.776 374.515C130.99 374.3 131.068 373.977 130.975 373.684Z" fill="white"/>
</mask>
<g mask="url(#mask6)">
<rect x="30.5435" y="366" width="100" height="20" fill="#F3C04C"/>
<mask id="mask7" mask-type="alpha" maskUnits="userSpaceOnUse" x="30" y="366" width="101" height="20">
<rect x="30.5435" y="366" width="100" height="20" fill="white"/>
</mask>
<g mask="url(#mask7)">
</g>
</g>
<path d="M157.747 373.684C157.655 373.39 157.409 373.176 157.113 373.132L151.338 372.262L148.756 366.869C148.623 366.592 148.35 366.417 148.05 366.417C147.751 366.417 147.478 366.592 147.345 366.869L144.763 372.262L138.988 373.132C138.692 373.176 138.446 373.39 138.354 373.684C138.261 373.977 138.339 374.3 138.553 374.515L142.731 378.71L141.745 384.636C141.694 384.94 141.816 385.247 142.058 385.429C142.3 385.61 142.621 385.634 142.886 385.49L148.05 382.691L153.214 385.49C153.33 385.553 153.455 385.584 153.58 385.584C153.744 385.584 153.906 385.531 154.043 385.429C154.285 385.247 154.406 384.94 154.356 384.636L153.37 378.71L157.548 374.515C157.762 374.3 157.839 373.977 157.747 373.684Z" fill="#F3C04C"/>
<mask id="mask8" mask-type="alpha" maskUnits="userSpaceOnUse" x="138" y="366" width="20" height="20">
<path d="M157.747 373.684C157.655 373.39 157.409 373.176 157.113 373.132L151.338 372.262L148.756 366.869C148.623 366.592 148.35 366.417 148.05 366.417C147.751 366.417 147.478 366.592 147.345 366.869L144.763 372.262L138.988 373.132C138.692 373.176 138.446 373.39 138.354 373.684C138.261 373.977 138.339 374.3 138.553 374.515L142.731 378.71L141.745 384.636C141.694 384.94 141.816 385.247 142.058 385.429C142.3 385.61 142.621 385.634 142.886 385.49L148.05 382.691L153.214 385.49C153.33 385.553 153.455 385.584 153.58 385.584C153.744 385.584 153.906 385.531 154.043 385.429C154.285 385.247 154.406 384.94 154.356 384.636L153.37 378.71L157.548 374.515C157.762 374.3 157.839 373.977 157.747 373.684Z" fill="white"/>
</mask>
<g mask="url(#mask8)">
<rect x="57.3152" y="366" width="100" height="20" fill="#F3C04C"/>
<mask id="mask9" mask-type="alpha" maskUnits="userSpaceOnUse" x="57" y="366" width="101" height="20">
<rect x="57.3152" y="366" width="100" height="20" fill="white"/>
</mask>
<g mask="url(#mask9)">
</g>
</g>
<path d="M199.178 382.134C198.738 381.467 198.397 380.693 198.155 379.813C197.92 378.933 197.803 377.991 197.803 376.986C197.803 375.981 197.92 375.039 198.155 374.159C198.397 373.272 198.738 372.498 199.178 371.838H200.817C200.355 372.652 200.018 373.481 199.805 374.324C199.592 375.16 199.486 376.047 199.486 376.986C199.486 377.925 199.592 378.816 199.805 379.659C200.018 380.495 200.355 381.32 200.817 382.134H199.178ZM204.438 372.3V380H202.656V373.73H201.116V372.3H204.438ZM211.529 378.548V380H205.71V378.845L208.68 376.04C208.995 375.739 209.208 375.483 209.318 375.27C209.428 375.05 209.483 374.834 209.483 374.621C209.483 374.313 209.376 374.078 209.164 373.917C208.958 373.748 208.654 373.664 208.251 373.664C207.913 373.664 207.609 373.73 207.338 373.862C207.066 373.987 206.839 374.177 206.656 374.434L205.358 373.598C205.658 373.151 206.073 372.802 206.601 372.553C207.129 372.296 207.734 372.168 208.416 372.168C208.988 372.168 209.486 372.263 209.912 372.454C210.344 372.637 210.678 372.901 210.913 373.246C211.155 373.583 211.276 373.983 211.276 374.445C211.276 374.863 211.188 375.255 211.012 375.622C210.836 375.989 210.495 376.407 209.989 376.876L208.218 378.548H211.529ZM218.129 373.994C219.046 373.994 219.75 374.214 220.241 374.654C220.733 375.087 220.978 375.743 220.978 376.623V380H219.372V379.263C219.05 379.813 218.448 380.088 217.568 380.088C217.114 380.088 216.718 380.011 216.38 379.857C216.05 379.703 215.797 379.49 215.621 379.219C215.445 378.948 215.357 378.64 215.357 378.295C215.357 377.745 215.563 377.312 215.973 376.997C216.391 376.682 217.033 376.524 217.898 376.524H219.262C219.262 376.15 219.149 375.864 218.921 375.666C218.694 375.461 218.353 375.358 217.898 375.358C217.583 375.358 217.271 375.409 216.963 375.512C216.663 375.607 216.406 375.739 216.193 375.908L215.577 374.709C215.9 374.482 216.285 374.306 216.732 374.181C217.187 374.056 217.653 373.994 218.129 373.994ZM217.997 378.933C218.291 378.933 218.551 378.867 218.778 378.735C219.006 378.596 219.167 378.394 219.262 378.13V377.525H218.085C217.381 377.525 217.029 377.756 217.029 378.218C217.029 378.438 217.114 378.614 217.282 378.746C217.458 378.871 217.697 378.933 217.997 378.933ZM228.298 374.082L225.801 380H224.03L221.544 374.082H223.315L224.954 378.108L226.648 374.082H228.298ZM231.192 373.994C232.108 373.994 232.812 374.214 233.304 374.654C233.795 375.087 234.041 375.743 234.041 376.623V380H232.435V379.263C232.112 379.813 231.511 380.088 230.631 380.088C230.176 380.088 229.78 380.011 229.443 379.857C229.113 379.703 228.86 379.49 228.684 379.219C228.508 378.948 228.42 378.64 228.42 378.295C228.42 377.745 228.625 377.312 229.036 376.997C229.454 376.682 230.095 376.524 230.961 376.524H232.325C232.325 376.15 232.211 375.864 231.984 375.666C231.756 375.461 231.415 375.358 230.961 375.358C230.645 375.358 230.334 375.409 230.026 375.512C229.725 375.607 229.468 375.739 229.256 375.908L228.64 374.709C228.962 374.482 229.347 374.306 229.795 374.181C230.249 374.056 230.715 373.994 231.192 373.994ZM231.06 378.933C231.353 378.933 231.613 378.867 231.841 378.735C232.068 378.596 232.229 378.394 232.325 378.13V377.525H231.148C230.444 377.525 230.092 377.756 230.092 378.218C230.092 378.438 230.176 378.614 230.345 378.746C230.521 378.871 230.759 378.933 231.06 378.933ZM235.594 371.838H237.31V380H235.594V371.838ZM238.902 374.082H240.618V380H238.902V374.082ZM239.76 373.257C239.445 373.257 239.188 373.165 238.99 372.982C238.792 372.799 238.693 372.571 238.693 372.3C238.693 372.029 238.792 371.801 238.99 371.618C239.188 371.435 239.445 371.343 239.76 371.343C240.076 371.343 240.332 371.431 240.53 371.607C240.728 371.783 240.827 372.003 240.827 372.267C240.827 372.553 240.728 372.791 240.53 372.982C240.332 373.165 240.076 373.257 239.76 373.257ZM244.598 373.994C245.515 373.994 246.219 374.214 246.71 374.654C247.201 375.087 247.447 375.743 247.447 376.623V380H245.841V379.263C245.518 379.813 244.917 380.088 244.037 380.088C243.582 380.088 243.186 380.011 242.849 379.857C242.519 379.703 242.266 379.49 242.09 379.219C241.914 378.948 241.826 378.64 241.826 378.295C241.826 377.745 242.031 377.312 242.442 376.997C242.86 376.682 243.502 376.524 244.367 376.524H245.731C245.731 376.15 245.617 375.864 245.39 375.666C245.163 375.461 244.822 375.358 244.367 375.358C244.052 375.358 243.74 375.409 243.432 375.512C243.131 375.607 242.875 375.739 242.662 375.908L242.046 374.709C242.369 374.482 242.754 374.306 243.201 374.181C243.656 374.056 244.121 373.994 244.598 373.994ZM244.466 378.933C244.759 378.933 245.02 378.867 245.247 378.735C245.474 378.596 245.636 378.394 245.731 378.13V377.525H244.554C243.85 377.525 243.498 377.756 243.498 378.218C243.498 378.438 243.582 378.614 243.751 378.746C243.927 378.871 244.165 378.933 244.466 378.933ZM251.924 380.088C251.294 380.088 250.725 379.96 250.219 379.703C249.721 379.439 249.328 379.076 249.042 378.614C248.764 378.152 248.624 377.628 248.624 377.041C248.624 376.454 248.764 375.93 249.042 375.468C249.328 375.006 249.721 374.647 250.219 374.39C250.725 374.126 251.294 373.994 251.924 373.994C252.548 373.994 253.09 374.126 253.552 374.39C254.022 374.647 254.363 375.017 254.575 375.501L253.244 376.216C252.936 375.673 252.493 375.402 251.913 375.402C251.466 375.402 251.096 375.549 250.802 375.842C250.509 376.135 250.362 376.535 250.362 377.041C250.362 377.547 250.509 377.947 250.802 378.24C251.096 378.533 251.466 378.68 251.913 378.68C252.5 378.68 252.944 378.409 253.244 377.866L254.575 378.592C254.363 379.061 254.022 379.428 253.552 379.692C253.09 379.956 252.548 380.088 251.924 380.088ZM251.297 382.552C251.107 382.552 250.92 382.53 250.736 382.486C250.553 382.449 250.399 382.394 250.274 382.321L250.538 381.584C250.773 381.694 251.011 381.749 251.253 381.749C251.635 381.749 251.825 381.632 251.825 381.397C251.825 381.184 251.646 381.078 251.286 381.078H250.912L251.198 379.912H252.111L251.957 380.55C252.28 380.587 252.518 380.686 252.672 380.847C252.834 381.016 252.914 381.221 252.914 381.463C252.914 381.8 252.768 382.064 252.474 382.255C252.181 382.453 251.789 382.552 251.297 382.552ZM258.304 380.088C257.681 380.088 257.12 379.96 256.621 379.703C256.13 379.439 255.745 379.076 255.466 378.614C255.188 378.152 255.048 377.628 255.048 377.041C255.048 376.454 255.188 375.93 255.466 375.468C255.745 375.006 256.13 374.647 256.621 374.39C257.12 374.126 257.681 373.994 258.304 373.994C258.928 373.994 259.485 374.126 259.976 374.39C260.468 374.647 260.853 375.006 261.131 375.468C261.41 375.93 261.549 376.454 261.549 377.041C261.549 377.628 261.41 378.152 261.131 378.614C260.853 379.076 260.468 379.439 259.976 379.703C259.485 379.96 258.928 380.088 258.304 380.088ZM258.304 378.68C258.744 378.68 259.104 378.533 259.382 378.24C259.668 377.939 259.811 377.54 259.811 377.041C259.811 376.542 259.668 376.146 259.382 375.853C259.104 375.552 258.744 375.402 258.304 375.402C257.864 375.402 257.501 375.552 257.215 375.853C256.929 376.146 256.786 376.542 256.786 377.041C256.786 377.54 256.929 377.939 257.215 378.24C257.501 378.533 257.864 378.68 258.304 378.68ZM259.107 373.356C258.909 373.356 258.733 373.319 258.579 373.246C258.433 373.165 258.268 373.059 258.084 372.927C257.967 372.839 257.868 372.773 257.787 372.729C257.714 372.685 257.641 372.663 257.567 372.663C257.413 372.663 257.289 372.718 257.193 372.828C257.098 372.931 257.047 373.081 257.039 373.279H256.17C256.185 372.788 256.306 372.399 256.533 372.113C256.768 371.82 257.076 371.673 257.457 371.673C257.648 371.673 257.817 371.713 257.963 371.794C258.117 371.867 258.29 371.974 258.48 372.113C258.598 372.201 258.693 372.267 258.766 372.311C258.847 372.355 258.924 372.377 258.997 372.377C259.144 372.377 259.265 372.326 259.36 372.223C259.463 372.113 259.518 371.966 259.525 371.783H260.394C260.38 372.26 260.255 372.641 260.02 372.927C259.793 373.213 259.489 373.356 259.107 373.356ZM268.493 377.063C268.493 377.085 268.482 377.239 268.46 377.525H263.983C264.064 377.892 264.255 378.181 264.555 378.394C264.856 378.607 265.23 378.713 265.677 378.713C265.985 378.713 266.257 378.669 266.491 378.581C266.733 378.486 266.957 378.339 267.162 378.141L268.075 379.131C267.518 379.769 266.704 380.088 265.633 380.088C264.966 380.088 264.376 379.96 263.862 379.703C263.349 379.439 262.953 379.076 262.674 378.614C262.396 378.152 262.256 377.628 262.256 377.041C262.256 376.462 262.392 375.941 262.663 375.479C262.942 375.01 263.32 374.647 263.796 374.39C264.28 374.126 264.819 373.994 265.413 373.994C265.993 373.994 266.517 374.119 266.986 374.368C267.456 374.617 267.822 374.977 268.086 375.446C268.358 375.908 268.493 376.447 268.493 377.063ZM265.424 375.292C265.036 375.292 264.709 375.402 264.445 375.622C264.181 375.842 264.02 376.143 263.961 376.524H266.876C266.818 376.15 266.656 375.853 266.392 375.633C266.128 375.406 265.806 375.292 265.424 375.292ZM271.627 380.088C271.135 380.088 270.655 380.029 270.186 379.912C269.716 379.787 269.342 379.633 269.064 379.45L269.636 378.218C269.9 378.387 270.219 378.526 270.593 378.636C270.967 378.739 271.333 378.79 271.693 378.79C272.419 378.79 272.782 378.61 272.782 378.251C272.782 378.082 272.683 377.961 272.485 377.888C272.287 377.815 271.982 377.752 271.572 377.701C271.088 377.628 270.688 377.543 270.373 377.448C270.057 377.353 269.782 377.184 269.548 376.942C269.32 376.7 269.207 376.355 269.207 375.908C269.207 375.534 269.313 375.204 269.526 374.918C269.746 374.625 270.061 374.397 270.472 374.236C270.89 374.075 271.381 373.994 271.946 373.994C272.364 373.994 272.778 374.042 273.189 374.137C273.607 374.225 273.951 374.35 274.223 374.511L273.651 375.732C273.13 375.439 272.562 375.292 271.946 375.292C271.579 375.292 271.304 375.343 271.121 375.446C270.937 375.549 270.846 375.681 270.846 375.842C270.846 376.025 270.945 376.154 271.143 376.227C271.341 376.3 271.656 376.37 272.089 376.436C272.573 376.517 272.969 376.605 273.277 376.7C273.585 376.788 273.852 376.953 274.08 377.195C274.307 377.437 274.421 377.774 274.421 378.207C274.421 378.574 274.311 378.9 274.091 379.186C273.871 379.472 273.548 379.696 273.123 379.857C272.705 380.011 272.206 380.088 271.627 380.088ZM274.798 382.134C275.26 381.32 275.597 380.495 275.81 379.659C276.03 378.816 276.139 377.925 276.139 376.986C276.139 376.047 276.03 375.16 275.81 374.324C275.597 373.481 275.26 372.652 274.798 371.838H276.437C276.884 372.491 277.225 373.261 277.46 374.148C277.702 375.028 277.823 375.974 277.823 376.986C277.823 377.998 277.705 378.944 277.471 379.824C277.236 380.697 276.891 381.467 276.437 382.134H274.798Z" fill="#FFC33F"/>
<path d="M102.992 31.2H106.88V44.832H115.304V48H102.992V31.2ZM122.561 34.896C124.561 34.896 126.097 35.376 127.169 36.336C128.241 37.28 128.777 38.712 128.777 40.632V48H125.273V46.392C124.569 47.592 123.257 48.192 121.337 48.192C120.345 48.192 119.481 48.024 118.745 47.688C118.025 47.352 117.473 46.888 117.089 46.296C116.705 45.704 116.513 45.032 116.513 44.28C116.513 43.08 116.961 42.136 117.857 41.448C118.769 40.76 120.169 40.416 122.057 40.416H125.033C125.033 39.6 124.785 38.976 124.289 38.544C123.793 38.096 123.049 37.872 122.057 37.872C121.369 37.872 120.689 37.984 120.017 38.208C119.361 38.416 118.801 38.704 118.337 39.072L116.993 36.456C117.697 35.96 118.537 35.576 119.513 35.304C120.505 35.032 121.521 34.896 122.561 34.896ZM122.273 45.672C122.913 45.672 123.481 45.528 123.977 45.24C124.473 44.936 124.825 44.496 125.033 43.92V42.6H122.465C120.929 42.6 120.161 43.104 120.161 44.112C120.161 44.592 120.345 44.976 120.713 45.264C121.097 45.536 121.617 45.672 122.273 45.672ZM135.742 36.792C136.19 36.168 136.79 35.696 137.542 35.376C138.31 35.056 139.19 34.896 140.182 34.896V38.352C139.766 38.32 139.486 38.304 139.342 38.304C138.27 38.304 137.43 38.608 136.822 39.216C136.214 39.808 135.91 40.704 135.91 41.904V48H132.166V35.088H135.742V36.792ZM142.408 35.088H146.152V48H142.408V35.088ZM144.28 33.288C143.592 33.288 143.032 33.088 142.6 32.688C142.168 32.288 141.952 31.792 141.952 31.2C141.952 30.608 142.168 30.112 142.6 29.712C143.032 29.312 143.592 29.112 144.28 29.112C144.968 29.112 145.528 29.304 145.96 29.688C146.392 30.072 146.608 30.552 146.608 31.128C146.608 31.752 146.392 32.272 145.96 32.688C145.528 33.088 144.968 33.288 144.28 33.288ZM153.97 48.192C152.898 48.192 151.85 48.064 150.826 47.808C149.802 47.536 148.986 47.2 148.378 46.8L149.626 44.112C150.202 44.48 150.898 44.784 151.714 45.024C152.53 45.248 153.33 45.36 154.114 45.36C155.698 45.36 156.49 44.968 156.49 44.184C156.49 43.816 156.274 43.552 155.842 43.392C155.41 43.232 154.746 43.096 153.85 42.984C152.794 42.824 151.922 42.64 151.234 42.432C150.546 42.224 149.946 41.856 149.434 41.328C148.938 40.8 148.69 40.048 148.69 39.072C148.69 38.256 148.922 37.536 149.386 36.912C149.866 36.272 150.554 35.776 151.45 35.424C152.362 35.072 153.434 34.896 154.666 34.896C155.578 34.896 156.482 35 157.378 35.208C158.29 35.4 159.042 35.672 159.634 36.024L158.386 38.688C157.25 38.048 156.01 37.728 154.666 37.728C153.866 37.728 153.266 37.84 152.866 38.064C152.466 38.288 152.266 38.576 152.266 38.928C152.266 39.328 152.482 39.608 152.914 39.768C153.346 39.928 154.034 40.08 154.978 40.224C156.034 40.4 156.898 40.592 157.57 40.8C158.242 40.992 158.826 41.352 159.322 41.88C159.818 42.408 160.066 43.144 160.066 44.088C160.066 44.888 159.826 45.6 159.346 46.224C158.866 46.848 158.162 47.336 157.234 47.688C156.322 48.024 155.234 48.192 153.97 48.192ZM166.72 48.192C165.648 48.192 164.6 48.064 163.576 47.808C162.552 47.536 161.736 47.2 161.128 46.8L162.376 44.112C162.952 44.48 163.648 44.784 164.464 45.024C165.28 45.248 166.08 45.36 166.864 45.36C168.448 45.36 169.24 44.968 169.24 44.184C169.24 43.816 169.024 43.552 168.592 43.392C168.16 43.232 167.496 43.096 166.6 42.984C165.544 42.824 164.672 42.64 163.984 42.432C163.296 42.224 162.696 41.856 162.184 41.328C161.688 40.8 161.44 40.048 161.44 39.072C161.44 38.256 161.672 37.536 162.136 36.912C162.616 36.272 163.304 35.776 164.2 35.424C165.112 35.072 166.184 34.896 167.416 34.896C168.328 34.896 169.232 35 170.128 35.208C171.04 35.4 171.792 35.672 172.384 36.024L171.136 38.688C170 38.048 168.76 37.728 167.416 37.728C166.616 37.728 166.016 37.84 165.616 38.064C165.216 38.288 165.016 38.576 165.016 38.928C165.016 39.328 165.232 39.608 165.664 39.768C166.096 39.928 166.784 40.08 167.728 40.224C168.784 40.4 169.648 40.592 170.32 40.8C170.992 40.992 171.576 41.352 172.072 41.88C172.568 42.408 172.816 43.144 172.816 44.088C172.816 44.888 172.576 45.6 172.096 46.224C171.616 46.848 170.912 47.336 169.984 47.688C169.072 48.024 167.984 48.192 166.72 48.192ZM180.334 34.896C182.334 34.896 183.87 35.376 184.942 36.336C186.014 37.28 186.55 38.712 186.55 40.632V48H183.046V46.392C182.342 47.592 181.03 48.192 179.11 48.192C178.118 48.192 177.254 48.024 176.518 47.688C175.798 47.352 175.246 46.888 174.862 46.296C174.478 45.704 174.286 45.032 174.286 44.28C174.286 43.08 174.734 42.136 175.63 41.448C176.542 40.76 177.942 40.416 179.83 40.416H182.806C182.806 39.6 182.558 38.976 182.062 38.544C181.566 38.096 180.822 37.872 179.83 37.872C179.142 37.872 178.462 37.984 177.79 38.208C177.134 38.416 176.574 38.704 176.11 39.072L174.766 36.456C175.47 35.96 176.31 35.576 177.286 35.304C178.278 35.032 179.294 34.896 180.334 34.896ZM180.046 45.672C180.686 45.672 181.254 45.528 181.75 45.24C182.246 44.936 182.598 44.496 182.806 43.92V42.6H180.238C178.702 42.6 177.934 43.104 177.934 44.112C177.934 44.592 178.118 44.976 178.486 45.264C178.87 45.536 179.39 45.672 180.046 45.672ZM197 31.2H200.888V44.832H209.312V48H197V31.2ZM211.22 35.088H214.964V48H211.22V35.088ZM213.092 33.288C212.404 33.288 211.844 33.088 211.412 32.688C210.98 32.288 210.764 31.792 210.764 31.2C210.764 30.608 210.98 30.112 211.412 29.712C211.844 29.312 212.404 29.112 213.092 29.112C213.78 29.112 214.34 29.304 214.772 29.688C215.204 30.072 215.42 30.552 215.42 31.128C215.42 31.752 215.204 32.272 214.772 32.688C214.34 33.088 213.78 33.288 213.092 33.288ZM234.975 34.896C236.591 34.896 237.871 35.376 238.815 36.336C239.775 37.28 240.255 38.704 240.255 40.608V48H236.511V41.184C236.511 40.16 236.295 39.4 235.863 38.904C235.447 38.392 234.847 38.136 234.063 38.136C233.183 38.136 232.487 38.424 231.975 39C231.463 39.56 231.207 40.4 231.207 41.52V48H227.463V41.184C227.463 39.152 226.647 38.136 225.015 38.136C224.151 38.136 223.463 38.424 222.951 39C222.439 39.56 222.183 40.4 222.183 41.52V48H218.439V35.088H222.015V36.576C222.495 36.032 223.079 35.616 223.767 35.328C224.471 35.04 225.239 34.896 226.071 34.896C226.983 34.896 227.807 35.08 228.543 35.448C229.279 35.8 229.871 36.32 230.319 37.008C230.847 36.336 231.511 35.816 232.311 35.448C233.127 35.08 234.015 34.896 234.975 34.896ZM248.819 34.896C250.819 34.896 252.355 35.376 253.427 36.336C254.499 37.28 255.035 38.712 255.035 40.632V48H251.531V46.392C250.827 47.592 249.515 48.192 247.595 48.192C246.603 48.192 245.739 48.024 245.003 47.688C244.283 47.352 243.731 46.888 243.347 46.296C242.963 45.704 242.771 45.032 242.771 44.28C242.771 43.08 243.219 42.136 244.115 41.448C245.027 40.76 246.427 40.416 248.315 40.416H251.291C251.291 39.6 251.043 38.976 250.547 38.544C250.051 38.096 249.307 37.872 248.315 37.872C247.627 37.872 246.947 37.984 246.275 38.208C245.619 38.416 245.059 38.704 244.595 39.072L243.251 36.456C243.955 35.96 244.795 35.576 245.771 35.304C246.763 35.032 247.779 34.896 248.819 34.896ZM248.531 45.672C249.171 45.672 249.739 45.528 250.235 45.24C250.731 44.936 251.083 44.496 251.291 43.92V42.6H248.723C247.187 42.6 246.419 43.104 246.419 44.112C246.419 44.592 246.603 44.976 246.971 45.264C247.355 45.536 247.875 45.672 248.531 45.672Z" fill="black"/>
<circle cx="181" cy="198" r="125" fill="url(#paint0_linear)"/>
<mask id="mask10" mask-type="alpha" maskUnits="userSpaceOnUse" x="56" y="73" width="250" height="250">
<circle cx="181" cy="198" r="125" fill="white"/>
</mask>
<g mask="url(#mask10)">
<path d="M190.054 114.421C186.72 99.8375 202.526 88.6466 218.804 96.3289C257.137 114.421 234.893 141.504 221.143 138.588C207.393 135.671 193.387 129.004 190.054 114.421Z" fill="url(#paint1_linear)"/>
<path d="M199.333 206.333C181.431 214.934 178.819 214.473 139.333 182.167C79.7501 133.417 136 88.8334 196.417 112.583C261.833 141.333 239.917 186.837 199.333 206.333Z" fill="url(#paint2_linear)"/>
<path fill-rule="evenodd" clip-rule="evenodd" d="M201 240.5C194.889 253.833 187.111 260.5 181 260.5C174.889 260.5 167.111 253.833 161 240.5V223.833C161 223.833 158.281 223.913 156.417 223.833C136.926 222.998 130.412 191.644 133.471 160.281C135.711 137.313 155.167 168.833 186.833 146.75C185.583 170.917 196 168.417 200.583 165.5C221.417 155.917 221.833 195.083 201.243 192.048C201.251 192.465 201.17 208.616 201 240.5Z" fill="url(#paint3_linear)"/>
<path d="M161 223.833C168.5 223.278 177.843 219.083 189.028 211.25C185.601 223.053 176.258 230.026 161 232.167L161 223.833Z" fill="#FF9768"/>
<path fill-rule="evenodd" clip-rule="evenodd" d="M154.11 245.347C154.11 245.347 155.368 236.667 158.316 235.923C161.264 235.179 178.496 235.09 178.511 238.423C178.514 239.035 179.104 245.593 181.07 245.593C183.035 245.593 183.54 239.035 183.543 238.423C183.558 235.09 200.69 235.219 203.738 235.923C206.786 236.628 207.931 245.358 207.931 245.358C207.931 245.358 252.929 266.548 257.667 275.593C261.741 283.37 264.796 301.426 266.833 329.759H95.1667C97.2038 301.426 100.259 283.37 104.333 275.593C109.069 266.552 154.11 245.347 154.11 245.347Z" fill="url(#paint4_linear)"/>
<path fill-rule="evenodd" clip-rule="evenodd" d="M184.333 268.833C184.333 270.674 182.841 272.167 181 272.167C179.159 272.167 177.667 270.674 177.667 268.833C177.667 266.992 179.159 265.5 181 265.5C182.841 265.5 184.333 266.992 184.333 268.833ZM184.333 285.5C184.333 287.341 182.841 288.833 181 288.833C179.159 288.833 177.667 287.341 177.667 285.5C177.667 283.659 179.159 282.167 181 282.167C182.841 282.167 184.333 283.659 184.333 285.5ZM181 305.5C182.841 305.5 184.333 304.008 184.333 302.167C184.333 300.326 182.841 298.833 181 298.833C179.159 298.833 177.667 300.326 177.667 302.167C177.667 304.008 179.159 305.5 181 305.5Z" fill="#664F4D"/>
<path d="M189.825 139.19C176.492 172.523 183.992 188.773 194.408 208.357C204.825 227.94 191.908 246.273 191.908 246.273C191.908 246.273 206.908 236.69 206.908 215.44C206.908 194.19 191.908 180.857 204.408 163.357C216.908 145.857 203.158 105.857 189.825 139.19Z" fill="url(#paint5_linear)"/>
</g>
<rect x="167" y="293" width="150" height="54" rx="27" fill="#0D8CBE"/>
<path d="M190.638 326L187.668 321.71H187.492H184.39V326H180.826V310.6H187.492C188.856 310.6 190.037 310.827 191.034 311.282C192.046 311.737 192.823 312.382 193.366 313.218C193.909 314.054 194.18 315.044 194.18 316.188C194.18 317.332 193.901 318.322 193.344 319.158C192.801 319.979 192.024 320.61 191.012 321.05L194.466 326H190.638ZM190.572 316.188C190.572 315.323 190.293 314.663 189.736 314.208C189.179 313.739 188.365 313.504 187.294 313.504H184.39V318.872H187.294C188.365 318.872 189.179 318.637 189.736 318.168C190.293 317.699 190.572 317.039 190.572 316.188ZM208.598 321.49C208.598 322.693 208.158 323.727 207.278 324.592C206.398 325.443 205.129 325.971 203.472 326.176V328.64H201.272V326.242C200.186 326.183 199.152 325.993 198.17 325.67C197.187 325.347 196.395 324.951 195.794 324.482L197.004 321.798C197.561 322.209 198.214 322.553 198.962 322.832C199.71 323.111 200.48 323.287 201.272 323.36V319.686C200.23 319.437 199.35 319.158 198.632 318.85C197.913 318.542 197.312 318.095 196.828 317.508C196.344 316.907 196.102 316.115 196.102 315.132C196.102 313.915 196.542 312.873 197.422 312.008C198.316 311.128 199.6 310.593 201.272 310.402V307.96H203.472V310.358C205.276 310.505 206.764 310.952 207.938 311.7L206.838 314.406C205.738 313.775 204.616 313.394 203.472 313.262V317.002C204.498 317.237 205.364 317.508 206.068 317.816C206.786 318.109 207.388 318.557 207.872 319.158C208.356 319.745 208.598 320.522 208.598 321.49ZM199.644 314.956C199.644 315.323 199.783 315.623 200.062 315.858C200.34 316.093 200.744 316.291 201.272 316.452V313.328C200.714 313.46 200.304 313.673 200.04 313.966C199.776 314.245 199.644 314.575 199.644 314.956ZM203.472 323.272C204 323.155 204.396 322.964 204.66 322.7C204.924 322.436 205.056 322.121 205.056 321.754C205.056 321.387 204.916 321.087 204.638 320.852C204.374 320.617 203.985 320.412 203.472 320.236V323.272ZM230.398 322.766H227.89V326H224.414V322.766H216.12V320.368L223.38 310.6H227.12L220.388 319.862H224.524V316.98H227.89V319.862H230.398V322.766ZM238.063 326.264C236.787 326.264 235.651 325.949 234.653 325.318C233.656 324.687 232.871 323.778 232.299 322.59C231.742 321.387 231.463 319.957 231.463 318.3C231.463 316.643 231.742 315.22 232.299 314.032C232.871 312.829 233.656 311.913 234.653 311.282C235.651 310.651 236.787 310.336 238.063 310.336C239.339 310.336 240.476 310.651 241.473 311.282C242.471 311.913 243.248 312.829 243.805 314.032C244.377 315.22 244.663 316.643 244.663 318.3C244.663 319.957 244.377 321.387 243.805 322.59C243.248 323.778 242.471 324.687 241.473 325.318C240.476 325.949 239.339 326.264 238.063 326.264ZM238.063 323.25C239.002 323.25 239.735 322.847 240.263 322.04C240.806 321.233 241.077 319.987 241.077 318.3C241.077 316.613 240.806 315.367 240.263 314.56C239.735 313.753 239.002 313.35 238.063 313.35C237.139 313.35 236.406 313.753 235.863 314.56C235.335 315.367 235.071 316.613 235.071 318.3C235.071 319.987 235.335 321.233 235.863 322.04C236.406 322.847 237.139 323.25 238.063 323.25ZM251.641 307.476H254.699L247.439 328.2H244.381L251.641 307.476ZM262.501 313.988C263.967 313.988 265.148 314.428 266.043 315.308C266.952 316.188 267.407 317.493 267.407 319.224V326H263.975V319.752C263.975 318.813 263.769 318.117 263.359 317.662C262.948 317.193 262.354 316.958 261.577 316.958C260.711 316.958 260.022 317.229 259.509 317.772C258.995 318.3 258.739 319.092 258.739 320.148V326H255.307V309.676H258.739V315.396C259.193 314.941 259.743 314.597 260.389 314.362C261.034 314.113 261.738 313.988 262.501 313.988ZM276.279 326.176C275.032 326.176 273.91 325.919 272.913 325.406C271.93 324.878 271.16 324.152 270.603 323.228C270.045 322.304 269.767 321.255 269.767 320.082C269.767 318.909 270.045 317.86 270.603 316.936C271.16 316.012 271.93 315.293 272.913 314.78C273.91 314.252 275.032 313.988 276.279 313.988C277.525 313.988 278.64 314.252 279.623 314.78C280.605 315.293 281.375 316.012 281.933 316.936C282.49 317.86 282.769 318.909 282.769 320.082C282.769 321.255 282.49 322.304 281.933 323.228C281.375 324.152 280.605 324.878 279.623 325.406C278.64 325.919 277.525 326.176 276.279 326.176ZM276.279 323.36C277.159 323.36 277.877 323.067 278.435 322.48C279.007 321.879 279.293 321.079 279.293 320.082C279.293 319.085 279.007 318.293 278.435 317.706C277.877 317.105 277.159 316.804 276.279 316.804C275.399 316.804 274.673 317.105 274.101 317.706C273.529 318.293 273.243 319.085 273.243 320.082C273.243 321.079 273.529 321.879 274.101 322.48C274.673 323.067 275.399 323.36 276.279 323.36ZM288.341 315.726C288.751 315.154 289.301 314.721 289.991 314.428C290.695 314.135 291.501 313.988 292.411 313.988V317.156C292.029 317.127 291.773 317.112 291.641 317.112C290.658 317.112 289.888 317.391 289.331 317.948C288.773 318.491 288.495 319.312 288.495 320.412V326H285.063V314.164H288.341V315.726ZM299.161 313.988C300.994 313.988 302.402 314.428 303.385 315.308C304.367 316.173 304.859 317.486 304.859 319.246V326H301.647V324.526C301.001 325.626 299.799 326.176 298.039 326.176C297.129 326.176 296.337 326.022 295.663 325.714C295.003 325.406 294.497 324.981 294.145 324.438C293.793 323.895 293.617 323.279 293.617 322.59C293.617 321.49 294.027 320.625 294.849 319.994C295.685 319.363 296.968 319.048 298.699 319.048H301.427C301.427 318.3 301.199 317.728 300.745 317.332C300.29 316.921 299.608 316.716 298.699 316.716C298.068 316.716 297.445 316.819 296.829 317.024C296.227 317.215 295.714 317.479 295.289 317.816L294.057 315.418C294.702 314.963 295.472 314.611 296.367 314.362C297.276 314.113 298.207 313.988 299.161 313.988ZM298.897 323.866C299.483 323.866 300.004 323.734 300.459 323.47C300.913 323.191 301.236 322.788 301.427 322.26V321.05H299.073C297.665 321.05 296.961 321.512 296.961 322.436C296.961 322.876 297.129 323.228 297.467 323.492C297.819 323.741 298.295 323.866 298.897 323.866Z" fill="white"/>
<defs>
<linearGradient id="paint0_linear" x1="56" y1="73" x2="56" y2="323" gradientUnits="userSpaceOnUse">
<stop stop-color="#806A6A"/>
<stop offset="1" stop-color="#665654"/>
</linearGradient>
<linearGradient id="paint1_linear" x1="240.167" y1="93.8334" x2="240.167" y2="138.805" gradientUnits="userSpaceOnUse">
<stop stop-color="#1D0024"/>
<stop offset="1" stop-color="#100014"/>
</linearGradient>
<linearGradient id="paint2_linear" x1="113.968" y1="106.006" x2="113.968" y2="211.07" gradientUnits="userSpaceOnUse">
<stop stop-color="#1D0024"/>
<stop offset="1" stop-color="#100014"/>
</linearGradient>
<linearGradient id="paint3_linear" x1="132.751" y1="146.75" x2="132.751" y2="260.5" gradientUnits="userSpaceOnUse">
<stop stop-color="#F7B186"/>
<stop offset="1" stop-color="#FFC299"/>
</linearGradient>
<linearGradient id="paint4_linear" x1="266.833" y1="329.759" x2="266.833" y2="235.5" gradientUnits="userSpaceOnUse">
<stop stop-color="#FCF2EB"/>
<stop offset="1" stop-color="#FFF9F5"/>
</linearGradient>
<linearGradient id="paint5_linear" x1="209.32" y1="126.333" x2="209.32" y2="246.273" gradientUnits="userSpaceOnUse">
<stop stop-color="#1D0024"/>
<stop offset="1" stop-color="#100014"/>
</linearGradient>
</defs>
</svg>
