<svg width="604" height="508" viewBox="0 0 604 508" fill="none" xmlns="http://www.w3.org/2000/svg">
<ellipse cx="304.554" cy="501.541" rx="299.248" ry="6.4586" fill="#F0F0F0"/>
<rect x="110.796" y="283.026" width="493.006" height="8.61146" rx="4" fill="#282F80"/>
<path d="M562.898 291.637H569.357V496.159C569.357 497.943 567.911 499.389 566.127 499.389C564.344 499.389 562.898 497.943 562.898 496.159V291.637Z" fill="#F0F0F0"/>
<path d="M145.242 291.637H151.701V496.159C151.701 497.943 150.255 499.389 148.471 499.389C146.688 499.389 145.242 497.943 145.242 496.159V291.637Z" fill="#F0F0F0"/>
<path d="M186.146 291.637H192.605V496.159C192.605 497.943 191.159 499.389 189.376 499.389C187.592 499.389 186.146 497.943 186.146 496.159V291.637Z" fill="#F0F0F0"/>
<path d="M521.994 291.637H528.452V496.159C528.452 497.943 527.006 499.389 525.223 499.389C523.439 499.389 521.994 497.943 521.994 496.159V291.637Z" fill="#F0F0F0"/>
<path d="M265.242 251.809C265.539 251.797 265.79 252.028 265.802 252.325C266.502 269.114 272.3 277.467 283.214 277.641L283.564 277.643L287.869 277.643C289.356 277.643 290.561 278.848 290.561 280.334C290.561 281.761 289.45 282.929 288.046 283.02L287.869 283.025H216.825C215.339 283.025 214.134 281.821 214.134 280.334C214.134 278.908 215.244 277.74 216.648 277.649L216.825 277.643L221.131 277.643C232.27 277.643 238.185 269.293 238.892 252.325C238.905 252.028 239.155 251.797 239.452 251.809C239.749 251.822 239.98 252.073 239.968 252.37L239.916 253.44C239.171 266.765 235.061 274.875 227.594 277.645H277.1C269.745 274.916 265.647 267.006 264.814 254.033L264.779 253.44L264.727 252.37C264.714 252.073 264.945 251.822 265.242 251.809Z" fill="#D8D8D8"/>
<rect x="158.159" y="132.325" width="187.299" height="120.561" rx="16" fill="white" stroke="#F0F0F0" stroke-linecap="round" stroke-linejoin="round"/>
<path d="M158.159 229.204H345.459V236.885C345.459 245.722 338.295 252.885 329.459 252.885H174.159C165.323 252.885 158.159 245.722 158.159 236.885V229.204Z" fill="#F0F0F0"/>
<circle cx="251.809" cy="241.045" r="5.38217" stroke="#D8D8D8" stroke-linecap="round" stroke-linejoin="round"/>
<path fill-rule="evenodd" clip-rule="evenodd" d="M251.809 281.968H229.204L231.357 277.662C231.357 277.662 258.268 269.051 265.803 269.051L264.726 281.968H251.809Z" fill="#FF9E8B"/>
<path fill-rule="evenodd" clip-rule="evenodd" d="M387.439 200.178C415.026 199.494 440.185 215.248 440.185 249.694C440.185 272.658 438.032 298.492 433.726 327.197H344.382V270.146C338.043 277.882 333.897 281.821 325.484 281.964L249.656 281.968C251.091 275.51 253.962 270.486 258.268 266.898C286.972 264.028 295.225 259.369 317.471 252.923C341.153 219.183 362.323 201.601 387.439 200.178Z" fill="#FFC33F"/>
<path d="M344.382 270.127L354.07 256.134" stroke="#EBA100" stroke-linecap="round" stroke-linejoin="round"/>
<path fill-rule="evenodd" clip-rule="evenodd" d="M284.102 357.319L273.338 468.191H303.478L320.701 357.319H284.102Z" fill="#2B46AA"/>
<path fill-rule="evenodd" clip-rule="evenodd" d="M346.535 308.879L257.122 335.12C251.069 336.896 246.208 341.425 244.009 347.339L199.064 468.191H239.968L272.261 383.153L346.535 350.86V308.879Z" fill="#3F65F4"/>
<path d="M333.618 337.943L260.42 361.624L225.975 449.892" stroke="#282F80" stroke-width="0.5" stroke-linecap="round" stroke-linejoin="round" stroke-dasharray="5"/>
<path fill-rule="evenodd" clip-rule="evenodd" d="M280.873 475.726H298.096V498.331H265.803L280.873 475.726Z" fill="#282F80"/>
<path fill-rule="evenodd" clip-rule="evenodd" d="M208.752 475.726H228.127V498.331H180.764L208.752 475.726Z" fill="#282F80"/>
<path d="M200.14 478.956L205.522 486.491" stroke="#FFC33F" stroke-linecap="round" stroke-linejoin="round"/>
<path d="M194.758 483.261L200.14 490.796" stroke="#FFC33F" stroke-linecap="round" stroke-linejoin="round"/>
<path d="M272.261 484.338L275.49 487.567" stroke="#FFC33F" stroke-linecap="round" stroke-linejoin="round"/>
<path d="M270.108 487.567L273.338 490.796" stroke="#FFC33F" stroke-linecap="round" stroke-linejoin="round"/>
<rect x="374.522" y="143.108" width="34.4459" height="50.0541" rx="16" fill="#FF9E8B"/>
<path fill-rule="evenodd" clip-rule="evenodd" d="M402.552 138.064C399.804 134.664 396.414 134.902 392.381 138.775C392.381 138.775 380.981 133.42 376.675 144.185C376.675 144.185 369.14 151.72 372.89 155.767C372.89 155.767 377.098 158.701 376.102 159.848C375.107 160.995 375.124 162.296 377.753 169.116C380.381 175.936 370.349 185.101 370.724 190.462C371.098 195.824 373.775 195.637 369.257 200.263C364.739 204.889 370.692 213.093 373.904 212.868C377.116 212.644 376.95 210.433 373.615 216.592C370.28 222.752 371.115 227.004 374.515 229.46C374.974 229.792 377.525 235.628 381.151 236.14C382.624 236.349 387.449 235.997 387.443 233.542C387.427 227.113 395.257 235.496 399.481 235.938C401.239 230.41 406.62 231.596 409.993 231.965C413.37 232.335 419.058 235.811 420.033 236.659C425.205 236.297 423.5 229.015 423.953 230.989C424.973 230.803 424.396 235.415 425.327 235.209C428.663 234.472 431.806 237.622 433.69 234.541C435.305 231.899 434.835 226.245 434.76 225.168C434.123 216.054 429.958 214.807 429.958 214.807C429.958 214.807 437.576 208.348 434.787 206.927C431.998 205.506 431.387 204.471 434.487 202.638C437.586 200.805 439.155 200.156 436.601 194.409C434.047 188.661 430.996 183.486 432.875 179.584C434.754 175.681 429.636 171.729 430.369 166.829C431.102 161.928 432.21 162.39 430.417 159.821C428.623 157.253 427.29 153.575 428.211 151.355C429.132 149.136 425.037 152.116 424.041 153.263C423.045 154.41 424.399 143.002 417.815 148.85C417.815 148.85 420.839 145.944 419.121 144.448C417.403 142.952 415.898 136.592 410.694 139.111C405.652 136.231 402.552 138.064 402.552 138.064Z" fill="#282F80"/>
<path d="M404.741 147.952C404.741 147.952 406.923 157.64 398.742 163.022" stroke="#4B52A4" stroke-width="0.5" stroke-linecap="round" stroke-linejoin="round"/>
<path d="M411.038 159.255C411.038 159.255 408.14 161.408 409.299 162.484C410.459 163.561 412.197 162.484 412.197 162.484C412.197 162.484 411.618 164.637 409.299 166.79" stroke="#4B52A4" stroke-width="0.5" stroke-linecap="round" stroke-linejoin="round"/>
<path d="M417.041 156.564C417.041 156.564 416.503 162.484 414.35 164.099" stroke="#4B52A4" stroke-width="0.5" stroke-linecap="round" stroke-linejoin="round"/>
<path d="M424.576 215.229C424.576 215.229 424.038 221.15 421.885 222.764" stroke="#4B52A4" stroke-width="0.5" stroke-linecap="round" stroke-linejoin="round"/>
<path d="M401.971 207.694C401.971 207.694 401.433 213.615 399.28 215.229" stroke="#4B52A4" stroke-width="0.5" stroke-linecap="round" stroke-linejoin="round"/>
<path d="M424.038 161.408C424.038 161.408 420.809 164.637 422.424 166.79C424.038 168.943 424.576 170.019 422.962 173.787C421.347 177.554 428.882 177.016 430.497 184.013" stroke="#4B52A4" stroke-width="0.5" stroke-linecap="round" stroke-linejoin="round"/>
<path d="M401.433 194.878C401.433 194.878 403.048 194.373 404.124 196.392" stroke="#4B52A4" stroke-width="0.5" stroke-linecap="round" stroke-linejoin="round"/>
<path d="M406.815 190.224C406.815 190.224 411.121 186.413 411.121 190.224C411.121 194.036 407.892 197.848 408.968 200.571C410.045 203.294 414.889 202.749 415.427 211.462" stroke="#4B52A4" stroke-width="0.5" stroke-linecap="round" stroke-linejoin="round"/>
<path d="M422.424 195.854C422.424 195.854 419.732 196.93 419.732 199.083C419.732 201.236 426.729 200.698 426.729 202.312C426.729 203.927 423.5 207.156 423.5 208.771" stroke="#4B52A4" stroke-width="0.5" stroke-linecap="round" stroke-linejoin="round"/>
<path d="M393.898 169.156C393.898 169.156 386.363 168.09 386.363 172.352C386.363 176.614 390.669 178.213 390.131 182.475C389.592 186.737 386.363 189.933 386.363 189.933" stroke="#4B52A4" stroke-width="0.5" stroke-linecap="round" stroke-linejoin="round"/>
<path d="M376.906 186.704C376.906 186.704 373.16 193.162 375.301 195.315C377.442 197.468 379.583 194.239 381.188 198.545C382.794 202.85 377.977 202.312 379.047 209.847" stroke="#4B52A4" stroke-width="0.5" stroke-linecap="round" stroke-linejoin="round"/>
<path d="M381.519 146.338C381.519 146.338 380.443 152.796 377.752 154.949" stroke="#4B52A4" stroke-width="0.5" stroke-linecap="round" stroke-linejoin="round"/>
<path d="M392.822 149.567C394.975 149.567 396.051 148.491 396.051 148.491C396.41 144.902 398.383 143.108 401.971 143.108" stroke="#4B52A4" stroke-width="0.5" stroke-linecap="round" stroke-linejoin="round"/>
<path d="M413.812 149.567C413.812 149.567 417.041 147.414 417.041 146.338" stroke="#4B52A4" stroke-width="0.5" stroke-linecap="round" stroke-linejoin="round"/>
<path d="M407.354 175.401C407.354 175.401 400.895 186.704 394.975 188.319" stroke="#4B52A4" stroke-width="0.5" stroke-linecap="round" stroke-linejoin="round"/>
<path d="M392.164 202.85C392.164 202.85 392.642 209.847 391.207 211.462" stroke="#4B52A4" stroke-width="0.5" stroke-linecap="round" stroke-linejoin="round"/>
<path d="M387.978 207.156C387.978 207.156 387.44 210.385 383.672 211.462" stroke="#4B52A4" stroke-width="0.5" stroke-linecap="round" stroke-linejoin="round"/>
<path d="M425.115 188.857C425.115 188.857 427.268 190.471 428.344 190.471" stroke="#4B52A4" stroke-width="0.5" stroke-linecap="round" stroke-linejoin="round"/>
<path d="M418.656 171.096C418.656 171.096 415.068 178.092 417.46 180.245C419.852 182.398 417.46 186.166 417.46 186.166" stroke="#4B52A4" stroke-width="0.5" stroke-linecap="round" stroke-linejoin="round"/>
<path d="M388.516 154.949C388.516 154.949 390.131 156.564 386.901 160.331" stroke="#4B52A4" stroke-width="0.5" stroke-linecap="round" stroke-linejoin="round"/>
<path fill-rule="evenodd" clip-rule="evenodd" d="M201.217 455.274L195.834 469.268H242.121L246.427 457.427L201.217 455.274Z" fill="#3F65F4"/>
<path d="M202.831 454.736L243.736 456.889" stroke="#282F80" stroke-width="0.5" stroke-linecap="round" stroke-linejoin="round"/>
<path d="M272.799 461.194L306.169 462.271" stroke="#282F80" stroke-width="0.5" stroke-linecap="round" stroke-linejoin="round"/>
<path fill-rule="evenodd" clip-rule="evenodd" d="M272.261 461.733L270.108 469.268H305.631L307.783 462.809L272.261 461.733Z" fill="#2B46AA"/>
<path d="M317.471 253.981L316.395 260.44" stroke="#EBA100" stroke-linecap="round" stroke-linejoin="round"/>
<path d="M319.624 252.905L321.777 257.21" stroke="#EBA100" stroke-linecap="round" stroke-linejoin="round"/>
<path d="M263.65 266.898C263.65 266.898 258.268 275.51 258.268 281.968" stroke="#EBA100" stroke-linecap="round" stroke-linejoin="round"/>
<path d="M491.441 258.115C491.441 257.01 492.336 256.115 493.441 256.115H515.024C516.129 256.115 517.024 257.01 517.024 258.115V273.025C517.024 278.548 512.547 283.025 507.024 283.025H501.441C495.918 283.025 491.441 278.548 491.441 273.025V258.115Z" fill="#CF4634"/>
<path fill-rule="evenodd" clip-rule="evenodd" d="M498.972 268.667C497.94 268.128 497.236 267.047 497.236 265.803C497.236 264.019 498.681 262.573 500.465 262.573C501.71 262.573 502.79 263.278 503.329 264.31C503.707 264.23 504.1 264.188 504.502 264.188C504.904 264.188 505.296 264.23 505.674 264.31C506.213 263.278 507.293 262.573 508.538 262.573C510.322 262.573 511.767 264.019 511.767 265.803C511.767 267.047 511.063 268.128 510.031 268.667C510.111 269.045 510.153 269.437 510.153 269.839C510.153 272.96 507.623 275.49 504.502 275.49C501.38 275.49 498.85 272.96 498.85 269.839C498.85 269.437 498.892 269.045 498.972 268.667Z" fill="#A13426"/>
<circle cx="518.764" cy="266.879" r="5.38217" stroke="#CF4634" stroke-width="2" stroke-linecap="round" stroke-linejoin="round"/>
<path d="M500.83 252.347C500.83 252.347 504.867 243.467 500.83 239.43C496.794 235.393 504.059 228.127 504.059 228.127" stroke="#E6E6E6" stroke-width="0.75" stroke-linecap="round" stroke-linejoin="round"/>
<path d="M508.903 234.586C508.903 234.586 504.867 236.201 507.289 241.852C509.711 247.503 507.289 252.347 507.289 252.347" stroke="#E6E6E6" stroke-width="0.75" stroke-linecap="round" stroke-linejoin="round"/>
<rect x="359.968" y="400.357" width="36.5987" height="19.3758" rx="3" fill="#F0F0F0" stroke="#F0F0F0" stroke-linecap="round" stroke-linejoin="round"/>
<path d="M372.885 419.732H383.649V429.65C383.649 431.307 382.306 432.65 380.649 432.65H375.885C374.228 432.65 372.885 431.307 372.885 429.65V419.732Z" fill="#E6E6E6"/>
<rect x="377.19" y="432.65" width="2.15287" height="40.9045" fill="#F0F0F0"/>
<path fill-rule="evenodd" clip-rule="evenodd" d="M404.101 499.389C404.101 485.121 392.535 473.554 378.267 473.554C363.999 473.554 352.432 485.121 352.432 499.389H404.101Z" stroke="#F0F0F0" stroke-linecap="round" stroke-linejoin="round"/>
<path fill-rule="evenodd" clip-rule="evenodd" d="M400.872 219.516C356.738 219.516 351.356 246.427 351.356 278.72C351.356 311.013 321.216 326.083 288.923 331.465C256.63 336.847 282.464 410.045 367.503 410.045C452.541 410.045 464.382 351.917 464.382 315.318C464.382 278.72 445.006 219.516 400.872 219.516Z" fill="#F0F0F0"/>
<path fill-rule="evenodd" clip-rule="evenodd" d="M463.133 298.151C462.943 298.566 462.735 298.978 462.513 299.387C460.945 302.267 458.632 305.004 456.045 308.064L456.043 308.066C455.433 308.787 454.808 309.527 454.174 310.29C447.544 318.274 440.2 328.61 440.2 347.611C440.2 366.296 432.198 379.325 422.115 386.357C412.009 393.404 399.849 394.419 391.449 389.168C386.974 386.371 380.687 386.338 373.892 387.757C367.076 389.182 359.636 392.093 352.758 395.329C345.876 398.568 339.536 402.142 334.919 404.906C334.47 405.175 334.037 405.436 333.621 405.689C334.065 405.811 334.511 405.931 334.96 406.048C335.115 405.954 335.273 405.86 335.433 405.764C340.032 403.011 346.341 399.454 353.184 396.234C360.03 393.012 367.39 390.138 374.097 388.736C380.825 387.33 386.783 387.431 390.919 390.016C399.742 395.531 412.34 394.392 422.687 387.177C433.055 379.946 441.2 366.602 441.2 347.611C441.2 328.938 448.388 318.822 454.944 310.929C455.561 310.185 456.175 309.459 456.779 308.745C459.359 305.695 461.745 302.873 463.366 299.911C463.292 299.326 463.215 298.74 463.133 298.151Z" fill="#E6E6E6"/>
<path fill-rule="evenodd" clip-rule="evenodd" d="M246.427 162.908C246.427 162.908 215.21 161.831 191.529 191.972C173.229 174.749 161.389 158.602 161.389 158.602H139.86C139.86 158.602 176.459 219.959 191.529 219.959C206.599 219.959 210.904 207.042 210.904 207.042V228.57H297.019C297.019 228.57 289.981 186.838 280.873 176.902C269.032 163.984 246.427 162.908 246.427 162.908Z" fill="#3F65F4"/>
<path fill-rule="evenodd" clip-rule="evenodd" d="M146.318 155.373L144.166 152.144L128.019 146.761L130.019 144.88L152.777 147.838L153.854 155.373H146.318Z" fill="#FF9E8B"/>
<path fill-rule="evenodd" clip-rule="evenodd" d="M241.045 148.914L239.968 161.831H250.732L249.656 148.914H241.045Z" fill="#FF9E8B"/>
<rect x="229.204" y="112.316" width="34.4459" height="43.0573" rx="16" fill="#FF9E8B"/>
<path fill-rule="evenodd" clip-rule="evenodd" d="M230.28 159.679C230.28 159.679 225.975 167.214 229.204 167.214C232.433 167.214 258.268 167.214 260.42 167.214C262.573 167.214 262.573 159.679 260.42 159.679C259.483 159.679 254.867 160.755 246.575 160.755C242.178 160.755 230.28 159.679 230.28 159.679Z" fill="#224DEC"/>
<path fill-rule="evenodd" clip-rule="evenodd" d="M230.28 143.532C228.227 141.821 216.287 133.844 225.975 128.462C225.975 128.462 217.363 118.774 231.357 115.545C231.357 115.545 232.433 101.551 247.503 106.933C247.503 106.933 271.815 99.7868 266.879 112.316C261.943 124.844 258.268 127.386 247.503 125.233C236.739 123.08 235.662 135.997 235.662 135.997C235.662 135.997 234.586 141.379 232.433 135.997C230.28 130.615 228.127 134.921 230.28 143.532Z" fill="#282F80"/>
<circle cx="260.42" cy="133.844" r="6.4586" stroke="#FFC33F" stroke-linecap="round" stroke-linejoin="round"/>
<circle cx="245.35" cy="133.844" r="6.4586" stroke="#FFC33F" stroke-linecap="round" stroke-linejoin="round"/>
<path d="M244.274 145.685C244.274 145.685 249.656 148.914 252.885 145.685" stroke="#282F80" stroke-linecap="round" stroke-linejoin="round"/>
<path d="M243.197 133.844C243.197 133.844 245.781 131.691 247.503 133.844" stroke="#282F80" stroke-linecap="round" stroke-linejoin="round"/>
<path d="M258.268 133.844C258.268 133.844 260.851 131.691 262.573 133.844" stroke="#282F80" stroke-linecap="round" stroke-linejoin="round"/>
<path d="M277.105 200.045L282.487 226.956" stroke="#282F80" stroke-linecap="round" stroke-linejoin="round"/>
<path d="M210.904 207.042L212.519 203.274" stroke="#282F80" stroke-linecap="round" stroke-linejoin="round"/>
<path d="M235.662 168.29L233.51 171.519" stroke="#224DEC" stroke-linecap="round" stroke-linejoin="round"/>
<path d="M244.274 168.29V171.519" stroke="#224DEC" stroke-linecap="round" stroke-linejoin="round"/>
<path d="M253.962 168.29L257.191 171.519" stroke="#224DEC" stroke-linecap="round" stroke-linejoin="round"/>
<path d="M164.618 162.908H148.471" stroke="#282F80" stroke-linecap="round" stroke-linejoin="round"/>
<path fill-rule="evenodd" clip-rule="evenodd" d="M455.873 56.5995C452.352 56.5995 449.498 59.4537 449.498 62.9745V109.72V123.664C449.498 126.002 452.325 127.173 453.979 125.52L469.404 110.095H529.987C533.508 110.095 536.362 107.241 536.362 103.72V62.9745C536.362 59.4537 533.508 56.5995 529.987 56.5995H455.873ZM468.343 110.095H450.248V123.664C450.248 125.334 452.267 126.171 453.448 124.989L468.343 110.095ZM469.248 109.345H529.987C533.094 109.345 535.612 106.826 535.612 103.72V62.9745C535.612 59.8679 533.094 57.3495 529.987 57.3495H455.873C452.766 57.3495 450.248 59.8679 450.248 62.9745V109.345H469.248Z" fill="#FFC33F"/>
<circle cx="470.325" cy="83.8854" r="4.30573" fill="#FFF3D8"/>
<circle cx="488.624" cy="83.8853" r="6.4586" fill="#FFF3D8"/>
<circle cx="511.229" cy="83.8853" r="8.61146" fill="#FFF3D8"/>
<path fill-rule="evenodd" clip-rule="evenodd" d="M469.248 109.72L463.866 115.102L449.873 109.72H469.248Z" fill="#EBA100"/>
<path fill-rule="evenodd" clip-rule="evenodd" d="M32.4167 429.417H97.0027L79.2415 499.251H48.5632L32.4167 429.417Z" stroke="#282F80" stroke-linecap="round" stroke-linejoin="round"/>
<path fill-rule="evenodd" clip-rule="evenodd" d="M72.4144 499.251H79.2418L97.0029 429.417H84.662C79.8852 433.498 76.5423 439.825 78.4344 449.6C81.2993 464.403 82.611 469.603 80.9497 473.553C79.8021 476.281 77.2359 478.413 72.7831 482.701C67.507 487.781 69.2312 494.092 72.4144 499.251Z" fill="#282F80"/>
<path fill-rule="evenodd" clip-rule="evenodd" d="M37.2609 329.452C30.8023 325.012 24.3437 332.681 33.6279 353.268C42.9121 373.855 32.4169 374.258 31.2059 384.754C29.9949 395.249 51.3891 393.634 52.6 412.203C53.811 430.771 71.5722 407.762 67.9392 397.671C64.3063 387.579 54.2147 390.001 61.8843 373.855C69.5539 357.708 56.233 363.359 53.811 350.442C51.3891 337.525 43.7195 333.892 37.2609 329.452Z" stroke="#E6E6E6" stroke-linecap="round" stroke-linejoin="round"/>
<path d="M39.6826 342.369C39.6826 342.369 52.5998 367.396 56.2328 405.34" stroke="#E6E6E6" stroke-linecap="round" stroke-linejoin="round"/>
<path fill-rule="evenodd" clip-rule="evenodd" d="M65.1134 421.083C71.1683 422.294 73.1866 415.028 77.6269 408.166C82.0672 401.304 83.2782 400.9 88.1221 396.46C92.9661 392.019 85.2965 384.35 91.3514 375.066C97.4063 365.781 105.48 355.69 102.25 348.828C99.021 341.965 76.0122 351.653 71.1683 373.047C66.3243 394.441 53.8108 387.579 53.8108 399.689C53.8108 411.799 59.0584 419.872 65.1134 421.083Z" fill="#3F65F4"/>
<path fill-rule="evenodd" clip-rule="evenodd" d="M74.8469 412.896C72.0328 417.943 69.7635 422.013 65.1133 421.083C64.9143 421.043 64.7161 420.996 64.519 420.942C65.4944 416.77 67.9969 410.005 74.3975 401.707C83.3827 390.06 82.7655 385.82 82.2718 382.428C82.1666 381.706 82.0671 381.022 82.0671 380.313C82.0671 376.495 90.7368 363.284 100.558 360.501C98.8243 363.94 96.3795 367.566 93.9587 371.156C93.0744 372.468 92.1934 373.775 91.3513 375.066C88.0936 380.061 88.8088 384.589 89.4104 388.398C89.927 391.668 90.3598 394.408 88.122 396.46C87.2228 397.284 86.4487 397.969 85.756 398.583C82.7172 401.273 81.2428 402.578 77.6268 408.166C76.5967 409.758 75.697 411.372 74.8469 412.896Z" fill="#2B46AA"/>
<path d="M64.7097 412.203C64.7097 412.203 73.9939 373.855 92.9661 356.094" stroke="#2B46AA" stroke-linecap="round" stroke-linejoin="round"/>
<path d="M39.7515 168.924V107.497C39.7515 99.2125 46.4673 92.4968 54.7515 92.4968H229.274C237.558 92.4968 244.274 85.7811 244.274 77.4968V52.5987C244.274 44.3145 250.99 37.5987 259.274 37.5987H277.643" stroke="#E6E6E6" stroke-linecap="round" stroke-linejoin="round" stroke-dasharray="7"/>
<rect x="287.331" y="1" width="99.0318" height="72.3363" rx="4.8" stroke="#E6E6E6" stroke-linecap="round" stroke-linejoin="round"/>
<circle cx="296.804" cy="10.4726" r="2.58344" stroke="#E6E6E6" stroke-linecap="round" stroke-linejoin="round"/>
<circle cx="305.415" cy="10.4726" r="2.58344" stroke="#E6E6E6" stroke-linecap="round" stroke-linejoin="round"/>
<circle cx="314.027" cy="10.4726" r="2.58344" stroke="#E6E6E6" stroke-linecap="round" stroke-linejoin="round"/>
<path d="M294.22 19.9452H379.474" stroke="#E6E6E6" stroke-linecap="round" stroke-linejoin="round"/>
<rect x="294.22" y="25.9732" width="17.2229" height="27.5567" rx="1.6" stroke="#E6E6E6" stroke-linecap="round" stroke-linejoin="round"/>
<rect x="316.61" y="25.9732" width="17.2229" height="27.5567" rx="1.6" stroke="#E6E6E6" stroke-linecap="round" stroke-linejoin="round"/>
<rect x="339" y="25.9732" width="17.2229" height="27.5567" rx="1.6" stroke="#E6E6E6" stroke-linecap="round" stroke-linejoin="round"/>
<rect x="361.39" y="25.9732" width="17.2229" height="27.5567" rx="1.6" stroke="#E6E6E6" stroke-linecap="round" stroke-linejoin="round"/>
<rect x="0.999939" y="180.764" width="79.2255" height="57.869" rx="3.84" stroke="#E6E6E6" stroke-linecap="round" stroke-linejoin="round"/>
<circle cx="8.5781" cy="188.342" r="2.06675" stroke="#E6E6E6" stroke-linecap="round" stroke-linejoin="round"/>
<circle cx="15.4672" cy="188.342" r="2.06675" stroke="#E6E6E6" stroke-linecap="round" stroke-linejoin="round"/>
<circle cx="22.3562" cy="188.342" r="2.06675" stroke="#E6E6E6" stroke-linecap="round" stroke-linejoin="round"/>
<path d="M6.51135 195.921H74.7142" stroke="#E6E6E6" stroke-linecap="round" stroke-linejoin="round"/>
<rect x="6.51135" y="200.743" width="13.7783" height="22.0453" rx="1.28" stroke="#E6E6E6" stroke-linecap="round" stroke-linejoin="round"/>
<rect x="24.4231" y="200.743" width="50.5924" height="22.0453" rx="1.28" stroke="#E6E6E6" stroke-linecap="round" stroke-linejoin="round"/>
<rect x="73.1211" y="46.2102" width="123.79" height="90.4204" rx="6" fill="#282F80"/>
<circle cx="84.9618" cy="58.051" r="3.2293" stroke="#4B52A4" stroke-linecap="round" stroke-linejoin="round"/>
<circle cx="95.7262" cy="58.051" r="3.2293" stroke="#4B52A4" stroke-linecap="round" stroke-linejoin="round"/>
<circle cx="106.49" cy="58.051" r="3.2293" stroke="#4B52A4" stroke-linecap="round" stroke-linejoin="round"/>
<rect x="81.7325" y="78.5032" width="106.567" height="45.2102" rx="2" fill="#4B52A4"/>
<path fill-rule="evenodd" clip-rule="evenodd" d="M136.092 90.344H135.016C134.719 90.344 134.478 90.103 134.478 89.8057V89.3257C134.478 88.7896 134.844 88.2923 135.373 88.2062C135.686 88.1529 136.006 88.2402 136.249 88.4448C136.491 88.6493 136.631 88.9504 136.631 89.2675V89.8057C136.631 90.103 136.39 90.344 136.092 90.344ZM131.219 109.72H132.488C132.684 109.72 132.864 109.826 132.959 109.997C133.054 110.168 133.048 110.377 132.945 110.543L131.085 113.52C130.77 114.024 130.106 114.177 129.601 113.862C129.097 113.547 128.944 112.883 129.259 112.379L130.763 109.973C130.861 109.815 131.034 109.72 131.219 109.72ZM143.003 103.508L138.159 95.9726C138.062 95.8217 137.896 95.7293 137.717 95.7261C137.536 95.7181 137.364 95.8061 137.265 95.9576L135.623 98.3236C135.54 98.4455 135.409 98.5275 135.263 98.55C135.117 98.5724 134.968 98.5333 134.852 98.442L134.269 97.9909C134.054 97.8249 133.75 97.8443 133.558 98.0362L128.176 103.418C128.022 103.572 127.976 103.804 128.059 104.005C128.143 104.207 128.339 104.338 128.557 104.338H142.551C142.748 104.337 142.928 104.229 143.022 104.056C143.116 103.884 143.109 103.673 143.003 103.508ZM129.634 98.9554C128.744 98.9554 128.019 98.231 128.019 97.3408C128.019 96.4506 128.744 95.7261 129.634 95.7261C130.524 95.7261 131.248 96.4506 131.248 97.3408C131.248 98.231 130.524 98.9554 129.634 98.9554ZM146.319 93.035V107.029C146.319 107.919 145.594 108.643 144.704 108.643H126.405C125.514 108.643 124.79 107.919 124.79 107.029V93.035C124.79 92.1448 125.514 91.4204 126.405 91.4204H144.704C145.594 91.4204 146.319 92.1448 146.319 93.035ZM141.887 113.454C142.067 113.115 142.053 112.705 141.849 112.379L140.345 109.973C140.247 109.815 140.074 109.72 139.889 109.72H138.62C138.424 109.72 138.244 109.826 138.149 109.997C138.054 110.168 138.06 110.377 138.163 110.543L140.023 113.52C140.227 113.846 140.59 114.038 140.974 114.025C141.358 114.011 141.706 113.794 141.887 113.454Z" fill="#6C72BC"/>
<path d="M179.688 96.8026L183.994 101.108L179.688 105.414" stroke="#6C72BC" stroke-linecap="round" stroke-linejoin="round"/>
<path d="M90.344 96.8026L86.0383 101.108L90.344 105.414" stroke="#6C72BC" stroke-linecap="round" stroke-linejoin="round"/>
<path d="M81.7325 69.8917H188.299" stroke="#4B52A4" stroke-linecap="round" stroke-linejoin="round"/>
<path d="M75.2739 25.758L62.3567 4.22931" stroke="#FFC33F" stroke-width="2" stroke-linecap="round" stroke-linejoin="round"/>
<path d="M60.2039 35.4459L38.6752 19.2994" stroke="#FFC33F" stroke-width="2" stroke-linecap="round" stroke-linejoin="round"/>
<path d="M54.8217 52.6688L27.2126 46.6139" stroke="#FFC33F" stroke-width="2" stroke-linecap="round" stroke-linejoin="round"/>
</svg>
