<?xml version="1.0" standalone="no"?>
<!DOCTYPE svg PUBLIC "-//W3C//DTD SVG 20010904//EN"
 "http://www.w3.org/TR/2001/REC-SVG-20010904/DTD/svg10.dtd">
<svg version="1.0" xmlns="http://www.w3.org/2000/svg"
 width="224.000000pt" height="262.000000pt" viewBox="0 0 224.000000 262.000000"
 preserveAspectRatio="xMidYMid meet">

<g transform="translate(0.000000,262.000000) scale(0.100000,-0.100000)"
fill="#000000" stroke="none">
<path d="M1163 2249 c-26 -17 -36 -18 -54 -9 -12 7 -45 10 -75 8 -64 -5 -117
-42 -135 -93 -7 -19 -17 -35 -22 -35 -14 0 -35 -64 -30 -93 3 -15 15 -35 27
-45 13 -10 27 -39 34 -72 16 -70 83 -250 93 -250 13 0 60 62 56 74 -2 6 -12
13 -23 14 -31 6 -63 42 -70 79 -9 46 17 85 54 81 39 -5 60 -51 77 -172 8 -59
20 -116 25 -126 31 -59 129 -100 237 -100 99 0 132 25 133 101 0 25 -3 48 -6
51 -3 4 -22 -1 -42 -9 -68 -28 -231 2 -270 50 -30 36 -53 186 -36 231 5 12 20
16 58 16 103 1 236 20 276 40 78 40 93 137 29 194 -27 23 -38 27 -68 22 -30
-4 -39 -2 -49 15 -31 50 -160 66 -219 28z"/>
<path d="M805 1317 c-66 -34 -133 -71 -148 -81 -29 -19 -57 -64 -57 -89 0 -23
137 -125 224 -166 83 -40 189 -71 242 -71 l31 0 10 185 c5 102 13 188 16 191
3 3 19 -1 35 -10 29 -15 30 -16 36 -123 3 -59 9 -139 12 -177 l6 -68 56 6
c129 15 286 89 391 183 l54 49 -17 31 c-9 18 -31 43 -48 57 -39 29 -162 95
-235 126 l-53 22 -75 -46 c-41 -26 -79 -44 -85 -41 -6 3 -19 23 -29 43 l-18
36 -16 -30 c-34 -61 -29 -61 -114 -11 -44 26 -84 47 -89 47 -5 -1 -63 -29
-129 -63z"/>
<path d="M860 425 c0 -69 3 -85 15 -85 12 0 15 16 15 85 0 69 -3 85 -15 85
-12 0 -15 -16 -15 -85z"/>
<path d="M1600 483 c0 -26 -3 -28 -37 -28 -29 0 -40 -5 -52 -26 -8 -15 -11
-36 -8 -51 8 -31 57 -55 83 -40 9 5 25 7 35 5 17 -5 19 2 19 81 0 79 -2 86
-20 86 -15 0 -20 -7 -20 -27z m-12 -52 c8 -5 12 -21 10 -37 -2 -23 -8 -29 -28
-29 -18 0 -26 6 -28 23 -3 22 13 52 27 52 3 0 12 -4 19 -9z"/>
<path d="M1830 495 c-10 -12 -10 -15 3 -15 8 0 20 7 27 15 10 12 10 15 -3 15
-8 0 -20 -7 -27 -15z"/>
<path d="M370 420 c0 -73 2 -80 20 -80 13 0 20 7 20 20 0 16 7 20 30 20 41 0
84 42 75 73 -11 35 -35 47 -92 47 l-53 0 0 -80z m108 26 c5 -22 -13 -36 -45
-36 -19 0 -23 5 -23 31 0 28 2 30 32 27 23 -2 34 -9 36 -22z"/>
<path d="M1178 423 c-29 -63 -32 -79 -20 -82 8 -1 19 4 24 13 12 22 84 22 96
0 5 -9 16 -14 25 -13 14 3 11 15 -18 79 -47 103 -62 104 -107 3z m69 7 c11
-29 10 -30 -17 -30 -27 0 -28 1 -17 30 6 17 14 30 17 30 3 0 11 -13 17 -30z"/>
<path d="M545 451 c-7 -12 12 -24 25 -16 13 8 50 -4 50 -16 0 -5 -11 -9 -24
-9 -39 0 -56 -11 -56 -35 0 -34 22 -47 69 -39 l41 7 0 46 c0 26 -5 52 -12 59
-14 14 -84 16 -93 3z m73 -73 c-5 -15 -48 -24 -48 -10 0 14 12 22 33 22 10 0
17 -5 15 -12z"/>
<path d="M690 415 c0 -54 29 -91 63 -80 12 4 32 6 45 6 20 -1 22 3 22 59 0 47
-3 60 -15 60 -10 0 -15 -10 -15 -33 0 -41 -21 -73 -44 -64 -11 5 -16 19 -16
52 0 38 -3 45 -20 45 -17 0 -20 -7 -20 -45z"/>
<path d="M936 438 c-9 -12 -16 -32 -16 -44 0 -25 43 -64 70 -64 55 0 91 78 52
113 -28 25 -87 22 -106 -5z m70 -6 c32 -22 15 -78 -22 -70 -22 4 -31 43 -14
64 14 16 20 17 36 6z"/>
<path d="M1340 398 c0 -51 2 -58 19 -58 16 0 20 8 23 43 3 37 6 42 28 42 22 0
25 -5 28 -42 2 -29 8 -43 18 -43 18 0 20 93 1 108 -7 6 -36 10 -65 10 l-52 -1
0 -59z"/>
<path d="M1680 399 c0 -46 3 -59 15 -59 10 0 15 10 15 29 0 39 9 61 26 61 8 0
14 6 14 14 0 9 -12 14 -35 14 l-35 0 0 -59z"/>
<path d="M1786 441 c-41 -45 14 -125 71 -105 34 11 27 29 -11 29 -16 0 -31 6
-33 13 -3 8 9 12 41 12 38 0 46 3 46 18 0 47 -81 70 -114 33z m74 -16 c11 -13
7 -15 -25 -15 -32 0 -36 2 -25 15 7 8 18 15 25 15 7 0 18 -7 25 -15z"/>
</g>
</svg>
