<svg width="300" height="54" viewBox="0 0 300 54" fill="none" xmlns="http://www.w3.org/2000/svg">
<rect width="300" height="54" rx="27" fill="#3B5998"/>
<path d="M0 27C0 12.0883 12.0883 0 27 0H52V54H27C12.0883 54 0 41.9117 0 27Z" fill="#263C68"/>
<path d="M37.8402 16H19.1591C18.5194 16 18 16.5183 18 17.1591V35.8402C18 36.481 18.5194 37 19.1591 37H29.2165V28.8676H26.4799V25.6978H29.2165V23.3603C29.2165 20.6483 30.8724 19.1708 33.2922 19.1708C34.4523 19.1708 35.4471 19.2576 35.7372 19.2953V22.13L34.0588 22.1307C32.7431 22.1307 32.4893 22.7562 32.4893 23.6736V25.6967H35.6283L35.2178 28.8662H32.4889V36.999H37.8399C38.4803 36.999 39 36.4793 39 35.8402V17.1584C38.9997 16.5183 38.4806 16 37.8402 16Z" fill="white"/>
<path d="M75.2186 21.8H77.8106V30.888H83.4266V33H75.2186V21.8ZM90.1114 33.192C88.9487 33.192 87.898 32.9413 86.9594 32.44C86.0314 31.9387 85.3007 31.2507 84.7674 30.376C84.2447 29.4907 83.9834 28.4987 83.9834 27.4C83.9834 26.3013 84.2447 25.3147 84.7674 24.44C85.3007 23.5547 86.0314 22.8613 86.9594 22.36C87.898 21.8587 88.9487 21.608 90.1114 21.608C91.274 21.608 92.3194 21.8587 93.2474 22.36C94.1754 22.8613 94.906 23.5547 95.4394 24.44C95.9727 25.3147 96.2394 26.3013 96.2394 27.4C96.2394 28.4987 95.9727 29.4907 95.4394 30.376C94.906 31.2507 94.1754 31.9387 93.2474 32.44C92.3194 32.9413 91.274 33.192 90.1114 33.192ZM90.1114 30.984C90.7727 30.984 91.37 30.8347 91.9034 30.536C92.4367 30.2267 92.8527 29.8 93.1514 29.256C93.4607 28.712 93.6154 28.0933 93.6154 27.4C93.6154 26.7067 93.4607 26.088 93.1514 25.544C92.8527 25 92.4367 24.5787 91.9034 24.28C91.37 23.9707 90.7727 23.816 90.1114 23.816C89.45 23.816 88.8527 23.9707 88.3194 24.28C87.786 24.5787 87.3647 25 87.0554 25.544C86.7567 26.088 86.6074 26.7067 86.6074 27.4C86.6074 28.0933 86.7567 28.712 87.0554 29.256C87.3647 29.8 87.786 30.2267 88.3194 30.536C88.8527 30.8347 89.45 30.984 90.1114 30.984ZM105.755 27.224H108.123V31.768C107.515 32.2267 106.811 32.5787 106.011 32.824C105.211 33.0693 104.406 33.192 103.595 33.192C102.433 33.192 101.387 32.9467 100.459 32.456C99.5314 31.9547 98.8007 31.2667 98.2674 30.392C97.7447 29.5067 97.4834 28.5093 97.4834 27.4C97.4834 26.2907 97.7447 25.2987 98.2674 24.424C98.8007 23.5387 99.5367 22.8507 100.475 22.36C101.414 21.8587 102.47 21.608 103.643 21.608C104.625 21.608 105.515 21.7733 106.315 22.104C107.115 22.4347 107.787 22.9147 108.331 23.544L106.667 25.08C105.867 24.2373 104.902 23.816 103.771 23.816C103.057 23.816 102.422 23.9653 101.867 24.264C101.313 24.5627 100.881 24.984 100.571 25.528C100.262 26.072 100.107 26.696 100.107 27.4C100.107 28.0933 100.262 28.712 100.571 29.256C100.881 29.8 101.307 30.2267 101.851 30.536C102.406 30.8347 103.035 30.984 103.739 30.984C104.486 30.984 105.158 30.824 105.755 30.504V27.224ZM110.531 21.8H113.123V33H110.531V21.8ZM126.053 21.8V33H123.925L118.341 26.2V33H115.781V21.8H117.925L123.493 28.6V21.8H126.053ZM138.594 33.192C137.453 33.192 136.418 32.9467 135.49 32.456C134.573 31.9547 133.848 31.2667 133.314 30.392C132.792 29.5067 132.53 28.5093 132.53 27.4C132.53 26.2907 132.792 25.2987 133.314 24.424C133.848 23.5387 134.573 22.8507 135.49 22.36C136.418 21.8587 137.458 21.608 138.61 21.608C139.581 21.608 140.456 21.7787 141.234 22.12C142.024 22.4613 142.685 22.952 143.218 23.592L141.554 25.128C140.797 24.2533 139.858 23.816 138.738 23.816C138.045 23.816 137.426 23.9707 136.882 24.28C136.338 24.5787 135.912 25 135.602 25.544C135.304 26.088 135.154 26.7067 135.154 27.4C135.154 28.0933 135.304 28.712 135.602 29.256C135.912 29.8 136.338 30.2267 136.882 30.536C137.426 30.8347 138.045 30.984 138.738 30.984C139.858 30.984 140.797 30.5413 141.554 29.656L143.218 31.192C142.685 31.8427 142.024 32.3387 141.234 32.68C140.445 33.0213 139.565 33.192 138.594 33.192ZM150.158 33.192C148.996 33.192 147.945 32.9413 147.006 32.44C146.078 31.9387 145.348 31.2507 144.814 30.376C144.292 29.4907 144.03 28.4987 144.03 27.4C144.03 26.3013 144.292 25.3147 144.814 24.44C145.348 23.5547 146.078 22.8613 147.006 22.36C147.945 21.8587 148.996 21.608 150.158 21.608C151.321 21.608 152.366 21.8587 153.294 22.36C154.222 22.8613 154.953 23.5547 155.486 24.44C156.02 25.3147 156.286 26.3013 156.286 27.4C156.286 28.4987 156.02 29.4907 155.486 30.376C154.953 31.2507 154.222 31.9387 153.294 32.44C152.366 32.9413 151.321 33.192 150.158 33.192ZM150.158 30.984C150.82 30.984 151.417 30.8347 151.95 30.536C152.484 30.2267 152.9 29.8 153.198 29.256C153.508 28.712 153.662 28.0933 153.662 27.4C153.662 26.7067 153.508 26.088 153.198 25.544C152.9 25 152.484 24.5787 151.95 24.28C151.417 23.9707 150.82 23.816 150.158 23.816C149.497 23.816 148.9 23.9707 148.366 24.28C147.833 24.5787 147.412 25 147.102 25.544C146.804 26.088 146.654 26.7067 146.654 27.4C146.654 28.0933 146.804 28.712 147.102 29.256C147.412 29.8 147.833 30.2267 148.366 30.536C148.9 30.8347 149.497 30.984 150.158 30.984ZM168.426 33L168.41 26.28L165.114 31.816H163.946L160.666 26.424V33H158.234V21.8H160.378L164.57 28.76L168.698 21.8H170.826L170.858 33H168.426ZM180.639 23.88V26.84H185.823V28.92H180.639V33H178.047V21.8H186.511V23.88H180.639ZM195.173 30.6H189.973L188.981 33H186.325L191.317 21.8H193.877L198.885 33H196.165L195.173 30.6ZM194.357 28.632L192.581 24.344L190.805 28.632H194.357ZM205.251 33.192C204.109 33.192 203.075 32.9467 202.147 32.456C201.229 31.9547 200.504 31.2667 199.971 30.392C199.448 29.5067 199.187 28.5093 199.187 27.4C199.187 26.2907 199.448 25.2987 199.971 24.424C200.504 23.5387 201.229 22.8507 202.147 22.36C203.075 21.8587 204.115 21.608 205.267 21.608C206.237 21.608 207.112 21.7787 207.891 22.12C208.68 22.4613 209.341 22.952 209.875 23.592L208.211 25.128C207.453 24.2533 206.515 23.816 205.395 23.816C204.701 23.816 204.083 23.9707 203.539 24.28C202.995 24.5787 202.568 25 202.259 25.544C201.96 26.088 201.811 26.7067 201.811 27.4C201.811 28.0933 201.96 28.712 202.259 29.256C202.568 29.8 202.995 30.2267 203.539 30.536C204.083 30.8347 204.701 30.984 205.395 30.984C206.515 30.984 207.453 30.5413 208.211 29.656L209.875 31.192C209.341 31.8427 208.68 32.3387 207.891 32.68C207.101 33.0213 206.221 33.192 205.251 33.192ZM220.297 30.92V33H211.625V21.8H220.089V23.88H214.201V26.312H219.401V28.328H214.201V30.92H220.297ZM230.583 27.176C231.223 27.3787 231.725 27.72 232.087 28.2C232.45 28.6693 232.631 29.2507 232.631 29.944C232.631 30.9253 232.247 31.6827 231.479 32.216C230.722 32.7387 229.613 33 228.151 33H222.359V21.8H227.831C229.197 21.8 230.242 22.0613 230.967 22.584C231.703 23.1067 232.071 23.816 232.071 24.712C232.071 25.256 231.938 25.7413 231.671 26.168C231.415 26.5947 231.053 26.9307 230.583 27.176ZM224.935 23.752V26.392H227.511C228.151 26.392 228.637 26.28 228.967 26.056C229.298 25.832 229.463 25.5013 229.463 25.064C229.463 24.6267 229.298 24.3013 228.967 24.088C228.637 23.864 228.151 23.752 227.511 23.752H224.935ZM227.959 31.048C228.642 31.048 229.154 30.936 229.495 30.712C229.847 30.488 230.023 30.1413 230.023 29.672C230.023 28.744 229.335 28.28 227.959 28.28H224.935V31.048H227.959ZM240.018 33.192C238.855 33.192 237.804 32.9413 236.866 32.44C235.938 31.9387 235.207 31.2507 234.674 30.376C234.151 29.4907 233.89 28.4987 233.89 27.4C233.89 26.3013 234.151 25.3147 234.674 24.44C235.207 23.5547 235.938 22.8613 236.866 22.36C237.804 21.8587 238.855 21.608 240.018 21.608C241.18 21.608 242.226 21.8587 243.154 22.36C244.082 22.8613 244.812 23.5547 245.346 24.44C245.879 25.3147 246.146 26.3013 246.146 27.4C246.146 28.4987 245.879 29.4907 245.346 30.376C244.812 31.2507 244.082 31.9387 243.154 32.44C242.226 32.9413 241.18 33.192 240.018 33.192ZM240.018 30.984C240.679 30.984 241.276 30.8347 241.81 30.536C242.343 30.2267 242.759 29.8 243.058 29.256C243.367 28.712 243.522 28.0933 243.522 27.4C243.522 26.7067 243.367 26.088 243.058 25.544C242.759 25 242.343 24.5787 241.81 24.28C241.276 23.9707 240.679 23.816 240.018 23.816C239.356 23.816 238.759 23.9707 238.226 24.28C237.692 24.5787 237.271 25 236.962 25.544C236.663 26.088 236.514 26.7067 236.514 27.4C236.514 28.0933 236.663 28.712 236.962 29.256C237.271 29.8 237.692 30.2267 238.226 30.536C238.759 30.8347 239.356 30.984 240.018 30.984ZM253.518 33.192C252.355 33.192 251.304 32.9413 250.366 32.44C249.438 31.9387 248.707 31.2507 248.174 30.376C247.651 29.4907 247.39 28.4987 247.39 27.4C247.39 26.3013 247.651 25.3147 248.174 24.44C248.707 23.5547 249.438 22.8613 250.366 22.36C251.304 21.8587 252.355 21.608 253.518 21.608C254.68 21.608 255.726 21.8587 256.654 22.36C257.582 22.8613 258.312 23.5547 258.846 24.44C259.379 25.3147 259.646 26.3013 259.646 27.4C259.646 28.4987 259.379 29.4907 258.846 30.376C258.312 31.2507 257.582 31.9387 256.654 32.44C255.726 32.9413 254.68 33.192 253.518 33.192ZM253.518 30.984C254.179 30.984 254.776 30.8347 255.31 30.536C255.843 30.2267 256.259 29.8 256.558 29.256C256.867 28.712 257.022 28.0933 257.022 27.4C257.022 26.7067 256.867 26.088 256.558 25.544C256.259 25 255.843 24.5787 255.31 24.28C254.776 23.9707 254.179 23.816 253.518 23.816C252.856 23.816 252.259 23.9707 251.726 24.28C251.192 24.5787 250.771 25 250.462 25.544C250.163 26.088 250.014 26.7067 250.014 27.4C250.014 28.0933 250.163 28.712 250.462 29.256C250.771 29.8 251.192 30.2267 251.726 30.536C252.259 30.8347 252.856 30.984 253.518 30.984ZM265.674 28.6L264.17 30.168V33H261.594V21.8H264.17V27.032L269.13 21.8H272.01L267.37 26.792L272.282 33H269.258L265.674 28.6Z" fill="white"/>
</svg>
