<svg width="300" height="54" viewBox="0 0 300 54" fill="none" xmlns="http://www.w3.org/2000/svg">
<rect width="300" height="54" rx="27" fill="#F44336"/>
<path d="M0 27C0 12.0883 12.0883 0 27 0H52V54H27C12.0883 54 0 41.9117 0 27Z" fill="#C53126"/>
<path d="M88.3749 21.8H90.9669V30.888H96.5829V33H88.3749V21.8ZM103.268 33.192C102.105 33.192 101.054 32.9413 100.116 32.44C99.1876 31.9387 98.457 31.2507 97.9236 30.376C97.401 29.4907 97.1396 28.4987 97.1396 27.4C97.1396 26.3013 97.401 25.3147 97.9236 24.44C98.457 23.5547 99.1876 22.8613 100.116 22.36C101.054 21.8587 102.105 21.608 103.268 21.608C104.43 21.608 105.476 21.8587 106.404 22.36C107.332 22.8613 108.062 23.5547 108.596 24.44C109.129 25.3147 109.396 26.3013 109.396 27.4C109.396 28.4987 109.129 29.4907 108.596 30.376C108.062 31.2507 107.332 31.9387 106.404 32.44C105.476 32.9413 104.43 33.192 103.268 33.192ZM103.268 30.984C103.929 30.984 104.526 30.8347 105.06 30.536C105.593 30.2267 106.009 29.8 106.308 29.256C106.617 28.712 106.772 28.0933 106.772 27.4C106.772 26.7067 106.617 26.088 106.308 25.544C106.009 25 105.593 24.5787 105.06 24.28C104.526 23.9707 103.929 23.816 103.268 23.816C102.606 23.816 102.009 23.9707 101.476 24.28C100.942 24.5787 100.521 25 100.212 25.544C99.913 26.088 99.7636 26.7067 99.7636 27.4C99.7636 28.0933 99.913 28.712 100.212 29.256C100.521 29.8 100.942 30.2267 101.476 30.536C102.009 30.8347 102.606 30.984 103.268 30.984ZM118.912 27.224H121.28V31.768C120.672 32.2267 119.968 32.5787 119.168 32.824C118.368 33.0693 117.562 33.192 116.752 33.192C115.589 33.192 114.544 32.9467 113.616 32.456C112.688 31.9547 111.957 31.2667 111.424 30.392C110.901 29.5067 110.64 28.5093 110.64 27.4C110.64 26.2907 110.901 25.2987 111.424 24.424C111.957 23.5387 112.693 22.8507 113.632 22.36C114.57 21.8587 115.626 21.608 116.8 21.608C117.781 21.608 118.672 21.7733 119.472 22.104C120.272 22.4347 120.944 22.9147 121.488 23.544L119.824 25.08C119.024 24.2373 118.058 23.816 116.928 23.816C116.213 23.816 115.578 23.9653 115.024 24.264C114.469 24.5627 114.037 24.984 113.728 25.528C113.418 26.072 113.264 26.696 113.264 27.4C113.264 28.0933 113.418 28.712 113.728 29.256C114.037 29.8 114.464 30.2267 115.008 30.536C115.562 30.8347 116.192 30.984 116.896 30.984C117.642 30.984 118.314 30.824 118.912 30.504V27.224ZM123.687 21.8H126.279V33H123.687V21.8ZM139.209 21.8V33H137.081L131.497 26.2V33H128.937V21.8H131.081L136.649 28.6V21.8H139.209ZM151.751 33.192C150.609 33.192 149.575 32.9467 148.647 32.456C147.729 31.9547 147.004 31.2667 146.471 30.392C145.948 29.5067 145.687 28.5093 145.687 27.4C145.687 26.2907 145.948 25.2987 146.471 24.424C147.004 23.5387 147.729 22.8507 148.647 22.36C149.575 21.8587 150.615 21.608 151.767 21.608C152.737 21.608 153.612 21.7787 154.391 22.12C155.18 22.4613 155.841 22.952 156.375 23.592L154.711 25.128C153.953 24.2533 153.015 23.816 151.895 23.816C151.201 23.816 150.583 23.9707 150.039 24.28C149.495 24.5787 149.068 25 148.759 25.544C148.46 26.088 148.311 26.7067 148.311 27.4C148.311 28.0933 148.46 28.712 148.759 29.256C149.068 29.8 149.495 30.2267 150.039 30.536C150.583 30.8347 151.201 30.984 151.895 30.984C153.015 30.984 153.953 30.5413 154.711 29.656L156.375 31.192C155.841 31.8427 155.18 32.3387 154.391 32.68C153.601 33.0213 152.721 33.192 151.751 33.192ZM163.315 33.192C162.152 33.192 161.101 32.9413 160.163 32.44C159.235 31.9387 158.504 31.2507 157.971 30.376C157.448 29.4907 157.187 28.4987 157.187 27.4C157.187 26.3013 157.448 25.3147 157.971 24.44C158.504 23.5547 159.235 22.8613 160.163 22.36C161.101 21.8587 162.152 21.608 163.315 21.608C164.477 21.608 165.523 21.8587 166.451 22.36C167.379 22.8613 168.109 23.5547 168.643 24.44C169.176 25.3147 169.443 26.3013 169.443 27.4C169.443 28.4987 169.176 29.4907 168.643 30.376C168.109 31.2507 167.379 31.9387 166.451 32.44C165.523 32.9413 164.477 33.192 163.315 33.192ZM163.315 30.984C163.976 30.984 164.573 30.8347 165.107 30.536C165.64 30.2267 166.056 29.8 166.355 29.256C166.664 28.712 166.819 28.0933 166.819 27.4C166.819 26.7067 166.664 26.088 166.355 25.544C166.056 25 165.64 24.5787 165.107 24.28C164.573 23.9707 163.976 23.816 163.315 23.816C162.653 23.816 162.056 23.9707 161.523 24.28C160.989 24.5787 160.568 25 160.259 25.544C159.96 26.088 159.811 26.7067 159.811 27.4C159.811 28.0933 159.96 28.712 160.259 29.256C160.568 29.8 160.989 30.2267 161.523 30.536C162.056 30.8347 162.653 30.984 163.315 30.984ZM181.583 33L181.567 26.28L178.271 31.816H177.103L173.823 26.424V33H171.391V21.8H173.535L177.727 28.76L181.855 21.8H183.983L184.015 33H181.583ZM198.771 27.224H201.139V31.768C200.531 32.2267 199.827 32.5787 199.027 32.824C198.227 33.0693 197.422 33.192 196.611 33.192C195.448 33.192 194.403 32.9467 193.475 32.456C192.547 31.9547 191.816 31.2667 191.283 30.392C190.76 29.5067 190.499 28.5093 190.499 27.4C190.499 26.2907 190.76 25.2987 191.283 24.424C191.816 23.5387 192.552 22.8507 193.491 22.36C194.43 21.8587 195.486 21.608 196.659 21.608C197.64 21.608 198.531 21.7733 199.331 22.104C200.131 22.4347 200.803 22.9147 201.347 23.544L199.683 25.08C198.883 24.2373 197.918 23.816 196.787 23.816C196.072 23.816 195.438 23.9653 194.883 24.264C194.328 24.5627 193.896 24.984 193.587 25.528C193.278 26.072 193.123 26.696 193.123 27.4C193.123 28.0933 193.278 28.712 193.587 29.256C193.896 29.8 194.323 30.2267 194.867 30.536C195.422 30.8347 196.051 30.984 196.755 30.984C197.502 30.984 198.174 30.824 198.771 30.504V27.224ZM208.971 33.192C207.808 33.192 206.757 32.9413 205.819 32.44C204.891 31.9387 204.16 31.2507 203.627 30.376C203.104 29.4907 202.843 28.4987 202.843 27.4C202.843 26.3013 203.104 25.3147 203.627 24.44C204.16 23.5547 204.891 22.8613 205.819 22.36C206.757 21.8587 207.808 21.608 208.971 21.608C210.133 21.608 211.179 21.8587 212.107 22.36C213.035 22.8613 213.765 23.5547 214.299 24.44C214.832 25.3147 215.099 26.3013 215.099 27.4C215.099 28.4987 214.832 29.4907 214.299 30.376C213.765 31.2507 213.035 31.9387 212.107 32.44C211.179 32.9413 210.133 33.192 208.971 33.192ZM208.971 30.984C209.632 30.984 210.229 30.8347 210.763 30.536C211.296 30.2267 211.712 29.8 212.011 29.256C212.32 28.712 212.475 28.0933 212.475 27.4C212.475 26.7067 212.32 26.088 212.011 25.544C211.712 25 211.296 24.5787 210.763 24.28C210.229 23.9707 209.632 23.816 208.971 23.816C208.309 23.816 207.712 23.9707 207.179 24.28C206.645 24.5787 206.224 25 205.915 25.544C205.616 26.088 205.467 26.7067 205.467 27.4C205.467 28.0933 205.616 28.712 205.915 29.256C206.224 29.8 206.645 30.2267 207.179 30.536C207.712 30.8347 208.309 30.984 208.971 30.984ZM222.471 33.192C221.308 33.192 220.257 32.9413 219.319 32.44C218.391 31.9387 217.66 31.2507 217.127 30.376C216.604 29.4907 216.343 28.4987 216.343 27.4C216.343 26.3013 216.604 25.3147 217.127 24.44C217.66 23.5547 218.391 22.8613 219.319 22.36C220.257 21.8587 221.308 21.608 222.471 21.608C223.633 21.608 224.679 21.8587 225.607 22.36C226.535 22.8613 227.265 23.5547 227.799 24.44C228.332 25.3147 228.599 26.3013 228.599 27.4C228.599 28.4987 228.332 29.4907 227.799 30.376C227.265 31.2507 226.535 31.9387 225.607 32.44C224.679 32.9413 223.633 33.192 222.471 33.192ZM222.471 30.984C223.132 30.984 223.729 30.8347 224.263 30.536C224.796 30.2267 225.212 29.8 225.511 29.256C225.82 28.712 225.975 28.0933 225.975 27.4C225.975 26.7067 225.82 26.088 225.511 25.544C225.212 25 224.796 24.5787 224.263 24.28C223.729 23.9707 223.132 23.816 222.471 23.816C221.809 23.816 221.212 23.9707 220.679 24.28C220.145 24.5787 219.724 25 219.415 25.544C219.116 26.088 218.967 26.7067 218.967 27.4C218.967 28.0933 219.116 28.712 219.415 29.256C219.724 29.8 220.145 30.2267 220.679 30.536C221.212 30.8347 221.809 30.984 222.471 30.984ZM238.115 27.224H240.483V31.768C239.875 32.2267 239.171 32.5787 238.371 32.824C237.571 33.0693 236.765 33.192 235.955 33.192C234.792 33.192 233.747 32.9467 232.819 32.456C231.891 31.9547 231.16 31.2667 230.627 30.392C230.104 29.5067 229.843 28.5093 229.843 27.4C229.843 26.2907 230.104 25.2987 230.627 24.424C231.16 23.5387 231.896 22.8507 232.835 22.36C233.773 21.8587 234.829 21.608 236.003 21.608C236.984 21.608 237.875 21.7733 238.675 22.104C239.475 22.4347 240.147 22.9147 240.691 23.544L239.027 25.08C238.227 24.2373 237.261 23.816 236.131 23.816C235.416 23.816 234.781 23.9653 234.227 24.264C233.672 24.5627 233.24 24.984 232.931 25.528C232.621 26.072 232.467 26.696 232.467 27.4C232.467 28.0933 232.621 28.712 232.931 29.256C233.24 29.8 233.667 30.2267 234.211 30.536C234.765 30.8347 235.395 30.984 236.099 30.984C236.845 30.984 237.517 30.824 238.115 30.504V27.224ZM242.891 21.8H245.483V30.888H251.099V33H242.891V21.8ZM261.219 30.92V33H252.547V21.8H261.011V23.88H255.123V26.312H260.323V28.328H255.123V30.92H261.219Z" fill="white"/>
<path d="M36.7869 24.2632H28.075V28.2895H32.4565C31.8675 29.9595 30.44 30.9737 28.616 30.9737C26.1773 30.9737 24.0375 28.8823 24.0375 26.4982C24.0375 24.116 26.1773 22.0264 28.616 22.0264C29.7819 22.0264 30.7675 22.3977 31.4664 23.0996L31.7836 23.4185L34.788 20.4225L34.4614 20.1062C33.0393 18.7283 31.0183 18 28.616 18C23.7849 18.0001 20 21.7329 20 26.4982C20 31.2654 23.7849 35 28.616 35C33.0693 35 36.2334 32.3945 36.8735 28.2005C36.9569 27.6564 36.9996 27.0838 37 26.4982C37 25.8554 36.9448 25.1579 36.8524 24.6331L36.7869 24.2632Z" fill="white"/>
</svg>
