<svg width="455" height="530" viewBox="0 0 455 530" fill="none" xmlns="http://www.w3.org/2000/svg">
<g clip-path="url(#clip0)">
<path d="M15.279 140.878C23.0502 118.73 37.3687 100.001 52.8649 82.3452C68.3611 64.6896 93.8919 53.385 117.044 49.2858C160.369 41.6185 206.904 72.7495 216.349 115.705C220.645 135.243 218.058 155.519 217.931 175.519C217.804 195.519 220.749 216.881 233.866 231.985C252.342 253.243 284.466 255.298 312.387 251.822C340.308 248.347 369.141 241.049 396.057 249.294C436.738 261.741 460.132 309.466 452.696 351.359C445.26 393.252 412.454 427.57 373.875 445.491C335.296 463.412 291.556 467.015 248.011 467.523L199.225 468.458C124.261 458.816 64.4698 422.42 30.5674 361.855C-3.33499 301.29 -7.66516 206.385 15.279 140.878Z" fill="url(#paint0_linear)"/>
<path fill-rule="evenodd" clip-rule="evenodd" d="M361.827 17.5773C369.897 34.2704 367.744 39.8776 374.549 52.8498C381.355 65.8221 390.067 81.3992 390.067 81.3992C390.067 81.3992 401.541 111.77 372.607 126.214C343.674 140.657 294.193 120.879 294.193 120.879C294.193 120.879 274.028 92.1505 285.197 73.4602C286.227 71.738 291.577 48.7061 292.86 30.904C293.566 21.0992 304.896 0.949463 326.814 0.949463C344.829 0.949463 358.201 10.0783 361.827 17.5773Z" fill="url(#paint1_linear)"/>
<path d="M353.419 39.7775C353.419 39.7775 353.419 59.7641 353.419 70.4125C353.419 80.5942 357.482 89.7199 357.482 89.7199C357.332 99.2643 354.2 134.353 343.991 134.054L326.952 155.366C316.626 155.133 320.044 107.547 320.477 98.5384C321.194 83.6131 321.842 73.3224 321.826 73.4056C321.809 73.4887 304.765 48.4332 305.514 37.093C306.179 26.9001 353.495 36.6657 353.419 39.7775Z" fill="#FFBE9D"/>
<g filter="url(#filter0_f)">
<path d="M321.826 78.4686C329.836 78.6131 337.728 76.5292 344.622 72.4493C344.622 72.4493 338.853 84.7011 321.826 83.0383L321.826 78.4686Z" fill="black"/>
</g>
<ellipse cx="329.088" cy="49.9148" rx="25.9936" ry="32.3375" fill="#FFBE9D"/>
<g opacity="0.593796" filter="url(#filter1_d)">
<path fill-rule="evenodd" clip-rule="evenodd" d="M332.332 64.4388C332.332 64.4388 325.314 62.5442 322.328 64.4525C319.341 66.3607 317.105 60.361 317.114 57.1279C317.114 57.1279 316.025 55.9467 314.752 55.406C313.478 54.8653 324.84 44.851 324.84 44.851L332.332 64.4388Z" fill="black" fill-opacity="0.01"/>
</g>
<path d="M317.171 53.8792C317.171 53.8792 317.102 57.0388 315.75 58.1055C314.397 59.1722 317.006 60.7317 318.583 61.059C318.583 61.059 319.005 61.6402 319.088 62.2339C319.112 62.4009 321.491 71.5576 322.275 71.206C322.44 71.1318 323.514 71.3672 324.723 71.0803C327.236 70.4833 330.875 68.9925 331.945 67.3349C332.04 67.1881 332.031 66.9904 332.546 66.5008C333.509 65.5858 335.071 63.8156 335.71 62.3041C336.273 60.9726 336.543 54.1366 336.543 54.1366C336.543 54.1366 331.007 51.8679 328.927 50.4862C324.365 47.4552 322.056 43.9418 321.003 43.3003C318.704 41.8995 317.171 53.8792 317.171 53.8792Z" fill="#FFBE9D"/>
<path fill-rule="evenodd" clip-rule="evenodd" d="M324.406 66.112C324.406 66.112 319.456 67.1629 317.176 66.6077C317.176 66.6077 314.933 67.6573 317.354 69.1125C318.52 69.8128 320.954 70.494 322.767 69.9672C324.721 69.3993 326.011 67.5717 325.887 67.002C325.649 65.9036 324.406 66.112 324.406 66.112Z" fill="#FB5454"/>
<path d="M306.861 50.636C306.853 52.5217 307.567 54.0783 308.473 54.1497C308.899 54.2149 309.32 53.9219 309.642 53.3362C309.964 52.7504 310.16 51.9207 310.186 51.0322C310.201 49.1508 309.49 47.5901 308.587 47.5185C308.158 47.4458 307.734 47.7355 307.409 48.322C307.084 48.9085 306.887 49.7426 306.861 50.636Z" fill="#263238"/>
<path d="M326.814 50.635C326.8 52.5158 327.51 54.0761 328.413 54.1477C328.842 54.2203 329.266 53.9308 329.591 53.3444C329.916 52.758 330.114 51.9243 330.139 51.0311C330.147 49.1459 329.433 47.5898 328.528 47.5185C328.1 47.4459 327.677 47.7361 327.354 48.3232C327.032 48.9103 326.837 49.7442 326.814 50.635Z" fill="#263238"/>
<path fill-rule="evenodd" clip-rule="evenodd" d="M374.364 95.1919C369.823 93.0824 356.939 88.4484 356.939 88.4484C356.939 88.4484 347.812 114.557 341.551 126.21C335.291 137.863 326.975 152.659 326.975 152.659C326.975 152.659 321.173 137.048 320.064 126.21C318.955 115.372 321.194 94.0348 321.194 94.0348C321.194 94.0348 310.525 99.4986 305.621 102.362C300.718 105.225 293.492 110.211 293.492 110.211L293.487 110.412L293.459 110.228C293.459 110.228 281.487 117.744 280.073 136.467C278.66 155.19 274.553 194.265 274.553 194.265L228.876 205.472L233.964 232.875L298.137 214.977L299.212 230.58L373.056 237.148C375.973 237.414 378.864 236.425 381.006 234.428C383.149 232.432 384.339 229.617 384.28 226.689L382.617 144.963C382.617 144.963 393.492 105.206 389.268 103.394C388.642 103.125 387.737 102.566 386.476 101.786C384.005 100.259 380.164 97.8861 374.364 95.1919Z" fill="url(#paint2_linear)"/>
<g opacity="0.483933" filter="url(#filter2_f)">
<path d="M398.073 206.027C392.128 215.293 388.566 223.374 377.567 223.858L351.59 230.597L343.837 203.809C343.837 203.809 348.1 200.213 355.809 197.543C358.942 196.458 374.44 195.622 379.177 184.987C380.421 182.193 375.026 145.795 375.026 145.795C375.026 145.795 384.963 150.583 387.192 146.061C391.277 137.772 402.961 198.434 398.073 206.027Z" fill="black"/>
</g>
<path d="M389.269 103.394C389.269 103.394 403.99 112.285 410.602 133.412C416.144 151.12 415.49 206.044 410.602 213.637C404.657 222.902 394.58 228.7 383.582 229.184L351.59 230.597L343.837 203.81C343.837 203.81 348.1 200.213 355.809 197.543C358.942 196.458 374.44 195.622 379.177 184.987C380.421 182.193 370.327 141.826 370.327 141.826C370.327 141.826 368.099 123.685 370.327 119.163C374.412 110.874 389.269 103.394 389.269 103.394Z" fill="url(#paint3_linear)"/>
<g opacity="0.54348" filter="url(#filter3_f)">
<path d="M319.548 201.847C317.486 200.185 318.749 196.527 321.094 195.196C323.438 193.866 326.265 194.199 328.926 194.132C335.579 193.945 341.98 191.546 347.117 187.315C350.891 184.189 354.283 179.932 359.138 179.283C358.024 183.257 353.236 187.132 349.86 189.51C340.066 196.427 329.275 199.021 317.901 202.961" fill="black"/>
</g>
<g opacity="0.350098" filter="url(#filter4_f)">
<path d="M297.715 165.565C291.364 154.006 291.364 142.206 297.715 130.647C304.066 142.206 304.066 154.006 297.715 165.565Z" fill="#263238"/>
</g>
<g opacity="0.2">
<path d="M348.131 232.493C347.689 230.898 347.917 229.192 348.763 227.77C349.755 226.765 351.126 226.227 352.537 226.29C355.686 226.451 358.789 227.107 361.732 228.236C368.587 230.257 375.726 231.139 382.866 230.846C379.716 233.356 375.85 234.8 371.826 234.97C367.828 235.117 363.826 234.838 359.887 234.139L347.532 232.476" fill="black"/>
</g>
<path d="M261.483 413.441L261.896 481.196L288.737 479.019L294.739 413.021L261.483 413.441Z" fill="#FFBE9D"/>
<path d="M290.834 465.534C290.834 465.534 271.157 481.14 261.629 467.636L259.14 474.172L247.937 520.808C247.154 523.833 248.506 527.037 251.094 528.288C253.051 529.163 255.285 528.685 256.813 527.063C264.918 518.458 294.553 486.65 294.272 482.381L294.153 470.929C294.13 468.553 292.816 466.431 290.834 465.567V465.534Z" fill="url(#paint4_linear)"/>
<path opacity="0.6" d="M250.924 528.602L298.314 478.169V480.68C298.547 483.407 297.366 484.471 296.069 486.217C292.228 491.389 281.619 502.962 256.461 527.105C254.999 528.517 252.924 529.099 250.941 528.652L250.924 528.602Z" fill="white"/>
<path d="M184.128 366.763L153.884 425.205L178.024 439.925L217.07 383.937L184.128 366.763Z" fill="#FFBE9D"/>
<path d="M154.965 415.139L153.944 417.035C153.944 417.035 118.919 410.174 115.341 416.095L171.307 455.256L181.852 433.326C171.212 431.853 162.217 426.261 154.965 415.139Z" fill="url(#paint5_linear)"/>
<g opacity="0.6">
<path d="M174.488 456.553L177.163 450.955L119.775 413.372C119.775 413.372 116.47 412.842 115.64 415.194L174.488 456.553Z" fill="white"/>
</g>
<path d="M223.788 364.9V514.352H233.964V353.011L223.788 364.9Z" fill="#CACACA"/>
<rect x="371.543" y="341.505" width="9.89359" height="172.863" fill="#CACACA"/>
<rect x="233.964" y="364.9" width="137.579" height="11.0409" fill="#CACACA"/>
<rect x="233.964" y="310.211" width="152.245" height="31.277" rx="7.02" fill="url(#paint6_linear)"/>
<path fill-rule="evenodd" clip-rule="evenodd" d="M239.701 240.989L178.938 374.531L211.021 393.544L264.49 313.731L316.44 318.307L316.688 320.388L383.748 324.079C383.748 324.079 389.402 324.079 392.461 298.422C395.521 272.765 374.836 236.051 374.836 236.051L323.406 230.597L309.218 238.549C308.668 238.384 308.118 238.219 307.567 238.056C287.751 232.176 267.547 228.433 261.7 228.153C248.863 227.537 239.701 240.989 239.701 240.989Z" fill="url(#paint7_linear)"/>
<path d="M200.077 152.496L216.838 232.36L295.986 239.692L347.017 236.184L328.527 218.492L307.06 223.081L299.428 145.795L200.077 152.496Z" fill="url(#paint8_linear)"/>
<path d="M310.402 218.259C312.714 224.644 323.605 218.642 323.605 218.642L322.857 230.015L316.072 234.854C316.072 234.854 316.072 237.913 320.545 238.179C322.65 238.462 324.791 238.303 326.831 237.714L327.08 239.227C327.345 240.926 328.786 242.193 330.505 242.237C331.227 242.294 331.952 242.174 332.617 241.887C332.617 241.887 337.373 245.329 341.862 242.835C344.625 241.204 346.655 238.572 347.532 235.486L348.264 226.091L354.017 222.1C354.017 222.1 358.756 213.337 352.82 207.301C349.604 204.188 344.905 203.158 340.682 204.641L331.47 207.7C329.145 207.448 326.81 208.071 324.918 209.446C323.389 210.56 321.477 211.891 319.797 212.888C319.797 212.938 309.92 216.929 310.402 218.259Z" fill="#FFBE9D"/>
<path d="M257.26 189.975C257.26 192.73 255.027 194.963 252.272 194.963C249.517 194.963 247.283 192.73 247.283 189.975C247.283 187.22 249.517 184.987 252.272 184.987C255.027 184.987 257.26 187.22 257.26 189.975Z" fill="#FAFAFA"/>
<path d="M266.954 277.571L266.505 277.837C256.545 283.824 250.676 294.796 251.224 306.403L259.133 416.421L294.739 418.825L306.312 321.601L326.481 319.157L292.877 281.462C286.295 274.101 275.406 272.467 266.954 277.571Z" fill="url(#paint9_linear)"/>
<path fill-rule="evenodd" clip-rule="evenodd" d="M345.291 49.1623C345.291 49.1623 320.667 43.54 316.948 29.0802C316.948 29.0802 307.006 46.7346 300.14 46.7346C300.14 46.7346 298.825 35.7047 298.674 32.3003C298.495 28.2967 299.223 26.1738 299.223 26.1738C299.223 26.1738 300.023 22.2315 300.838 20.8746C302.896 17.4475 305.609 15.8344 307.006 14.6176C311.598 10.6185 320.621 8.71339 321.72 8.74492C323.068 8.78357 332.632 7.62223 341.733 10.0729C350.865 12.5319 359.447 19.9401 360.732 25.4783C360.732 25.4783 368.287 44.5819 367.385 52.8599C367.082 55.6395 354.457 69.1237 354.457 69.1237C354.457 69.1237 352.906 64.4394 352.709 62.4209C352.095 56.1329 352.506 52.1942 351.506 50.8331C349.525 48.136 345.291 49.1623 345.291 49.1623Z" fill="url(#paint10_linear)"/>
<path d="M347.08 47.2725C347.08 47.2725 350.077 46.1469 352.427 46.7814C354.777 47.416 355.253 51.6188 355.253 51.6188C355.253 51.6188 354.057 59.147 350.443 59.147C348.318 59.147 345.776 52.4959 345.324 50.3688C345.046 49.0582 347.08 47.2725 347.08 47.2725Z" fill="#FFBE9D"/>
<ellipse cx="350.925" cy="59.9784" rx="0.83139" ry="2.49418" fill="#D6007A"/>
<ellipse cx="327.646" cy="50.0017" rx="7.48256" ry="7.48254" stroke="#263238" stroke-width="1.872"/>
<ellipse cx="309.355" cy="50.0017" rx="7.48256" ry="7.48254" stroke="#263238" stroke-width="1.872"/>
<path d="M320.995 50.0017H316.006" stroke="#263238" stroke-width="1.872"/>
<path opacity="0.800153" fill-rule="evenodd" clip-rule="evenodd" d="M37.2138 364.07C39.208 363.826 41.3364 363.912 43.1909 364.699C47.1344 366.373 48.2553 371.032 48.2012 374.819C48.1429 378.894 47.2774 383.346 50.3761 386.63C51.8004 388.14 53.5722 389.295 54.9709 390.832C56.4653 392.475 57.638 394.355 58.5062 396.374C60.1004 400.082 60.8829 404.442 59.425 408.332C58.1415 411.757 54.9122 414.848 55.6099 418.742C56.3378 422.804 60.4334 425.91 62.994 428.935C65.8919 432.36 68.56 436.736 68.9984 441.227C69.4187 445.53 67.5454 449.882 64.6706 453.136C58.9266 459.636 50.2926 462.822 41.5868 462.803C37.8905 462.794 33.7057 462.627 30.5159 460.641C29.5301 460.027 29.01 459.338 28.4239 458.381C27.8985 457.522 27.2043 456.964 26.4009 456.356C24.6357 455.021 23.361 453.223 22.5475 451.21C19.3884 443.39 21.9133 433.716 26.3353 426.772C27.3831 425.127 28.2409 423.544 27.7319 421.583C27.2007 419.536 25.8952 417.69 24.7404 415.93C23.5994 414.191 22.2967 412.532 21.4048 410.652C20.4708 408.682 20.2077 406.619 20.3728 404.464C20.683 400.415 22.4309 396.678 24.9057 393.421C27.2894 390.285 30.0882 387.283 30.0944 383.173C30.1013 378.817 27.1891 374.942 28.4298 370.513C28.9435 368.68 29.9753 366.798 31.6381 365.699C33.2328 364.644 35.3383 364.299 37.2138 364.07Z" fill="url(#paint11_linear)"/>
<path fill-rule="evenodd" clip-rule="evenodd" d="M35.9108 371.034C35.9482 370.449 36.6421 370.098 37.1885 370.251C37.9075 370.452 37.8937 371.123 37.8747 371.722C37.8165 373.562 38.0829 375.35 38.5252 377.136C39.4444 380.847 41.1434 384.267 42.4894 387.833C43.8342 391.396 44.4655 395.074 43.6766 398.843C42.9329 402.398 41.7645 405.86 41.0033 409.419C40.3324 412.555 39.6186 415.863 40.6403 418.992C41.6233 422.003 43.7968 424.456 45.3619 427.177C48.6018 432.811 50.0392 439.061 50.2315 445.493C50.3206 448.48 50.2403 451.494 49.5475 454.423C49.1487 456.11 48.6127 458.389 47.1674 459.554C46.5009 460.091 45.3609 460.277 44.8 459.481C44.2733 458.736 44.7353 457.581 44.9025 456.786C45.6266 453.344 45.7723 449.827 45.5989 446.333C45.4311 442.948 45.0312 439.569 43.9659 436.337C42.9772 433.337 41.4752 430.642 39.7073 428.018C37.9059 425.344 36.0332 422.664 35.2889 419.495C34.5326 416.276 35.147 413.002 35.9685 409.845C36.8373 406.506 37.9753 403.262 39.1517 400.014C40.2982 396.848 40.7046 393.853 40.0717 390.54C38.8214 383.994 35.4747 377.85 35.9108 371.034Z" fill="url(#paint12_linear)"/>
<path opacity="0.597447" fill-rule="evenodd" clip-rule="evenodd" d="M89.867 372.012C92.3347 372.762 94.7857 373.971 96.5448 375.866C100.285 379.898 99.1376 385.99 97.0727 390.44C94.8501 395.23 91.482 400.044 93.3807 405.54C94.2533 408.066 95.7208 410.354 96.5486 412.9C97.4331 415.62 97.8148 418.454 97.7662 421.293C97.6761 426.507 96.2891 432.071 92.5233 435.913C89.2077 439.295 83.7862 441.27 82.5464 446.239C81.2529 451.422 84.4151 457.225 85.8192 462.135C87.4082 467.693 88.2245 474.256 86.365 479.795C84.5834 485.103 80.0857 489.276 74.9943 491.627C64.8215 496.327 53.0103 495.604 42.8097 491.051C38.4789 489.118 33.6586 486.744 30.9673 482.735C30.1355 481.496 29.8895 480.411 29.7083 478.974C29.5458 477.685 29.0268 476.664 28.4056 475.527C27.0406 473.031 26.4961 470.241 26.606 467.436C27.034 456.545 35.1087 446.418 43.9656 440.506C46.0641 439.106 47.9071 437.68 48.3465 435.096C48.8055 432.399 48.2501 429.536 47.8257 426.854C47.4065 424.204 46.7555 421.565 46.7032 418.877C46.6487 416.062 47.4304 413.486 48.7634 411.022C51.2675 406.395 55.2928 402.885 59.9167 400.321C64.3704 397.852 69.2396 395.758 71.4193 390.901C73.7299 385.753 72.3623 379.655 76.1583 375.063C77.7302 373.161 79.9349 371.473 82.4664 371.038C84.8941 370.62 87.5461 371.308 89.867 372.012Z" fill="url(#paint13_linear)"/>
<path fill-rule="evenodd" clip-rule="evenodd" d="M84.8262 380.525C85.1763 379.852 86.1715 379.8 86.7304 380.268C87.4659 380.882 87.0979 381.671 86.7621 382.37C85.7304 384.518 85.1053 386.776 84.6875 389.122C83.8184 393.999 84.0139 398.94 83.7205 403.868C83.4272 408.791 82.239 413.478 79.3421 417.529C76.611 421.348 73.4315 424.836 70.6777 428.651C68.2505 432.014 65.6834 435.557 65.2395 439.798C64.8118 443.88 66.0688 447.923 66.4735 451.966C67.3115 460.336 65.7189 468.491 62.5752 476.209C61.1152 479.792 59.4428 483.32 57.0984 486.426C55.7487 488.214 53.9283 490.633 51.6283 491.254C50.5677 491.541 49.1375 491.163 48.8981 489.927C48.6729 488.768 49.8179 487.643 50.4297 486.789C53.0788 483.093 55.091 479.004 56.7184 474.775C58.2949 470.679 59.597 466.468 60.0444 462.081C60.4594 458.01 60.1142 454.032 59.4215 449.998C58.7157 445.887 57.9295 441.731 58.7187 437.589C59.52 433.381 61.9535 429.825 64.5674 426.517C67.3321 423.018 70.3613 419.774 73.4384 416.543C76.4369 413.395 78.4807 410.061 79.4758 405.806C81.4419 397.399 80.7463 388.369 84.8262 380.525Z" fill="url(#paint14_linear)"/>
<path opacity="0.803502" fill-rule="evenodd" clip-rule="evenodd" d="M13.5784 402.934C17.6817 402.934 21.2892 405.109 23.775 408.195C26.6848 411.808 27.2725 416.221 28.4541 420.527C29.0421 422.67 30.0533 424.797 31.8254 426.253C33.4373 427.577 35.4835 427.842 37.4128 428.489C41.2686 429.782 44.3821 432.897 45.6117 436.697C47.1118 441.332 45.5229 446.007 45.7965 450.705C46.0476 455.019 50.3014 457.711 53.7239 459.779C57.0986 461.818 60.1387 463.727 61.1551 467.7C62.233 471.914 62.5946 476.617 61.1017 480.779C58.6162 487.71 51.3421 490.762 44.3135 491.235C37.9347 491.665 29.9142 490.99 25.1238 486.36C22.2573 483.59 21.2192 479.714 21.348 475.859C21.428 473.462 21.903 471.086 22.517 468.77C22.9521 467.128 23.5401 465.493 23.7076 463.796C24.1528 459.282 19.9806 458.415 16.4291 457.175C11.9162 455.6 8.75678 452.625 6.55981 448.48C4.51383 444.62 3.65539 440.288 4.88189 436.039C5.5083 433.869 6.64447 431.9 8.18534 430.226C8.86363 429.489 9.81964 428.875 10.4319 428.1C11.0033 427.377 10.8789 426.44 10.682 425.594C9.77138 421.682 6.93432 418.442 5.91972 414.538C5.00371 411.013 5.54521 406.626 8.76762 404.353C10.1598 403.37 11.8767 402.945 13.5784 402.934Z" fill="url(#paint15_linear)"/>
<path fill-rule="evenodd" clip-rule="evenodd" d="M19.1697 413.126C23.5188 417.759 24.7009 424.045 25.0479 430.137C25.2422 433.553 25.0399 437.156 26.0436 440.47C26.9023 443.306 28.9156 445.474 30.9908 447.523C35.168 451.647 39.8267 455.84 41.0485 461.81C41.7654 465.313 41.2815 468.931 42.2721 472.396C43.1728 475.545 44.7587 478.639 46.6877 481.298C48.2408 483.44 50.2643 485.079 51.9621 487.076C52.4801 487.685 53.2221 488.582 53.0083 489.442C52.7581 490.45 51.4749 490.769 50.5644 490.61C48.4416 490.241 46.6547 488.214 45.2667 486.741C43.2371 484.586 41.5124 482.268 40.1106 479.668C38.5544 476.781 37.3013 473.717 36.766 470.478C36.2104 467.118 36.4869 463.616 35.2182 460.391C33.0834 454.964 27.9052 451.762 24.1615 447.532C19.4969 442.262 20.1926 435.703 20.6704 429.22C20.9328 425.657 21.1937 421.634 19.3935 418.381C18.7063 417.139 17.1742 415.982 16.8787 414.57C16.6081 413.277 18.0851 411.971 19.1697 413.126Z" fill="url(#paint16_linear)"/>
<ellipse cx="50.9575" cy="509.445" rx="27.1499" ry="20.1884" fill="url(#paint17_linear)"/>
</g>
<defs>
<filter id="filter0_f" x="301.471" y="52.0948" width="63.5058" height="51.4531" filterUnits="userSpaceOnUse" color-interpolation-filters="sRGB">
<feFlood flood-opacity="0" result="BackgroundImageFix"/>
<feBlend mode="normal" in="SourceGraphic" in2="BackgroundImageFix" result="shape"/>
<feGaussianBlur stdDeviation="10.1772" result="effect1_foregroundBlur"/>
</filter>
<filter id="filter1_d" x="303.652" y="37.851" width="33.6797" height="35.9683" filterUnits="userSpaceOnUse" color-interpolation-filters="sRGB">
<feFlood flood-opacity="0" result="BackgroundImageFix"/>
<feColorMatrix in="SourceAlpha" type="matrix" values="0 0 0 0 0 0 0 0 0 0 0 0 0 0 0 0 0 0 127 0"/>
<feOffset dx="-3" dy="1"/>
<feGaussianBlur stdDeviation="4"/>
<feColorMatrix type="matrix" values="0 0 0 0 0 0 0 0 0 0 0 0 0 0 0 0 0 0 0.251885 0"/>
<feBlend mode="normal" in2="BackgroundImageFix" result="effect1_dropShadow"/>
<feBlend mode="normal" in="SourceGraphic" in2="effect1_dropShadow" result="shape"/>
</filter>
<filter id="filter2_f" x="313.305" y="114.753" width="116.474" height="146.376" filterUnits="userSpaceOnUse" color-interpolation-filters="sRGB">
<feFlood flood-opacity="0" result="BackgroundImageFix"/>
<feBlend mode="normal" in="SourceGraphic" in2="BackgroundImageFix" result="shape"/>
<feGaussianBlur stdDeviation="15.2659" result="effect1_foregroundBlur"/>
</filter>
<filter id="filter3_f" x="297.547" y="158.929" width="81.9461" height="64.3871" filterUnits="userSpaceOnUse" color-interpolation-filters="sRGB">
<feFlood flood-opacity="0" result="BackgroundImageFix"/>
<feBlend mode="normal" in="SourceGraphic" in2="BackgroundImageFix" result="shape"/>
<feGaussianBlur stdDeviation="10.1772" result="effect1_foregroundBlur"/>
</filter>
<filter id="filter4_f" x="277.686" y="115.381" width="40.0583" height="65.4503" filterUnits="userSpaceOnUse" color-interpolation-filters="sRGB">
<feFlood flood-opacity="0" result="BackgroundImageFix"/>
<feBlend mode="normal" in="SourceGraphic" in2="BackgroundImageFix" result="shape"/>
<feGaussianBlur stdDeviation="7.63294" result="effect1_foregroundBlur"/>
</filter>
<linearGradient id="paint0_linear" x1="-205.07" y1="168.572" x2="322.355" y2="-210.564" gradientUnits="userSpaceOnUse">
<stop stop-color="#DBE2E4"/>
<stop offset="1" stop-color="#F4F4F4"/>
</linearGradient>
<linearGradient id="paint1_linear" x1="345.609" y1="-45.0385" x2="244.167" y2="9.11135" gradientUnits="userSpaceOnUse">
<stop stop-color="#251323"/>
<stop offset="1" stop-color="#62345F"/>
</linearGradient>
<linearGradient id="paint2_linear" x1="331.37" y1="20.9557" x2="197.881" y2="180.534" gradientUnits="userSpaceOnUse">
<stop stop-color="#1E9DD7"/>
<stop offset="1" stop-color="#075D98"/>
</linearGradient>
<linearGradient id="paint3_linear" x1="388.73" y1="45.6747" x2="285.429" y2="108.923" gradientUnits="userSpaceOnUse">
<stop stop-color="#1E9DD7"/>
<stop offset="1" stop-color="#075D98"/>
</linearGradient>
<linearGradient id="paint4_linear" x1="236.45" y1="504.75" x2="283.927" y2="528.775" gradientUnits="userSpaceOnUse">
<stop stop-color="#6088ED"/>
<stop offset="1" stop-color="#3C56C7"/>
</linearGradient>
<linearGradient id="paint5_linear" x1="99.247" y1="439.487" x2="137.84" y2="481.895" gradientUnits="userSpaceOnUse">
<stop stop-color="#6088ED"/>
<stop offset="1" stop-color="#3C56C7"/>
</linearGradient>
<linearGradient id="paint6_linear" x1="279.917" y1="350.734" x2="298.246" y2="292.83" gradientUnits="userSpaceOnUse">
<stop stop-color="#09203F"/>
<stop offset="1" stop-color="#537895"/>
</linearGradient>
<linearGradient id="paint7_linear" x1="253.156" y1="228.474" x2="159.818" y2="326.432" gradientUnits="userSpaceOnUse">
<stop stop-color="#29323C"/>
<stop offset="1" stop-color="#485563"/>
<stop offset="1" stop-color="#485563"/>
</linearGradient>
<linearGradient id="paint8_linear" x1="250.99" y1="285.497" x2="397.873" y2="164.327" gradientUnits="userSpaceOnUse">
<stop stop-color="#09203F"/>
<stop offset="1" stop-color="#537895"/>
</linearGradient>
<linearGradient id="paint9_linear" x1="275.469" y1="286.051" x2="234.863" y2="309.059" gradientUnits="userSpaceOnUse">
<stop stop-color="#29323C"/>
<stop offset="1" stop-color="#485563"/>
</linearGradient>
<linearGradient id="paint10_linear" x1="338.183" y1="-12.7193" x2="284.984" y2="25.064" gradientUnits="userSpaceOnUse">
<stop stop-color="#251323"/>
<stop offset="1" stop-color="#62345F"/>
</linearGradient>
<linearGradient id="paint11_linear" x1="-17.4697" y1="334.171" x2="60.0646" y2="452.751" gradientUnits="userSpaceOnUse">
<stop stop-color="#37ECBA"/>
<stop offset="1" stop-color="#72AFD3"/>
</linearGradient>
<linearGradient id="paint12_linear" x1="31.9512" y1="387.258" x2="75.0814" y2="408.303" gradientUnits="userSpaceOnUse">
<stop stop-color="#C1DFC4"/>
<stop offset="1" stop-color="#DEECDD"/>
</linearGradient>
<linearGradient id="paint13_linear" x1="93.5273" y1="316.259" x2="-10.5699" y2="350.888" gradientUnits="userSpaceOnUse">
<stop stop-color="#37ECBA"/>
<stop offset="1" stop-color="#72AFD3"/>
</linearGradient>
<linearGradient id="paint14_linear" x1="41.3826" y1="401.1" x2="109.242" y2="467.839" gradientUnits="userSpaceOnUse">
<stop stop-color="#C1DFC4"/>
<stop offset="1" stop-color="#DEECDD"/>
</linearGradient>
<linearGradient id="paint15_linear" x1="-40.5002" y1="376.301" x2="19.5582" y2="498.076" gradientUnits="userSpaceOnUse">
<stop stop-color="#37ECBA"/>
<stop offset="1" stop-color="#72AFD3"/>
</linearGradient>
<linearGradient id="paint16_linear" x1="9.76805" y1="427.477" x2="55.4234" y2="488.124" gradientUnits="userSpaceOnUse">
<stop stop-color="#C1DFC4"/>
<stop offset="1" stop-color="#DEECDD"/>
</linearGradient>
<linearGradient id="paint17_linear" x1="91.3786" y1="508.941" x2="60.5138" y2="473.793" gradientUnits="userSpaceOnUse">
<stop stop-color="#A1C4FD"/>
<stop offset="1" stop-color="#C2E9FB"/>
</linearGradient>
<clipPath id="clip0">
<rect width="453.891" height="528.503" fill="white" transform="translate(0.81543 0.949463)"/>
</clipPath>
</defs>
</svg>
