<svg width="300" height="300" viewBox="0 0 300 300" fill="none" xmlns="http://www.w3.org/2000/svg">
<circle cx="150" cy="150" r="150" fill="url(#paint0_linear)"/>
<mask id="mask0" mask-type="alpha" maskUnits="userSpaceOnUse" x="0" y="0" width="300" height="300">
<circle cx="150" cy="150" r="150" fill="white"/>
</mask>
<g mask="url(#mask0)">
<path d="M160.864 49.705C156.864 32.205 175.831 18.7759 195.364 27.9947C241.364 49.705 214.672 82.205 198.172 78.705C181.672 75.205 164.864 67.205 160.864 49.705Z" fill="url(#paint1_linear)"/>
<path d="M172 160C150.517 170.321 147.383 169.768 100 131C28.5002 72.5 96.0002 19 168.5 47.5C247 82 220.701 136.605 172 160Z" fill="url(#paint2_linear)"/>
<path fill-rule="evenodd" clip-rule="evenodd" d="M174 201C166.667 217 157.333 225 150 225C142.667 225 133.333 217 126 201V181C126 181 122.738 181.096 120.5 181C97.1108 179.998 89.2947 142.373 92.9653 104.738C95.6533 77.1761 119 115 157 88.5C155.5 117.5 168 114.5 173.5 111C198.5 99.5 199 146.5 174.291 142.858C174.301 143.358 174.204 162.739 174 201Z" fill="url(#paint3_linear)"/>
<path d="M126 181C135 180.333 146.211 175.3 159.634 165.899C155.521 180.064 144.31 188.431 126 191L126 181Z" fill="#FF9768"/>
<path fill-rule="evenodd" clip-rule="evenodd" d="M117.732 206.817C117.732 206.817 119.241 196.4 122.779 195.508C126.317 194.615 146.995 194.508 147.014 198.508C147.017 199.242 147.725 207.111 150.083 207.111C152.442 207.111 153.048 199.242 153.051 198.508C153.07 194.508 173.628 194.662 177.286 195.508C180.943 196.353 182.317 206.83 182.317 206.83C182.317 206.83 236.315 232.257 242 243.111C246.889 252.444 250.556 274.111 253 308.111H47C49.4444 274.111 53.1111 252.444 58 243.111C63.6828 232.262 117.732 206.817 117.732 206.817Z" fill="url(#paint4_linear)"/>
<path fill-rule="evenodd" clip-rule="evenodd" d="M154 235C154 237.209 152.209 239 150 239C147.791 239 146 237.209 146 235C146 232.791 147.791 231 150 231C152.209 231 154 232.791 154 235ZM154 255C154 257.209 152.209 259 150 259C147.791 259 146 257.209 146 255C146 252.791 147.791 251 150 251C152.209 251 154 252.791 154 255ZM150 279C152.209 279 154 277.209 154 275C154 272.791 152.209 271 150 271C147.791 271 146 272.791 146 275C146 277.209 147.791 279 150 279Z" fill="#664F4D"/>
<path d="M160.59 79.4278C144.59 119.428 153.59 138.928 166.09 162.428C178.59 185.928 163.09 207.928 163.09 207.928C163.09 207.928 181.09 196.428 181.09 170.928C181.09 145.428 163.09 129.428 178.09 108.428C193.09 87.4278 176.59 39.4278 160.59 79.4278Z" fill="url(#paint5_linear)"/>
</g>
<defs>
<linearGradient id="paint0_linear" x1="0" y1="0" x2="0" y2="300" gradientUnits="userSpaceOnUse">
<stop stop-color="#806A6A"/>
<stop offset="1" stop-color="#665654"/>
</linearGradient>
<linearGradient id="paint1_linear" x1="221" y1="25" x2="221" y2="78.9658" gradientUnits="userSpaceOnUse">
<stop stop-color="#1D0024"/>
<stop offset="1" stop-color="#100014"/>
</linearGradient>
<linearGradient id="paint2_linear" x1="69.562" y1="39.6073" x2="69.562" y2="165.683" gradientUnits="userSpaceOnUse">
<stop stop-color="#1D0024"/>
<stop offset="1" stop-color="#100014"/>
</linearGradient>
<linearGradient id="paint3_linear" x1="92.1016" y1="88.5" x2="92.1016" y2="225" gradientUnits="userSpaceOnUse">
<stop stop-color="#F7B186"/>
<stop offset="1" stop-color="#FFC299"/>
</linearGradient>
<linearGradient id="paint4_linear" x1="253" y1="308.111" x2="253" y2="195" gradientUnits="userSpaceOnUse">
<stop stop-color="#FCF2EB"/>
<stop offset="1" stop-color="#FFF9F5"/>
</linearGradient>
<linearGradient id="paint5_linear" x1="183.984" y1="64" x2="183.984" y2="207.928" gradientUnits="userSpaceOnUse">
<stop stop-color="#1D0024"/>
<stop offset="1" stop-color="#100014"/>
</linearGradient>
</defs>
</svg>
