<svg width="194" height="70" viewBox="0 0 194 70" fill="none" xmlns="http://www.w3.org/2000/svg">
<path d="M0 35C0 15.67 15.67 0 35 0H159C178.33 0 194 15.67 194 35C194 54.33 178.33 70 159 70H35C15.67 70 0 54.33 0 35Z" fill="#C4C4C4" fill-opacity="0.5"/>
<path d="M11.992 25.2H15.88V38.832H24.304V42H11.992V25.2ZM31.561 28.896C33.561 28.896 35.097 29.376 36.169 30.336C37.241 31.28 37.777 32.712 37.777 34.632V42H34.273V40.392C33.569 41.592 32.257 42.192 30.337 42.192C29.345 42.192 28.481 42.024 27.745 41.688C27.025 41.352 26.473 40.888 26.089 40.296C25.705 39.704 25.513 39.032 25.513 38.28C25.513 37.08 25.961 36.136 26.857 35.448C27.769 34.76 29.169 34.416 31.057 34.416H34.033C34.033 33.6 33.785 32.976 33.289 32.544C32.793 32.096 32.049 31.872 31.057 31.872C30.369 31.872 29.689 31.984 29.017 32.208C28.361 32.416 27.801 32.704 27.337 33.072L25.993 30.456C26.697 29.96 27.537 29.576 28.513 29.304C29.505 29.032 30.521 28.896 31.561 28.896ZM31.273 39.672C31.913 39.672 32.481 39.528 32.977 39.24C33.473 38.936 33.825 38.496 34.033 37.92V36.6H31.465C29.929 36.6 29.161 37.104 29.161 38.112C29.161 38.592 29.345 38.976 29.713 39.264C30.097 39.536 30.617 39.672 31.273 39.672ZM44.7415 30.792C45.1895 30.168 45.7895 29.696 46.5415 29.376C47.3095 29.056 48.1895 28.896 49.1815 28.896V32.352C48.7655 32.32 48.4855 32.304 48.3415 32.304C47.2695 32.304 46.4295 32.608 45.8215 33.216C45.2135 33.808 44.9095 34.704 44.9095 35.904V42H41.1655V29.088H44.7415V30.792ZM51.4077 29.088H55.1517V42H51.4077V29.088ZM53.2797 27.288C52.5917 27.288 52.0317 27.088 51.5997 26.688C51.1677 26.288 50.9517 25.792 50.9517 25.2C50.9517 24.608 51.1677 24.112 51.5997 23.712C52.0317 23.312 52.5917 23.112 53.2797 23.112C53.9677 23.112 54.5277 23.304 54.9597 23.688C55.3917 24.072 55.6077 24.552 55.6077 25.128C55.6077 25.752 55.3917 26.272 54.9597 26.688C54.5277 27.088 53.9677 27.288 53.2797 27.288ZM62.9704 42.192C61.8984 42.192 60.8504 42.064 59.8264 41.808C58.8024 41.536 57.9864 41.2 57.3784 40.8L58.6264 38.112C59.2024 38.48 59.8984 38.784 60.7144 39.024C61.5304 39.248 62.3304 39.36 63.1144 39.36C64.6984 39.36 65.4904 38.968 65.4904 38.184C65.4904 37.816 65.2744 37.552 64.8424 37.392C64.4104 37.232 63.7464 37.096 62.8504 36.984C61.7944 36.824 60.9224 36.64 60.2344 36.432C59.5464 36.224 58.9464 35.856 58.4344 35.328C57.9384 34.8 57.6904 34.048 57.6904 33.072C57.6904 32.256 57.9224 31.536 58.3864 30.912C58.8664 30.272 59.5544 29.776 60.4504 29.424C61.3624 29.072 62.4344 28.896 63.6664 28.896C64.5784 28.896 65.4824 29 66.3784 29.208C67.2904 29.4 68.0424 29.672 68.6344 30.024L67.3864 32.688C66.2504 32.048 65.0104 31.728 63.6664 31.728C62.8664 31.728 62.2664 31.84 61.8664 32.064C61.4664 32.288 61.2664 32.576 61.2664 32.928C61.2664 33.328 61.4824 33.608 61.9144 33.768C62.3464 33.928 63.0344 34.08 63.9784 34.224C65.0344 34.4 65.8984 34.592 66.5704 34.8C67.2424 34.992 67.8264 35.352 68.3224 35.88C68.8184 36.408 69.0664 37.144 69.0664 38.088C69.0664 38.888 68.8264 39.6 68.3464 40.224C67.8664 40.848 67.1624 41.336 66.2344 41.688C65.3224 42.024 64.2344 42.192 62.9704 42.192ZM75.7204 42.192C74.6484 42.192 73.6004 42.064 72.5764 41.808C71.5524 41.536 70.7364 41.2 70.1284 40.8L71.3764 38.112C71.9524 38.48 72.6484 38.784 73.4644 39.024C74.2804 39.248 75.0804 39.36 75.8644 39.36C77.4484 39.36 78.2404 38.968 78.2404 38.184C78.2404 37.816 78.0244 37.552 77.5924 37.392C77.1604 37.232 76.4964 37.096 75.6004 36.984C74.5444 36.824 73.6724 36.64 72.9844 36.432C72.2964 36.224 71.6964 35.856 71.1844 35.328C70.6884 34.8 70.4404 34.048 70.4404 33.072C70.4404 32.256 70.6724 31.536 71.1364 30.912C71.6164 30.272 72.3044 29.776 73.2004 29.424C74.1124 29.072 75.1844 28.896 76.4164 28.896C77.3284 28.896 78.2324 29 79.1284 29.208C80.0404 29.4 80.7924 29.672 81.3844 30.024L80.1364 32.688C79.0004 32.048 77.7604 31.728 76.4164 31.728C75.6164 31.728 75.0164 31.84 74.6164 32.064C74.2164 32.288 74.0164 32.576 74.0164 32.928C74.0164 33.328 74.2324 33.608 74.6644 33.768C75.0964 33.928 75.7844 34.08 76.7284 34.224C77.7844 34.4 78.6484 34.592 79.3204 34.8C79.9924 34.992 80.5764 35.352 81.0724 35.88C81.5684 36.408 81.8164 37.144 81.8164 38.088C81.8164 38.888 81.5764 39.6 81.0964 40.224C80.6164 40.848 79.9124 41.336 78.9844 41.688C78.0724 42.024 76.9844 42.192 75.7204 42.192ZM89.3344 28.896C91.3344 28.896 92.8704 29.376 93.9424 30.336C95.0144 31.28 95.5504 32.712 95.5504 34.632V42H92.0464V40.392C91.3424 41.592 90.0304 42.192 88.1104 42.192C87.1184 42.192 86.2544 42.024 85.5184 41.688C84.7984 41.352 84.2464 40.888 83.8624 40.296C83.4784 39.704 83.2864 39.032 83.2864 38.28C83.2864 37.08 83.7344 36.136 84.6304 35.448C85.5424 34.76 86.9424 34.416 88.8304 34.416H91.8064C91.8064 33.6 91.5584 32.976 91.0624 32.544C90.5664 32.096 89.8224 31.872 88.8304 31.872C88.1424 31.872 87.4624 31.984 86.7904 32.208C86.1344 32.416 85.5744 32.704 85.1104 33.072L83.7664 30.456C84.4704 29.96 85.3104 29.576 86.2864 29.304C87.2784 29.032 88.2944 28.896 89.3344 28.896ZM89.0464 39.672C89.6864 39.672 90.2544 39.528 90.7504 39.24C91.2464 38.936 91.5984 38.496 91.8064 37.92V36.6H89.2384C87.7024 36.6 86.9344 37.104 86.9344 38.112C86.9344 38.592 87.1184 38.976 87.4864 39.264C87.8704 39.536 88.3904 39.672 89.0464 39.672Z" fill="#03658C"/>
<path d="M189.624 34.9239C190.017 35.3122 190.02 35.9453 189.632 36.3381L182.588 43.4622C182.316 43.7373 181.873 43.7396 181.598 43.4675L174.4 36.3408C174.008 35.9523 174.005 35.3191 174.393 34.9266L174.914 34.4006C175.303 34.0081 175.936 34.005 176.329 34.3937L182.074 40.0852L187.683 34.4114C188.071 34.0186 188.704 34.0149 189.097 34.4033L189.624 34.9239Z" fill="#03658C"/>
<path d="M182.074 40.0852L181.722 40.4404L182.078 40.7926L182.43 40.4367L182.074 40.0852ZM174.914 34.4006L175.27 34.7524L174.914 34.4006ZM176.329 34.3937L175.977 34.749L176.329 34.3937ZM174.4 36.3408L174.049 36.6961L174.4 36.3408ZM174.393 34.9266L174.038 34.5748L174.393 34.9266ZM182.588 43.4622L182.944 43.8138L182.588 43.4622ZM181.598 43.4675L181.949 43.1122L181.598 43.4675ZM187.683 34.4114L187.327 34.0599L187.683 34.4114ZM189.097 34.4033L188.746 34.7588L189.097 34.4033ZM189.632 36.3381L189.276 35.9865L189.632 36.3381ZM189.624 34.9239L189.975 34.5683L189.624 34.9239ZM189.276 35.9865L182.232 43.1107L182.944 43.8138L189.987 36.6896L189.276 35.9865ZM181.949 43.1122L174.752 35.9856L174.049 36.6961L181.246 43.8228L181.949 43.1122ZM174.749 35.2785L175.27 34.7524L174.559 34.0488L174.038 34.5748L174.749 35.2785ZM175.977 34.749L181.722 40.4404L182.426 39.73L176.681 34.0385L175.977 34.749ZM182.43 40.4367L188.039 34.7629L187.327 34.0599L181.719 39.7337L182.43 40.4367ZM188.746 34.7588L189.272 35.2794L189.975 34.5683L189.449 34.0477L188.746 34.7588ZM175.27 34.7524C175.464 34.5561 175.781 34.5546 175.977 34.749L176.681 34.0385C176.092 33.4554 175.142 33.46 174.559 34.0488L175.27 34.7524ZM174.752 35.9856C174.556 35.7913 174.554 35.4747 174.749 35.2785L174.038 34.5748C173.455 35.1635 173.46 36.1132 174.049 36.6961L174.752 35.9856ZM182.232 43.1107C182.155 43.1893 182.028 43.1899 181.949 43.1122L181.246 43.8228C181.717 44.2893 182.477 44.2853 182.944 43.8138L182.232 43.1107ZM188.039 34.7629C188.233 34.5665 188.549 34.5647 188.746 34.7588L189.449 34.0477C188.86 33.4652 187.91 33.4707 187.327 34.0599L188.039 34.7629ZM189.987 36.6896C190.57 36.1005 190.564 35.1508 189.975 34.5683L189.272 35.2794C189.469 35.4736 189.47 35.7902 189.276 35.9865L189.987 36.6896Z" fill="#03658C"/>
<circle cx="131.5" cy="35.5" r="32.5" fill="url(#paint0_linear)"/>
<mask id="mask0" mask-type="alpha" maskUnits="userSpaceOnUse" x="99" y="3" width="65" height="65">
<circle cx="131.5" cy="35.5" r="32.5" fill="white"/>
</mask>
<g mask="url(#mask0)">
<path d="M133.853 13.7694C132.986 9.97773 137.096 7.0681 141.328 9.06551C151.295 13.7694 145.511 20.8111 141.936 20.0527C138.361 19.2944 134.72 17.5611 133.853 13.7694Z" fill="url(#paint1_linear)"/>
<path d="M136.266 37.6666C131.611 39.9027 130.932 39.783 120.666 31.3833C105.175 18.7083 119.8 7.11663 135.508 13.2916C152.516 20.7666 146.818 32.5977 136.266 37.6666Z" fill="url(#paint2_linear)"/>
<path fill-rule="evenodd" clip-rule="evenodd" d="M136.7 46.55C135.111 50.0167 133.089 51.75 131.5 51.75C129.911 51.75 127.889 50.0167 126.3 46.55V42.2167C126.3 42.2167 125.593 42.2374 125.109 42.2167C120.041 41.9995 118.347 33.8475 119.143 25.6932C119.725 19.7215 124.784 27.9167 133.017 22.175C132.692 28.4583 135.4 27.8083 136.592 27.05C142.009 24.5583 142.117 34.7417 136.763 33.9525C136.765 34.0609 136.744 38.2601 136.7 46.55Z" fill="url(#paint3_linear)"/>
<path d="M126.3 42.2167C128.25 42.0722 130.679 40.9816 133.587 38.9449C132.696 42.0139 130.267 43.8267 126.3 44.3833L126.3 42.2167Z" fill="#FF9768"/>
<path fill-rule="evenodd" clip-rule="evenodd" d="M124.508 47.8103C124.508 47.8103 124.835 45.5534 125.602 45.36C126.368 45.1666 130.849 45.1434 130.853 46.01C130.853 46.1691 131.007 47.8741 131.518 47.8741C132.029 47.8741 132.16 46.169 132.161 46.01C132.165 45.1434 136.619 45.1768 137.412 45.36C138.204 45.5432 138.502 47.8131 138.502 47.8131C138.502 47.8131 150.201 53.3224 151.433 55.6741C152.492 57.6963 153.287 62.3907 153.816 69.7574H109.183C109.713 62.3907 110.507 57.6963 111.566 55.6741C112.798 53.3235 124.508 47.8103 124.508 47.8103Z" fill="url(#paint4_linear)"/>
<path fill-rule="evenodd" clip-rule="evenodd" d="M132.366 53.9167C132.366 54.3953 131.978 54.7833 131.499 54.7833C131.02 54.7833 130.632 54.3953 130.632 53.9167C130.632 53.438 131.02 53.05 131.499 53.05C131.978 53.05 132.366 53.438 132.366 53.9167ZM132.366 58.2499C132.366 58.7286 131.978 59.1166 131.499 59.1166C131.021 59.1166 130.632 58.7286 130.632 58.2499C130.632 57.7713 131.021 57.3833 131.499 57.3833C131.978 57.3833 132.366 57.7713 132.366 58.2499ZM131.499 63.45C131.978 63.45 132.366 63.062 132.366 62.5834C132.366 62.1047 131.978 61.7167 131.499 61.7167C131.021 61.7167 130.632 62.1047 130.632 62.5834C130.632 63.062 131.021 63.45 131.499 63.45Z" fill="#664F4D"/>
<path d="M133.795 20.2094C130.328 28.8761 132.278 33.1011 134.986 38.1928C137.695 43.2844 134.336 48.0511 134.336 48.0511C134.336 48.0511 138.236 45.5594 138.236 40.0344C138.236 34.5094 134.336 31.0428 137.586 26.4928C140.836 21.9428 137.261 11.5428 133.795 20.2094Z" fill="url(#paint5_linear)"/>
</g>
<defs>
<linearGradient id="paint0_linear" x1="99" y1="3" x2="99" y2="68" gradientUnits="userSpaceOnUse">
<stop stop-color="#806A6A"/>
<stop offset="1" stop-color="#665654"/>
</linearGradient>
<linearGradient id="paint1_linear" x1="146.882" y1="8.41666" x2="146.882" y2="20.1093" gradientUnits="userSpaceOnUse">
<stop stop-color="#1D0024"/>
<stop offset="1" stop-color="#100014"/>
</linearGradient>
<linearGradient id="paint2_linear" x1="114.071" y1="11.5815" x2="114.071" y2="38.898" gradientUnits="userSpaceOnUse">
<stop stop-color="#1D0024"/>
<stop offset="1" stop-color="#100014"/>
</linearGradient>
<linearGradient id="paint3_linear" x1="118.956" y1="22.175" x2="118.956" y2="51.75" gradientUnits="userSpaceOnUse">
<stop stop-color="#F7B186"/>
<stop offset="1" stop-color="#FFC299"/>
</linearGradient>
<linearGradient id="paint4_linear" x1="153.816" y1="69.7574" x2="153.816" y2="45.25" gradientUnits="userSpaceOnUse">
<stop stop-color="#FCF2EB"/>
<stop offset="1" stop-color="#FFF9F5"/>
</linearGradient>
<linearGradient id="paint5_linear" x1="138.863" y1="16.8667" x2="138.863" y2="48.0511" gradientUnits="userSpaceOnUse">
<stop stop-color="#1D0024"/>
<stop offset="1" stop-color="#100014"/>
</linearGradient>
</defs>
</svg>
